<svg xmlns="http://www.w3.org/2000/svg" viewBox="0 0 595.3 768.3"><g id="Layer_2" data-name="Layer 2"><g id="Layer_1-2" data-name="Layer 1"><rect width="595.3" height="768.34" style="fill:#fff"/><rect x="181.4" y="42.8" width="232.4" height="47.14" rx="23.6" style="fill:#e6e7e8"/><rect x="83.2" y="170.9" width="428.8" height="12.71" rx="6.4" style="fill:#d1d3d4"/><rect x="83.2" y="131.8" width="428.8" height="12.71" rx="6.4" style="fill:#d1d3d4"/><rect x="83.2" y="209" width="307.4" height="12.71" rx="5.4" style="fill:#d1d3d4"/><rect y="301" width="595.3" height="467.37" style="fill:#e6e7e8"/><rect x="83.2" y="375.2" width="194.4" height="189.04" rx="11.9" style="fill:#a7a9ac"/><rect x="83.2" y="605.1" width="194.4" height="12.71" rx="4.3" style="fill:#bcbec0"/><rect x="83.2" y="643.3" width="194.4" height="12.71" rx="4.3" style="fill:#bcbec0"/><rect x="83.2" y="681.4" width="142.2" height="12.71" rx="4.3" style="fill:#bcbec0"/><rect x="317.6" y="375.2" width="194.4" height="189.04" rx="11.9" style="fill:#a7a9ac"/><rect x="317.6" y="605.1" width="194.4" height="12.71" rx="4.3" style="fill:#bcbec0"/><rect x="317.6" y="643.3" width="194.4" height="12.71" rx="4.3" style="fill:#bcbec0"/><rect x="317.6" y="681.4" width="142.2" height="12.71" rx="4.3" style="fill:#bcbec0"/></g></g></svg>