<svg xmlns="http://www.w3.org/2000/svg" viewBox="0 0 595.3 768.3"><g id="Layer_2" data-name="Layer 2"><g id="Layer_1-2" data-name="Layer 1"><rect width="595.3" height="768.34" style="fill:#fff"/><rect x="181.4" y="42.8" width="232.4" height="47.14" rx="23.6" style="fill:#e6e7e8"/><rect x="83.2" y="191.2" width="428.8" height="12.71" rx="6.4" style="fill:#d1d3d4"/><rect x="83.2" y="152.1" width="428.8" height="12.71" rx="6.4" style="fill:#d1d3d4"/><rect x="83.2" y="229.3" width="307.4" height="12.71" rx="5.4" style="fill:#d1d3d4"/><rect y="301" width="595.3" height="467.37" style="fill:#e6e7e8"/><rect x="73.9" y="600.6" width="104.5" height="12.71" rx="3.1" style="fill:#bcbec0"/><rect x="88" y="638.7" width="76.4" height="12.71" rx="3.1" style="fill:#bcbec0"/><path d="M177.7,453.3l-24.1-21.2a5.9,5.9,0,0,0-4-1.5H109.9a6,6,0,0,0-4,1.5L81.8,453.2a1.9,1.9,0,0,0-.3,2.6l11.2,15.4a1.9,1.9,0,0,0,1.5.8,2,2,0,0,0,1.6-.7l4.3-5.1-.3,39.5a1.9,1.9,0,0,0,.5,1.3,2,2,0,0,0,1.4.6h56.1a2,2,0,0,0,2-1.9l-.3-39.5,4.3,5.1a1.8,1.8,0,0,0,1.5.7,1.9,1.9,0,0,0,1.5-.8L178,455.8A1.8,1.8,0,0,0,177.7,453.3ZM144,434.4a14.9,14.9,0,0,1-14.2,11.4,15.1,15.1,0,0,1-10.4-4.4,14.3,14.3,0,0,1-3.9-7ZM165.1,467l-6.1-7.4a2,2,0,0,0-2.2-.5,1.9,1.9,0,0,0-1.2,1.8l.3,42.9H103.6l.3-42.9a1.6,1.6,0,0,0-1.2-1.8,1.8,1.8,0,0,0-2.1.5L94.4,467l-8.8-12,22.9-20a2,2,0,0,1,1.4-.6h1.7a18.6,18.6,0,0,0,18.2,15.2,18.2,18.2,0,0,0,13-5.5,17.3,17.3,0,0,0,5.1-9.7h1.7a2.2,2.2,0,0,1,1.5.6l22.8,20Z" style="fill:#a7a9ac;stroke:#a7a9ac;stroke-miterlimit:10;stroke-width:2.8967519438521947px"/><path d="M126.2,586.3V580a18.5,18.5,0,0,1-9.6-2.8l1.5-4.1a16.8,16.8,0,0,0,9,2.6c4.4,0,7.4-2.5,7.4-6.1s-2.4-5.5-7-7.4c-6.4-2.5-10.3-5.3-10.3-10.7s3.7-9.1,9.4-10.1v-6.2h3.9v6a16.3,16.3,0,0,1,8.1,2.2l-1.6,4.1a14.7,14.7,0,0,0-7.9-2.1c-4.7,0-6.5,2.8-6.5,5.3s2.3,4.9,7.7,7.1,9.6,5.9,9.6,11.4-3.4,9.5-9.8,10.6v6.5Z" style="fill:#808285"/><rect x="186.6" y="600.6" width="104.5" height="12.71" rx="3.1" style="fill:#bcbec0"/><rect x="200.7" y="638.7" width="76.4" height="12.71" rx="3.1" style="fill:#bcbec0"/><path d="M290.5,453.3l-24.2-21.2a5.9,5.9,0,0,0-4-1.5H222.7a6.3,6.3,0,0,0-4.1,1.5l-24.1,21.1a2,2,0,0,0-.3,2.6l11.3,15.4a1.7,1.7,0,0,0,1.4.8,2,2,0,0,0,1.6-.7l4.3-5.1-.3,39.5a2.1,2.1,0,0,0,1.9,1.9h56.1a2,2,0,0,0,2-1.9l-.3-39.5,4.3,5.1a1.8,1.8,0,0,0,1.5.7,1.8,1.8,0,0,0,1.5-.8l11.2-15.4A1.8,1.8,0,0,0,290.5,453.3Zm-33.8-18.9a13.6,13.6,0,0,1-3.9,7,14.3,14.3,0,0,1-10.3,4.4,14.7,14.7,0,0,1-10.3-4.4,13.7,13.7,0,0,1-4-7ZM277.9,467l-6.2-7.4a1.9,1.9,0,0,0-2.1-.5,1.8,1.8,0,0,0-1.3,1.8l.3,42.9H216.3l.4-42.9a1.8,1.8,0,0,0-1.3-1.8,1.9,1.9,0,0,0-2.1.5l-6.2,7.4-8.8-12,22.9-20a2,2,0,0,1,1.5-.6h1.6a18.6,18.6,0,0,0,18.2,15.2,18.9,18.9,0,0,0,18.2-15.2h1.6a2,2,0,0,1,1.5.6l22.8,20Z" style="fill:#a7a9ac;stroke:#a7a9ac;stroke-miterlimit:10;stroke-width:2.8967519438521947px"/><path d="M238.9,586.3V580a18.5,18.5,0,0,1-9.6-2.8l1.5-4.1a16.8,16.8,0,0,0,9,2.6c4.4,0,7.4-2.5,7.4-6.1s-2.4-5.5-7-7.4c-6.4-2.5-10.3-5.3-10.3-10.7s3.7-9.1,9.4-10.1v-6.2h3.9v6a16,16,0,0,1,8.1,2.2l-1.6,4.1a14.6,14.6,0,0,0-7.8-2.1c-4.8,0-6.6,2.8-6.6,5.3s2.3,4.9,7.7,7.1,9.6,5.9,9.6,11.4-3.4,9.5-9.8,10.6v6.5Z" style="fill:#808285"/><rect x="302.9" y="600.6" width="104.5" height="12.71" rx="3.1" style="fill:#bcbec0"/><rect x="317" y="638.7" width="76.4" height="12.71" rx="3.1" style="fill:#bcbec0"/><path d="M406.8,453.3l-24.2-21.2a5.9,5.9,0,0,0-4-1.5H339a5.9,5.9,0,0,0-4,1.5l-24.2,21.1a2.1,2.1,0,0,0-.3,2.6l11.3,15.4a1.8,1.8,0,0,0,1.5.8,1.8,1.8,0,0,0,1.5-.7l4.3-5.1-.3,39.5a2.1,2.1,0,0,0,1.9,1.9h56.2a2,2,0,0,0,1.9-1.9l-.3-39.5,4.3,5.1a2,2,0,0,0,1.6.7,1.7,1.7,0,0,0,1.4-.8l11.3-15.4A1.9,1.9,0,0,0,406.8,453.3Zm-33.7-18.9a13.7,13.7,0,0,1-4,7,14.3,14.3,0,0,1-10.3,4.4,14.7,14.7,0,0,1-10.3-4.4,13.6,13.6,0,0,1-3.9-7ZM394.2,467l-6.2-7.4a1.9,1.9,0,0,0-2.1-.5,1.8,1.8,0,0,0-1.3,1.8l.3,42.9H332.7l.3-42.9a1.8,1.8,0,0,0-1.3-1.8,1.9,1.9,0,0,0-2.1.5l-6.2,7.4-8.7-12,22.8-20a2,2,0,0,1,1.5-.6h1.6a18.9,18.9,0,0,0,18.2,15.2A18.6,18.6,0,0,0,377,434.4h1.6a2,2,0,0,1,1.5.6l22.8,20Z" style="fill:#a7a9ac;stroke:#a7a9ac;stroke-miterlimit:10;stroke-width:2.8967519438521947px"/><path d="M355.2,586.3V580a18.1,18.1,0,0,1-9.5-2.8l1.5-4.1a16.4,16.4,0,0,0,8.9,2.6c4.5,0,7.4-2.5,7.4-6.1s-2.4-5.5-7-7.4c-6.3-2.5-10.3-5.3-10.3-10.7s3.7-9.1,9.4-10.1v-6.2h3.9v6a16,16,0,0,1,8.1,2.2l-1.6,4.1a14.3,14.3,0,0,0-7.8-2.1c-4.8,0-6.6,2.8-6.6,5.3s2.3,4.9,7.7,7.1,9.7,5.9,9.7,11.4-3.5,9.5-9.9,10.6v6.5Z" style="fill:#808285"/><rect x="416.9" y="600.6" width="104.5" height="12.71" rx="3.1" style="fill:#bcbec0"/><rect x="431" y="638.7" width="76.4" height="12.71" rx="3.1" style="fill:#bcbec0"/><path d="M520.7,453.3l-24.1-21.2a5.9,5.9,0,0,0-4-1.5H452.9a5.9,5.9,0,0,0-4,1.5l-24.1,21.1a1.9,1.9,0,0,0-.3,2.6l11.2,15.4a1.9,1.9,0,0,0,1.5.8,1.7,1.7,0,0,0,1.5-.7l4.4-5.1-.3,39.5a1.9,1.9,0,0,0,.5,1.3,2,2,0,0,0,1.4.6h56.1a1.9,1.9,0,0,0,1.9-1.9l-.3-39.5,4.4,5.1a1.7,1.7,0,0,0,1.5.7,1.9,1.9,0,0,0,1.5-.8L521,455.8A1.8,1.8,0,0,0,520.7,453.3ZM487,434.4a14.3,14.3,0,0,1-3.9,7,14.5,14.5,0,0,1-10.4,4.4,14.9,14.9,0,0,1-10.3-4.4,14.3,14.3,0,0,1-3.9-7ZM508.1,467l-6.1-7.4a2,2,0,0,0-2.2-.5,1.9,1.9,0,0,0-1.2,1.8l.3,42.9H446.6l.3-42.9a1.9,1.9,0,0,0-1.2-1.8,2,2,0,0,0-2.2.5l-6.1,7.4-8.8-12,22.8-20a2.2,2.2,0,0,1,1.5-.6h1.7a18,18,0,0,0,5.1,9.7,18.2,18.2,0,0,0,13,5.5,18.6,18.6,0,0,0,18.2-15.2h1.7a2.4,2.4,0,0,1,1.5.6l22.8,20Z" style="fill:#a7a9ac;stroke:#a7a9ac;stroke-miterlimit:10;stroke-width:2.8967519438521947px"/><path d="M469.1,586.3V580a18.1,18.1,0,0,1-9.5-2.8l1.5-4.1a16.5,16.5,0,0,0,9,2.6c4.4,0,7.4-2.5,7.4-6.1s-2.4-5.5-7.1-7.4c-6.3-2.5-10.2-5.3-10.2-10.7s3.6-9.1,9.4-10.1v-6.2h3.8v6a15.7,15.7,0,0,1,8.1,2.2l-1.5,4.1a14.7,14.7,0,0,0-7.9-2.1c-4.8,0-6.6,2.8-6.6,5.3s2.3,4.9,7.7,7.1,9.7,5.9,9.7,11.4-3.4,9.5-9.8,10.6v6.5Z" style="fill:#808285"/></g></g></svg>