<svg xmlns="http://www.w3.org/2000/svg" viewBox="0 0 595.3 768.3"><g id="Layer_2" data-name="Layer 2"><g id="Layer_1-2" data-name="Layer 1"><rect width="595.3" height="768.34" style="fill:#fff"/><rect x="181.4" y="42.8" width="232.4" height="47.14" rx="23.6" style="fill:#e6e7e8"/><rect x="83.2" y="170.9" width="428.8" height="12.71" rx="6.4" style="fill:#d1d3d4"/><rect x="83.2" y="131.8" width="428.8" height="12.71" rx="6.4" style="fill:#d1d3d4"/><rect x="83.2" y="209" width="307.4" height="12.71" rx="5.4" style="fill:#d1d3d4"/><rect y="279.3" width="595.3" height="489.05" style="fill:#e6e7e8"/><rect x="83.2" y="351.5" width="125.9" height="122.95" rx="7.7" style="fill:#a7a9ac"/><rect x="83.2" y="501.6" width="433.3" height="12.71" rx="6.4" style="fill:#bcbec0"/><rect x="83.2" y="539.7" width="316.9" height="12.71" rx="6.4" style="fill:#bcbec0"/><rect x="234.7" y="351.5" width="125.9" height="122.95" rx="7.7" style="fill:#a7a9ac"/><rect x="390.6" y="351.5" width="125.9" height="122.95" rx="7.7" style="fill:#a7a9ac"/><rect x="81" y="589.5" width="125.9" height="122.95" rx="7.7" style="fill:#a7a9ac"/><rect x="232.4" y="589.5" width="125.9" height="122.95" rx="7.7" style="fill:#a7a9ac"/><rect x="388.4" y="589.5" width="125.9" height="122.95" rx="7.7" style="fill:#a7a9ac"/></g></g></svg>