<svg xmlns="http://www.w3.org/2000/svg" viewBox="0 0 537 301.2"><g id="Layer_2" data-name="Layer 2"><g id="Layer_1-2" data-name="Layer 1"><rect x="210" y="4" width="323" height="195" rx="22.5" style="fill:none;stroke:#000;stroke-linecap:round;stroke-linejoin:round;stroke-width:8px"/><line x1="4" y1="267" x2="118.4" y2="219.3" style="fill:none;stroke:#000;stroke-linecap:round;stroke-linejoin:round;stroke-width:8px"/><line x1="47.7" y1="284.5" x2="100.7" y2="262.3" style="fill:none;stroke:#000;stroke-linecap:round;stroke-linejoin:round;stroke-width:8px"/><path d="M416,171h71.9A13.1,13.1,0,0,0,501,157.9V44.1A13.1,13.1,0,0,0,487.9,31H252.1A13.1,13.1,0,0,0,239,44.1V94" style="fill:#e6e6e6;stroke:#000;stroke-miterlimit:10;stroke-width:8px;stroke-dasharray:35,14"/><path d="M356,234h46.9A13.1,13.1,0,0,0,416,220.9V107.1A13.1,13.1,0,0,0,402.9,94H167.1A13.1,13.1,0,0,0,154,107.1V220.9A13.1,13.1,0,0,0,167.1,234H258" style="fill:#999;stroke:#000;stroke-miterlimit:10;stroke-width:8px"/><path d="M264.8,145.8q-4.8,60.6-9.5,121.3a2,2,0,0,0,3,1.9l31-18.9a1.9,1.9,0,0,1,2.7.6l27,45.6a2.1,2.1,0,0,0,2.7.7l51.6-31a2.1,2.1,0,0,0,.7-2.7l-27-44.6a2.1,2.1,0,0,1,.7-2.7l31-19a2,2,0,0,0-.2-3.5L267.6,144.1A2,2,0,0,0,264.8,145.8Z" style="fill:#fff;stroke:#000;stroke-miterlimit:10;stroke-width:8px"/></g></g></svg>