<svg xmlns="http://www.w3.org/2000/svg" viewBox="0 0 96.36 87.96"><defs><style>.cls-1{fill:#edf8fb;}.cls-1,.cls-4,.cls-5{stroke:#a7a9ac;stroke-linecap:round;stroke-linejoin:round;stroke-width:2px;}.cls-2{fill:#9a5d8e;}.cls-3{fill:#fff;}.cls-4{fill:none;}.cls-5{fill:#fdfbe0;}</style></defs><g id="Layer_2" data-name="Layer 2"><g id="Layer_1-2" data-name="Layer 1"><path class="cls-1" d="M8.94,12.63,5,15.11,1,7.05A17.73,17.73,0,0,1,8.44,1.83C11.57.74,12.85,1.4,20.6,1.34c8.06-.07,9.06-.8,12.29.12a19.62,19.62,0,0,1,8.68,5.46L38,15,33.9,12.63l.6,21L8.44,33.35Z"/><path class="cls-1" d="M15.51,1.28a7.06,7.06,0,0,0,1.87,4.15,5.68,5.68,0,0,0,4.34,2c2.82-.19,4.3-3,4.59-3.6a9,9,0,0,0,.89-2.71"/><path class="cls-2" d="M56.52,6h33.3a3.85,3.85,0,0,1,3.82,3.82h0V22.52a3.82,3.82,0,0,1-3.82,3.81H77.89l1.65,4-7.19-4H56.52a3.82,3.82,0,0,1-3.82-3.81h0V9.78A3.85,3.85,0,0,1,56.52,6Z"/><path class="cls-3" d="M55,9.46a1.33,1.33,0,0,1,1-.52,1.2,1.2,0,0,1,1.44,1.2c.52,3.5,1.09,6.43,1.69,8.84l3.65-7a1.61,1.61,0,0,1,1.25-1c.72,0,1.16.4,1.37,1.4A35.48,35.48,0,0,0,67,18.14c.44-4.22,1.17-7.27,2.21-9.16a1.23,1.23,0,0,1,1.09-.73,1.38,1.38,0,0,1,1,.33,1.44,1.44,0,0,1,.52,1,1.38,1.38,0,0,1-.16.8,20.92,20.92,0,0,0-1.6,6,32.91,32.91,0,0,0-.49,6.35,2,2,0,0,1-.2,1.08,1.16,1.16,0,0,1-.88.6,1.81,1.81,0,0,1-1.33-.6,16.52,16.52,0,0,1-3.69-7.07c-1.09,2.13-1.89,3.74-2.41,4.78-1,1.89-1.81,2.85-2.53,2.89-.45,0-.85-.36-1.17-1.16-.84-2.17-1.77-6.39-2.73-12.62A1.65,1.65,0,0,1,55,9.46Zm35.75,2.61a3.83,3.83,0,0,0-2.65-1.93,6.64,6.64,0,0,0-.88-.12,4.49,4.49,0,0,0-3.9,2.49,8.87,8.87,0,0,0-1.28,4.7,6.31,6.31,0,0,0,.8,3.3,3.88,3.88,0,0,0,2.65,1.93,6.57,6.57,0,0,0,.89.12,4.43,4.43,0,0,0,3.89-2.49,8.8,8.8,0,0,0,1.29-4.71,6.19,6.19,0,0,0-.81-3.29ZM88.7,16.69a4.65,4.65,0,0,1-1.25,2.45,1.56,1.56,0,0,1-1.37.52q-.6-.12-1-1.08a4,4,0,0,1-.28-1.53,6.11,6.11,0,0,1,.12-1.2,4.83,4.83,0,0,1,.88-2c.57-.81,1.13-1.17,1.73-1.05.4.08.72.45,1,1.09a4,4,0,0,1,.28,1.53,6.51,6.51,0,0,1-.12,1.24Zm-8.32-4.62a3.85,3.85,0,0,0-2.65-1.93,6.57,6.57,0,0,0-.89-.12A4.48,4.48,0,0,0,73,12.51a9.16,9.16,0,0,0-1.29,4.7,6.22,6.22,0,0,0,.81,3.3,3.86,3.86,0,0,0,2.65,1.93,6.64,6.64,0,0,0,.88.12,4.49,4.49,0,0,0,3.9-2.49,8.88,8.88,0,0,0,1.28-4.71A6.27,6.27,0,0,0,80.38,12.07Zm-2.13,4.62A4.63,4.63,0,0,1,77,19.14a1.6,1.6,0,0,1-1.37.52c-.44-.08-.72-.44-1-1.08a4.71,4.71,0,0,1-.33-1.53,6.11,6.11,0,0,1,.12-1.2,5,5,0,0,1,.89-2c.56-.81,1.12-1.17,1.73-1.05.4.08.72.45,1,1.09a4,4,0,0,1,.28,1.53,4.23,4.23,0,0,1-.08,1.24Z"/><path class="cls-4" d="M8.94,66,5,68.47,1,60.41A17.64,17.64,0,0,1,8.44,55.2c3.13-1.1,4.41-.44,12.16-.5,8.06-.06,9.06-.8,12.29.12a19.62,19.62,0,0,1,8.68,5.46L38,68.35,33.9,66l.6,21L8.44,86.71Z"/><path class="cls-4" d="M15.51,54.64a7.06,7.06,0,0,0,1.87,4.15,5.68,5.68,0,0,0,4.34,2c2.82-.19,4.3-3,4.59-3.6a8.9,8.9,0,0,0,.89-2.71"/><path class="cls-5" d="M62.73,66l-4,2.48-4-8.06a17.64,17.64,0,0,1,7.44-5.21c3.13-1.1,4.41-.44,12.16-.5,8.06-.06,9.06-.8,12.29.12a19.62,19.62,0,0,1,8.68,5.46l-3.6,8.07L87.69,66l.6,21-26.06-.25Z"/><path class="cls-5" d="M69.3,54.64a7.06,7.06,0,0,0,1.87,4.15,5.68,5.68,0,0,0,4.34,2c2.82-.19,4.3-3,4.59-3.6A8.9,8.9,0,0,0,81,54.47"/></g></g></svg>