<svg xmlns="http://www.w3.org/2000/svg" viewBox="0 0 716.38 79.39"><defs><style>.cls-1,.cls-10{fill:#f9f9f9;}.cls-1,.cls-12,.cls-8{stroke:#414042;stroke-miterlimit:10;}.cls-2{fill:#0066b2;}.cls-3{fill:#f9a533;}.cls-4{fill:#fbb231;}.cls-4,.cls-5,.cls-6{fill-rule:evenodd;}.cls-5{fill:#ec1c2e;}.cls-6,.cls-9{fill:#fff;}.cls-7{fill:none;stroke:#fff;stroke-miterlimit:2.61;stroke-width:0.22px;}.cls-8{fill:#3957a7;}.cls-11{fill:#58595b;}.cls-12,.cls-13{fill:#0078a9;}</style></defs><g id="Layer_2" data-name="Layer 2"><g id="Layer_1-2" data-name="Layer 1"><rect class="cls-1" x="0.5" y="0.5" width="125.43" height="78.39" rx="4.18"/><polygon class="cls-2" points="58.22 51.47 52.09 51.47 55.92 27.94 62.05 27.94 58.22 51.47"/><path class="cls-2" d="M46.94,97.42,41.1,113.6l-.69-3.48h0L38.34,99.54a2.61,2.61,0,0,0-2.9-2.12H25.78l-.11.4a22.81,22.81,0,0,1,6.41,2.69L37.4,121h6.39l9.74-23.53Z" transform="translate(0 -69.48)"/><path class="cls-2" d="M95.13,121h5.63l-4.9-23.53H90.93a2.82,2.82,0,0,0-2.83,1.75L79,121h6.39l1.28-3.49h7.79Zm-6.74-8.32,3.22-8.81,1.81,8.81Z" transform="translate(0 -69.48)"/><path class="cls-2" d="M79.44,103.08,80.32,98a17.79,17.79,0,0,0-5.51-1c-3,0-10.27,1.33-10.27,7.79,0,6.08,8.48,6.15,8.48,9.35s-7.6,2.62-10.11.6L62,120a17.11,17.11,0,0,0,6.91,1.33c4.18,0,10.49-2.17,10.49-8.06,0-6.12-8.55-6.69-8.55-9.35S76.82,101.63,79.44,103.08Z" transform="translate(0 -69.48)"/><path class="cls-3" d="M40.41,110.12,38.34,99.54a2.61,2.61,0,0,0-2.9-2.12H25.78l-.11.4a23.73,23.73,0,0,1,9.09,4.56A18.39,18.39,0,0,1,40.41,110.12Z" transform="translate(0 -69.48)"/><rect class="cls-1" x="148.11" y="0.5" width="125.43" height="78.39" rx="4.18"/><polygon class="cls-4" points="225.88 62.2 227.04 62.17 228.19 62.09 229.31 61.94 230.43 61.74 231.51 61.49 232.58 61.19 233.63 60.83 234.66 60.43 235.66 59.98 236.63 59.48 237.57 58.94 238.49 58.35 239.37 57.72 240.22 57.05 241.04 56.35 241.82 55.6 242.57 54.81 243.28 53.99 243.95 53.15 244.58 52.26 245.16 51.35 245.71 50.4 246.2 49.43 246.66 48.43 247.06 47.41 247.41 46.36 247.72 45.29 247.97 44.2 248.16 43.09 248.31 41.96 248.39 40.82 248.42 39.66 248.39 38.5 248.31 37.36 248.16 36.24 247.97 35.14 247.72 34.05 247.41 32.99 247.06 31.94 246.66 30.93 246.2 29.93 245.71 28.96 245.16 28.03 244.58 27.11 243.95 26.23 243.28 25.39 242.57 24.57 241.82 23.78 241.04 23.04 240.22 22.33 239.37 21.67 238.49 21.04 237.57 20.45 236.63 19.91 235.66 19.42 234.66 18.96 233.63 18.56 232.58 18.2 231.51 17.9 230.43 17.65 229.31 17.45 228.19 17.31 227.04 17.23 225.88 17.19 224.72 17.23 223.58 17.31 222.46 17.45 221.35 17.65 220.26 17.9 219.19 18.2 218.15 18.56 217.13 18.96 216.13 19.42 215.17 19.91 214.23 20.45 213.32 21.04 212.44 21.67 211.59 22.33 210.77 23.04 209.99 23.78 209.25 24.57 208.54 25.39 207.87 26.23 207.25 27.11 206.67 28.03 206.13 28.96 205.63 29.93 205.18 30.93 204.78 31.94 204.43 32.99 204.12 34.05 203.87 35.14 203.68 36.24 203.53 37.36 203.45 38.5 203.42 39.66 203.45 40.82 203.53 41.96 203.68 43.09 203.87 44.2 204.12 45.29 204.43 46.36 204.78 47.41 205.18 48.43 205.63 49.43 206.13 50.4 206.67 51.35 207.25 52.26 207.87 53.15 208.54 53.99 209.25 54.81 209.99 55.6 210.77 56.35 211.59 57.05 212.44 57.72 213.32 58.35 214.23 58.94 215.17 59.48 216.13 59.98 217.13 60.43 218.15 60.83 219.19 61.19 220.26 61.49 221.35 61.74 222.46 61.94 223.58 62.09 224.72 62.17 225.88 62.2 225.88 62.2 225.88 62.2"/><polygon class="cls-5" points="195.78 62.2 196.93 62.17 198.07 62.09 199.2 61.94 200.31 61.74 201.39 61.49 202.46 61.19 203.5 60.83 204.53 60.43 205.52 59.98 206.49 59.48 207.43 58.94 208.34 58.35 209.22 57.72 210.07 57.05 210.88 56.35 211.66 55.6 212.41 54.81 213.11 53.99 213.78 53.15 214.4 52.26 214.99 51.35 215.53 50.4 216.03 49.43 216.47 48.43 216.88 47.41 217.22 46.36 217.53 45.29 217.78 44.2 217.98 43.09 218.12 41.96 218.2 40.82 218.24 39.66 218.2 38.5 218.12 37.36 217.98 36.24 217.78 35.14 217.53 34.05 217.22 32.99 216.88 31.94 216.47 30.93 216.03 29.93 215.53 28.96 214.99 28.03 214.4 27.11 213.78 26.23 213.11 25.39 212.41 24.57 211.66 23.78 210.88 23.04 210.07 22.33 209.22 21.67 208.34 21.04 207.43 20.45 206.49 19.91 205.52 19.42 204.53 18.96 203.5 18.56 202.46 18.2 201.39 17.9 200.31 17.65 199.2 17.45 198.07 17.31 196.93 17.23 195.78 17.19 194.61 17.23 193.47 17.31 192.34 17.45 191.23 17.65 190.14 17.9 189.07 18.2 188.02 18.56 187 18.96 186 19.42 185.03 19.91 184.09 20.45 183.17 21.04 182.28 21.67 181.44 22.33 180.62 23.04 179.84 23.78 179.08 24.57 178.38 25.39 177.71 26.23 177.08 27.11 176.49 28.03 175.95 28.96 175.45 29.93 175 30.93 174.6 31.94 174.24 32.99 173.94 34.05 173.69 35.14 173.49 36.24 173.34 37.36 173.26 38.5 173.23 39.66 173.26 40.82 173.34 41.96 173.49 43.09 173.69 44.2 173.94 45.29 174.24 46.36 174.6 47.41 175 48.43 175.45 49.43 175.95 50.4 176.49 51.35 177.08 52.26 177.71 53.15 178.38 53.99 179.08 54.81 179.84 55.6 180.62 56.35 181.44 57.05 182.28 57.72 183.17 58.35 184.09 58.94 185.03 59.48 186 59.98 187 60.43 188.02 60.83 189.07 61.19 190.14 61.49 191.23 61.74 192.34 61.94 193.47 62.09 194.61 62.17 195.78 62.2 195.78 62.2 195.78 62.2"/><polygon class="cls-4" points="208.19 25.83 220.15 25.83 220.15 24.6 209.23 24.6 208.19 25.83 208.19 25.83 208.19 25.83"/><polygon class="cls-4" points="206.4 28.54 220.15 28.54 220.15 27.32 207.12 27.32 206.4 28.54 206.4 28.54 206.4 28.54"/><polygon class="cls-4" points="205.07 31.25 220.15 31.25 220.15 30.03 205.6 30.03 205.07 31.25 205.07 31.25 205.07 31.25"/><polygon class="cls-4" points="204.15 33.97 220.15 33.97 220.15 32.75 204.53 32.75 204.15 33.97 204.15 33.97 204.15 33.97"/><polygon class="cls-4" points="204.68 47.1 220.19 47.1 220.19 45.88 204.3 45.88 204.68 47.1 204.68 47.1 204.68 47.1"/><polygon class="cls-4" points="205.82 49.82 220.19 49.82 220.19 48.6 205.25 48.6 205.82 49.82 205.82 49.82 205.82 49.82"/><polygon class="cls-4" points="207.43 52.53 220.19 52.53 220.19 51.31 206.67 51.31 207.43 52.53 207.43 52.53 207.43 52.53"/><polygon class="cls-4" points="209.65 55.25 220.19 55.25 220.19 54.02 208.58 54.02 209.65 55.25 209.65 55.25 209.65 55.25"/><polygon class="cls-4" points="203.61 36.68 220.15 36.68 220.15 35.46 203.84 35.46 203.61 36.68 203.61 36.68 203.61 36.68"/><polygon class="cls-4" points="213.69 44.39 220 44.39 220 43.17 213.92 43.17 213.69 44.39 213.69 44.39 213.69 44.39"/><polygon class="cls-4" points="214.19 41.68 220 41.68 220 40.45 214.42 40.45 214.19 41.68 214.19 41.68 214.19 41.68"/><polygon class="cls-4" points="203.19 40.45 204.83 40.45 204.83 41.68 203.27 41.68 203.19 40.45 203.19 40.45 203.19 40.45"/><polygon class="cls-6" points="200.13 38.97 200.03 38.96 199.92 38.95 199.82 38.94 199.72 38.92 199.63 38.91 199.53 38.89 199.43 38.87 199.33 38.86 199.22 38.84 199.1 38.84 198.96 38.83 198.82 38.82 198.66 38.82 198.49 38.83 198.29 38.84 198.07 38.86 197.92 38.88 197.77 38.91 197.64 38.95 197.53 38.99 197.42 39.05 197.32 39.11 197.25 39.19 197.18 39.25 197.13 39.34 197.09 39.42 197.08 39.51 197.08 39.6 197.1 39.7 197.13 39.8 197.19 39.9 197.27 40 197.42 40.14 197.6 40.26 197.82 40.35 198.04 40.44 198.29 40.51 198.54 40.6 198.79 40.69 199.03 40.79 199.26 40.92 199.47 41.08 199.66 41.27 199.82 41.5 199.94 41.79 200.02 42.13 200.05 42.54 200.02 43.02 199.97 43.38 199.87 43.69 199.75 43.98 199.6 44.23 199.43 44.45 199.23 44.63 199.01 44.8 198.78 44.95 198.54 45.06 198.29 45.16 198.03 45.23 197.76 45.3 197.5 45.34 197.26 45.36 197 45.38 196.77 45.39 196.44 45.39 196.14 45.38 195.87 45.38 195.62 45.37 195.4 45.36 195.19 45.35 195.01 45.33 194.83 45.31 194.67 45.3 194.53 45.27 194.38 45.24 194.26 45.2 194.13 45.17 194.01 45.13 193.88 45.08 193.75 45.04 194.1 43.36 194.16 43.38 194.25 43.4 194.35 43.43 194.49 43.46 194.62 43.49 194.77 43.52 194.94 43.56 195.12 43.59 195.31 43.62 195.51 43.65 195.71 43.67 195.93 43.69 196.15 43.7 196.37 43.71 196.59 43.71 196.81 43.7 197.03 43.66 197.2 43.59 197.34 43.51 197.44 43.41 197.52 43.3 197.58 43.18 197.62 43.06 197.65 42.94 197.67 42.72 197.6 42.53 197.47 42.38 197.28 42.25 197.05 42.14 196.78 42.02 196.49 41.92 196.19 41.8 195.89 41.66 195.6 41.5 195.34 41.3 195.09 41.07 194.9 40.78 194.76 40.44 194.7 40.03 194.7 39.54 194.74 39.25 194.8 38.96 194.87 38.71 194.96 38.46 195.08 38.24 195.22 38.04 195.38 37.85 195.57 37.68 195.79 37.54 196.03 37.42 196.31 37.3 196.61 37.22 196.95 37.15 197.32 37.1 197.73 37.07 198.18 37.06 198.46 37.06 198.72 37.07 198.96 37.08 199.17 37.08 199.36 37.1 199.53 37.11 199.68 37.13 199.82 37.14 199.95 37.16 200.06 37.18 200.15 37.2 200.25 37.21 200.32 37.23 200.39 37.23 200.46 37.25 200.52 37.26 200.13 38.97 200.13 38.97 200.13 38.97"/><polyline class="cls-7" points="200.13 38.97 200.13 38.97 200.03 38.96 199.92 38.95 199.82 38.94 199.72 38.92 199.63 38.91 199.53 38.89 199.43 38.87 199.33 38.86 199.22 38.84 199.1 38.84 198.96 38.83 198.82 38.82 198.66 38.82 198.49 38.83 198.29 38.84 198.07 38.86 198.07 38.86 197.92 38.88 197.77 38.91 197.64 38.95 197.53 38.99 197.42 39.05 197.32 39.11 197.25 39.19 197.18 39.25 197.13 39.34 197.09 39.42 197.08 39.51 197.08 39.6 197.1 39.7 197.13 39.8 197.19 39.9 197.27 40 197.27 40 197.42 40.14 197.6 40.26 197.82 40.35 198.04 40.44 198.29 40.51 198.54 40.6 198.79 40.69 199.03 40.79 199.26 40.92 199.47 41.08 199.66 41.27 199.82 41.5 199.94 41.79 200.02 42.13 200.05 42.54 200.02 43.02 200.02 43.02 199.97 43.38 199.87 43.69 199.75 43.98 199.6 44.23 199.43 44.45 199.23 44.63 199.01 44.8 198.78 44.95 198.54 45.06 198.29 45.16 198.03 45.23 197.76 45.3 197.5 45.34 197.26 45.36 197 45.38 196.77 45.39 196.77 45.39 196.44 45.39 196.14 45.38 195.87 45.38 195.62 45.37 195.4 45.36 195.19 45.35 195.01 45.33 194.83 45.31 194.67 45.3 194.53 45.27 194.38 45.24 194.26 45.2 194.13 45.17 194.01 45.13 193.88 45.08 193.75 45.04 194.1 43.36 194.1 43.36 194.16 43.38 194.25 43.4 194.35 43.43 194.49 43.46 194.62 43.49 194.77 43.52 194.94 43.56 195.12 43.59 195.31 43.62 195.51 43.65 195.71 43.67 195.93 43.69 196.15 43.7 196.37 43.71 196.59 43.71 196.81 43.7 196.81 43.7 197.03 43.66 197.2 43.59 197.34 43.51 197.44 43.41 197.52 43.3 197.58 43.18 197.62 43.06 197.65 42.94 197.65 42.94 197.67 42.72 197.6 42.53 197.47 42.38 197.28 42.25 197.05 42.14 196.78 42.02 196.49 41.92 196.19 41.8 195.89 41.66 195.6 41.5 195.34 41.3 195.09 41.07 194.9 40.78 194.76 40.44 194.7 40.03 194.7 39.54 194.7 39.54 194.74 39.25 194.8 38.96 194.87 38.71 194.96 38.46 195.08 38.24 195.22 38.04 195.38 37.85 195.57 37.68 195.79 37.54 196.03 37.42 196.31 37.3 196.61 37.22 196.95 37.15 197.32 37.1 197.73 37.07 198.18 37.06 198.18 37.06 198.46 37.06 198.72 37.07 198.96 37.08 199.17 37.08 199.36 37.1 199.53 37.11 199.68 37.13 199.82 37.14 199.95 37.16 200.06 37.18 200.15 37.2 200.25 37.21 200.32 37.23 200.39 37.23 200.46 37.25 200.52 37.26 200.13 38.97"/><polygon class="cls-6" points="201.93 35.38 204.03 35.38 203.72 37.22 204.99 37.22 204.72 38.94 203.38 38.9 202.65 43.13 202.64 43.28 202.68 43.41 202.76 43.51 202.86 43.59 202.99 43.65 203.15 43.69 203.31 43.72 203.49 43.74 203.66 43.73 203.81 43.72 203.95 43.69 204.07 43.66 204.17 43.63 204.24 43.61 204.28 43.59 204.3 43.59 204.03 45 203.98 45.04 203.93 45.07 203.87 45.1 203.82 45.13 203.77 45.15 203.71 45.17 203.64 45.2 203.57 45.22 203.49 45.24 203.42 45.26 203.33 45.27 203.24 45.29 203.14 45.3 203.02 45.32 202.9 45.33 202.77 45.35 202.19 45.35 201.89 45.33 201.63 45.3 201.38 45.25 201.18 45.2 201 45.13 200.86 45.05 200.73 44.96 200.63 44.86 200.56 44.76 200.5 44.63 200.47 44.5 200.44 44.35 200.44 44.2 200.44 44.03 200.46 43.85 200.48 43.66 201.93 35.38 201.93 35.38 201.93 35.38"/><polyline class="cls-7" points="201.93 35.38 204.03 35.38 203.72 37.22 204.99 37.22 204.72 38.94 203.38 38.9 202.65 43.13 202.65 43.13 202.64 43.28 202.68 43.41 202.76 43.51 202.86 43.59 202.99 43.65 203.15 43.69 203.31 43.72 203.49 43.74 203.49 43.74 203.66 43.73 203.81 43.72 203.95 43.69 204.07 43.66 204.17 43.63 204.24 43.61 204.28 43.59 204.3 43.59 204.03 45 204.03 45 203.98 45.04 203.93 45.07 203.87 45.1 203.82 45.13 203.77 45.15 203.71 45.17 203.64 45.2 203.57 45.22 203.49 45.24 203.42 45.26 203.33 45.27 203.24 45.29 203.14 45.3 203.02 45.32 202.9 45.33 202.77 45.35 202.19 45.35 202.19 45.35 201.89 45.33 201.63 45.3 201.38 45.25 201.18 45.2 201 45.13 200.86 45.05 200.73 44.96 200.63 44.86 200.56 44.76 200.5 44.63 200.47 44.5 200.44 44.35 200.44 44.2 200.44 44.03 200.46 43.85 200.48 43.66 201.93 35.38"/><polyline class="cls-7" points="206.67 41.8 206.67 41.8 206.64 41.92 206.64 42.06 206.65 42.21 206.68 42.35 206.74 42.49 206.8 42.63 206.88 42.78 206.97 42.9 207.08 43.03 207.19 43.15 207.31 43.26 207.45 43.35 207.59 43.44 207.74 43.5 207.89 43.56 208.04 43.59 208.04 43.59 208.24 43.62 208.43 43.64 208.63 43.66 208.82 43.68 209.02 43.69 209.23 43.69 209.42 43.68 209.63 43.66 209.83 43.63 210.04 43.59 210.25 43.55 210.46 43.48 210.67 43.4 210.89 43.31 211.1 43.19 211.32 43.06 211.02 44.92 211.02 44.92 210.89 44.98 210.77 45.05 210.65 45.09 210.54 45.14 210.43 45.17 210.3 45.21 210.18 45.24 210.05 45.27 209.92 45.29 209.76 45.3 209.6 45.32 209.43 45.33 209.23 45.34 209.03 45.34 208.79 45.35 208.54 45.35 208.54 45.35 208.17 45.34 207.79 45.3 207.41 45.25 207.03 45.16 206.66 45.05 206.3 44.9 205.96 44.71 205.64 44.49 205.35 44.23 205.09 43.92 204.87 43.57 204.69 43.17 204.56 42.72 204.47 42.21 204.45 41.65 204.49 41.03 204.49 41.03 204.52 40.79 204.56 40.51 204.63 40.21 204.71 39.89 204.82 39.56 204.96 39.24 205.13 38.91 205.35 38.59 205.59 38.28 205.88 37.99 206.22 37.74 206.6 37.51 207.04 37.32 207.53 37.18 208.08 37.09 208.69 37.06 208.69 37.06 208.99 37.07 209.3 37.1 209.61 37.15 209.93 37.23 210.23 37.34 210.52 37.48 210.8 37.66 211.05 37.87 211.28 38.13 211.47 38.44 211.62 38.78 211.72 39.19 211.78 39.64 211.79 40.16 211.74 40.73 211.62 41.37 211.59 41.83 206.05 41.83 206.4 40.34 209.73 40.34 209.73 40.34 209.74 40.15 209.73 39.97 209.72 39.8 209.69 39.65 209.63 39.5 209.58 39.37 209.51 39.26 209.43 39.16 209.34 39.06 209.24 38.99 209.13 38.92 209.01 38.86 208.89 38.81 208.77 38.78 208.64 38.76 208.5 38.74 208.5 38.74 208.36 38.75 208.22 38.77 208.09 38.81 207.97 38.85 207.84 38.91 207.72 38.98 207.61 39.06 207.51 39.16 207.41 39.26 207.32 39.37 207.24 39.5 207.17 39.63 207.1 39.76 207.05 39.91 207 40.07 206.97 40.23 206.67 41.8"/><polygon class="cls-6" points="224.77 37.67 224.67 37.62 224.57 37.58 224.47 37.52 224.35 37.47 224.24 37.42 224.11 37.38 223.98 37.33 223.85 37.29 223.7 37.25 223.56 37.22 223.4 37.19 223.24 37.17 223.06 37.15 222.89 37.14 222.71 37.14 222.52 37.14 222.33 37.14 222.13 37.15 221.92 37.17 221.71 37.21 221.5 37.27 221.29 37.36 221.07 37.46 220.86 37.6 220.66 37.77 220.46 37.96 220.27 38.21 220.09 38.49 219.92 38.82 219.76 39.2 219.62 39.63 219.5 40.11 219.45 40.38 219.42 40.65 219.41 40.92 219.41 41.17 219.43 41.43 219.49 41.67 219.56 41.9 219.64 42.13 219.75 42.34 219.89 42.53 220.05 42.71 220.23 42.87 220.44 43 220.67 43.12 220.93 43.22 221.22 43.28 221.32 43.31 221.43 43.33 221.57 43.34 221.72 43.36 221.89 43.38 222.06 43.38 222.25 43.38 222.44 43.36 222.64 43.34 222.84 43.3 223.03 43.25 223.22 43.19 223.41 43.1 223.58 43 223.74 42.88 223.89 42.75 223.55 44.77 223.5 44.81 223.46 44.86 223.4 44.91 223.33 44.95 223.25 45.01 223.14 45.07 223.02 45.12 222.88 45.17 222.71 45.22 222.51 45.26 222.28 45.29 222.01 45.32 221.72 45.33 221.38 45.34 220.99 45.33 220.57 45.31 220.22 45.27 219.87 45.2 219.52 45.08 219.17 44.93 218.84 44.75 218.52 44.52 218.21 44.26 217.93 43.95 217.68 43.61 217.47 43.23 217.29 42.81 217.15 42.34 217.06 41.83 217.03 41.3 217.04 40.7 217.13 40.07 217.19 39.76 217.26 39.46 217.33 39.16 217.41 38.88 217.49 38.62 217.59 38.35 217.69 38.1 217.79 37.87 217.91 37.63 218.02 37.41 218.15 37.2 218.29 37 218.43 36.81 218.58 36.63 218.73 36.46 218.89 36.3 219.06 36.15 219.24 36.01 219.42 35.88 219.61 35.75 219.81 35.64 220.02 35.54 220.23 35.45 220.45 35.37 220.69 35.29 220.92 35.23 221.16 35.18 221.43 35.13 221.68 35.09 221.96 35.06 222.23 35.05 222.52 35.04 222.76 35.05 223 35.06 223.22 35.09 223.45 35.12 223.66 35.15 223.87 35.19 224.06 35.23 224.25 35.28 224.42 35.32 224.57 35.37 224.72 35.41 224.84 35.46 224.95 35.5 225.04 35.53 225.1 35.56 225.15 35.57 224.77 37.67 224.77 37.67 224.77 37.67"/><polyline class="cls-7" points="224.77 37.67 224.77 37.67 224.67 37.62 224.57 37.58 224.47 37.52 224.35 37.47 224.24 37.42 224.11 37.38 223.98 37.33 223.85 37.29 223.7 37.25 223.56 37.22 223.4 37.19 223.24 37.17 223.06 37.15 222.89 37.14 222.71 37.14 222.52 37.14 222.52 37.14 222.33 37.14 222.13 37.15 221.92 37.17 221.71 37.21 221.5 37.27 221.29 37.36 221.07 37.46 220.86 37.6 220.66 37.77 220.46 37.96 220.27 38.21 220.09 38.49 219.92 38.82 219.76 39.2 219.62 39.63 219.5 40.11 219.5 40.11 219.45 40.38 219.42 40.65 219.41 40.92 219.41 41.17 219.43 41.43 219.49 41.67 219.56 41.9 219.64 42.13 219.75 42.34 219.89 42.53 220.05 42.71 220.23 42.87 220.44 43 220.67 43.12 220.93 43.22 221.22 43.28 221.22 43.28 221.32 43.31 221.43 43.33 221.57 43.34 221.72 43.36 221.89 43.38 222.06 43.38 222.25 43.38 222.44 43.36 222.64 43.34 222.84 43.3 223.03 43.25 223.22 43.19 223.41 43.1 223.58 43 223.74 42.88 223.89 42.75 223.55 44.77 223.55 44.77 223.5 44.81 223.46 44.86 223.4 44.91 223.33 44.95 223.25 45.01 223.14 45.07 223.02 45.12 222.88 45.17 222.71 45.22 222.51 45.26 222.28 45.29 222.01 45.32 221.72 45.33 221.38 45.34 220.99 45.33 220.57 45.31 220.57 45.31 220.22 45.27 219.87 45.2 219.52 45.08 219.17 44.93 218.84 44.75 218.52 44.52 218.21 44.26 217.93 43.95 217.68 43.61 217.47 43.23 217.29 42.81 217.15 42.34 217.06 41.83 217.03 41.3 217.04 40.7 217.13 40.07 217.13 40.07 217.19 39.76 217.26 39.46 217.33 39.16 217.41 38.88 217.49 38.62 217.59 38.35 217.69 38.1 217.79 37.87 217.91 37.63 218.02 37.41 218.15 37.2 218.29 37 218.43 36.81 218.58 36.63 218.73 36.46 218.89 36.3 219.06 36.15 219.24 36.01 219.42 35.88 219.61 35.75 219.81 35.64 220.02 35.54 220.23 35.45 220.45 35.37 220.69 35.29 220.92 35.23 221.16 35.18 221.43 35.13 221.68 35.09 221.96 35.06 222.23 35.05 222.52 35.04 222.52 35.04 222.76 35.05 223 35.06 223.22 35.09 223.45 35.12 223.66 35.15 223.87 35.19 224.06 35.23 224.25 35.28 224.42 35.32 224.57 35.37 224.72 35.41 224.84 35.46 224.95 35.5 225.04 35.53 225.1 35.56 225.15 35.57 224.77 37.67"/><polygon class="cls-6" points="243.46 45.35 241.36 45.35 241.51 44.51 241.51 44.43 241.39 44.58 241.26 44.72 241.13 44.84 240.99 44.95 240.86 45.05 240.72 45.13 240.58 45.2 240.44 45.27 240.29 45.32 240.15 45.36 240.01 45.39 239.85 45.42 239.7 45.44 239.56 45.45 239.41 45.46 239.26 45.46 238.86 45.43 238.5 45.35 238.16 45.22 237.86 45.05 237.59 44.83 237.34 44.57 237.13 44.29 236.95 43.97 236.8 43.63 236.67 43.27 236.59 42.9 236.53 42.51 236.51 42.12 236.51 41.73 236.55 41.34 236.62 40.95 236.73 40.51 236.87 40.08 237.03 39.69 237.22 39.33 237.42 38.99 237.65 38.68 237.88 38.41 238.13 38.16 238.4 37.94 238.68 37.75 238.97 37.58 239.26 37.45 239.56 37.35 239.86 37.28 240.16 37.23 240.48 37.22 240.7 37.23 240.91 37.25 241.11 37.29 241.29 37.34 241.46 37.4 241.62 37.47 241.77 37.55 241.9 37.64 242.03 37.73 242.14 37.83 242.24 37.92 242.33 38.02 242.41 38.12 242.47 38.22 242.53 38.31 242.58 38.4 242.58 38.4 243.11 35.42 245.18 35.42 243.46 45.35 243.46 45.35 243.46 45.35"/><polyline class="cls-7" points="243.46 45.35 241.36 45.35 241.51 44.51 241.51 44.43 241.51 44.43 241.39 44.58 241.26 44.72 241.13 44.84 240.99 44.95 240.86 45.05 240.72 45.13 240.58 45.2 240.44 45.27 240.29 45.32 240.15 45.36 240.01 45.39 239.85 45.42 239.7 45.44 239.56 45.45 239.41 45.46 239.26 45.46 239.26 45.46 238.86 45.43 238.5 45.35 238.16 45.22 237.86 45.05 237.59 44.83 237.34 44.57 237.13 44.29 236.95 43.97 236.8 43.63 236.67 43.27 236.59 42.9 236.53 42.51 236.51 42.12 236.51 41.73 236.55 41.34 236.62 40.95 236.62 40.95 236.73 40.51 236.87 40.08 237.03 39.69 237.22 39.33 237.42 38.99 237.65 38.68 237.88 38.41 238.13 38.16 238.4 37.94 238.68 37.75 238.97 37.58 239.26 37.45 239.56 37.35 239.86 37.28 240.16 37.23 240.48 37.22 240.48 37.22 240.7 37.23 240.91 37.25 241.11 37.29 241.29 37.34 241.46 37.4 241.62 37.47 241.77 37.55 241.9 37.64 242.03 37.73 242.14 37.83 242.24 37.92 242.33 38.02 242.41 38.12 242.47 38.22 242.53 38.31 242.58 38.4 242.58 38.4 243.11 35.42 245.18 35.42 243.46 45.35"/><polygon class="cls-4" points="240.02 43.51 240.23 43.5 240.43 43.45 240.61 43.4 240.79 43.31 240.95 43.23 241.1 43.11 241.24 42.98 241.37 42.84 241.49 42.69 241.59 42.52 241.69 42.35 241.78 42.17 241.85 41.98 241.91 41.78 241.96 41.58 242 41.37 242.04 41.16 242.06 40.94 242.06 40.73 242.06 40.52 242.03 40.32 242 40.13 241.95 39.95 241.89 39.78 241.81 39.63 241.72 39.48 241.62 39.36 241.51 39.25 241.38 39.16 241.24 39.1 241.1 39.06 240.94 39.05 240.73 39.06 240.54 39.09 240.37 39.16 240.2 39.23 240.04 39.33 239.89 39.45 239.76 39.58 239.63 39.73 239.52 39.89 239.41 40.07 239.31 40.25 239.23 40.45 239.16 40.65 239.09 40.86 239.03 41.08 238.99 41.3 238.95 41.63 238.97 41.99 239.02 42.37 239.12 42.72 239.27 43.03 239.47 43.28 239.72 43.45 240.02 43.51 240.02 43.51 240.02 43.51"/><polygon class="cls-6" points="193.41 43.66 193.1 45.35 191.19 45.35 191.24 45.04 191.28 44.76 191.31 44.54 191.34 44.43 191.24 44.55 191.11 44.67 190.97 44.79 190.81 44.89 190.63 45 190.44 45.09 190.24 45.18 190.03 45.26 189.81 45.33 189.6 45.38 189.38 45.42 189.15 45.45 188.93 45.47 188.71 45.48 188.5 45.45 188.29 45.42 188.02 45.36 187.78 45.28 187.57 45.18 187.38 45.07 187.21 44.95 187.06 44.81 186.94 44.66 186.83 44.51 186.74 44.35 186.66 44.19 186.6 44.02 186.56 43.85 186.53 43.68 186.51 43.5 186.49 43.34 186.49 43.17 186.51 42.87 186.56 42.59 186.63 42.33 186.73 42.07 186.85 41.83 186.99 41.61 187.15 41.4 187.33 41.2 187.52 41.03 187.74 40.87 187.96 40.73 188.18 40.6 188.43 40.5 188.68 40.41 188.94 40.35 189.2 40.3 189.22 40.3 189.25 40.29 189.31 40.29 189.39 40.28 189.48 40.26 189.59 40.26 189.7 40.24 189.83 40.23 189.96 40.21 190.09 40.2 190.23 40.19 190.35 40.17 190.47 40.16 190.58 40.16 190.69 40.15 190.77 40.15 190.95 40.15 191.13 40.16 191.3 40.16 191.46 40.16 191.6 40.17 191.71 40.18 191.78 40.19 191.8 40.19 191.82 40.13 191.87 40 191.9 39.84 191.92 39.69 191.89 39.53 191.82 39.37 191.73 39.24 191.61 39.12 191.46 39.03 191.3 38.96 191.12 38.91 190.92 38.9 190.71 38.89 190.48 38.88 190.25 38.88 190.01 38.89 189.75 38.91 189.51 38.93 189.27 38.95 189.03 38.98 188.81 39.01 188.59 39.05 188.39 39.09 188.21 39.12 188.04 39.17 187.9 39.22 187.8 39.27 187.71 39.31 188.25 37.48 188.42 37.42 188.59 37.36 188.77 37.3 188.95 37.26 189.13 37.23 189.33 37.2 189.53 37.17 189.73 37.15 189.94 37.14 190.16 37.13 190.39 37.12 190.63 37.12 190.87 37.12 191.12 37.12 191.39 37.13 191.65 37.14 191.87 37.15 192.09 37.19 192.33 37.24 192.57 37.31 192.81 37.4 193.03 37.51 193.26 37.64 193.48 37.78 193.66 37.95 193.83 38.13 193.98 38.33 194.1 38.56 194.17 38.81 194.22 39.06 194.22 39.35 194.17 39.66 193.41 43.66 193.41 43.66 193.41 43.66"/><polyline class="cls-7" points="193.41 43.66 193.1 45.35 191.19 45.35 191.19 45.35 191.24 45.04 191.28 44.76 191.31 44.54 191.34 44.43 191.34 44.43 191.24 44.55 191.11 44.67 190.97 44.79 190.81 44.89 190.63 45 190.44 45.09 190.24 45.18 190.03 45.26 189.81 45.33 189.6 45.38 189.38 45.42 189.15 45.45 188.93 45.47 188.71 45.48 188.5 45.45 188.29 45.42 188.29 45.42 188.02 45.36 187.78 45.28 187.57 45.18 187.38 45.07 187.21 44.95 187.06 44.81 186.94 44.66 186.83 44.51 186.74 44.35 186.66 44.19 186.6 44.02 186.56 43.85 186.53 43.68 186.51 43.5 186.49 43.34 186.49 43.17 186.49 43.17 186.51 42.87 186.56 42.59 186.63 42.33 186.73 42.07 186.85 41.83 186.99 41.61 187.15 41.4 187.33 41.2 187.52 41.03 187.74 40.87 187.96 40.73 188.18 40.6 188.43 40.5 188.68 40.41 188.94 40.35 189.2 40.3 189.2 40.3 189.22 40.3 189.25 40.29 189.31 40.29 189.39 40.28 189.48 40.26 189.59 40.26 189.7 40.24 189.83 40.23 189.96 40.21 190.09 40.2 190.23 40.19 190.35 40.17 190.47 40.16 190.58 40.16 190.69 40.15 190.77 40.15 190.77 40.15 190.95 40.15 191.13 40.16 191.3 40.16 191.46 40.16 191.6 40.17 191.71 40.18 191.78 40.19 191.8 40.19 191.8 40.19 191.82 40.13 191.87 40 191.9 39.84 191.92 39.69 191.92 39.69 191.89 39.53 191.82 39.37 191.73 39.24 191.61 39.12 191.46 39.03 191.3 38.96 191.12 38.91 190.92 38.9 190.92 38.9 190.71 38.89 190.48 38.88 190.25 38.88 190.01 38.89 189.75 38.91 189.51 38.93 189.27 38.95 189.03 38.98 188.81 39.01 188.59 39.05 188.39 39.09 188.21 39.12 188.04 39.17 187.9 39.22 187.8 39.27 187.71 39.31 188.25 37.48 188.25 37.48 188.42 37.42 188.59 37.36 188.77 37.3 188.95 37.26 189.13 37.23 189.33 37.2 189.53 37.17 189.73 37.15 189.94 37.14 190.16 37.13 190.39 37.12 190.63 37.12 190.87 37.12 191.12 37.12 191.39 37.13 191.65 37.14 191.65 37.14 191.87 37.15 192.09 37.19 192.33 37.24 192.57 37.31 192.81 37.4 193.03 37.51 193.26 37.64 193.48 37.78 193.66 37.95 193.83 38.13 193.98 38.33 194.1 38.56 194.17 38.81 194.22 39.06 194.22 39.35 194.17 39.66 193.41 43.66"/><polygon class="cls-5" points="191.58 41.68 191.57 41.65 191.54 41.61 191.49 41.58 191.42 41.57 191.33 41.55 191.24 41.55 191.12 41.55 191.01 41.55 190.89 41.55 190.76 41.57 190.64 41.58 190.51 41.6 190.4 41.62 190.29 41.64 190.2 41.66 190.12 41.68 190.07 41.7 190.01 41.72 189.92 41.75 189.84 41.79 189.74 41.83 189.64 41.89 189.53 41.94 189.44 42 189.33 42.08 189.23 42.15 189.14 42.24 189.06 42.34 188.98 42.43 188.93 42.54 188.88 42.66 188.86 42.78 188.85 43.04 188.89 43.25 188.97 43.4 189.06 43.51 189.18 43.59 189.31 43.63 189.43 43.66 189.55 43.66 189.78 43.66 189.98 43.63 190.18 43.6 190.36 43.56 190.51 43.5 190.65 43.44 190.78 43.37 190.89 43.28 190.99 43.21 191.08 43.12 191.16 43.03 191.22 42.94 191.27 42.85 191.32 42.76 191.36 42.68 191.38 42.59 191.44 42.37 191.49 42.12 191.54 41.88 191.58 41.68 191.58 41.68 191.58 41.68"/><polygon class="cls-6" points="177.43 45.35 175.37 45.35 177.09 35.38 180.68 35.38 181.03 41.3 183.51 35.38 187.26 35.38 185.5 45.35 183.43 45.35 184.74 37.9 184.66 37.9 181.56 45.35 179.24 45.35 179.22 45.04 179.17 44.21 179.1 43.03 179.02 41.68 178.94 40.32 178.88 39.13 178.82 38.27 178.81 37.9 178.79 37.9 178.74 37.9 178.7 37.9 178.7 37.9 177.43 45.35 177.43 45.35 177.43 45.35"/><polyline class="cls-7" points="177.43 45.35 175.37 45.35 177.09 35.38 180.68 35.38 181.03 41.3 183.51 35.38 187.26 35.38 185.5 45.35 183.43 45.35 184.74 37.9 184.66 37.9 181.56 45.35 179.24 45.35 179.24 45.35 179.22 45.04 179.17 44.21 179.1 43.03 179.02 41.68 178.94 40.32 178.88 39.13 178.82 38.27 178.81 37.9 178.81 37.9 178.79 37.9 178.74 37.9 178.7 37.9 178.7 37.9 177.43 45.35"/><polygon class="cls-6" points="231.08 43.66 230.77 45.35 228.86 45.35 228.88 45.04 228.88 44.77 228.88 44.56 228.9 44.47 228.8 44.58 228.69 44.7 228.55 44.8 228.4 44.91 228.24 45.01 228.06 45.1 227.87 45.19 227.68 45.27 227.47 45.33 227.26 45.39 227.05 45.42 226.84 45.45 226.62 45.47 226.4 45.48 226.2 45.45 225.99 45.42 225.72 45.36 225.48 45.28 225.26 45.18 225.07 45.07 224.9 44.95 224.76 44.81 224.63 44.66 224.53 44.51 224.44 44.35 224.37 44.19 224.31 44.02 224.27 43.85 224.24 43.68 224.22 43.5 224.2 43.34 224.2 43.17 224.22 42.87 224.26 42.59 224.33 42.33 224.43 42.07 224.54 41.83 224.69 41.61 224.85 41.4 225.02 41.2 225.22 41.03 225.42 40.87 225.64 40.73 225.88 40.6 226.12 40.5 226.37 40.41 226.62 40.35 226.87 40.3 226.89 40.3 226.93 40.29 226.98 40.29 227.06 40.28 227.16 40.26 227.26 40.26 227.38 40.24 227.5 40.23 227.63 40.21 227.76 40.2 227.89 40.19 228.02 40.17 228.14 40.16 228.25 40.16 228.35 40.15 228.44 40.15 228.62 40.15 228.8 40.16 228.98 40.16 229.14 40.16 229.29 40.17 229.41 40.18 229.48 40.19 229.51 40.19 229.52 40.13 229.55 40 229.57 39.84 229.58 39.69 229.55 39.53 229.49 39.37 229.4 39.24 229.28 39.12 229.14 39.03 228.99 38.96 228.82 38.91 228.63 38.9 228.42 38.89 228.19 38.88 227.96 38.88 227.72 38.89 227.47 38.91 227.22 38.93 226.98 38.95 226.74 38.98 226.52 39.01 226.3 39.05 226.1 39.09 225.92 39.12 225.75 39.17 225.61 39.22 225.51 39.27 225.42 39.31 225.96 37.48 226.12 37.42 226.3 37.36 226.47 37.3 226.65 37.26 226.84 37.23 227.03 37.2 227.23 37.17 227.44 37.15 227.65 37.14 227.87 37.13 228.09 37.12 228.32 37.12 228.56 37.12 228.8 37.12 229.06 37.13 229.32 37.14 229.53 37.15 229.76 37.19 229.99 37.24 230.24 37.31 230.47 37.4 230.71 37.51 230.93 37.64 231.15 37.78 231.34 37.95 231.51 38.13 231.66 38.33 231.78 38.56 231.86 38.81 231.91 39.06 231.91 39.35 231.88 39.66 231.08 43.66 231.08 43.66 231.08 43.66"/><polygon class="cls-6" points="230.77 45.4 230.81 45.36 231.13 43.67 231.03 43.66 230.72 45.34 230.77 45.3 230.77 45.4 230.81 45.39 230.81 45.36 230.77 45.4 230.77 45.4 230.77 45.4"/><polygon class="cls-6" points="228.82 45.35 228.86 45.4 230.77 45.4 230.77 45.3 228.86 45.3 228.91 45.35 228.82 45.35 228.81 45.4 228.86 45.4 228.82 45.35 228.82 45.35 228.82 45.35"/><polygon class="cls-6" points="228.94 44.5 228.87 44.44 228.84 44.56 228.83 44.77 228.83 45.04 228.82 45.35 228.91 45.35 228.92 45.04 228.94 44.77 228.93 44.56 228.93 44.5 228.86 44.44 228.94 44.5 228.94 44.5 228.94 44.5"/><polygon class="cls-6" points="225.99 45.47 225.99 45.47 226.2 45.5 226.4 45.52 226.62 45.52 226.84 45.5 227.06 45.47 227.27 45.43 227.48 45.37 227.69 45.31 227.88 45.23 228.08 45.15 228.26 45.05 228.42 44.95 228.58 44.84 228.72 44.73 228.84 44.61 228.94 44.5 228.86 44.44 228.76 44.55 228.66 44.66 228.52 44.77 228.38 44.87 228.22 44.96 228.04 45.05 227.85 45.15 227.66 45.22 227.47 45.28 227.25 45.34 227.04 45.38 226.84 45.41 226.62 45.42 226.4 45.43 226.2 45.41 226 45.38 226 45.38 225.99 45.47 225.99 45.47 225.99 45.47"/><polygon class="cls-6" points="224.15 43.17 224.15 43.17 224.16 43.34 224.17 43.5 224.19 43.69 224.22 43.86 224.26 44.03 224.32 44.2 224.39 44.38 224.49 44.54 224.6 44.7 224.72 44.84 224.87 44.98 225.04 45.11 225.24 45.23 225.46 45.33 225.71 45.4 225.99 45.47 226 45.38 225.73 45.31 225.49 45.23 225.29 45.14 225.09 45.03 224.93 44.91 224.79 44.78 224.67 44.63 224.57 44.49 224.48 44.33 224.41 44.17 224.35 44.01 224.32 43.85 224.29 43.67 224.26 43.5 224.25 43.34 224.25 43.17 224.25 43.17 224.15 43.17 224.15 43.17 224.15 43.17"/><polygon class="cls-6" points="226.87 40.26 226.87 40.26 226.61 40.3 226.35 40.37 226.1 40.45 225.86 40.56 225.62 40.68 225.39 40.83 225.19 40.99 224.99 41.17 224.81 41.36 224.65 41.58 224.5 41.8 224.38 42.05 224.29 42.31 224.22 42.59 224.17 42.87 224.15 43.17 224.25 43.17 224.26 42.87 224.31 42.6 224.38 42.34 224.47 42.09 224.59 41.85 224.72 41.64 224.88 41.42 225.05 41.23 225.25 41.07 225.45 40.91 225.67 40.77 225.9 40.65 226.13 40.54 226.38 40.46 226.62 40.39 226.87 40.35 226.87 40.35 226.87 40.26 226.87 40.26 226.87 40.26"/><polygon class="cls-6" points="228.44 40.1 228.44 40.1 228.35 40.1 228.25 40.11 228.14 40.12 228.02 40.13 227.89 40.14 227.76 40.15 227.63 40.16 227.5 40.18 227.38 40.2 227.26 40.21 227.16 40.22 227.06 40.23 226.98 40.24 226.92 40.25 226.89 40.26 226.87 40.26 226.87 40.35 226.89 40.35 226.94 40.34 226.98 40.33 227.06 40.32 227.16 40.31 227.26 40.3 227.38 40.29 227.5 40.27 227.63 40.26 227.76 40.24 227.89 40.23 228.02 40.22 228.14 40.21 228.25 40.2 228.35 40.2 228.44 40.2 228.44 40.2 228.44 40.1 228.44 40.1 228.44 40.1"/><polygon class="cls-6" points="229.46 40.18 229.51 40.14 229.48 40.14 229.41 40.13 229.29 40.13 229.14 40.11 228.98 40.11 228.8 40.11 228.62 40.1 228.44 40.1 228.44 40.2 228.62 40.2 228.8 40.2 228.98 40.22 229.14 40.22 229.29 40.22 229.41 40.23 229.48 40.23 229.51 40.23 229.55 40.2 229.51 40.23 229.55 40.24 229.55 40.2 229.46 40.18 229.46 40.18 229.46 40.18"/><polygon class="cls-6" points="229.54 39.69 229.53 39.69 229.52 39.84 229.5 39.99 229.48 40.13 229.46 40.18 229.55 40.2 229.57 40.14 229.59 40 229.61 39.84 229.64 39.69 229.63 39.69 229.54 39.69 229.54 39.69 229.54 39.69"/><polygon class="cls-6" points="228.63 38.94 228.63 38.95 228.81 38.96 228.97 39 229.12 39.07 229.25 39.16 229.35 39.27 229.45 39.4 229.51 39.53 229.54 39.69 229.63 39.69 229.6 39.52 229.54 39.35 229.43 39.21 229.31 39.09 229.17 38.98 229 38.91 228.82 38.87 228.63 38.84 228.63 38.85 228.63 38.94 228.63 38.94 228.63 38.94"/><polygon class="cls-6" points="225.38 39.31 225.45 39.35 225.53 39.31 225.63 39.26 225.76 39.22 225.93 39.17 226.11 39.13 226.3 39.09 226.52 39.06 226.74 39.03 226.98 38.99 227.22 38.97 227.47 38.95 227.72 38.94 227.96 38.94 228.19 38.94 228.42 38.94 228.63 38.94 228.63 38.85 228.42 38.84 228.19 38.83 227.96 38.83 227.72 38.84 227.47 38.86 227.22 38.88 226.98 38.91 226.74 38.94 226.51 38.96 226.29 39 226.09 39.04 225.91 39.08 225.74 39.12 225.6 39.17 225.49 39.22 225.39 39.28 225.47 39.32 225.38 39.31 225.38 39.31 225.38 39.31"/><polygon class="cls-6" points="225.94 37.44 225.91 37.48 225.38 39.31 225.47 39.32 226 37.49 225.97 37.53 225.94 37.44 225.92 37.45 225.91 37.48 225.94 37.44 225.94 37.44 225.94 37.44"/><polygon class="cls-6" points="229.32 37.09 229.32 37.09 229.06 37.08 228.8 37.07 228.56 37.07 228.32 37.07 228.09 37.07 227.87 37.08 227.65 37.09 227.44 37.11 227.23 37.12 227.03 37.15 226.84 37.18 226.65 37.22 226.46 37.26 226.28 37.31 226.11 37.37 225.94 37.44 225.97 37.53 226.14 37.46 226.31 37.4 226.48 37.35 226.66 37.31 226.85 37.27 227.04 37.24 227.23 37.21 227.44 37.2 227.65 37.18 227.87 37.17 228.09 37.17 228.32 37.17 228.56 37.17 228.8 37.17 229.06 37.18 229.32 37.18 229.32 37.18 229.32 37.09 229.32 37.09 229.32 37.09"/><polygon class="cls-6" points="231.92 39.66 231.92 39.66 231.96 39.35 231.96 39.06 231.91 38.8 231.82 38.55 231.7 38.31 231.55 38.1 231.37 37.91 231.18 37.74 230.96 37.6 230.73 37.46 230.49 37.36 230.25 37.26 230 37.2 229.76 37.14 229.53 37.11 229.32 37.09 229.32 37.18 229.53 37.2 229.75 37.23 229.99 37.29 230.22 37.36 230.46 37.45 230.68 37.55 230.91 37.67 231.12 37.82 231.31 37.98 231.47 38.16 231.63 38.36 231.73 38.58 231.81 38.81 231.87 39.06 231.87 39.35 231.83 39.65 231.83 39.65 231.92 39.66 231.92 39.66 231.92 39.66"/><polygon class="cls-6" points="231.13 43.67 231.13 43.67 231.92 39.66 231.83 39.65 231.03 43.66 231.03 43.66 231.13 43.67 231.13 43.67 231.13 43.67"/><polygon class="cls-4" points="229.24 41.68 229.23 41.64 229.2 41.6 229.14 41.58 229.07 41.55 228.99 41.55 228.88 41.54 228.77 41.54 228.66 41.55 228.54 41.56 228.41 41.58 228.29 41.59 228.18 41.61 228.07 41.63 227.97 41.65 227.87 41.67 227.79 41.68 227.74 41.69 227.68 41.71 227.6 41.74 227.52 41.77 227.42 41.81 227.33 41.86 227.22 41.91 227.13 41.98 227.03 42.05 226.93 42.13 226.84 42.21 226.76 42.31 226.69 42.42 226.64 42.53 226.59 42.65 226.57 42.78 226.56 43.04 226.6 43.25 226.66 43.4 226.75 43.51 226.87 43.59 227 43.63 227.13 43.66 227.25 43.66 227.48 43.66 227.69 43.63 227.89 43.59 228.07 43.54 228.23 43.48 228.38 43.41 228.51 43.34 228.63 43.25 228.74 43.16 228.83 43.06 228.92 42.97 228.99 42.87 229.04 42.78 229.08 42.69 229.11 42.6 229.13 42.52 229.16 42.3 229.2 42.09 229.23 41.87 229.24 41.68 229.24 41.68 229.24 41.68"/><polygon class="cls-6" points="244.88 44.31 244.9 44.13 244.95 43.93 245.06 43.75 245.19 43.59 245.35 43.46 245.53 43.37 245.73 43.31 245.94 43.28 246.16 43.31 246.35 43.37 246.53 43.46 246.69 43.59 246.82 43.75 246.93 43.93 246.99 44.13 247.01 44.31 246.78 44.31 246.77 44.17 246.72 44.01 246.65 43.85 246.55 43.72 246.43 43.62 246.28 43.54 246.12 43.49 245.94 43.47 245.77 43.49 245.6 43.54 245.46 43.62 245.33 43.72 245.24 43.85 245.16 44.01 245.12 44.17 245.1 44.31 244.88 44.31 244.88 44.31 244.88 44.31"/><polygon class="cls-6" points="245.56 44.31 245.56 43.85 245.98 43.85 246.07 43.86 246.16 43.88 246.22 43.9 246.27 43.93 246.31 43.98 246.34 44.02 246.35 44.07 246.36 44.13 246.35 44.2 246.34 44.25 246.31 44.29 246.3 44.31 245.98 44.31 246.01 44.3 246.06 44.29 246.11 44.28 246.15 44.26 246.18 44.24 246.19 44.22 246.21 44.18 246.21 44.13 246.2 44.09 246.18 44.06 246.16 44.04 246.14 44.03 246.1 44.02 246.06 44.01 246.03 44.01 245.98 44.01 245.75 44.01 245.75 44.31 245.56 44.31 245.56 44.31 245.56 44.31"/><polygon class="cls-6" points="244.88 44.31 244.87 44.35 244.9 44.58 244.95 44.78 245.06 44.96 245.19 45.11 245.35 45.24 245.53 45.34 245.73 45.4 245.94 45.42 246.16 45.4 246.35 45.34 246.53 45.24 246.69 45.11 246.82 44.96 246.93 44.78 246.99 44.58 247.01 44.35 247.01 44.31 246.78 44.31 246.78 44.35 246.77 44.54 246.72 44.7 246.65 44.85 246.55 44.98 246.43 45.08 246.28 45.17 246.12 45.22 245.94 45.23 245.77 45.22 245.6 45.17 245.46 45.08 245.33 44.98 245.24 44.85 245.16 44.7 245.12 44.54 245.1 44.35 245.1 44.31 244.88 44.31 244.88 44.31 244.88 44.31"/><polygon class="cls-6" points="245.56 44.31 245.56 44.77 245.75 44.77 245.75 44.39 245.94 44.39 246.17 44.77 246.32 44.77 246.09 44.39 246.15 44.39 246.2 44.38 246.25 44.36 246.28 44.33 246.3 44.31 245.98 44.31 245.94 44.32 245.75 44.32 245.75 44.31 245.56 44.31 245.56 44.31 245.56 44.31"/><path class="cls-7" d="M244.87,113.83h0l0-.22,0-.2.11-.18.13-.16.16-.13.18-.09.2-.06.21,0h0l.22,0,.19.06.18.09.16.13.13.16.11.18.06.2,0,.22h0l0,.22-.06.21-.11.18-.13.15-.16.13-.18.1-.19.06-.22,0h0l-.21,0-.2-.06-.18-.1-.16-.13-.13-.15-.11-.18,0-.21,0-.22m.88.42h-.19v-.92h.51l.09,0,.06,0,.05,0,0,0,0,0v.11h0v.12l0,0,0,0,0,0-.05,0h-.11l.23.38h-.15l-.23-.38h-.19v.38m.19-.45h0l.07,0h.1l0,0,0,0v0l0,0v0h0v0l0,0,0,0h-.41v.31h.19m0,.92h0l.18,0,.16,0,.15-.09.12-.1.1-.13.07-.15.05-.16v-.19h0v-.18l-.05-.16-.07-.16-.1-.13-.12-.1-.15-.08-.16,0-.18,0h0l-.17,0-.17,0-.14.08-.13.1-.09.13-.08.16,0,.16v.18h0V114l0,.16.08.15.09.13.13.1.14.09.17,0,.17,0" transform="translate(0 -69.48)"/><polygon class="cls-6" points="231.65 45.35 233.79 45.35 233.79 45.35 234.56 41.03 234.59 40.86 234.63 40.7 234.68 40.53 234.74 40.36 234.81 40.2 234.91 40.03 235 39.88 235.13 39.74 235.26 39.61 235.41 39.49 235.59 39.37 235.78 39.28 236.01 39.21 236.25 39.15 236.51 39.1 236.81 39.09 236.92 39.09 236.98 39.09 237 39.09 237 39.09 237.34 37.14 237.13 37.15 236.92 37.17 236.73 37.21 236.55 37.26 236.38 37.33 236.23 37.4 236.07 37.48 235.93 37.58 235.79 37.68 235.66 37.79 235.54 37.91 235.42 38.03 235.31 38.16 235.19 38.3 235.08 38.44 234.97 38.59 235.2 37.22 233.07 37.22 231.65 45.35 231.65 45.35 231.65 45.35 231.65 45.35"/><polyline class="cls-7" points="231.65 45.35 233.79 45.35 233.79 45.35 234.56 41.03 234.56 41.03 234.59 40.86 234.63 40.7 234.68 40.53 234.74 40.36 234.81 40.2 234.91 40.03 235 39.88 235.13 39.74 235.26 39.61 235.41 39.49 235.59 39.37 235.78 39.28 236.01 39.21 236.25 39.15 236.51 39.1 236.81 39.09 236.81 39.09 236.92 39.09 236.98 39.09 237 39.09 237 39.09 237.34 37.14 237.34 37.14 237.13 37.15 236.92 37.17 236.73 37.21 236.55 37.26 236.38 37.33 236.23 37.4 236.07 37.48 235.93 37.58 235.79 37.68 235.66 37.79 235.54 37.91 235.42 38.03 235.31 38.16 235.19 38.3 235.08 38.44 234.97 38.59 235.2 37.22 233.07 37.22 231.65 45.35 231.65 45.35"/><polygon class="cls-6" points="211.55 45.35 213.69 45.35 213.73 45.35 214.46 41.03 214.49 40.86 214.52 40.7 214.56 40.54 214.62 40.39 214.68 40.24 214.75 40.1 214.84 39.96 214.95 39.83 215.07 39.72 215.21 39.6 215.38 39.51 215.56 39.43 215.77 39.36 216 39.3 216.26 39.26 216.56 39.24 216.58 39.24 216.61 39.25 216.65 39.25 216.69 39.25 216.72 39.26 216.76 39.27 216.78 39.28 216.79 39.28 216.79 39.25 216.82 39.16 216.85 39.02 216.88 38.85 216.94 38.65 216.99 38.44 217.06 38.23 217.13 38.02 217.19 37.87 217.26 37.73 217.34 37.58 217.42 37.45 217.48 37.34 217.54 37.25 217.57 37.2 217.59 37.17 217.58 37.17 217.55 37.17 217.51 37.16 217.46 37.15 217.41 37.15 217.35 37.14 217.29 37.14 217.24 37.14 217.01 37.15 216.79 37.17 216.6 37.21 216.41 37.26 216.24 37.32 216.08 37.4 215.94 37.47 215.8 37.56 215.67 37.66 215.55 37.77 215.44 37.89 215.32 38.02 215.21 38.15 215.1 38.29 214.99 38.44 214.87 38.59 215.15 37.22 212.97 37.22 211.55 45.35 211.55 45.35 211.55 45.35 211.55 45.35"/><polyline class="cls-7" points="211.55 45.35 213.69 45.35 213.73 45.35 214.46 41.03 214.46 41.03 214.49 40.86 214.52 40.7 214.56 40.54 214.62 40.39 214.68 40.24 214.75 40.1 214.84 39.96 214.95 39.83 215.07 39.72 215.21 39.6 215.38 39.51 215.56 39.43 215.77 39.36 216 39.3 216.26 39.26 216.56 39.24 216.56 39.24 216.58 39.24 216.61 39.25 216.65 39.25 216.69 39.25 216.72 39.26 216.76 39.27 216.78 39.28 216.79 39.28 216.79 39.28 216.79 39.25 216.82 39.16 216.85 39.02 216.88 38.85 216.94 38.65 216.99 38.44 217.06 38.23 217.13 38.02 217.13 38.02 217.19 37.87 217.26 37.73 217.34 37.58 217.42 37.45 217.48 37.34 217.54 37.25 217.57 37.2 217.59 37.17 217.59 37.17 217.58 37.17 217.55 37.17 217.51 37.16 217.46 37.15 217.41 37.15 217.35 37.14 217.29 37.14 217.24 37.14 217.24 37.14 217.01 37.15 216.79 37.17 216.6 37.21 216.41 37.26 216.24 37.32 216.08 37.4 215.94 37.47 215.8 37.56 215.67 37.66 215.55 37.77 215.44 37.89 215.32 38.02 215.21 38.15 215.1 38.29 214.99 38.44 214.87 38.59 215.15 37.22 212.97 37.22 211.55 45.35 211.55 45.35"/><polygon class="cls-4" points="244.9 53.33 244.9 53.3 244.95 53.11 245.06 52.93 245.19 52.78 245.35 52.66 245.53 52.57 245.73 52.52 245.94 52.49 246.16 52.52 246.35 52.57 246.53 52.66 246.69 52.78 246.82 52.93 246.93 53.11 246.99 53.3 246.99 53.33 246.77 53.33 246.72 53.18 246.65 53.03 246.55 52.9 246.43 52.8 246.28 52.71 246.12 52.66 245.94 52.64 245.77 52.66 245.6 52.71 245.46 52.8 245.33 52.9 245.24 53.03 245.16 53.18 245.12 53.33 244.9 53.33 244.9 53.33 244.9 53.33"/><polygon class="cls-4" points="245.56 53.33 245.56 53.07 245.98 53.07 246.07 53.07 246.16 53.08 246.22 53.1 246.27 53.13 246.31 53.17 246.34 53.21 246.35 53.27 246.36 53.33 246.21 53.33 246.21 53.3 246.2 53.26 246.18 53.23 246.16 53.21 246.14 53.2 246.1 53.19 246.06 53.18 246.03 53.18 245.98 53.18 245.75 53.18 245.75 53.33 245.56 53.33 245.56 53.33 245.56 53.33"/><polygon class="cls-4" points="244.87 53.5 244.9 53.33 245.12 53.33 245.12 53.34 245.1 53.5 244.87 53.5 244.87 53.5 244.87 53.5"/><polygon class="cls-4" points="245.56 53.5 245.56 53.33 245.75 53.33 245.75 53.49 245.94 53.49 246.01 53.47 246.06 53.46 246.11 53.45 246.15 53.43 246.18 53.41 246.19 53.39 246.21 53.35 246.21 53.33 246.36 53.33 246.36 53.33 246.35 53.39 246.34 53.43 246.31 53.47 246.28 53.5 245.56 53.5 245.56 53.5 245.56 53.5"/><polygon class="cls-4" points="246.78 53.5 246.77 53.34 246.77 53.33 246.99 53.33 247.01 53.5 246.78 53.5 246.78 53.5 246.78 53.5"/><polygon class="cls-4" points="244.87 53.5 244.87 53.52 244.9 53.74 244.95 53.95 245.06 54.13 245.19 54.29 245.35 54.42 245.53 54.51 245.73 54.57 245.94 54.59 246.16 54.57 246.35 54.51 246.53 54.42 246.69 54.29 246.82 54.13 246.93 53.95 246.99 53.74 247.01 53.52 247.01 53.5 246.78 53.5 246.78 53.52 246.77 53.71 246.72 53.87 246.65 54.02 246.55 54.15 246.43 54.25 246.28 54.34 246.12 54.39 245.94 54.41 245.77 54.39 245.6 54.34 245.46 54.25 245.33 54.15 245.24 54.02 245.16 53.87 245.12 53.71 245.1 53.52 245.1 53.5 244.87 53.5 244.87 53.5 244.87 53.5"/><polygon class="cls-4" points="245.56 53.5 245.56 53.94 245.75 53.94 245.75 53.56 245.94 53.56 246.17 53.94 246.32 53.94 246.09 53.56 246.15 53.56 246.2 53.55 246.25 53.53 246.28 53.5 246.28 53.5 245.56 53.5 245.56 53.5 245.56 53.5"/><path class="cls-6" d="M211.78,109.12l-.06-.45-.1-.41-.15-.35-.2-.3-.22-.26-.25-.21-.28-.18-.29-.14-.31-.11-.31-.08-.31,0-.31,0h-.3l-.61,0-.55.09-.49.14-.44.19-.38.23-.34.25-.29.29-.24.31-.22.31-.17.34-.14.33-.11.32-.08.32-.07.3,0,.28,0,.24,0,.62,0,.56.09.51.13.45.18.4.22.35.26.31.29.26.32.22.34.19.36.15.37.11.38.09.38,0,.38,0h1.44l.15,0h.16l.13,0,.13,0,.12,0,.13,0,.11,0,.11-.05.12,0,.12-.07.13-.06.3-1.86-.22.13-.21.12-.22.09-.22.08-.2.07-.21,0-.21,0-.2,0-.21,0h-.6l-.19,0-.2,0-.19,0-.2,0-.15,0-.15-.06-.15-.06-.14-.09-.14-.09-.12-.11-.11-.12-.11-.13-.09-.12-.08-.15-.06-.14-.06-.14,0-.14v-.28l0-.1h4.93l0-.46.12-.64,0-.57Zm-2.05.7H207l0-.1,0-.16.05-.16,0-.15.07-.13.07-.13.08-.13.09-.11.1-.11.1-.09.11-.08.12-.07.13-.06.12,0,.13,0,.14,0h.14l.14,0,.13,0,.12,0,.12,0,.12.06.11.07.1.07.09.09.08.11.07.11.06.13.05.15,0,.15v.54Z" transform="translate(0 -69.48)"/><rect class="cls-8" x="443.34" y="0.5" width="125.43" height="78.39" rx="4.18"/><polygon class="cls-9" points="501.06 51.47 494.93 51.47 498.76 27.94 504.89 27.94 501.06 51.47"/><path class="cls-9" d="M489.78,97.42l-5.84,16.18-.7-3.48h0l-2.06-10.58a2.62,2.62,0,0,0-2.9-2.12h-9.66l-.11.4a22.81,22.81,0,0,1,6.41,2.69L480.24,121h6.38l9.75-23.53Z" transform="translate(0 -69.48)"/><path class="cls-9" d="M538,121h5.63l-4.91-23.53h-4.92a2.81,2.81,0,0,0-2.83,1.75L521.8,121h6.39l1.27-3.49h7.79Zm-6.74-8.32,3.22-8.81,1.81,8.81Z" transform="translate(0 -69.48)"/><path class="cls-9" d="M522.28,103.08l.87-5.06a17.79,17.79,0,0,0-5.51-1c-3,0-10.26,1.33-10.26,7.79,0,6.08,8.48,6.15,8.48,9.35s-7.61,2.62-10.11.6l-.92,5.29a17.19,17.19,0,0,0,6.92,1.33c4.18,0,10.49-2.17,10.49-8.06,0-6.12-8.55-6.69-8.55-9.35S519.66,101.63,522.28,103.08Z" transform="translate(0 -69.48)"/><path class="cls-3" d="M483.24,110.12l-2.06-10.58a2.62,2.62,0,0,0-2.9-2.12h-9.66l-.11.4a23.73,23.73,0,0,1,9.09,4.56A18.31,18.31,0,0,1,483.24,110.12Z" transform="translate(0 -69.48)"/><rect class="cls-10" x="590.95" y="0.5" width="125.43" height="78.39" rx="4.18"/><path class="cls-10" d="M661,109.86,659,99.28a2.62,2.62,0,0,0-2.9-2.12h-9.66l-.11.4a23.67,23.67,0,0,1,9.09,4.57A18.36,18.36,0,0,1,661,109.86Z" transform="translate(0 -69.48)"/><path class="cls-11" d="M621,111.47c0-5.25,3.55-8.94,8.52-8.94s8.38,3.69,8.38,8.94-3.27,9-8.52,9C624.37,120.42,621,116.58,621,111.47Z" transform="translate(0 -69.48)"/><path class="cls-11" d="M646.8,111.47c0-5.25,3.55-8.94,8.52-8.94s8.38,3.69,8.38,8.94-3.27,9-8.52,9C650.21,120.42,646.8,116.58,646.8,111.47Z" transform="translate(0 -69.48)"/><path class="cls-11" d="M672.64,111.47c0-5.25,3.55-8.94,8.52-8.94s8.38,3.69,8.38,8.94-3.26,9-8.52,9C676.05,120.42,672.64,116.58,672.64,111.47Z" transform="translate(0 -69.48)"/><rect class="cls-12" x="295.73" y="0.5" width="125.43" height="78.39" rx="4.18"/><path class="cls-9" d="M334.64,107.35V106.1l-.6,1.25h-5.19L328.2,106v1.34h-9.71l-1.15-2.71H315.4l-1.22,2.71h-5V99.16l3.69-8.35h7.06l1,2.36V90.83h8.64l1.9,4,1.86-4h27.28a4.66,4.66,0,0,1,2.37.64v-.64h6.87v.9a5.64,5.64,0,0,1,3.07-.9H385l1.07,2.4v-2.4h7.76l1.41,2.4v-2.4h7.43v16.56H395l-1.79-2.89v2.87h-9.49l-1.33-3h-1.86l-1.25,3h-5.74a7.51,7.51,0,0,1-3.75-1.17v1.17H358.4v-3.86c0-.56-.43-.52-.43-.52h-.42v4.38Z" transform="translate(0 -69.48)"/><path class="cls-9" d="M328.94,110.94h15l2.17,2.45,2.22-2.45h11.54a5.24,5.24,0,0,1,2.12.57v-.57h10.28a5.28,5.28,0,0,1,2.4.65v-.65h13.21v.6a4.49,4.49,0,0,1,2.21-.6h8.61v.6a5.25,5.25,0,0,1,2.23-.6h6.76v15.6a3.73,3.73,0,0,1-2.73,1h-8.91v-.5a4.56,4.56,0,0,1-2.14.5H370.25v-4c0-.39-.18-.47-.53-.47h-.33v4.51H362v-4.48a5,5,0,0,1-2.19.44h-2.67v4H348L346,125l-2.22,2.53H328.94Z" transform="translate(0 -69.48)"/><polygon class="cls-13" points="376.26 43.95 385.69 43.95 385.69 46.48 379.15 46.48 379.15 48.68 385.5 48.68 385.5 50.91 379.15 50.91 379.15 53.22 385.69 53.22 385.69 55.69 376.26 55.69 376.26 43.95"/><path class="cls-13" d="M403.89,118c3.54.18,3.84,2,3.84,3.84a3.43,3.43,0,0,1-3.69,3.38H398V122.7h4.72c.8,0,2,0,2-1.12,0-.54-.21-.88-1.06-1-.38-.06-1.78-.13-2-.14-3.2-.08-3.95-1.67-3.95-3.61a3.24,3.24,0,0,1,3.44-3.41h6.05V116h-4.43c-1,0-2.1-.12-2.1,1,0,.72.54.87,1.22.93Z" transform="translate(0 -69.48)"/><path class="cls-13" d="M393,118c3.54.18,3.84,2,3.84,3.84a3.43,3.43,0,0,1-3.7,3.38h-6.05V122.7h4.72c.8,0,2,0,2-1.12,0-.54-.21-.88-1.06-1-.38-.06-1.78-.13-2-.14-3.21-.08-4-1.67-4-3.61a3.24,3.24,0,0,1,3.44-3.41h6.05V116H391.9c-1,0-2.1-.12-2.1,1,0,.72.54.87,1.22.93Z" transform="translate(0 -69.48)"/><path class="cls-13" d="M358.86,113.45H348.75l-3.3,3.65-3.2-3.67H330.89v11.74h11l3.46-3.88,3.38,3.91h5.53v-4h3.88c1.49,0,4.22,0,4.22-4.17A3.26,3.26,0,0,0,358.86,113.45Zm-18.48,9.25h-6.65v-2.32h6.36v-2.22h-6.36V116l7,0,2.81,3.2Zm11,1.37-4.14-4.9,4.14-4.59Zm6.5-5.28H354.3V116h3.6a1.42,1.42,0,1,1,0,2.82Z" transform="translate(0 -69.48)"/><path class="cls-13" d="M372.79,119.85a3.22,3.22,0,0,0,2-3.25c0-2.52-2-3.15-3.46-3.15h-7.49V125.2h2.88v-4.15h3.77c1,0,1.39,1,1.42,2l.07,2.16h2.81l-.11-2.42C374.67,120.89,374.15,120,372.79,119.85Zm-2.49-1.22h-3.59V116h3.6a1.39,1.39,0,0,1,1.59,1.35C371.9,118.11,371.48,118.63,370.3,118.63Z" transform="translate(0 -69.48)"/><rect class="cls-13" x="364.98" y="23.68" width="2.88" height="11.75"/><polygon class="cls-13" points="341.38 23.69 350.81 23.69 350.81 26.22 344.27 26.22 344.27 28.42 350.62 28.42 350.62 30.65 344.27 30.65 344.27 32.97 350.81 32.97 350.81 35.43 341.38 35.43 341.38 23.69"/><path class="cls-13" d="M361.48,99.57a3.22,3.22,0,0,0,2-3.25c0-2.52-2-3.15-3.46-3.15h-7.49v11.74h2.88v-4.14h3.77c1,0,1.39,1,1.42,2l.08,2.15h2.8l-.1-2.41C363.37,100.62,362.84,99.72,361.48,99.57ZM359,98.35H355.4V95.69H359c1.21,0,1.59.77,1.59,1.35C360.59,97.83,360.17,98.35,359,98.35Z" transform="translate(0 -69.48)"/><path class="cls-13" d="M334.74,93.17l-3.54,7.88-3.53-7.88h-4.52v11.31l-5-11.31h-3.81l-5.14,11.74h3l1.13-2.62h5.75l1.14,2.62H326V96.2l3.85,8.71h2.62l3.94-8.57v8.57h2.89V93.17Zm-20.31,6.59,1.72-4.1,1.79,4.1Z" transform="translate(0 -69.48)"/><path class="cls-13" d="M397.61,93.17v8.13l-4.86-8.13h-4.26v11l-4.91-11h-3.82l-4,9.1s-1.68,0-1.85,0c-.69-.15-1.78-.64-1.79-2.71v-.85c0-2.75,1.49-3,3.41-3h1.78V93.17h-3.76c-1.31,0-4.17,1-4.26,5.82-.07,3.25,1.35,5.93,4.55,5.93h3.8l1.12-2.62h5.75l1.14,2.62h5.69v-8.6l5.19,8.6h3.93V93.17Zm-17.71,6.6,1.72-4.11,1.81,4.11Z" transform="translate(0 -69.48)"/></g></g></svg>