<svg xmlns="http://www.w3.org/2000/svg" viewBox="0 0 93.18 93.08"><g id="Layer_2" data-name="Layer 2"><g id="Layer_2-2" data-name="Layer 2"><path d="M3.2,29c1.47-5.86,7.48-9.83,13.38-7.41,1,.4,1.44-1.22.45-1.61C10.8,17.49,2.5,21.8,2,28.8A.59.59,0,0,0,3.2,29Z" style="fill:#231f20"/><path d="M17.62,21.82C22.25,8.46,35.1,2.47,48.59,2.23,61.1,2,74.18,4.79,82.55,14.78,98.29,33.57,90.29,70,64.09,74.66c-1.36.24-1.06,2.6.32,2.43,13.21-1.63,22.78-14,26.68-25.89,4.18-12.78,2.12-27-6.5-37.43C75.09,2.23,59.4-1,45.06.25,32.68,1.31,19,8.16,16.83,21.6a.41.41,0,0,0,.79.22Z" style="fill:#231f20"/><path d="M63.43,76.19c-1.29,6.86,3.32,13.54,9.65,15.89,1.29.48,1.85-1.58.57-2-5.91-2.2-9.14-7.62-9.47-13.74,0-.41-.67-.55-.75-.1Z" style="fill:#231f20"/><path d="M48.33,77.77c2.93,10.18,14.16,17,24.56,15,1-.2.81-1.93-.25-1.83-10.33.93-19.14-4-23.64-13.41-.18-.38-.78-.11-.67.28Z" style="fill:#231f20"/><path d="M2.09,27.44C-4.25,41.52,4.7,59.23,17.42,66.15c1.21.65,2.29-1.21,1.08-1.85C4.56,57,.23,42.34,2.65,27.67c.05-.31-.41-.58-.56-.23Z" style="fill:#231f20"/><path d="M17.74,66.4A18.39,18.39,0,0,0,28.81,87.54c7.83,3.14,17.87.8,20.9-7.68.53-1.47-1.81-2.11-2.33-.65-2.8,8-13.25,9-19.81,5.34s-9.27-10.65-8.67-18a.59.59,0,0,0-1.16-.16Z" style="fill:#231f20"/><path d="M5.26,33.18a24.29,24.29,0,0,0,8.87,22c.29.23.7-.18.41-.41a24.31,24.31,0,0,1-9-21.6c0-.19-.27-.18-.3,0Z" style="fill:#231f20"/><path d="M8,41.26a17.85,17.85,0,0,0,9.59,14.42c.3.16.56-.29.26-.44a17.77,17.77,0,0,1-9.62-14c0-.14-.24-.14-.23,0Z" style="fill:#231f20"/><path d="M36.47,83.05a7,7,0,0,0,3.5-.4c.22-.08.12-.44-.1-.35a6.73,6.73,0,0,1-3.35.4c-.2,0-.25.32-.05.35Z" style="fill:#231f20"/><path d="M36,81.52A5.3,5.3,0,0,0,40.45,81c.32-.19,0-.7-.29-.5a5.56,5.56,0,0,1-4.06.68.2.2,0,0,0-.1.38Z" style="fill:#231f20"/><path d="M76.88,16.21A28.52,28.52,0,0,1,83,28.6c.07.29.51.17.45-.12A27.45,27.45,0,0,0,77.1,16c-.14-.15-.35.07-.22.23Z" style="fill:#231f20"/><path d="M76.71,13.33c6.15,8.51,9.68,17.75,9.38,28.35,0,.48.73.48.74,0,.23-10.3-2.94-20.76-9.91-28.51-.1-.1-.3,0-.21.16Z" style="fill:#231f20"/><path d="M54.78,28.65l-.6.46a1.78,1.78,0,0,0-.39.63c-.51,1.34-.82,5-.91,11.07.84.19,1.27.47,1.27.84a1.47,1.47,0,0,1-.32.81l-1,.43a43.32,43.32,0,0,0,.35,4.54,11.12,11.12,0,0,0,.35,1.06,3.44,3.44,0,0,1,.25,1,1.4,1.4,0,0,1-.32.84.9.9,0,0,1-.74.43c-.63,0-1.07-.47-1.3-1.41,0-.12-.12-.87-.28-2.24s-.25-2.26-.25-2.66a5.76,5.76,0,0,1,.11-1.2,30.09,30.09,0,0,0-5.17.6q-2.54.48-5.09,1l-.64.64c0,.88,0,1.79,0,2.7a4.8,4.8,0,0,0,.7,2.67c-.09.3-.24.45-.44.45a1.88,1.88,0,0,0-.7.16,1.8,1.8,0,0,1-.62.16c-.44,0-.73-.87-.84-2.62,0-1.09-.09-2.18-.11-3.27l-.25-.35h-.14a1.45,1.45,0,0,1-.84-.27.78.78,0,0,1-.39-.68,1.78,1.78,0,0,1,.32-.8q.31-.51.63-.51h.39l.17,0q0-1.55,0-6.18,0-6.14.85-8.35a1.3,1.3,0,0,1,1.26-.94,1.87,1.87,0,0,1,1.1.37,1.09,1.09,0,0,1,.53.93,3.32,3.32,0,0,1-.33.95q-.36.89-.39,1a39.7,39.7,0,0,0-1,10.22c0,1.06.2,1.59.61,1.59.11,0,.74-.12,1.87-.35a35.55,35.55,0,0,1,5.09-.71,5,5,0,0,0,1.08-.19,6,6,0,0,1,1.49-.19c.48,0,.71-.33.68-1l-.07-3.1a42.84,42.84,0,0,1,.29-6q.52-4.73,1.9-4.73a1.61,1.61,0,0,1,1.27.74A2.77,2.77,0,0,1,54.78,28.65Z" style="fill:#231f20"/><path d="M58.87,37.14a9.08,9.08,0,0,1-.3,1.9,9.25,9.25,0,0,0-.3,1.91v7.79a9.1,9.1,0,0,0,.35,2.11.42.42,0,0,1-.39.28c-1.15,0-1.72-.55-1.72-1.65V36.54a1.88,1.88,0,0,1,.88-.24,1.91,1.91,0,0,1,.88.24Q58.87,36.8,58.87,37.14Zm.67-5.28c0,.79-.38,1.19-1.13,1.19a1.8,1.8,0,0,1-1.23-.49,1.46,1.46,0,0,1-.57-1.13,1.06,1.06,0,0,1,1.2-1.2,1.8,1.8,0,0,1,1.22.46A1.52,1.52,0,0,1,59.54,31.86Z" style="fill:#231f20"/></g></g></svg>