<svg xmlns="http://www.w3.org/2000/svg" viewBox="0 0 176.04 144.72"><g id="Layer_2" data-name="Layer 2"><g id="Layer_1-2" data-name="Layer 1"><path d="M0,31.61C0,22.24,2.74,14.24,8.49,8.49l10,10C7.36,29.58,17.08,64.06,48.77,95.78S115,137.21,126.08,126.1l10,10c-18.76,18.76-61.49,5.45-97.26-30.33C14,81,0,52.79,0,31.61Z" style="fill:#009a46"/><path d="M63.06,144.72c-9.37,0-17.37-2.74-23.13-8.49l10-10c11.11,11.11,45.59,1.39,77.31-30.32s41.42-66.19,30.31-77.3l10-10c18.77,18.76,5.45,61.49-30.33,97.26C112.4,130.72,84.24,144.72,63.06,144.72Z" style="fill:#ff5805"/><path d="M140.53,91.56C134.46,74.08,122.06,55.4,105.61,39,69.84,3.18,27.11-10.14,8.35,8.63h0C7,10,8.17,13.28,10.93,16s6.07,3.9,7.4,2.57C29.45,7.5,63.93,17.22,95.64,48.94c15,15,26.18,31.75,31.57,47.25,4.72,13.59,4.26,24.55-1.24,30.05h0c-1.34,1.33-.18,4.65,2.57,7.4s6.07,3.91,7.41,2.57C145.56,126.6,147.19,110.72,140.53,91.56Z" style="fill:#f5afcb"/><path d="M167.53,8.63C157.9-1,142-2.63,122.86,4,105.39,10.1,86.7,22.51,70.26,39c-35.77,35.77-49.09,78.5-30.33,97.27h0c1.34,1.33,4.65.18,7.41-2.57s3.91-6.07,2.57-7.41c-11.14-11.11-1.39-45.59,30.33-77.31,15-15,31.75-26.18,47.25-31.57,13.59-4.71,24.55-4.26,30.06,1.24h0c1.33,1.33,4.65.18,7.4-2.58S168.86,10,167.53,8.63Z" style="fill:#ff9b00"/></g></g></svg>