<svg style="width:15px;margin-right:5px" xmlns="http://www.w3.org/2000/svg" viewBox="0 0 242 218.2"><g id="Layer_2" data-name="Layer 2"><g id="Layer_1-2" data-name="Layer 1"><path d="M121,217.4A131.2,131.2,0,0,1,62.8,204l8.8-17.9A112.2,112.2,0,0,0,121,197.4c55.7,0,101-39.8,101-88.7S176.7,20,121,20,20,59.8,20,108.7c0,19.8,7.3,38.6,21.1,54.2l-15,13.2C9,156.8,0,133.5,0,108.7,0,48.8,54.3,0,121,0S242,48.8,242,108.7,187.7,217.4,121,217.4Z" style="fill:#646566"/><path d="M13.2,218.2a10.1,10.1,0,0,1-7.9-3.8,10.3,10.3,0,0,1-1-10.9l.7-1.1,19.7-37.5a10,10,0,0,1,17.7,9.3l-10,19.1,32.5-7.9a9.9,9.9,0,0,1,12,7.3,10,10,0,0,1-7.3,12.1L15.5,217.9A9.1,9.1,0,0,1,13.2,218.2Z" style="fill:#646566"/></g></g></svg>
