<svg xmlns="http://www.w3.org/2000/svg" viewBox="0 0 475 253"><g id="Layer_2" data-name="Layer 2"><g id="Layer_1-2" data-name="Layer 1"><rect x="1" y="1" width="472.9" height="250.92" rx="19" style="fill:#fff"/><path d="M454.9,2.1a18.1,18.1,0,0,1,18,18V232.9a18.1,18.1,0,0,1-18,18H20.1a18.1,18.1,0,0,1-18-18V20.1a18.1,18.1,0,0,1,18-18H454.9m0-2.1H20.1A20.1,20.1,0,0,0,0,20.1V232.9A20.1,20.1,0,0,0,20.1,253H454.9A20.1,20.1,0,0,0,475,232.9V20.1A20.1,20.1,0,0,0,454.9,0Z" style="fill:#999"/><path d="M475,47H0V8.7A8.7,8.7,0,0,1,8.7,0H466.3A8.7,8.7,0,0,1,475,8.7Z" style="fill:#333"/><rect x="38" y="72" width="189" height="66" rx="11.8" style="fill:#e6e6e6"/><rect x="38" y="157" width="189" height="27" rx="13.5" style="fill:#e6e6e6"/><rect x="38" y="201" width="409" height="31" rx="15.5" style="fill:#e6e6e6"/><rect x="257" y="72" width="190" height="112" rx="16.3" style="fill:#e6e6e6"/><rect x="38" y="16" width="89" height="16" rx="8" style="fill:#666"/><rect x="158" y="16" width="89" height="16" rx="8" style="fill:#666"/><rect x="278" y="16" width="89" height="16" rx="8" style="fill:#666"/><circle cx="440.5" cy="23.5" r="14.5" style="fill:#666"/></g></g></svg>