<svg xmlns="http://www.w3.org/2000/svg" viewBox="0 0 475 253"><g id="Layer_2" data-name="Layer 2"><g id="Layer_1-2" data-name="Layer 1"><rect x="1" y="1" width="472.9" height="250.92" rx="19" style="fill:#fff"/><path d="M454.9,2.1a18.1,18.1,0,0,1,18,18V232.9a18.1,18.1,0,0,1-18,18H20.1a18.1,18.1,0,0,1-18-18V20.1a18.1,18.1,0,0,1,18-18H454.9m0-2.1H20.1A20.1,20.1,0,0,0,0,20.1V232.9A20.1,20.1,0,0,0,20.1,253H454.9A20.1,20.1,0,0,0,475,232.9V20.1A20.1,20.1,0,0,0,454.9,0Z" style="fill:#999"/><path d="M120,253H11.1A11.1,11.1,0,0,1,0,241.9V10.1A10.1,10.1,0,0,1,10.1,0H120Z" style="fill:#4d4d4d"/><rect x="141" y="25" width="141.4" height="66" rx="10.2" style="fill:#e6e6e6"/><rect x="141" y="110" width="141.4" height="27" rx="11.7" style="fill:#e6e6e6"/><rect x="141" y="154" width="306" height="81" rx="11.3" style="fill:#e6e6e6"/><rect x="304.8" y="25" width="142.2" height="112" rx="14.1" style="fill:#e6e6e6"/><rect x="16" y="42" width="89" height="16" rx="8" style="fill:#666"/><rect x="16" y="84.5" width="89" height="16" rx="8" style="fill:#666"/><rect x="15" y="127" width="89" height="16" rx="8" style="fill:#666"/><rect x="61" y="214" width="43" height="16" rx="5.6" style="fill:#666"/><circle cx="34" cy="222" r="18" style="fill:#666"/></g></g></svg>