<?xml version="1.0" encoding="utf-8"?>
<!-- Generator: Adobe Illustrator 19.2.0, SVG Export Plug-In . SVG Version: 6.00 Build 0)  -->
<svg version="1.1" id="Layer_1" xmlns="http://www.w3.org/2000/svg" xmlns:xlink="http://www.w3.org/1999/xlink" x="0px" y="0px"
	 viewBox="0 0 120 26" style="enable-background:new 0 0 120 26;" xml:space="preserve">
<style type="text/css">
	.st0{fill:#2F4858;}
	.st1{fill:#3CCF91;}
</style>
<g>
	<path id="Fill-1_2_" class="st0" d="M23.5,15.8c-0.7,0.8-1.1,1.7-1.1,2.7c0,1.1,0.4,2,1.1,2.7c0.8,0.8,1.7,1.1,2.7,1.1
		c1.1,0,2-0.4,2.8-1.1c0.8-0.8,1.1-1.7,1.1-2.7c0-1.1-0.4-2-1.1-2.7c-0.8-0.8-1.7-1.1-2.8-1.1C25.2,14.7,24.2,15.1,23.5,15.8
		L23.5,15.8z M30.1,24.8c-1.2,0.7-2.5,1.1-3.9,1.1c-2,0-3.8-0.7-5.2-2.2c-1.4-1.4-2.2-3.2-2.2-5.2c0-2,0.7-3.8,2.2-5.2
		c1.4-1.5,3.2-2.2,5.2-2.2c2,0,3.8,0.7,5.2,2.2c1.4,1.4,2.2,3.2,2.2,5.2v7.4h-3.5V24.8z"/>
	<path id="Fill-1_1_" class="st0" d="M50,15.8c-0.7,0.8-1.1,1.7-1.1,2.7c0,1.1,0.4,2,1.1,2.7c0.8,0.8,1.7,1.1,2.7,1.1
		c1.1,0,2-0.4,2.8-1.1c0.8-0.8,1.1-1.7,1.1-2.7c0-1.1-0.4-2-1.1-2.7c-0.8-0.8-1.7-1.1-2.8-1.1C51.7,14.7,50.8,15.1,50,15.8L50,15.8z
		 M56.7,24.8c-1.2,0.7-2.5,1.1-3.9,1.1c-2,0-3.8-0.7-5.2-2.2c-1.4-1.4-2.2-3.2-2.2-5.2c0-2,0.7-3.8,2.2-5.2c1.4-1.5,3.2-2.2,5.2-2.2
		c2,0,3.8,0.7,5.2,2.2c1.4,1.4,2.2,3.2,2.2,5.2v7.4h-3.5V24.8z"/>
	<path id="Fill-3_1_" class="st0" d="M9.6,14.6c-1.1,0-2,0.4-2.8,1.1c-0.8,0.8-1.1,1.7-1.1,2.8c0,1.1,0.4,2,1.1,2.8
		c0.8,0.8,1.7,1.1,2.8,1.1c1.1,0,2-0.4,2.7-1.1c0.8-0.8,1.1-1.7,1.1-2.8c0-1.1-0.4-2-1.1-2.8C11.5,15,10.6,14.6,9.6,14.6L9.6,14.6z
		 M16.9,18.5c0,2-0.7,3.8-2.2,5.3c-1.4,1.5-3.2,2.2-5.2,2.2c-2,0-3.8-0.7-5.2-2.2s-2.2-3.2-2.2-5.3c0-2.1,0.7-3.8,2.2-5.3
		c1.4-1.5,3.2-2.2,5.2-2.2c1.4,0,2.8,0.4,3.9,1.1V0.1h3.5V18.5z"/>
	<g>
		<g>
			<path class="st0" d="M41,9.9V13h2.2v2.5H41v6.3c0,0.5,0.1,0.8,0.3,1s0.5,0.3,1,0.3c0.4,0,0.7,0,1-0.1v2.6
				c-0.7,0.2-1.3,0.3-2.1,0.3c-2.4,0-3.6-1.2-3.6-3.6v-6.8h-1.9V13h1.9V9.9H41z"/>
		</g>
		<rect x="35.7" y="13" class="st0" width="7.5" height="3.3"/>
	</g>
	<path class="st0" d="M69.8,11.5c2,0,3.7,0.7,5.1,2.1c1.4,1.4,2.1,3,2.1,5v7.3h-3.4v-7.3c0-1-0.4-1.9-1.1-2.6
		c-0.7-0.7-1.6-1.1-2.6-1.1S68,15.3,67.3,16c-0.7,0.7-1.1,1.6-1.1,2.6v7.3h-3.4v-7.3c0-2,0.7-3.6,2.1-5
		C66.1,12.2,67.8,11.5,69.8,11.5L69.8,11.5z"/>
	<g>
		<polygon class="st0" points="93.9,25.9 98.2,25.9 101.7,21.5 99.5,18.7 		"/>
		<polygon class="st0" points="101.7,21.5 105.1,25.9 109.4,25.9 103.9,18.7 		"/>
		<polygon class="st1" points="117.8,0.7 107.6,13.7 103.7,18.8 101.5,21.7 99.4,18.8 99.4,18.8 93.9,11.5 98.2,11.5 101.5,16 
			104.9,11.6 104.8,11.6 113.4,0.8 		"/>
	</g>
	<g>
		<g>
			<path class="st0" d="M92.1,19.6h-9.5c0.1,1,0.4,1.9,1,2.4c0.6,0.6,1.3,0.9,2.1,0.9c1.2,0,2.1-0.6,2.6-1.7h3.5
				c-0.4,1.4-1.1,2.5-2.2,3.4c-1.1,0.9-2.4,1.3-3.9,1.3c-1.3,0-2.4-0.3-3.4-0.9s-1.8-1.5-2.3-2.6c-0.6-1.1-0.8-2.4-0.8-3.9
				c0-1.5,0.3-2.8,0.8-3.9c0.5-1.1,1.3-2,2.3-2.6c1-0.6,2.1-0.9,3.4-0.9c1.2,0,2.3,0.3,3.3,0.9c1,0.6,1.7,1.4,2.3,2.5
				c0.5,1.1,0.8,2.3,0.8,3.7C92.2,18.7,92.2,19.2,92.1,19.6z M88.8,17.2c0-0.9-0.3-1.7-0.9-2.2s-1.3-0.8-2.2-0.8
				c-0.8,0-1.5,0.3-2.1,0.8c-0.6,0.5-0.9,1.3-1,2.3H88.8z"/>
		</g>
		<rect x="82.6" y="16.3" class="st0" width="6.3" height="2.1"/>
	</g>
</g>
</svg>