<svg xmlns="http://www.w3.org/2000/svg" viewBox="0 0 389.3 60.1"><defs><style>.cls-1{fill:#fff;}.cls-2{fill:#65c8d0;}.cls-3{fill:none;stroke:#65c8d0;stroke-linecap:round;stroke-linejoin:round;stroke-width:5px;}</style></defs><g id="Layer_2" data-name="Layer 2"><g id="Layer_1-2" data-name="Layer 1"><path class="cls-1" d="M38.5,61.2,36.6,48.6H16.9l-7,12.6H0L29.5,10.8h9.9l8,50.4ZM33.1,20.8V18.4H33a33.4,33.4,0,0,1-1.6,3.8L20.5,41.5H35.7l-2.4-19A7.2,7.2,0,0,1,33.1,20.8Z" transform="translate(0 -4.8)"/><path class="cls-1" d="M82.7,33.7a13,13,0,0,0-3.3-1.9A12.7,12.7,0,0,0,75,31a10.4,10.4,0,0,0-6.1,2,13,13,0,0,0-4.5,5.7,17.8,17.8,0,0,0-1.8,7.8c0,2.9.7,5.1,2,6.6a6.9,6.9,0,0,0,5.5,2.3,13.9,13.9,0,0,0,4.7-.9,19.3,19.3,0,0,0,4.3-2.2l-1.4,7.2a22.2,22.2,0,0,1-10,2.6c-4.2,0-7.6-1.3-10-3.9s-3.6-6.3-3.6-10.9a25.4,25.4,0,0,1,2.7-11.6A20.2,20.2,0,0,1,75.3,24.3a22.2,22.2,0,0,1,5.1.6,14.8,14.8,0,0,1,3.9,1.6Z" transform="translate(0 -4.8)"/><path class="cls-1" d="M118.6,34.1c0,4.3-2,7.5-6.1,9.5s-10.1,3.2-18.3,3.3V48a7,7,0,0,0,2.2,5.6,8.4,8.4,0,0,0,6.1,2.1,20.1,20.1,0,0,0,5.7-1,31.7,31.7,0,0,0,5.6-2.5l-1.4,7a24.8,24.8,0,0,1-11.8,2.9c-4.6,0-8.3-1.3-10.9-3.9s-3.9-6.3-3.9-11a25.3,25.3,0,0,1,2.7-11.5,20.6,20.6,0,0,1,7.4-8.3,18.7,18.7,0,0,1,10.5-3.1q5.7,0,9,2.7A8.6,8.6,0,0,1,118.6,34.1Zm-8.2.2a3.6,3.6,0,0,0-1.3-2.8,5.7,5.7,0,0,0-3.6-1.1,9.5,9.5,0,0,0-6.7,3.1,14.8,14.8,0,0,0-4,7.5C105.2,41,110.4,38.8,110.4,34.3Z" transform="translate(0 -4.8)"/><path class="cls-1" d="M130.6,61.8c-2.6,0-4.6-.6-6-1.9a7.4,7.4,0,0,1-2-5.5,45.8,45.8,0,0,1,1.3-8.5c.9-4.1,3.6-16.8,8.1-38h8.6l-8.6,40a42.9,42.9,0,0,0-.7,4.5c0,1.8,1,2.7,3.1,2.7a8.3,8.3,0,0,0,3.2-.6L136.2,61A21,21,0,0,1,130.6,61.8Z" transform="translate(0 -4.8)"/><path class="cls-1" d="M151.3,61.8c-2.6,0-4.6-.6-5.9-1.9a7.1,7.1,0,0,1-2.1-5.5,48.8,48.8,0,0,1,1.4-8.5c.9-4.1,3.6-16.8,8.1-38h8.5l-8.5,40a25.8,25.8,0,0,0-.7,4.5q0,2.7,3,2.7a7.9,7.9,0,0,0,3.2-.6L157,61A21.2,21.2,0,0,1,151.3,61.8Z" transform="translate(0 -4.8)"/><path class="cls-1" d="M196.3,34.1a10,10,0,0,1-6,9.5c-4.1,2.1-10.2,3.2-18.4,3.3V48a7.4,7.4,0,0,0,2.2,5.6,8.5,8.5,0,0,0,6.1,2.1,20.1,20.1,0,0,0,5.7-1,31.7,31.7,0,0,0,5.6-2.5l-1.4,7a24.7,24.7,0,0,1-11.7,2.9c-4.7,0-8.3-1.3-10.9-3.9s-4-6.3-4-11a25.3,25.3,0,0,1,2.7-11.5,20.8,20.8,0,0,1,7.5-8.3A18.4,18.4,0,0,1,184,24.3q5.7,0,9,2.7A8.6,8.6,0,0,1,196.3,34.1Zm-8.2.2a3.3,3.3,0,0,0-1.3-2.8,5.4,5.4,0,0,0-3.5-1.1,9.6,9.6,0,0,0-6.8,3.1,15.6,15.6,0,0,0-4,7.5C182.9,41,188.1,38.8,188.1,34.3Z" transform="translate(0 -4.8)"/><path class="cls-2" d="M339.5,64h-8.6c0-.6.1-1.7.2-3.2s.3-2.8.5-3.6h-.2a31.5,31.5,0,0,1-3.8,4.7,12.9,12.9,0,0,1-3.5,2.2,10.8,10.8,0,0,1-4.2.8,9.5,9.5,0,0,1-8-3.7c-1.9-2.4-2.8-5.7-2.8-10a25.9,25.9,0,0,1,3.1-12.4,20.1,20.1,0,0,1,8.2-8.8,24.2,24.2,0,0,1,12-2.9,67,67,0,0,1,13.5,1.7l-5,23.5a58.3,58.3,0,0,0-.9,6.1A51.3,51.3,0,0,0,339.5,64Zm-3.2-30a18.6,18.6,0,0,0-4.8-.5,12.4,12.4,0,0,0-7.1,2.1,14.5,14.5,0,0,0-4.9,6.3,22.6,22.6,0,0,0-1.9,8.9,9.1,9.1,0,0,0,1.4,5.4,4.4,4.4,0,0,0,3.9,1.9q3.9,0,6.9-3.9a26.6,26.6,0,0,0,4.4-10.5Z" transform="translate(0 -4.8)"/><path class="cls-2" d="M358.6,64.6a8.1,8.1,0,0,1-5.9-2,7.1,7.1,0,0,1-2.1-5.5,19.8,19.8,0,0,1,.4-3.6L356.3,28h8.5L360,50.7a25.8,25.8,0,0,0-.7,4.5c0,1.8,1,2.7,3.1,2.7a8.7,8.7,0,0,0,3.2-.6l-1.4,6.5A23.6,23.6,0,0,1,358.6,64.6Zm9.5-48.8a4.5,4.5,0,0,1-1.5,3.5,5.3,5.3,0,0,1-3.7,1.4,5.2,5.2,0,0,1-3.6-1.3,4.2,4.2,0,0,1-1.4-3.3,4.4,4.4,0,0,1,1.5-3.5,5.7,5.7,0,0,1,3.8-1.3,5.5,5.5,0,0,1,3.5,1.2A4.5,4.5,0,0,1,368.1,15.8Z" transform="translate(0 -4.8)"/><path class="cls-2" d="M379.3,64.6a8.1,8.1,0,0,1-5.9-2,6.9,6.9,0,0,1-2.1-5.4,48.8,48.8,0,0,1,1.4-8.5c.8-4.1,3.5-16.8,8-38h8.6l-8.5,40a30.4,30.4,0,0,0-.8,4.5c0,1.8,1.1,2.7,3.1,2.7a7.9,7.9,0,0,0,3.2-.6L385,63.8A21.2,21.2,0,0,1,379.3,64.6Z" transform="translate(0 -4.8)"/><path class="cls-2" d="M307.4,4.9,310,8.1a4.3,4.3,0,0,0-.2,1.1c-.1.2-.1.4-.2.6L297.9,63.9H284.5l10.3-44c-9.6,9.8-19.1,19.7-28.7,29.6l-4.2-.6L246.7,21.7c-3.6,14-7.1,28-10.7,42.1l-11.6.2c4.6-18.3,9.3-36.5,14-54.8.3-1.5.7-2.9,1.5-3.4h10.2c-.3-.8-.2-.6-.1-.4s1.3,2.5,1.9,3.8l.3.6,13.7,26.5L291.7,9.8l.6-.6,4.2-4.3h10.9Z" transform="translate(0 -4.8)"/><path class="cls-2" d="M310,8.3a2.9,2.9,0,0,0-.2.9H238.4l.4-1.8a3.5,3.5,0,0,1,3.3-2.6h65.1A2.9,2.9,0,0,1,310,8.3Z" transform="translate(0 -4.8)"/><line class="cls-3" x1="203.3" y1="12.2" x2="228.9" y2="12.2"/><line class="cls-3" x1="213.5" y1="26.2" x2="225.3" y2="26.2"/><line class="cls-3" x1="218.8" y1="40.2" x2="221.9" y2="40.2"/></g></g></svg>