<?xml version="1.0" encoding="utf-8"?>
<!-- Generator: Adobe Illustrator 25.2.3, SVG Export Plug-In . SVG Version: 6.00 Build 0)  -->
<svg version="1.1" id="Layer_1" xmlns="http://www.w3.org/2000/svg" xmlns:xlink="http://www.w3.org/1999/xlink" x="0px" y="0px"
	 viewBox="0 0 474.3 60.1" style="enable-background:new 0 0 474.3 60.1;" xml:space="preserve">
<style type="text/css">
	.st0{fill:#FFFFFF;}
</style>
<g id="Layer_2_1_">
	<g id="Layer_1-2">
		<path class="st0" d="M81,56.4l-1.8-12.6H59.4l-7,12.6h-9.9L72.1,6h9.8l8,50.4H81z M75.6,16v-2.4h-0.2c-0.4,1.3-0.9,2.6-1.6,3.8
			L63.1,36.7h15.1l-2.4-19C75.7,17.1,75.6,16.6,75.6,16z"/>
		<path class="st0" d="M125.2,28.9c-1-0.8-2.1-1.4-3.3-1.9c-1.4-0.5-2.9-0.8-4.4-0.8c-2.2,0-4.3,0.7-6.1,2c-2,1.5-3.5,3.5-4.5,5.7
			c-1.2,2.4-1.8,5.1-1.8,7.8c0,2.9,0.7,5.1,2,6.6c1.4,1.6,3.5,2.4,5.6,2.3c1.6,0,3.1-0.3,4.6-0.9c1.6-0.6,3-1.3,4.4-2.2l-1.5,7.2
			c-3,1.6-6.4,2.5-9.9,2.6c-4.3,0-7.6-1.3-10.1-3.9s-3.6-6.3-3.6-10.9c0-4,0.9-8,2.7-11.6c1.7-3.5,4.3-6.4,7.6-8.4
			c3.3-2,7.1-3.1,10.9-3c1.7,0,3.4,0.2,5.1,0.6c1.4,0.4,2.7,0.9,4,1.6L125.2,28.9z"/>
		<path class="st0" d="M161.1,29.3c0.1,4.1-2.2,7.9-6,9.5c-4.1,2.1-10.2,3.2-18.4,3.3v1.1c-0.1,2.1,0.7,4.1,2.2,5.6
			c1.7,1.5,3.9,2.2,6.1,2.1c1.9-0.1,3.9-0.4,5.7-1c1.9-0.7,3.8-1.5,5.6-2.5l-1.4,7c-3.6,1.9-7.6,2.9-11.7,2.9
			c-4.7,0-8.3-1.3-10.9-3.9s-4-6.3-4-11c0-4,0.9-7.9,2.7-11.5c1.7-3.4,4.3-6.3,7.5-8.3c3.1-2.1,6.7-3.1,10.4-3.1
			c3.8,0,6.8,0.9,9,2.7C160,23.9,161.2,26.6,161.1,29.3z M152.9,29.5c0-1.1-0.5-2.1-1.3-2.8c-1-0.8-2.2-1.2-3.5-1.1
			c-2.6,0.1-5,1.2-6.8,3.1c-2,2.1-3.4,4.7-4,7.5C147.7,36.2,152.9,34,152.9,29.5L152.9,29.5z"/>
		<path class="st0" d="M173.1,57c-2.6,0-4.6-0.6-6-1.9c-1.4-1.5-2.1-3.5-2-5.5c0.2-2.9,0.7-5.7,1.3-8.5c0.9-4.1,3.6-16.8,8.1-38h8.6
			l-8.5,40c-0.4,1.5-0.6,3-0.8,4.5c0,1.8,1,2.7,3.1,2.7c1.1,0,2.2-0.2,3.2-0.6l-1.3,6.5C176.9,56.7,175,57,173.1,57z"/>
		<path class="st0" d="M193.8,57c-2.6,0-4.6-0.6-5.9-1.9c-1.4-1.5-2.2-3.5-2-5.5c0.2-2.9,0.6-5.7,1.3-8.5c0.9-4.1,3.6-16.8,8.1-38
			h8.5l-8.5,40c-0.4,1.5-0.6,3-0.7,4.5c0,1.8,1,2.7,3,2.7c1.1,0,2.2-0.2,3.2-0.6l-1.3,6.5C197.6,56.7,195.7,57,193.8,57z"/>
		<path class="st0" d="M238.8,29.3c0.1,4.1-2.2,7.9-6,9.5c-4,2.1-10.2,3.2-18.4,3.3v1.1c-0.1,2.1,0.6,4.1,2.1,5.6
			c1.7,1.5,3.9,2.2,6.1,2.1c1.9-0.1,3.9-0.4,5.7-1c2-0.6,3.8-1.5,5.6-2.5l-1.4,7c-3.6,1.9-7.6,2.9-11.7,2.9c-4.7,0-8.3-1.3-10.9-3.9
			s-3.9-6.3-3.9-11c0-4,0.9-7.9,2.6-11.5c1.7-3.4,4.3-6.3,7.5-8.3c3.1-2.1,6.8-3.1,10.5-3.1c3.7,0,6.7,0.9,8.9,2.7
			C237.7,23.9,238.9,26.5,238.8,29.3z M230.6,29.5c0.1-1.1-0.4-2.1-1.3-2.8c-1-0.8-2.2-1.2-3.5-1.1c-2.6,0.1-5,1.2-6.8,3.1
			c-2,2.1-3.4,4.7-3.9,7.5C225.4,36.2,230.6,34,230.6,29.5z"/>
		<path class="st0" d="M382.1,59.2h-8.7c0-1.1,0.1-2.1,0.3-3.2c0-1.2,0.2-2.4,0.4-3.6h-0.2c-1.1,1.7-2.4,3.3-3.8,4.7
			c-1,0.9-2.2,1.7-3.4,2.2c-1.4,0.5-2.8,0.8-4.3,0.8c-3.1,0.2-6-1.2-7.9-3.7c-1.9-2.4-2.9-5.7-2.9-10c0-4.3,1-8.6,3.1-12.4
			c1.8-3.7,4.6-6.8,8.2-8.8c3.7-2,7.8-3,12-2.9c4.5,0.1,9.1,0.7,13.5,1.7l-5,23.5c-0.3,1.6-0.6,3.7-0.9,6.1
			C382.3,55.5,382.1,57.3,382.1,59.2z M378.8,29.2c-1.6-0.4-3.2-0.6-4.8-0.5c-2.5,0-5,0.7-7.1,2.1c-2.2,1.6-3.9,3.8-4.9,6.3
			c-1.2,2.8-1.8,5.8-1.8,8.9c-0.1,1.9,0.3,3.8,1.3,5.4c0.9,1.3,2.4,2,4,1.9c2.5,0,4.8-1.3,6.8-3.9c2.2-3.1,3.7-6.7,4.4-10.5
			L378.8,29.2z"/>
		<path class="st0" d="M401.1,59.8c-2.2,0.1-4.3-0.6-5.9-2c-1.4-1.5-2.2-3.5-2-5.5c0-1.2,0.1-2.4,0.4-3.6l5.2-25.5h8.5l-4.7,22.7
			c-0.4,1.5-0.6,3-0.8,4.5c0,1.8,1,2.7,3.1,2.7c1.1,0,2.2-0.2,3.2-0.6l-1.4,6.5C404.9,59.5,403,59.8,401.1,59.8z M410.6,11
			c0,1.3-0.5,2.6-1.5,3.5c-1,0.9-2.3,1.4-3.7,1.4c-1.3,0.1-2.6-0.4-3.5-1.3c-1-0.8-1.6-2-1.5-3.3c-0.1-1.4,0.5-2.7,1.6-3.5
			c1-0.9,2.3-1.4,3.7-1.3c1.3,0,2.5,0.4,3.5,1.2C410.1,8.6,410.6,9.8,410.6,11z"/>
		<path class="st0" d="M421.8,59.8c-2.2,0.1-4.3-0.6-5.9-2c-1.5-1.4-2.2-3.4-2.1-5.4c0.2-2.9,0.7-5.7,1.4-8.5
			c0.9-4.1,3.6-16.8,8.1-38h8.5l-8.5,40c-0.4,1.5-0.6,3-0.7,4.5c0,1.8,1,2.7,3,2.7c1.1,0,2.2-0.2,3.2-0.6l-1.3,6.5
			C425.6,59.5,423.7,59.8,421.8,59.8z"/>
		<path class="st0" d="M349.9,0.1l2.6,3.2c-0.1,0.4-0.1,0.7-0.2,1.1s-0.1,0.4-0.2,0.6l-11.7,54.1H327l10.4-44l-28.8,29.7l-4.2-0.6
			l-15.2-27.3c-3.6,14-7.1,28-10.7,42.1l-11.6,0.2l14-54.8c0.3-1.5,0.7-2.9,1.5-3.4h10.2c-0.3-0.8-0.2-0.6-0.1-0.4s1.3,2.5,1.9,3.8
			l0.4,0.6c4.5,8.9,9.1,17.7,13.7,26.5L334.2,5l0.6-0.6l4.2-4.3H349.9z"/>
		<path class="st0" d="M352.5,3.5c-0.1,0.3-0.2,0.6-0.2,0.9h-71.4l0.4-1.8c0.4-1.5,1.7-2.6,3.3-2.6h65.1c1.6,0,2.9,1.3,2.9,2.9
			C352.6,3.1,352.5,3.3,352.5,3.5z"/>
		<path class="st0" d="M271.4,14.7h-25.6c-1.4,0-2.5-1.1-2.5-2.5s1.1-2.5,2.5-2.5h25.6c1.4,0,2.5,1.1,2.5,2.5S272.8,14.7,271.4,14.7
			z"/>
		<path class="st0" d="M267.8,28.7H256c-1.4,0-2.5-1.1-2.5-2.5s1.1-2.5,2.5-2.5h11.8c1.4,0,2.5,1.1,2.5,2.5S269.2,28.7,267.8,28.7z"
			/>
		<path class="st0" d="M264.4,42.7h-3.1c-1.4,0-2.5-1.1-2.5-2.5s1.1-2.5,2.5-2.5h3.1c1.4,0,2.5,1.1,2.5,2.5S265.8,42.7,264.4,42.7z"
			/>
	</g>
</g>
</svg>
