<svg xmlns="http://www.w3.org/2000/svg" version="1.1" viewBox="0 0 3261.5 2845.7">
  <path d="M3056 202L2852.5.5 2648.3 202l-203-201-204.8 201L2038.2 1.5 1832.9 202 1631.7 2l-206.5 200L1223.8 2.6 1017.4 202 816.6 3.1 609.7 202 409.4 3.6 202 202 0 4.1v2644.2c0 109 88.4 197.4 197.4 197.4h2252.3l811.8-804.8V0L3056 202z" fill-rule="evenodd" clip-rule="evenodd" fill="#e7e7e8"/>
  <path d="M1631.7 2.1l-206.5 200L1223.8 2.6 1017.4 202 816.6 3.1 609.7 202 409.4 3.6 202 202 0 4.1v2644.2c0 109 88.4 197.4 197.4 197.4h1434.3V2.1z" fill-rule="evenodd" clip-rule="evenodd" fill="#dcdddf"/>
  <rect x="207.5" y="1217.9" width="1423.5" height="1423.5" fill="#4657a6"/>
  <path d="M1351.3 1853.5H925.6V2030h245.1c-22.8 112.2-118.5 176.4-245.1 176.4-149.4 0-270.1-120.6-270.1-270.1s120.6-270.1 270.1-270.1c64.5 0 122.4 22.8 168.3 60.3l132.9-132.9c-81-70.5-184.8-114.3-301.3-114.3-253.5 0-457 203.4-457 457s203.7 457.3 457 457.3c228.6 0 436.3-166.2 436.3-457 .1-26.9-4.1-56-10.5-83.1z" fill="#fff"/>
  <rect x="207.5" y="549.8" width="1424.2" height="467.3" fill="#5a81c1"/>
  <rect x="1631.7" y="549.8" width="1424.3" height="467.3" fill="#3da6dd"/>
  <g fill="#c3c3c3">
    <rect x="1838.8" y="1223.9" width="1217.8" height="97.9"/>
    <rect x="1838.8" y="1427.7" width="1217.8" height="97.9"/>
    <rect x="1838.8" y="1631.6" width="1217.8" height="97.9"/>
    <rect x="1838.8" y="1835.5" width="1217.8" height="97.9"/>
    <rect x="1838.8" y="2039.4" width="1217.8" height="97.9"/>
    <rect x="1838.8" y="2243.3" width="792.2" height="97.9"/>
    <rect x="1838.8" y="2447.2" width="792.2" height="97.9"/>
  </g>
  <path d="M2449.7 2845.7l.7-603.3c.1-111.3 90.4-201.4 201.7-201.4h609.4l-811.8 804.7z" fill-rule="evenodd" clip-rule="evenodd" fill="#a4a4a4"/>
</svg>
