<svg xmlns="http://www.w3.org/2000/svg" width="130" height="40" fill="none" href="/"><g fill="#FDDD35" clip-path="url(#a)"><path d="M0 20.56v-1.083a5.055 5.055 0 0 0 
3.56-1.465 4.983 4.983 0 0 0 1.476-3.535h1.007a4.97 4.97 0 0 0 1.473 3.54 5.04 5.04 0 0 0 3.563 1.468v1.082a5.055 5.055 0 0 0-3.56 1.465 4.983 4.983 0 0 0-1.476 
3.535H5.036a4.97 4.97 0 0 0-1.473-3.54A5.066 5.066 0 0 0 0 20.56Zm5.036-7.96h8.66c4.23 0 7.253 3 7.253 7.4 0 4.401-3.021 7.4-7.252 7.4H5.036V40H8.66v-9.4h5.036c6.083 0 
10.878-4.76 10.878-10.6 0-5.839-4.795-10.6-10.878-10.6H5.036v3.2ZM37.587 9.36c3.182 0 6.002 1.6 7.774 4.12V10h3.626v20h-3.626v-3.48c-1.817 2.525-4.632 4.12-7.774 4.12-5.964 
0-11-4.68-11-10.64 0-5.959 5.037-10.64 11-10.64Zm0 18.08c4.672 0 7.774-3.2 7.774-7.44 0-4.28-3.06-7.44-7.774-7.44-4.19 0-7.374 3-7.374 7.44 0 4.441 3.184 7.44 7.374 
7.44ZM62.402 9.36c3.183 0 6.003 1.6 7.775 4.12V0h3.626v30h-3.626v-3.48c-1.772 2.525-4.592 4.12-7.775 4.12-5.962 0-10.998-4.68-10.998-10.64 0-5.959 5.035-10.64 10.998-10.64Zm0 
18.08c4.713 0 7.775-3.16 7.775-7.44 0-4.279-3.062-7.44-7.775-7.44-4.19 0-7.373 3-7.373 7.44 0 4.441 3.184 7.44 7.373 7.44ZM87.622 9.36c3.183 0 6.003 1.6 7.776 
4.12V0h3.626v30h-3.626v-3.48c-1.773 2.525-4.593 4.12-7.776 4.12-5.962 0-10.998-4.68-10.998-10.64 0-5.959 5.036-10.64 10.998-10.64Zm0 18.08c4.714 0 7.776-3.16 7.776-7.44 
0-4.279-3.062-7.44-7.776-7.44-4.19 0-7.372 3-7.372 7.44 0 4.441 3.182 7.44 7.372 7.44ZM102.645 30V0h3.627v30h-3.627ZM119.689 9.4c6.969 0 10.312 5.4 10.312 12.001h-17.402c.563 
3.88 3.465 6.4 7.09 6.4 2.498 0 4.431-1.12 5.881-3.32h3.908c-1.37 3.08-4.954 6.12-9.789 6.12-6.083 0-10.797-4.84-10.797-10.6 0-5.758 4.714-10.6 10.797-10.6Zm6.687 
9.202c0-3.282-2.82-6.402-6.687-6.402-3.625 0-6.527 2.526-7.09 6.402h13.777Z"></path></g><defs><clipPath id="a"><path fill="#fff" d="M0 
0h130v40H0z"></path></clipPath></defs></svg>
