<svg height="512pt" viewBox="0 0 512 512" width="512pt" xmlns="http://www.w3.org/2000/svg"><path d="m512 256c0 141.386719-114.613281 256-256 256s-256-114.613281-256-256 114.613281-256 256-256 256 114.613281 256 256zm0 0" fill="#ffc640"/><path d="m443.714844 85.207031-43.78125-40.929687c-41.015625-27.9375-90.566406-44.277344-143.933594-44.277344-21.074219 0-41.546875 2.566406-61.140625 7.367188l-191.03125 204.332031c-2.507813 14.390625-3.828125 29.191406-3.828125 44.300781 0 86.453125 42.863281 162.894531 108.488281 209.242188l335.925781-359.320313c5.527344-5.910156 5.214844-15.183594-.699218-20.714844zm0 0" fill="#cccbca"/><path d="m234.667969 5.09375 142.113281 132.863281c4.152344 3.878907 4.371094 10.386719.492188 14.535157l-85.539063 91.496093c-3.878906 4.148438-10.386719 4.367188-14.535156.488281l-142.117188-132.863281c-4.148437-3.878906-4.367187-10.386719-.488281-14.535156l85.535156-91.496094c3.878906-4.148437 10.390625-4.367187 14.539063-.488281zm0 0" fill="#465365"/><path d="m123.308594 124.210938 142.113281 132.863281c4.148437 3.878906 4.367187 10.386719.488281 14.535156l-85.535156 91.496094c-3.878906 4.148437-10.386719 4.367187-14.535156.488281l-142.117188-132.863281c-4.148437-3.878907-4.367187-10.386719-.488281-14.535157l85.535156-91.496093c3.878907-4.148438 10.386719-4.367188 14.539063-.488281zm0 0" fill="#3e4959"/><path d="m11.945312 243.328125c-3.207031-2.996094-7.8125-3.539063-11.535156-1.71875-.265625 4.761719-.410156 9.558594-.410156 14.390625 0 80.230469 36.917969 151.828125 94.679688 198.765625l59.871093-64.039063c3.878907-4.148437 3.660157-10.65625-.488281-14.535156zm0 0" fill="#242d3c"/><path d="m67.210938 428.886719c46.800781 51.078125 114.050781 83.113281 188.789062 83.113281 16.46875 0 32.570312-1.574219 48.175781-4.546875l147.214844-416.839844c-46.960937-55.421875-117.058594-90.613281-195.390625-90.613281-13.027344 0-25.824219.980469-38.328125 2.859375zm0 0" fill="#d9d8d7"/><path d="m230.511719 49.15625 183.445312 64.785156c5.355469 1.894532 8.164063 7.769532 6.273438 13.125l-41.710938 118.101563c-1.890625 5.355469-7.765625 8.164062-13.121093 6.273437l-183.445313-64.789062c-5.355469-1.890625-8.164063-7.765625-6.273437-13.121094l41.710937-118.101562c1.890625-5.359376 7.765625-8.164063 13.121094-6.273438zm0 0" fill="#21d8de"/><path d="m176.210938 202.910156 183.445312 64.789063c5.355469 1.890625 8.164062 7.765625 6.273438 13.121093l-41.710938 118.105469c-1.890625 5.355469-7.765625 8.164063-13.121094 6.273438l-183.445312-64.789063c-5.355469-1.890625-8.167969-7.765625-6.273438-13.121094l41.710938-118.105468c1.890625-5.355469 7.765625-8.164063 13.121094-6.273438zm0 0" fill="#16c6cc"/><path d="m305.355469 421.457031-183.445313-64.789062c-5.355468-1.890625-11.230468.917969-13.125 6.273437l-28.105468 79.582032c45.808593 43.074218 107.476562 69.476562 175.320312 69.476562 9.757812 0 19.382812-.566406 28.859375-1.628906l26.765625-75.792969c1.894531-5.355469-.914062-11.230469-6.269531-13.121094zm0 0" fill="#13adb2"/><path d="m462.75 14.660156v392.328125c-46.570312 63.660157-121.828125 105.011719-206.75 105.011719-14.601562 0-28.921875-1.21875-42.851562-3.578125v-493.761719c0-5.011718 2.511718-9.429687 6.339843-12.082031 2.363281-1.628906 5.230469-2.578125 8.3125-2.578125h220.289063c8.101562 0 14.660156 6.558594 14.660156 14.660156zm0 0" fill="#f2f2f2"/><path d="m240.675781 84.242188h194.546875c5.679688 0 10.285156 4.605468 10.285156 10.285156v125.25c0 5.683594-4.605468 10.285156-10.285156 10.285156h-194.546875c-5.679687 0-10.285156-4.601562-10.285156-10.285156v-125.25c0-5.679688 4.601563-10.285156 10.285156-10.285156zm0 0" fill="#ff6d3b"/><path d="m240.675781 247.304688h194.546875c5.679688 0 10.285156 4.605468 10.285156 10.285156v125.253906c0 5.679688-4.605468 10.285156-10.285156 10.285156h-194.546875c-5.679687 0-10.285156-4.605468-10.285156-10.285156v-125.253906c0-5.679688 4.601563-10.285156 10.285156-10.285156zm0 0" fill="#f15424"/><path d="m256 512c75.117188 0 142.679688-32.351562 189.507812-83.886719v-7.457031c0-5.679688-4.605468-10.285156-10.285156-10.285156h-194.546875c-5.679687 0-10.285156 4.605468-10.285156 10.285156v90.074219c8.421875.835937 16.964844 1.269531 25.609375 1.269531zm0 0" fill="#e64717"/><path d="m355.449219 42.867188c0 9.667968-7.835938 17.5-17.5 17.5-9.664063 0-17.5-7.832032-17.5-17.5 0-9.664063 7.835937-17.5 17.5-17.5 9.664062 0 17.5 7.835937 17.5 17.5zm0 0" fill="#cccbca"/></svg>