<svg xmlns="http://www.w3.org/2000/svg" viewBox="0 0 276.75 273.92"><defs><style>.cls-1{fill:#009ade;}.cls-2{fill:#002f87;}.cls-3{fill:#002169;}</style></defs><g id="Layer_2" data-name="Layer 2"><g id="Layer_1-2" data-name="Layer 1"><path class="cls-1" d="M186.74,200.18H165.22a3,3,0,0,0-3,2.52l-8.7,55.2a1.8,1.8,0,0,0,1.77,2.08h11a2.09,2.09,0,0,0,2.06-1.77l2.47-15.65a3,3,0,0,1,3-2.53h6.81c14.18,0,22.36-6.86,24.5-20.46,1-5.95,0-10.62-2.75-13.89C199.37,202.08,194,200.18,186.74,200.18Zm2.49,20.16c-1.18,7.73-7.08,7.73-12.79,7.73H173.2l2.27-14.43a1.81,1.81,0,0,1,1.78-1.52h1.48c3.89,0,7.56,0,9.45,2.22C189.31,215.66,189.66,217.63,189.23,220.34Z"/><path class="cls-2" d="M33.21,200.18H11.68a3,3,0,0,0-2.95,2.52L0,257.9A1.8,1.8,0,0,0,1.79,260H12.07a3,3,0,0,0,3-2.53l2.35-14.89A3,3,0,0,1,20.33,240h6.81c14.18,0,22.37-6.86,24.5-20.46,1-5.95,0-10.62-2.74-13.89C45.84,202.08,40.41,200.18,33.21,200.18Zm2.48,20.16c-1.17,7.73-7.08,7.73-12.78,7.73H19.66l2.28-14.43a1.79,1.79,0,0,1,1.77-1.52H25.2c3.88,0,7.55,0,9.45,2.22C35.78,215.66,36.12,217.63,35.69,220.34Z"/><path class="cls-2" d="M97.55,220.09H87.24a1.79,1.79,0,0,0-1.77,1.52L85,224.49l-.72-1.05c-2.24-3.24-7.21-4.32-12.18-4.32-11.39,0-21.12,8.63-23,20.74-1,6,.41,11.8,3.84,15.83,3.14,3.7,7.63,5.24,13,5.24A19.74,19.74,0,0,0,80.2,255l-.46,2.86A1.8,1.8,0,0,0,81.51,260H90.8a3,3,0,0,0,3-2.53l5.57-35.28A1.8,1.8,0,0,0,97.55,220.09ZM83.18,240.16A11.49,11.49,0,0,1,71.55,250,8,8,0,0,1,63,240a11.54,11.54,0,0,1,11.55-9.92,8.69,8.69,0,0,1,6.88,2.81A8.84,8.84,0,0,1,83.18,240.16Z"/><path class="cls-1" d="M251.09,220.09H240.78a1.78,1.78,0,0,0-1.77,1.52l-.46,2.88-.72-1.05c-2.23-3.24-7.21-4.32-12.17-4.32-11.39,0-21.12,8.63-23,20.74-1,6,.41,11.8,3.83,15.83,3.15,3.7,7.64,5.24,13,5.24A19.74,19.74,0,0,0,233.74,255l-.46,2.86a1.79,1.79,0,0,0,1.77,2.08h9.28a3,3,0,0,0,3-2.53l5.57-35.28A1.8,1.8,0,0,0,251.09,220.09Zm-14.37,20.07A11.5,11.5,0,0,1,225.09,250a8,8,0,0,1-8.54-10,11.54,11.54,0,0,1,11.55-9.92,8.67,8.67,0,0,1,6.87,2.81A8.88,8.88,0,0,1,236.72,240.16Z"/><path class="cls-2" d="M152.45,220.09H142.09a3,3,0,0,0-2.48,1.31l-14.29,21-6-20.22a3,3,0,0,0-2.87-2.14H106.22a1.8,1.8,0,0,0-1.7,2.38L115.93,256,105.2,271.09a1.79,1.79,0,0,0,1.46,2.83H117a3,3,0,0,0,2.46-1.28l34.45-49.73A1.79,1.79,0,0,0,152.45,220.09Z"/><path class="cls-1" d="M263.24,201.7l-8.84,56.2a1.8,1.8,0,0,0,1.77,2.08h8.89a3,3,0,0,0,2.95-2.53l8.71-55.2a1.79,1.79,0,0,0-1.77-2.07H265A1.78,1.78,0,0,0,263.24,201.7Z"/><path class="cls-1" d="M205.49,45.38c2.18-13.9,0-23.35-7.53-31.91C189.69,4,174.74,0,155.62,0H100.1a7.94,7.94,0,0,0-7.84,6.7L69.14,153.28a4.77,4.77,0,0,0,4.71,5.51h34.27l-2.36,15a4.16,4.16,0,0,0,4.11,4.82h28.89a6.94,6.94,0,0,0,6.86-5.87l.29-1.46,5.44-34.51.35-1.91a6.94,6.94,0,0,1,6.86-5.86h4.32c28,0,49.9-11.37,56.3-44.25,2.68-13.74,1.29-25.21-5.78-33.27a27.35,27.35,0,0,0-7.91-6.1h0"/><path class="cls-3" d="M205.49,45.38c2.18-13.9,0-23.35-7.53-31.91C189.69,4,174.74,0,155.62,0H100.1a7.94,7.94,0,0,0-7.84,6.7L69.14,153.28a4.77,4.77,0,0,0,4.71,5.51h34.27l8.61-54.59-.27,1.72a7.91,7.91,0,0,1,7.82-6.71h16.29c32,0,57-13,64.35-50.58.22-1.11.41-2.19.57-3.25"/><path class="cls-2" d="M126,45.56a6.94,6.94,0,0,1,6.86-5.86h43.52a90.45,90.45,0,0,1,14.35,1c1.26.2,2.48.44,3.67.7s2.33.56,3.45.88l1.65.52a38.88,38.88,0,0,1,6,2.54c2.18-13.9,0-23.35-7.53-31.91C189.69,4,174.74,0,155.62,0H100.1a7.94,7.94,0,0,0-7.84,6.7L69.14,153.28a4.77,4.77,0,0,0,4.71,5.51h34.27l8.61-54.59Z"/></g></g></svg>