<svg xmlns="http://www.w3.org/2000/svg" viewBox="0 0 86.49 70.08"><defs><style>.cls-1{fill:#93a8c1;}.cls-2{fill:none;stroke:#a7a9ac;stroke-linecap:round;stroke-linejoin:round;stroke-width:3px;}</style></defs><g id="Layer_2" data-name="Layer 2"><g id="Layer_1-2" data-name="Layer 1"><rect class="cls-1" x="17.53" y="47.33" width="52.49" height="10.16"/><rect class="cls-1" x="17.53" y="30.04" width="52.49" height="10.16"/><path class="cls-2" d="M17.84,25.43,9.67,30.54Q5.59,22.23,1.5,13.94A36.57,36.57,0,0,1,16.82,3.22c6.43-2.26,9.07-.9,25-1,16.58-.14,18.65-1.65,25.28.25A40.26,40.26,0,0,1,85,13.69q-3.7,8.3-7.4,16.59L69.2,25.43l1.24,43.15-53.62-.51Z"/><path class="cls-2" d="M31.36,2.07a14.56,14.56,0,0,0,3.84,8.55c.91.94,4.23,4.41,8.94,4.09C50,14.31,53,8.47,53.59,7.3a18.67,18.67,0,0,0,1.82-5.58"/></g></g></svg>