<svg xmlns="http://www.w3.org/2000/svg" viewBox="0 0 160.4 109"><g id="Layer_2" data-name="Layer 2"><g id="Layer_1-2" data-name="Layer 1"><g id="Layer_2-2" data-name="Layer 2"><g id="Layer_1-2-2" data-name="Layer 1-2"><rect width="160.4" height="109.04" style="fill:#fbfcfc"/><path d="M38.6,71.4a3.2,3.2,0,0,1,0,4.8,4,4,0,0,1-2.8.8H33v3.1h-.7V70.6h3.5A4,4,0,0,1,38.6,71.4Zm-.5,4.3a2.3,2.3,0,0,0,.9-1.9,2.5,2.5,0,0,0-.9-1.9,3.2,3.2,0,0,0-2.3-.7H33v5.2h2.8A3.2,3.2,0,0,0,38.1,75.7Z" style="fill:#58595b"/><path d="M43.3,73.4a3.4,3.4,0,0,1,1.7-.5v.7h-.2a2.3,2.3,0,0,0-1.8.8,2.5,2.5,0,0,0-.7,2v3.8h-.7V73h.7v1.6A2,2,0,0,1,43.3,73.4Z" style="fill:#58595b"/><path d="M47.8,79.8a4,4,0,0,1-1.3-1.3,4.2,4.2,0,0,1,0-3.8,3.7,3.7,0,0,1,5-1.3,3.7,3.7,0,0,1,1.2,1.3,3.7,3.7,0,0,1,0,3.8,3.7,3.7,0,0,1-1.2,1.3A4,4,0,0,1,47.8,79.8Zm3.3-.6a2.4,2.4,0,0,0,1-1,3.6,3.6,0,0,0,0-3.2,3.5,3.5,0,0,0-1-1.1,3.2,3.2,0,0,0-3,0,3.5,3.5,0,0,0-1,1.1,3.6,3.6,0,0,0,0,3.2,2.4,2.4,0,0,0,1,1A3.2,3.2,0,0,0,51.1,79.2Z" style="fill:#58595b"/><path d="M61.7,70V80.2H61V78.5a2.8,2.8,0,0,1-1.1,1.3,3.9,3.9,0,0,1-1.8.4,3.7,3.7,0,0,1-1.8-.4A4,4,0,0,1,55,78.5a3.3,3.3,0,0,1-.4-1.9,3.1,3.1,0,0,1,.4-1.9,4,4,0,0,1,1.3-1.3,3.7,3.7,0,0,1,1.8-.5,3.4,3.4,0,0,1,1.7.5A2.5,2.5,0,0,1,61,74.7V70Zm-2.1,9.2a1.9,1.9,0,0,0,1-1,3.1,3.1,0,0,0,0-3.2,1.9,1.9,0,0,0-1-1,2.6,2.6,0,0,0-2.9,0,2.7,2.7,0,0,0-1.1,1,3.6,3.6,0,0,0,0,3.2,2.7,2.7,0,0,0,1.1,1A3,3,0,0,0,59.6,79.2Z" style="fill:#58595b"/><path d="M70.9,73v7.2h-.7V78.6a2,2,0,0,1-1,1.2,3.4,3.4,0,0,1-1.7.5,3.5,3.5,0,0,1-2.2-.8,3.6,3.6,0,0,1-.8-2.3V73h.7v4.2a3,3,0,0,0,.6,1.8,2.3,2.3,0,0,0,1.8.6,2.3,2.3,0,0,0,1.9-.7,3.1,3.1,0,0,0,.7-2.1V73Z" style="fill:#58595b"/><path d="M74.8,79.8a3.3,3.3,0,0,1-1.3-1.3,4.2,4.2,0,0,1,0-3.8,3.3,3.3,0,0,1,1.3-1.3,4.1,4.1,0,0,1,1.9-.5,4.2,4.2,0,0,1,1.5.4,2.3,2.3,0,0,1,1.2,1l-.5.3a3.9,3.9,0,0,0-1-.8,1.7,1.7,0,0,0-1.2-.2,2.4,2.4,0,0,0-1.5.3A2.3,2.3,0,0,0,74.1,75a3.6,3.6,0,0,0,0,3.2,2.2,2.2,0,0,0,1.1,1,2.4,2.4,0,0,0,1.5.4,2.7,2.7,0,0,0,1.2-.3,2.5,2.5,0,0,0,1-.8l.5.4a4,4,0,0,1-1.2,1l-1.5.3A4.1,4.1,0,0,1,74.8,79.8Z" style="fill:#58595b"/><path d="M85.1,79.7l-.7.4h-.8a1.7,1.7,0,0,1-1.9-1.5.8.8,0,0,1-.1-.4V73.6H80.3V73h1.3V71.4h.7V73h2.3v.6H82.3v4.6a1.5,1.5,0,0,0,.4,1.1,1.1,1.1,0,0,0,1,.3,1.5,1.5,0,0,0,1.1-.4Z" style="fill:#58595b"/><path d="M90.4,70.6h1.7v9.6H90.4Z" style="fill:#58595b"/><path d="M106,73.6a3.4,3.4,0,0,1,.9,2.4v4.2h-1.8v-4a2.1,2.1,0,0,0-.4-1.5,1.7,1.7,0,0,0-1.2-.5,2,2,0,0,0-1.4.6,2.2,2.2,0,0,0-.5,1.7v3.7H99.9v-4a2.3,2.3,0,0,0-.4-1.4,1.4,1.4,0,0,0-1.3-.5,1.6,1.6,0,0,0-1.4.5,3.4,3.4,0,0,0-.5,1.7v3.7H94.6V72.9h1.6v.9l1.1-.8,1.3-.2,1.5.3a2.2,2.2,0,0,1,1,.9,2.7,2.7,0,0,1,1.2-.9,4.1,4.1,0,0,1,1.6-.3A2.4,2.4,0,0,1,106,73.6Z" style="fill:#58595b"/><path d="M114.3,73.5a3.6,3.6,0,0,1,.9,2.4v4.3h-1.7v-.9a1.6,1.6,0,0,1-.9.7,3.4,3.4,0,0,1-2.8,0,2,2,0,0,1-1.3-1.9,1.6,1.6,0,0,1,.7-1.6,3.2,3.2,0,0,1,2.3-.6h1.9a1.6,1.6,0,0,0-.4-1.2,1.8,1.8,0,0,0-1.4-.4,2.5,2.5,0,0,0-1.2.2,3.1,3.1,0,0,0-1,.5l-.7-1.3a3.5,3.5,0,0,1,1.4-.6,4.7,4.7,0,0,1,1.7-.3A3.8,3.8,0,0,1,114.3,73.5Zm-1.5,5.2a2.7,2.7,0,0,0,.7-.8v-.8h-1.8c-1,0-1.5.3-1.5,1a1.3,1.3,0,0,0,.4.7,1.4,1.4,0,0,0,1.1.2Z" style="fill:#58595b"/><path d="M124.7,72.8V79q0,3.9-3.9,3.9a6.4,6.4,0,0,1-2-.3,4.6,4.6,0,0,1-1.6-.7l.8-1.3a2.7,2.7,0,0,0,1.2.6,4,4,0,0,0,1.5.3,2.4,2.4,0,0,0,1.8-.5,2.2,2.2,0,0,0,.5-1.7v-.4a2.3,2.3,0,0,1-1,.7l-1.4.3a4.1,4.1,0,0,1-1.9-.5,2.5,2.5,0,0,1-1.3-1.2,3.5,3.5,0,0,1,0-3.7,3.3,3.3,0,0,1,1.3-1.3,4.1,4.1,0,0,1,1.9-.4,3.2,3.2,0,0,1,1.4.3,1.8,1.8,0,0,1,1.1.8v-1Zm-2.3,5a2,2,0,0,0,0-3,2.4,2.4,0,0,0-3.2,0,2.2,2.2,0,0,0,0,3A2.4,2.4,0,0,0,122.4,77.8Z" style="fill:#58595b"/><path d="M133.9,77.1h-5.8a2,2,0,0,0,.8,1.2,2.4,2.4,0,0,0,1.6.5,2.8,2.8,0,0,0,2-.8l.9,1.1a2.5,2.5,0,0,1-1.2.8,2.7,2.7,0,0,1-1.7.3,4.1,4.1,0,0,1-2.2-.4,3.2,3.2,0,0,1-1.4-1.4,4.1,4.1,0,0,1-.5-1.9,3.8,3.8,0,0,1,.5-1.9,3.2,3.2,0,0,1,1.4-1.4,3.9,3.9,0,0,1,3.8,0,3.3,3.3,0,0,1,1.3,1.3,3.5,3.5,0,0,1,.5,2Zm-5.1-2.5a1.7,1.7,0,0,0-.7,1.3h4.1a1.6,1.6,0,0,0-.6-1.3A2.1,2.1,0,0,0,128.8,74.6Z" style="fill:#58595b"/><rect x="39.2" y="50.5" width="27.9" height="5.4" style="fill:#b2c3d8"/><rect x="39.2" y="41.3" width="27.9" height="5.4" style="fill:#b2c3d8"/><path d="M39.4,38.8,35,41.5c-1.4-2.9-2.9-5.8-4.3-8.8A19.3,19.3,0,0,1,38.8,27c3.4-1.2,4.8-.5,13.3-.5s9.9-.9,13.5.1a21.2,21.2,0,0,1,9.5,6l-4,8.8-4.4-2.6.6,23-28.5-.3Z" style="fill:none;stroke:#bcbec0;stroke-linecap:round;stroke-linejoin:round;stroke-width:1.5951293330992655px"/><path d="M46.6,26.4a7.4,7.4,0,0,0,2,4.6,6.1,6.1,0,0,0,4.7,2.1c3.1-.2,4.8-3.3,5.1-3.9a8.6,8.6,0,0,0,.9-3" style="fill:none;stroke:#bcbec0;stroke-linecap:round;stroke-linejoin:round;stroke-width:1.5951293330992655px"/></g></g></g></g></svg>