<svg xmlns="http://www.w3.org/2000/svg" width="685" height="361" viewBox="0 0 685 361"><g id="Layer_2" data-name="Layer 2"><g id="Layer_1-2" data-name="Layer 1"><rect width="685" height="361" rx="21.5" style="fill:#f9f9f9"/><rect x="60" y="149.8" width="160" height="71.18" rx="10.4" style="fill:#e6e6e6"/><rect x="253" y="149.8" width="209" height="18.93" rx="3.5" style="fill:#e6e6e6"/><rect x="253" y="184.2" width="372" height="10.89" rx="3.6" style="fill:#e6e6e6"/><rect x="253" y="210.1" width="372" height="10.89" rx="3.6" style="fill:#e6e6e6"/><rect x="60" y="253.8" width="160" height="71.18" rx="10.4" style="fill:#e6e6e6"/><rect x="253" y="253.8" width="209" height="18.93" rx="3.5" style="fill:#e6e6e6"/><rect x="253" y="288.2" width="372" height="10.89" rx="3.6" style="fill:#e6e6e6"/><rect x="253" y="314.1" width="372" height="10.89" rx="3.6" style="fill:#e6e6e6"/><rect x="60" y="37" width="160" height="71.18" rx="9.7" style="fill:#e6e6e6"/><rect x="253" y="37" width="209" height="18.93" rx="3.5" style="fill:#e6e6e6"/><rect x="253" y="71.4" width="372" height="10.89" rx="3.6" style="fill:#e6e6e6"/><rect x="253" y="97.3" width="372" height="10.89" rx="3.6" style="fill:#e6e6e6"/><rect x="607" y="9" width="70.4" height="36.08" rx="18" style="fill:#e6e6e6"/><path d="M633.8,34.3,631,30.4h-3.5v3.9H625V21h5.5a6.7,6.7,0,0,1,3,.6,3.6,3.6,0,0,1,2,1.6,4.3,4.3,0,0,1,.7,2.5,4.4,4.4,0,0,1-.7,2.6,3.7,3.7,0,0,1-2.1,1.6l3,4.4Zm-.9-10.5a3.7,3.7,0,0,0-2.5-.7h-2.9v5.3h2.9a3.7,3.7,0,0,0,2.5-.7,2.6,2.6,0,0,0,.8-2A2.4,2.4,0,0,0,632.9,23.8Z" style="fill:#666"/><path d="M640.1,34.1a7.1,7.1,0,0,1-2.3-1.2l.9-1.9a9.5,9.5,0,0,0,2,1.1,10,10,0,0,0,2.4.4,4.2,4.2,0,0,0,2.2-.5,1.4,1.4,0,0,0,.8-1.3,1.5,1.5,0,0,0-.4-.9,2.4,2.4,0,0,0-1.1-.6l-1.7-.5-2.5-.7a4.2,4.2,0,0,1-1.6-1.1,3.3,3.3,0,0,1-.7-2.1,3.4,3.4,0,0,1,.6-2,4.5,4.5,0,0,1,1.8-1.5,9,9,0,0,1,3-.5,9.9,9.9,0,0,1,2.4.3,6.7,6.7,0,0,1,2.1.9l-.8,1.9-1.9-.8a5.5,5.5,0,0,0-1.8-.2,4.3,4.3,0,0,0-2.2.4,1.6,1.6,0,0,0-.7,1.4,1.1,1.1,0,0,0,.4.9l1,.6,1.8.4,2.4.8a3.6,3.6,0,0,1,1.6,1.1,2.8,2.8,0,0,1,.7,2.1,3.6,3.6,0,0,1-.6,2,4.4,4.4,0,0,1-1.8,1.4,6.7,6.7,0,0,1-3,.5A10.3,10.3,0,0,1,640.1,34.1Z" style="fill:#666"/><path d="M652.1,34.1a5.7,5.7,0,0,1-2.2-1.2l.8-1.9a9.5,9.5,0,0,0,2,1.1,10,10,0,0,0,2.4.4,4,4,0,0,0,2.2-.5,1.4,1.4,0,0,0,.8-1.3,1.5,1.5,0,0,0-.4-.9,2.4,2.4,0,0,0-1.1-.6l-1.7-.5-2.5-.7a4.2,4.2,0,0,1-1.6-1.1,3.3,3.3,0,0,1-.7-2.1,3.4,3.4,0,0,1,.6-2,4.2,4.2,0,0,1,1.9-1.5,7.9,7.9,0,0,1,2.9-.5,9.9,9.9,0,0,1,2.4.3,6.7,6.7,0,0,1,2.1.9l-.8,1.9-1.8-.8a6.5,6.5,0,0,0-1.9-.2,4.3,4.3,0,0,0-2.2.4,1.6,1.6,0,0,0-.7,1.4,1.1,1.1,0,0,0,.4.9l1,.6,1.8.4,2.4.8a3.6,3.6,0,0,1,1.6,1.1,2.8,2.8,0,0,1,.7,2.1,3.6,3.6,0,0,1-.6,2,4.4,4.4,0,0,1-1.8,1.4,6.7,6.7,0,0,1-3,.5A10.3,10.3,0,0,1,652.1,34.1Z" style="fill:#666"/></g></g></svg>