<svg xmlns="http://www.w3.org/2000/svg" xmlns:xlink="http://www.w3.org/1999/xlink" viewBox="0 0 257.7 287.1"><defs><pattern id="New_Pattern_Swatch_69" data-name="New Pattern Swatch 69" y="-6.7" width="34.3" height="34.29" patternUnits="userSpaceOnUse" viewBox="0 0 34.3 34.3"><rect width="34.3" height="34.29" style="fill:none"/><rect width="34.3" height="34.29" style="fill:#bc6c00"/></pattern><pattern id="New_Pattern_Swatch_68" data-name="New Pattern Swatch 68" y="-6.7" width="34.3" height="34.29" patternUnits="userSpaceOnUse" viewBox="0 0 34.3 34.3"><rect width="34.3" height="34.29" style="fill:none"/><rect width="34.3" height="34.29" style="fill:#e69732"/></pattern><pattern id="New_Pattern_Swatch_67" data-name="New Pattern Swatch 67" width="34.3" height="34.29" patternUnits="userSpaceOnUse" viewBox="0 0 34.3 34.3"><rect width="34.3" height="34.29" style="fill:none"/><rect width="34.3" height="34.29" style="fill:#db8f2b"/></pattern><pattern id="New_Pattern_Swatch_66" data-name="New Pattern Swatch 66" width="34.3" height="34.29" patternUnits="userSpaceOnUse" viewBox="0 0 34.3 34.3"><rect width="34.3" height="34.29" style="fill:none"/><rect width="34.3" height="34.29" style="fill:#ce7706"/></pattern><pattern id="New_Pattern_Swatch_65" data-name="New Pattern Swatch 65" y="-6.7" width="34.3" height="34.29" patternUnits="userSpaceOnUse" viewBox="0 0 34.3 34.3"><rect width="34.3" height="34.29" style="fill:none"/><rect width="34.3" height="34.29" style="fill:#c6780f"/></pattern><pattern id="New_Pattern_Swatch_64" data-name="New Pattern Swatch 64" y="-6.7" width="34.3" height="34.29" patternUnits="userSpaceOnUse" viewBox="0 0 34.3 34.3"><rect width="34.3" height="34.29" style="fill:none"/><rect width="34.3" height="34.29" style="fill:#f0a648"/></pattern><pattern id="New_Pattern_Swatch_63" data-name="New Pattern Swatch 63" width="34.3" height="34.29" patternUnits="userSpaceOnUse" viewBox="0 0 34.3 34.3"><rect width="34.3" height="34.29" style="fill:none"/><rect width="34.3" height="34.29" style="fill:#e59e3f"/></pattern><pattern id="New_Pattern_Swatch_62" data-name="New Pattern Swatch 62" width="34.3" height="34.29" patternUnits="userSpaceOnUse" viewBox="0 0 34.3 34.3"><rect width="34.3" height="34.29" style="fill:none"/><rect width="34.3" height="34.29" style="fill:#d88417"/></pattern><clipPath id="clip-path" transform="translate(0 -6.7)"><rect x="113.1" y="82.2" width="143" height="93.34" transform="translate(3 -4.2) rotate(1.3)" style="fill:none"/></clipPath><clipPath id="clip-path-2" transform="translate(0 -6.7)"><rect x="48.6" y="3.9" width="234.7" height="75.9" transform="matrix(1, -0.03, 0.03, 1, -1.29, 5.51)" style="fill:none"/></clipPath></defs><g id="Layer_2" data-name="Layer 2"><g id="OBJECTS"><ellipse cx="117.2" cy="273.4" rx="89.2" ry="13.7" style="opacity:0.1"/><path d="M133,282.3H104.7a9.5,9.5,0,0,1-9.5-10.2L113.6,22.3,140,18l-.8,258.1A6.2,6.2,0,0,1,133,282.3Z" transform="translate(0 -6.7)" style="fill:#7e4008"/><path d="M103.9,150l-3.6,51.2a39.7,39.7,0,0,1,15.8,1.3c10.1,3.4,13,12.3,14.6,22.1,3.3,18.9,3.4,38.4,3.2,57.7h0a5.3,5.3,0,0,0,5.3-5.3V150Z" transform="translate(0 -6.7)" style="fill:#6e3807"/><path d="M117,170.7c0,1.9-.2,3.8-.3,5.7s-.3,3.8-.5,5.7l-.3,2.8-.3,2.8c-.3,1.9-.5,3.8-.8,5.6s-.7,3.8-1.1,5.6-.8,3.7-1.3,5.6-.8,3.7-1.1,5.5a56.2,56.2,0,0,0-.9,5.7v-.2c.7,3.8,1.7,7.5,2.5,11.2.4,1.9.8,3.7,1.1,5.6l.5,2.8c.2,1,.4,1.9.5,2.8v.6l-.4,2.8-.6,2.9-.6,2.8-.6,2.9c-.5,1.8-.9,3.7-1.4,5.6s-.6,1.9-.8,2.8l-.9,2.8h-.3v-2.9c.1-1,.1-1.9.2-2.9s.3-3.9.5-5.8l.3-2.9c.1-.9.3-1.9.4-2.9l.4-2.8.5-2.9v.6a28.9,28.9,0,0,1-.4-2.9l-.3-2.8c-.3-1.9-.5-3.8-.7-5.7-.3-3.8-.4-7.7-.9-11.4h0c.3-1.9.6-3.7.8-5.6a55.1,55.1,0,0,0,.6-5.7c.2-1.9.3-3.8.5-5.7s.4-3.7.7-5.6.6-3.7.9-5.6a27.4,27.4,0,0,1,.5-2.8l.6-2.8c.3-1.8.8-3.7,1.2-5.5s.9-3.7,1.5-5.6Z" transform="translate(0 -6.7)" style="fill:#613214"/><path d="M121.6,246.2a22.1,22.1,0,0,1,.5,2.5l.3,2.6a20.9,20.9,0,0,1-.1,2.5,10.9,10.9,0,0,1-.4,2.5,17.4,17.4,0,0,0,.1,5.1,23,23,0,0,1,.3,2.6,21.1,21.1,0,0,1,.2,2.5h0c-.2,1.1-.3,2.1-.5,3.1s-.5,2.1-.7,3.1a43.9,43.9,0,0,1-2.1,6.1H119a45,45,0,0,1,.3-6.4c.1-1.1.3-2.1.5-3.2s.4-2,.6-3.1v.2a21.1,21.1,0,0,1,.2-2.5,23,23,0,0,1,.3-2.6,14.6,14.6,0,0,0,0-5.1,21.3,21.3,0,0,1-.3-2.5,20.9,20.9,0,0,1-.1-2.5l.3-2.6a22.1,22.1,0,0,1,.5-2.5Z" transform="translate(0 -6.7)" style="fill:#613214"/><path d="M131.5,243.5a33.1,33.1,0,0,1-1.2-4.2c-.4-1.4-.8-2.8-1.1-4.3l-.9-4.3c-.3-1.4-.6-2.8-.8-4.3l-.3-2.2L127,222l-.6-4.3c-.2-1.5-.5-2.9-.8-4.3s-.6-2.9-1-4.3h0c.4-3.1.8-6.2,1.4-9.3l.8-4.5a15.7,15.7,0,0,1,.4-2.3c.1-.8.3-1.6.4-2.3v-4.2c0-1.5.1-3,.1-4.5s.2-3,.2-4.5.1-1.5.2-2.2a16.4,16.4,0,0,1,.2-2.2h.2l.3,2.2a16.4,16.4,0,0,0,.2,2.2c.1,1.5.3,3,.4,4.5l.3,4.4c.1,1.5.1,3,.2,4.5h-.1c-.1.8-.3,1.5-.4,2.3s-.3,1.5-.5,2.3l-1,4.5c-.6,3.1-1.4,6.1-2.2,9.1v-.2c.2,1.4.3,2.9.6,4.3s.5,2.9.8,4.3.7,2.9,1.1,4.3l.5,2.1.6,2.2c.3,1.4.6,2.8.8,4.3s.5,2.9.7,4.3l.6,4.4.3,4.4Z" transform="translate(0 -6.7)" style="fill:#613214"/><polygon points="236.9 74.5 7 93.7 3.8 72.7 27.5 70.7 3.4 67.9 2.5 56.9 12.2 53.4 4.1 50.9 0.6 34.7 15.6 36.1 0.4 32.6 0 27.4 232 5.2 234 15.8 213.2 27.7 233 30.6 236.8 45 222.2 52.4 236.3 50.1 236.9 74.5" style="fill:url(#New_Pattern_Swatch_69)"/><polygon points="236.8 69.2 6.1 88.4 3.8 72.7 27 65.4 2.9 62.7 2 51.6 11.8 48.1 3.6 45.6 0.6 34.7 15.1 30.9 0 27.4 1.4 19.1 231.1 0 233 10.6 212.8 22.4 231.6 25.1 235.5 40.1 221.7 47.1 236.3 50.1 236.8 69.2" style="fill:url(#New_Pattern_Swatch_68)"/><path d="M26.8,38.1c4.6-1.1,9.1-2.1,13.7-3l13.7-2.5L61,31.5l6.9-.9,6.9-1,6.9-1.1h.1l8.7-.3,8.7-.4,17.5-.6h-.1l5.6-.8,5.7-.8,11.2-1.3q5.7-.7,11.4-1.2c3.7-.4,7.5-.8,11.3-1v.2l-11.2,2-11.2,1.9-11.2,1.7-5.7.7-5.6.8H81.8L75,30.4l-6.9,1.4-6.8,1.4-6.8,1.2L40.7,36.6,26.9,38.3Z" transform="translate(0 -6.7)" style="fill:url(#New_Pattern_Swatch_67)"/><path d="M74.9,42.5l7.3-1.6,3.7-.7,3.6-.6,7.3-1.2,7.4-.9c4.9-.5,9.9-.6,14.8-1.1l7.3-.8,7.3-1.2h.1l7.3-.7,7.2-.6,7.3-.4,7.2-.4h-.4l4.2-1.3,4.3-1.1,4.2-1.2,4.3-1.1,8.5-2,4.3-.9,4.3-.9v.3l-4.1,1.6-4.1,1.6L180,30.3l-4.1,1.4-4.2,1.4-4.2,1.3-4.2,1.2h-.4l-7.3.2H141l-7.2-.2h0l-7.3.7-7.4,1.1c-4.9.7-9.7,1.9-14.6,2.6l-7.3,1-7.4.8-3.7.3-3.7.2c-2.5.2-4.9.3-7.4.3Z" transform="translate(0 -6.7)" style="fill:url(#New_Pattern_Swatch_67)"/><path d="M23.2,58.7a43.4,43.4,0,0,1,4-1.7,33.9,33.9,0,0,1,4.1-1.5l4.1-1.4,4.1-1.3,2-.6,2.1-.5,4.2-1c2.9-.5,5.7-1,8.5-1.7h.2l4.3.5,4.3.2,8.6.4,4.3.3,4.3.3,4.3.4,2.1.2,2.2.2h-.3l5.6-.3,5.7-.2h8.6l2.8.2v.3l-2.8.6-2.9.5-5.6.9-5.6.8-5.7.6h-.3l-2.1-.2-2.2-.3L82,53.9l-4.3-.6-4.3-.7-8.5-1.5c-1.4-.2-2.8-.5-4.2-.6L56.4,50h.2c-2.8.8-5.4,1.9-8.1,2.9l-4.1,1.4a16.6,16.6,0,0,1-2.1.6l-2.1.6-4.1,1.1-4.2.9-4.3.8-4.3.7Z" transform="translate(0 -6.7)" style="fill:url(#New_Pattern_Swatch_67)"/><path d="M69.4,67.9c2.1-.7,4.3-1.2,6.5-1.8l6.5-1.6L89,63.1l6.6-1.3,6.7-1.1,6.7-.9,6.7-.8q3.3-.4,6.6-1.2h.2c2.5.3,5,.4,7.6.6l7.6.3,7.7.3,7.6.6h-.5l5.7-1.6,5.7-1.4,5.7-1.4,5.8-1.3,11.5-2.5,5.8-1.1,5.8-.9v.3L193,51.6l-5.6,1.8-11.3,3.4-5.7,1.5q-2.8.9-5.7,1.5L159,61.3l-5.8,1.3h-.5l-7.6-.8-7.6-1.1-7.5-1-7.6-.9h.1l-6.6,1.3-6.6,1.6-6.5,1.5-6.6,1.4-6.7,1.1-6.7,1-6.6.9c-2.3.2-4.5.5-6.8.6Z" transform="translate(0 -6.7)" style="fill:url(#New_Pattern_Swatch_66)"/><path d="M37.6,83.9l4.3-2.1,4.4-2L50.7,78l4.5-1.8h7.3l6.9.2,6.9.4,6.9.7-6.9.5-6.9.2H55.9l-4.5,1.6-4.6,1.5-4.6,1.4Z" transform="translate(0 -6.7)" style="fill:url(#New_Pattern_Swatch_66)"/><polygon points="254.8 151.6 24.1 148.2 22.9 127 46.7 127.4 23 122.3 23.2 111.2 33.2 108.7 25.4 105.4 23.5 89 38.3 91.8 23.5 86.9 23.6 81.6 256.7 82.1 257.7 92.9 228.8 101 255.2 107.5 257.6 122.2 242.3 128.1 256.6 127.3 254.8 151.6" style="fill:url(#New_Pattern_Swatch_65)"/><polygon points="255.2 146.3 23.8 142.9 22.9 127 46.8 122.1 23.1 117 23.2 105.9 33.3 103.4 25.4 100.1 23.5 89 38.3 86.5 23.6 81.6 25.8 73.5 256.2 76.9 257.1 87.6 219.7 95.8 254.3 101.9 256.7 117.2 242.4 122.8 256.6 127.3 255.2 146.3" style="fill:url(#New_Pattern_Swatch_64)"/><path d="M49.9,94.9c4.6-.7,9.2-1.2,13.9-1.7L77.6,92l7-.4,7-.2,6.9-.3,7-.4h0l8.7.6,8.8.4,17.4,1.1h-.1l5.7-.2,5.7-.2c3.8-.2,7.5-.3,11.3-.3h22.8v.2l-11.3,1-11.4.7-11.4.6-5.6.2-5.7.2h-.2c-5.8-.6-11.6-1.1-17.3-1.8l-8.7-1-8.7-.9h0l-6.9.6-7,.7-6.9.8-6.9.5c-4.7.4-9.3.6-13.9.8s-9.3.4-14,.4Z" transform="translate(0 -6.7)" style="fill:url(#New_Pattern_Swatch_63)"/><path d="M97.4,104c2.4-.4,4.9-.7,7.4-.9l3.6-.4,3.7-.2,7.4-.4c2.5-.2,5-.2,7.4-.2,5,0,9.9.3,14.9.3h7.4l7.4-.5h7.3l7.3.2,7.3.3,7.2.3h-.4l4.3-.8,4.4-.8,4.3-.7,4.3-.6,8.7-1.3,4.4-.5,4.4-.4v.3l-4.2,1.2-4.2,1.2-8.6,2.1-4.3,1-4.2.9-4.3.9-4.3.8h-.5l-7.2-.6-7.3-.6-7.2-.7-7.2-.8h-7.4c-2.5,0-4.9.1-7.4.3-4.9.3-9.8.9-14.8,1.2l-7.4.2H104.8l-7.4-.4Z" transform="translate(0 -6.7)" style="fill:url(#New_Pattern_Swatch_63)"/><path d="M44.3,115l4.2-1.3,4.1-1.1,4.2-1,4.3-.8,2.1-.4,2.1-.4,4.3-.5c2.9-.2,5.7-.5,8.6-.9h.2l4.2.9,4.2.7,8.6,1.2,4.2.7,4.3.7,4.2.8,2.1.5,2.1.4H112l5.7.2,5.7.4,5.7.5,2.8.3,2.8.4v.3l-2.8.4-2.9.2-5.7.4-5.6.2h-6l-2.2-.4-2.1-.5-4.2-.9-4.1-1.1-4.2-1c-2.8-.7-5.6-1.6-8.3-2.4l-4.2-1-4.2-.9h.2c-2.9.6-5.6,1.4-8.4,2.1l-4.2,1-2.1.5-2.1.3-4.3.7-4.3.5-4.3.4-4.3.2Z" transform="translate(0 -6.7)" style="fill:url(#New_Pattern_Swatch_63)"/><path d="M89.3,128.7c2.2-.5,4.5-.8,6.7-1.2l6.7-.9,6.7-.8,6.7-.6,6.7-.5h6.8l6.7-.3,6.7-.4h.2l7.5,1.2,7.6,1.1,7.6,1.1,7.5,1.2h-.5l5.8-1,5.8-.9,5.8-.8,5.9-.7c3.9-.5,7.8-1,11.7-1.3l5.9-.5a58.5,58.5,0,0,1,5.9-.4v.3l-5.7,1.3-5.8,1.3L196.6,128l-5.8,1-5.8,1-5.8.8-5.9.8h-.5l-7.5-1.6-7.4-1.8-7.5-1.8-7.4-1.6h.1l-6.7.7-6.7.9-6.7.9-6.7.7-6.7.5-6.7.3-6.8.2H89.4Z" transform="translate(0 -6.7)" style="fill:url(#New_Pattern_Swatch_62)"/><path d="M56.1,141.5l4.6-1.6,4.5-1.6,4.6-1.4,4.6-1.3h.4l6.9.8c2.3.2,4.5.6,6.8.9l6.8,1,6.8,1.4-6.9-.2-6.9-.4-6.9-.7-6.8-.7H75l-4.7,1.2-4.7,1.1-4.7.9Z" transform="translate(0 -6.7)" style="fill:url(#New_Pattern_Swatch_62)"/><path d="M132.3,139a3.9,3.9,0,0,1-3.9,3.9,3.9,3.9,0,1,1,0-7.7A3.9,3.9,0,0,1,132.3,139Z" transform="translate(0 -6.7)" style="fill:#5c4227"/><path d="M120.7,99.4a3.8,3.8,0,0,1-3.9,3.9,3.9,3.9,0,1,1,0-7.7A3.8,3.8,0,0,1,120.7,99.4Z" transform="translate(0 -6.7)" style="fill:#5c4227"/><path d="M129,54.2a3.9,3.9,0,1,1-3.9-3.9A3.8,3.8,0,0,1,129,54.2Z" transform="translate(0 -6.7)" style="fill:#5c4227"/><g style="opacity:0.8"><g style="clip-path:url(#clip-path)"><path d="M186.8,102.3l-1.5-.6a1.4,1.4,0,0,1-1-1.4c0-.5-.1-1-.1-1.5a1.5,1.5,0,0,1,.9-1.5l1.5-.7a4.5,4.5,0,0,0,2.1-6l-2.5-5.5a4.7,4.7,0,0,0-6.1-2.2l-1.5.7a1.5,1.5,0,0,1-1.7-.2l-1.1-1.1a1.6,1.6,0,0,1-.5-1.7l.6-1.5a4.5,4.5,0,0,0-2.7-5.8l-5.7-2.1a4.5,4.5,0,0,0-5.8,2.8l-.6,1.5a1.4,1.4,0,0,1-1.4,1h-1.5a1.6,1.6,0,0,1-1.5-.9l-.7-1.5a4.6,4.6,0,0,0-6-2.2l-5.5,2.6a4.6,4.6,0,0,0-2.2,6l.7,1.6a1.2,1.2,0,0,1-.3,1.6l-1,1.2a1.5,1.5,0,0,1-1.7.4l-1.5-.5a4.4,4.4,0,0,0-5.8,2.7l-2.1,5.7a4.6,4.6,0,0,0,2.7,5.8l1.6.5a1.6,1.6,0,0,1,1,1.4,8.1,8.1,0,0,0,.1,1.6,1.6,1.6,0,0,1-.9,1.5l-1.5.7a4.5,4.5,0,0,0-2.2,6l2.6,5.5a4.6,4.6,0,0,0,6,2.2l1.5-.8a1.7,1.7,0,0,1,1.7.3l1.2,1.1a1.6,1.6,0,0,1,.4,1.6l-.6,1.6a4.5,4.5,0,0,0,2.8,5.8l5.7,2.1a4.6,4.6,0,0,0,5.8-2.8l.5-1.5a1.5,1.5,0,0,1,1.4-1H162a1.6,1.6,0,0,1,1.5.9l.7,1.5a4.6,4.6,0,0,0,6,2.2l5.5-2.6a4.5,4.5,0,0,0,2.1-6l-.7-1.6a1.8,1.8,0,0,1,.3-1.7,11.4,11.4,0,0,0,1.1-1.1,1.3,1.3,0,0,1,1.6-.4l1.6.5a4.5,4.5,0,0,0,5.8-2.7l2-5.7A4.5,4.5,0,0,0,186.8,102.3Zm-2.1,10.5a1.6,1.6,0,0,1-2,.9l-1.5-.6a4.7,4.7,0,0,0-5,1.3l-.9,1a4.4,4.4,0,0,0-.9,5.1l.7,1.5a1.5,1.5,0,0,1-.7,2h0l-5.5,2.6a1.5,1.5,0,0,1-2-.7l-.7-1.5a4.5,4.5,0,0,0-4.5-2.6h-1.3a4.5,4.5,0,0,0-4.2,2.9l-.6,1.6a1.4,1.4,0,0,1-1.9.9l-5.7-2a1.6,1.6,0,0,1-.9-2l.6-1.5a4.5,4.5,0,0,0-1.4-5l-1-.9a4.4,4.4,0,0,0-5-.9l-1.6.7a1.4,1.4,0,0,1-2-.7h0l-2.5-5.5a1.4,1.4,0,0,1,.7-2l1.5-.7a4.7,4.7,0,0,0,2.6-4.5,5.7,5.7,0,0,1-.1-1.3,4.4,4.4,0,0,0-3-4.2l-1.5-.6a1.4,1.4,0,0,1-.9-1.9l2-5.7a1.5,1.5,0,0,1,1.9-.9l1.6.6a4.7,4.7,0,0,0,5-1.3l.9-1a4.6,4.6,0,0,0,.9-5.1l-.8-1.5a1.7,1.7,0,0,1,.8-2.1h0l5.4-2.5a1.5,1.5,0,0,1,2.1.7L154,77a4.6,4.6,0,0,0,4.4,2.6h1.4a4.5,4.5,0,0,0,4.2-3l.5-1.5a1.6,1.6,0,0,1,2-.9l5.7,2a1.6,1.6,0,0,1,.9,2l-.6,1.5a4.7,4.7,0,0,0,1.3,5l1,.9a4.6,4.6,0,0,0,5.1.9l1.5-.7a1.4,1.4,0,0,1,2,.7l2.6,5.5a1.6,1.6,0,0,1-.7,2l-1.5.7a4.5,4.5,0,0,0-2.6,4.5v1.3a4.8,4.8,0,0,0,3,4.2l1.6.6a1.4,1.4,0,0,1,.9,1.9l-2,5.7Z" transform="translate(0 -6.7)" style="fill:#5c4227"/><path d="M173.1,104.7a3.6,3.6,0,0,0,.2-1l.3-1.2v-.7a3.4,3.4,0,0,0,.1-1v-.6a7.8,7.8,0,0,0-.2-1.6h0a8.6,8.6,0,0,0-.6-2.3c0-.1,0-.2-.1-.2l-.3-.9-.3-.5-.3-.5-.3-.7-.2-.2a13.4,13.4,0,0,0-6.7-5.3h-.4l-1-.3h-.5l-1.4-.3a13.6,13.6,0,0,0-9,24.8h.1l1.4.8.9.4.7.3,1.3.4h.1l1.1.2h4.1a18.8,18.8,0,0,0,4.6-1.4,3.9,3.9,0,0,0,1.1-.6,16.3,16.3,0,0,0,4.3-5.1,3,3,0,0,1,.4-.8l.3-.7a.4.4,0,0,1,.1-.3A1.4,1.4,0,0,1,173.1,104.7Zm-3.2-.1c-.1.2-.1.3-.2.4a4.7,4.7,0,0,1-.5,1,10.6,10.6,0,0,1-7.5,5.1H161a9.3,9.3,0,0,1-2.9-.1h-.8l-.7-.2h-.3l-.9-.4h-.2l-1.1-.7a10.5,10.5,0,0,1,7-19.2h0l2.6.6,1.2.6h.3l.8.5.3.2a14.5,14.5,0,0,1,1.8,1.7l.3.3a1.8,1.8,0,0,0,.5.7.8.8,0,0,0,.2.4l.6,1v.4l.3.7c.1.2.1.4.2.6s.1.5.1.7a.9.9,0,0,1,.1.5,4.9,4.9,0,0,1,.1,1.2c.1.2,0,.3,0,.5v1.3l-.3,1.2a.8.8,0,0,1-.1.4Z" transform="translate(0 -6.7)" style="fill:#5c4227"/><path d="M222.4,92.7,218,91a1.4,1.4,0,0,1-1-1.4,33.1,33.1,0,0,0-.2-4.4,1.6,1.6,0,0,1,.8-1.5l4.4-2a4.6,4.6,0,0,0,2.1-6.1l-3.8-8.2a4.7,4.7,0,0,0-6.1-2.2l-4.3,2.1a1.7,1.7,0,0,1-1.7-.3,23.5,23.5,0,0,0-3.3-3,1.5,1.5,0,0,1-.4-1.7l1.6-4.5a4.6,4.6,0,0,0-2.7-5.8l-8.6-3.1a4.6,4.6,0,0,0-5.8,2.8l-1.6,4.4a1.5,1.5,0,0,1-1.4,1l-4.4.2a1.3,1.3,0,0,1-1.5-.8L178,52.2a4.4,4.4,0,0,0-6-2.2l-8.2,3.9a4.4,4.4,0,0,0-2.2,6l3,6.3a1.4,1.4,0,0,0,2,.7,1.5,1.5,0,0,0,.7-1.9l-3-6.4a1.5,1.5,0,0,1,.8-2l8.2-3.9a1.6,1.6,0,0,1,2,.8l2,4.3a4.4,4.4,0,0,0,4.6,2.5,26.7,26.7,0,0,1,4-.1,4.7,4.7,0,0,0,4.4-3l1.6-4.5a1.4,1.4,0,0,1,1.9-.9l8.5,3.1a1.4,1.4,0,0,1,.9,1.9l-1.6,4.5a4.4,4.4,0,0,0,1.5,5L206,69a4.6,4.6,0,0,0,5.2,1l4.3-2a1.4,1.4,0,0,1,2,.7l3.9,8.2a1.6,1.6,0,0,1-.7,2L216.3,81a4.4,4.4,0,0,0-2.5,4.6c.1,1.3.2,2.6.2,4a4.4,4.4,0,0,0,2.9,4.3l4.5,1.6a1.5,1.5,0,0,1,.9,1.9l-3,8.6a1.6,1.6,0,0,1-2,.9l-4.5-1.6a4.4,4.4,0,0,0-5,1.4c-.8,1-1.8,2-2.7,3a4.4,4.4,0,0,0-1,5.1l2,4.4a1.4,1.4,0,0,1-.7,2l-8.2,3.8a1.5,1.5,0,0,1-2-.7l-3-6.4a1.5,1.5,0,0,0-2-.7,1.5,1.5,0,0,0-.8,2h.1l3,6.4a4.6,4.6,0,0,0,6,2.2l8.2-3.9a4.6,4.6,0,0,0,2.2-6l-2-4.3a1.5,1.5,0,0,1,.3-1.8l3-3.2a1.4,1.4,0,0,1,1.6-.5l4.5,1.6a4.5,4.5,0,0,0,5.8-2.7l3.1-8.5A4.5,4.5,0,0,0,222.4,92.7Z" transform="translate(0 -6.7)" style="fill:#5c4227"/><path d="M203,80.5a19.6,19.6,0,0,0-26.1-9.4,1.4,1.4,0,0,0-.7,2,1.5,1.5,0,0,0,2,.7,16.6,16.6,0,0,1,14.3,30h-.2a1.5,1.5,0,0,0,1.2,2.8h.1A19.8,19.8,0,0,0,203,80.5Z" transform="translate(0 -6.7)" style="fill:#5c4227"/></g></g><g style="clip-path:url(#clip-path-2)"><path d="M183.9,100.3l-1.3-.6a1.4,1.4,0,0,1-.8-1.3,6.6,6.6,0,0,0,.1-1.4,1.3,1.3,0,0,1,.8-1.2l1.4-.5a4,4,0,0,0,2.3-5.1l-1.8-5a4.1,4.1,0,0,0-5.1-2.3l-1.4.5a1.4,1.4,0,0,1-1.5-.3l-.9-1a1.4,1.4,0,0,1-.3-1.5l.6-1.3a3.9,3.9,0,0,0-1.9-5.3l-4.8-2.2a4,4,0,0,0-5.3,2l-.6,1.3a1.3,1.3,0,0,1-1.3.8h-1.3a1.3,1.3,0,0,1-1.3-.8l-.5-1.4a4,4,0,0,0-5.1-2.3L149,73.1a4,4,0,0,0-2.4,5.1l.5,1.4a1.4,1.4,0,0,1-.3,1.5l-1,.9a1.4,1.4,0,0,1-1.5.3l-1.3-.6a3.9,3.9,0,0,0-5.3,1.9l-2.2,4.8a4,4,0,0,0,2,5.3l1.3.6a1.3,1.3,0,0,1,.8,1.3c0,.4-.1.9-.1,1.3a1.2,1.2,0,0,1-.8,1.3l-1.4.5a4,4,0,0,0-2.3,5.1l1.9,4.9a4,4,0,0,0,5.1,2.4l1.3-.6a1.7,1.7,0,0,1,1.5.4l.9,1a1.4,1.4,0,0,1,.3,1.5l-.6,1.3a4,4,0,0,0,1.9,5.3l4.9,2.2a3.9,3.9,0,0,0,5.2-2l.6-1.3a1.4,1.4,0,0,1,1.3-.8h1.4a1.2,1.2,0,0,1,1.2.8l.5,1.4a4,4,0,0,0,5.1,2.3l5-1.9a4,4,0,0,0,2.3-5.1l-.5-1.3a1.4,1.4,0,0,1,.3-1.5l1-.9a1.4,1.4,0,0,1,1.5-.3l1.3.6a4,4,0,0,0,5.3-1.9l2.2-4.9A3.9,3.9,0,0,0,183.9,100.3Zm-2.6,9a1.4,1.4,0,0,1-1.8.6l-1.3-.6a4,4,0,0,0-4.4.8l-.9.8a4,4,0,0,0-1.1,4.4l.5,1.4a1.3,1.3,0,0,1-.8,1.7h0l-4.9,1.8a1.3,1.3,0,0,1-1.7-.8l-.5-1.3a4,4,0,0,0-3.7-2.6h-1.2a4,4,0,0,0-3.9,2.3l-.6,1.3a1.3,1.3,0,0,1-1.7.7l-4.9-2.2a1.4,1.4,0,0,1-.6-1.8l.6-1.3a4,4,0,0,0-.8-4.4l-.8-.9a3.9,3.9,0,0,0-4.4-1.1l-1.4.5a1.4,1.4,0,0,1-1.7-.8h0l-1.8-4.9a1.3,1.3,0,0,1,.8-1.7l1.3-.6a3.8,3.8,0,0,0,2.6-3.7V95.8a4,4,0,0,0-2.3-3.9l-1.3-.6a1.4,1.4,0,0,1-.7-1.8l2.2-4.8a1.4,1.4,0,0,1,1.8-.6l1.3.6a4.1,4.1,0,0,0,4.4-.8l.9-.8a3.9,3.9,0,0,0,1.1-4.4l-.5-1.4a1.4,1.4,0,0,1,.8-1.7h0l4.9-1.8a1.3,1.3,0,0,1,1.7.7l.6,1.4a3.8,3.8,0,0,0,3.7,2.6h1.1a4,4,0,0,0,3.9-2.3l.6-1.3a1.4,1.4,0,0,1,1.8-.7l4.8,2.2a1.4,1.4,0,0,1,.6,1.8l-.6,1.3a4.1,4.1,0,0,0,.8,4.4l.8.9a4.1,4.1,0,0,0,4.4,1.1l1.4-.5a1.3,1.3,0,0,1,1.7.8l1.8,4.9a1.3,1.3,0,0,1-.7,1.7l-1.4.5a4,4,0,0,0-2.6,3.7v1.2a4,4,0,0,0,2.3,3.9l1.3.6a1.3,1.3,0,0,1,.7,1.7l-2.2,4.9Z" transform="translate(0 -6.7)" style="fill:#5c4227"/><path d="M171.7,101.4a3.6,3.6,0,0,0,.4-.9,2.9,2.9,0,0,0,.2-.9,2,2,0,0,0,.1-.7c.1-.3.1-.6.2-.8v-2h0a15.5,15.5,0,0,0-.4-2.1h0l-.3-.8c0-.2-.1-.3-.2-.5l-.2-.5-.3-.5v-.3a11.2,11.2,0,0,0-5.5-5l-.3-.2-.8-.3H164l-1.2-.3A11.8,11.8,0,0,0,149,94.9a12.1,12.1,0,0,0,4.2,11.4h.1l1.1.8.9.4a.9.9,0,0,0,.5.3l1.1.5h.1l1,.3h3.5a14.3,14.3,0,0,0,4.1-.9,1.9,1.9,0,0,0,1-.5,12.4,12.4,0,0,0,4.1-4.1l.4-.6.3-.7c.1,0,.1-.1.1-.2A.8.8,0,0,0,171.7,101.4Zm-2.7-.3-.2.3a2.2,2.2,0,0,1-.5.8,9.2,9.2,0,0,1-6.9,4h-.7l-2.5-.3h-.1l-.5-.2-.6-.2h-.2l-.9-.5h-.1l-.9-.6a9.2,9.2,0,0,1-1.4-13,9,9,0,0,1,8.8-3.3h0a5.7,5.7,0,0,1,2.2.7l1,.5.3.2.7.5c.1,0,.1.1.2.2a5.7,5.7,0,0,1,1.5,1.6l.2.3.4.6.2.3.4.9c0,.2.1.3.1.4s.1.5.2.7.1.3.1.4.1.5.1.7v.4a4.1,4.1,0,0,1,.1,1.1.6.6,0,0,0-.1.4,2.2,2.2,0,0,1-.1.8V99l-.3,1-.2.3Z" transform="translate(0 -6.7)" style="fill:#5c4227"/><path d="M215.7,94.4l-3.8-1.7a1.6,1.6,0,0,1-.8-1.3,25.4,25.4,0,0,0,.1-3.9,1.4,1.4,0,0,1,.9-1.3l3.9-1.4a3.9,3.9,0,0,0,2.3-5.1l-2.8-7.5a3.9,3.9,0,0,0-5.1-2.3l-3.9,1.5a1.2,1.2,0,0,1-1.4-.4,37.1,37.1,0,0,0-2.7-2.9,1.4,1.4,0,0,1-.3-1.5l1.8-3.7a4,4,0,0,0-2-5.3l-7.2-3.3a4,4,0,0,0-5.3,2l-1.7,3.8a1.2,1.2,0,0,1-1.3.7h-3.9a1.1,1.1,0,0,1-1.2-.8l-1.5-4a4.1,4.1,0,0,0-5.1-2.3l-7.5,2.8a4.1,4.1,0,0,0-2.3,5.1l2.2,5.8a1.3,1.3,0,0,0,2.4-1l-2.1-5.7a1.3,1.3,0,0,1,.8-1.7l7.4-2.8a1.3,1.3,0,0,1,1.7.8l1.5,3.9a3.8,3.8,0,0,0,3.8,2.5,20.6,20.6,0,0,1,3.5.2,4.1,4.1,0,0,0,4-2.3l1.7-3.8a1.4,1.4,0,0,1,1.8-.7l7.2,3.3a1.2,1.2,0,0,1,.6,1.8l-1.7,3.7a4.1,4.1,0,0,0,.9,4.6,18.8,18.8,0,0,1,2.4,2.5,3.9,3.9,0,0,0,4.4,1.2l4-1.4a1.3,1.3,0,0,1,1.7.8l2.7,7.4a1.3,1.3,0,0,1-.7,1.7l-3.9,1.5a3.8,3.8,0,0,0-2.6,3.8c0,1.2,0,2.3-.1,3.5a3.8,3.8,0,0,0,2.3,4l3.8,1.7a1.4,1.4,0,0,1,.6,1.8l-3.3,7.2a1.3,1.3,0,0,1-1.7.6l-3.8-1.7a4,4,0,0,0-4.5.9l-2.6,2.4a3.9,3.9,0,0,0-1.2,4.4l1.5,3.9a1.3,1.3,0,0,1-.8,1.7l-7.4,2.8a1.3,1.3,0,0,1-1.7-.8l-2.2-5.7a1.3,1.3,0,1,0-2.5.9h0l2.2,5.8a3.9,3.9,0,0,0,5.1,2.3l7.4-2.8a3.8,3.8,0,0,0,2.3-5.1l-1.4-3.9a1.3,1.3,0,0,1,.4-1.5,34.5,34.5,0,0,0,2.8-2.6,1.4,1.4,0,0,1,1.5-.3l3.8,1.7a3.9,3.9,0,0,0,5.2-1.9l3.3-7.3A3.9,3.9,0,0,0,215.7,94.4Z" transform="translate(0 -6.7)" style="fill:#5c4227"/><path d="M199.6,82.4a17.1,17.1,0,0,0-22.1-10,1.3,1.3,0,0,0-.8,1.7,1.3,1.3,0,0,0,1.7.7A14.6,14.6,0,0,1,188.8,102h-.2a1.3,1.3,0,0,0-.8,1.7,1.3,1.3,0,0,0,1.7.8h0A17.3,17.3,0,0,0,199.6,82.4Z" transform="translate(0 -6.7)" style="fill:#5c4227"/></g></g></g></svg>