<svg xmlns="http://www.w3.org/2000/svg" viewBox="0 0 335.1 345"><g id="Layer_2" data-name="Layer 2"><g id="Layer_1-2" data-name="Layer 1"><polyline points="87.3 158.1 166.7 76.6 246.1 158.1" style="fill:none;stroke:#414042;stroke-linecap:round;stroke-linejoin:round;stroke-width:20px"/><line x1="113.5" y1="158.1" x2="87.3" y2="158.1" style="fill:none;stroke:#414042;stroke-linecap:round;stroke-linejoin:round;stroke-width:20px"/><line x1="246.1" y1="158.1" x2="209.5" y2="158.1" style="fill:none;stroke:#414042;stroke-linecap:round;stroke-linejoin:round;stroke-width:20px"/><polyline points="123.9 200.6 123.9 200.6 123.9 200.6 149.6 200.6 183.8 200.6 209.5 200.6 209.5 183 209.5 158.1" style="fill:none;stroke:#414042;stroke-linecap:round;stroke-linejoin:round;stroke-width:20px"/><line x1="128.9" y1="235.5" x2="206.4" y2="235.5" style="fill:none;stroke:#808285;stroke-linecap:round;stroke-linejoin:round;stroke-width:20px"/><line x1="149" y1="270.2" x2="186.5" y2="270.2" style="fill:none;stroke:#27aae1;stroke-linecap:round;stroke-linejoin:round;stroke-width:20px"/><path d="M325.1,173.4A157.8,157.8,0,0,1,97.6,316.7a158.8,158.8,0,0,1-14.5-8.2" style="fill:none;stroke:#414042;stroke-linecap:round;stroke-linejoin:round;stroke-width:20px"/><polygon points="119.3 285 41 269.5 66.7 345 119.3 285" style="fill:#414042"/><path d="M10,167.9a155.8,155.8,0,0,1,16.2-62.3A157.6,157.6,0,0,1,237.3,34.1l6.3,3.3" style="fill:none;stroke:#414042;stroke-linecap:round;stroke-linejoin:round;stroke-width:20px"/><polygon points="208.9 63.1 288 73.8 257.7 0 208.9 63.1" style="fill:#414042"/></g></g></svg>