<svg xmlns="http://www.w3.org/2000/svg" viewBox="0 0 300 300"><g id="Layer_2" data-name="Layer 2"><g id="Layer_1-2" data-name="Layer 1"><rect width="300" height="299.99" style="fill:#95bbdf"/><path d="M150,157c31.6,0,43-31.7,46-57.7,3.6-32-11.5-56.2-46-56.2s-49.7,24.2-46,56.2C107,125.3,118.4,157,150,157Z" style="fill:#fff"/><path d="M235.5,232.4a217.8,217.8,0,0,0-3.2-30.2c-2.2-12-4.9-29.7-15.4-37.5-6.1-4.6-14-6-20.9-8.8a89.5,89.5,0,0,1-9.3-4.1c-9.6,10.5-22.1,16-36.7,16s-27.1-5.5-36.7-16a89.5,89.5,0,0,1-9.3,4.1c-7,2.8-14.8,4.2-20.9,8.8-10.5,7.8-13.2,25.5-15.4,37.5a234.4,234.4,0,0,0-3.3,30.2c-.2,7.8,3.6,8.9,10.2,11.2a183.3,183.3,0,0,0,25.1,7c16.5,3.5,33.4,6.1,50.3,6.3s33.8-2.8,50.2-6.3a180.7,180.7,0,0,0,25.2-7c6.5-2.3,10.4-3.4,10.1-11.2Z" style="fill:#fff"/></g></g></svg>