<svg xmlns="http://www.w3.org/2000/svg" viewBox="0 0 187.22 41.46"><g id="Layer_2" data-name="Layer 2"><g id="Layer_1-2" data-name="Layer 1"><path d="M0,22.24C1.64,28.47,7.92,32.18,14,33c10.65,1.09,20.42-4.62,30.83-6.32,8.66-1.74,17.65-2.09,26.32,0,8.39,1.73,15.52,7.75,23.55,9.42,7.51,1.53,15.8-1.28,23.89-3.51a228.67,228.67,0,0,0,23.89-8.41A256.76,256.76,0,0,0,187.22,0,186,186,0,0,1,144,27.73a194.09,194.09,0,0,1-30.29,11.2c-13,3.78-20.6,3.73-32.49-3-11-6.38-23.3-7.46-35.77-5.46C37,31.6,29,34.88,20.28,35.35,11.79,36,1.4,31.43,0,22.24Z" style="fill:#f7931e"/></g></g></svg>