<svg xmlns="http://www.w3.org/2000/svg" viewBox="0 0 542.59 583.52"><defs><style>.cls-1{fill:none;stroke:#383838;stroke-miterlimit:10;stroke-width:18px;}.cls-2{fill:#9a5c8e;}.cls-3{fill:#fff;}</style></defs><g id="Layer_2" data-name="Layer 2"><g id="Capa_1" data-name="Capa 1"><path class="cls-1" d="M414,26h34l45,91V538H41.94L42,499"/><path class="cls-1" d="M465,62l23.56.49,45,91v421H82.5l.09-39"/><path d="M462,108.3a10,10,0,0,0-.81-3.13l-41.38-99A10,10,0,0,0,410.6,0H51.46a10,10,0,0,0-9.23,6.14l-41.38,99A10,10,0,0,0,0,108.3S0,502,0,502a10,10,0,0,0,10,10H452.06a10,10,0,0,0,10-10S462,108.33,462,108.3ZM403.94,20,437,99.21H314.79L298.24,20ZM184.25,20h93.56l16.55,79.21H167.7Zm-18.89,99.21H296.71v95.87l-23.09-12.56a10,10,0,0,0-9.55,0l-33,18-33-18a10,10,0,0,0-9.55,0l-23.08,12.56ZM58.12,20h105.7L147.27,99.21H25ZM20,119.21H145.36v25H20ZM442.06,492H20V164.23H145.36V231.9a10,10,0,0,0,14.77,8.78l33.09-18,33,18a10,10,0,0,0,9.55,0l33-18,33.08,18a10,10,0,0,0,14.78-8.78V164.23h46.57a10,10,0,0,0,0-20H316.71v-25H442.06Z"/><path d="M415.5,152.05a10.1,10.1,0,0,0-.57-1.87,9.87,9.87,0,0,0-.92-1.73,9.57,9.57,0,0,0-1.24-1.52,10,10,0,0,0-3.25-2.16,9.39,9.39,0,0,0-1.87-.57,9.9,9.9,0,0,0-3.91,0,9.39,9.39,0,0,0-1.87.57,10.63,10.63,0,0,0-1.73.92,10,10,0,0,0-1.51,1.24,9.63,9.63,0,0,0-1.25,1.52,9.87,9.87,0,0,0-.92,1.73,10.1,10.1,0,0,0-.57,1.87,10.1,10.1,0,0,0,0,3.9,10.1,10.1,0,0,0,.57,1.87,9.87,9.87,0,0,0,.92,1.73,9.63,9.63,0,0,0,1.25,1.52,9.86,9.86,0,0,0,3.24,2.16,10.13,10.13,0,0,0,1.87.58,9.94,9.94,0,0,0,2,.19,9.84,9.84,0,0,0,1.95-.19,10.13,10.13,0,0,0,1.87-.58,9.91,9.91,0,0,0,1.73-.92,10,10,0,0,0,1.52-1.24,9.57,9.57,0,0,0,1.24-1.52,9.87,9.87,0,0,0,.92-1.73,10.1,10.1,0,0,0,.57-1.87,9.61,9.61,0,0,0,0-3.9Z"/><path class="cls-2" d="M125.16,293.4H342.71a24.93,24.93,0,0,1,24.93,24.93h0v83.1a24.9,24.9,0,0,1-24.9,24.9h-78l10.71,26.24-47.1-26.24h-103a24.9,24.9,0,0,1-24.9-24.9h0v-83.1A24.79,24.79,0,0,1,125,293.4Z"/><path class="cls-3" d="M115.59,316.1a8.76,8.76,0,0,1,6.84-3.36q8.32-.63,9.45,7.87c3.36,22.72,7.06,42,11,57.73L166.65,333c2.18-4.12,4.88-6.29,8.13-6.5,4.8-.35,7.72,2.62,8.92,9.13A205.31,205.31,0,0,0,194,372.8q4.24-41.4,14.35-59.77a8.32,8.32,0,0,1,7.16-4.78,9.57,9.57,0,0,1,6.85,2.18,8.47,8.47,0,0,1,3.36,6.19,9.29,9.29,0,0,1-1.08,5.25q-6.33,11.81-10.49,39.36a204.18,204.18,0,0,0-3,41.38,12.85,12.85,0,0,1-1.28,7.19,7.07,7.07,0,0,1-5.78,3.91,11,11,0,0,1-8.58-4q-15.16-15.48-24-46.29-10.5,21-15.75,31.3-9.6,18.38-16.4,18.9c-2.94.23-5.43-2.29-7.61-7.48q-8.31-21.39-17.94-82.47A9.3,9.3,0,0,1,115.59,316.1Zm233.53,17.08a25,25,0,0,0-17.38-12.62,30.51,30.51,0,0,0-5.87-.66c-10.5,0-18.9,5.43-25.53,16.3a57.72,57.72,0,0,0-8.48,30.65,42,42,0,0,0,5.25,21.51A25,25,0,0,0,314.48,401a28.32,28.32,0,0,0,5.88.65q15.74,0,25.53-16.29a58.31,58.31,0,0,0,8.47-30.75,39.84,39.84,0,0,0-5.3-21.36Zm-13.7,30.1a28.52,28.52,0,0,1-8.24,16.05,10.49,10.49,0,0,1-8.82,3.49c-2.62-.55-4.77-2.83-6.4-7.05a27.52,27.52,0,0,1-1.94-9.9,37.17,37.17,0,0,1,.76-7.87,34.8,34.8,0,0,1,5.75-12.93c3.59-5.25,7.4-7.51,11.31-6.75,2.62.55,4.77,2.84,6.4,7.06a27.46,27.46,0,0,1,1.94,9.89,38.47,38.47,0,0,1-.81,8Zm-54.37-30.07a25.26,25.26,0,0,0-17.37-12.62,29,29,0,0,0-5.88-.66c-10.49,0-18.92,5.43-25.53,16.29a57.8,57.8,0,0,0-8.37,30.63,42,42,0,0,0,5.25,21.51A25,25,0,0,0,246.52,401a28.32,28.32,0,0,0,5.88.65q15.73,0,25.53-16.29a58.31,58.31,0,0,0,8.47-30.75A40.83,40.83,0,0,0,281.05,333.21Zm-13.8,30.09A28.74,28.74,0,0,1,259,379.36c-3.18,2.83-6.09,4-8.82,3.49s-4.77-2.83-6.4-7.06a27.5,27.5,0,0,1-2-9.89,39.24,39.24,0,0,1,.76-7.87,35.3,35.3,0,0,1,5.78-12.94c3.57-5.25,7.37-7.5,11.28-6.74,2.62.55,4.8,2.83,6.43,7.06A27.9,27.9,0,0,1,268,355.3a32.13,32.13,0,0,1-.76,8.06Z"/></g></g></svg>