<svg xmlns="http://www.w3.org/2000/svg" viewBox="0 0 70.02 71.54"><defs><style>.cls-1,.cls-2,.cls-3{fill:none;stroke:#a7a9ac;stroke-linecap:round;stroke-linejoin:round;}.cls-1{stroke-width:2.85px;}.cls-2{stroke-width:2.78px;}.cls-3{stroke-width:3px;}.cls-4{fill:#9a5d8e;}.cls-5{fill:#fff;}</style></defs><g id="Layer_2" data-name="Layer 2"><g id="Layer_1-2" data-name="Layer 1"><path class="cls-1" d="M1.42,1.42l5.15.37v51a3.63,3.63,0,0,0,.94,3.08,4.87,4.87,0,0,0,3.42.84c3.42-.18,17.26-.23,36.42-.28"/><path class="cls-2" d="M12.18,49.16H45.47a17.61,17.61,0,0,0,7.66-2.26,17.9,17.9,0,0,0,6.09-5.72q4.71-13.47,9.41-26.95a5.59,5.59,0,0,0-2-3.78,5.34,5.34,0,0,0-4-1.16L6.76,9"/><circle class="cls-3" cx="16.46" cy="65.45" r="4.59"/><circle class="cls-3" cx="40.14" cy="65.45" r="4.59"/><path class="cls-4" d="M16.46,18.18H49.65A3.81,3.81,0,0,1,53.46,22h0V34.67a3.8,3.8,0,0,1-3.8,3.8H37.75l1.64,4-7.19-4H16.48a3.8,3.8,0,0,1-3.8-3.8h0V22a3.78,3.78,0,0,1,3.76-3.81Z"/><path class="cls-5" d="M15,21.65a1.36,1.36,0,0,1,1-.52,1.22,1.22,0,0,1,1.44,1.21c.52,3.46,1.08,6.4,1.68,8.8l3.63-6.91a1.55,1.55,0,0,1,1.24-1c.73-.06,1.18.4,1.36,1.39A31.2,31.2,0,0,0,27,30.3q.64-6.32,2.19-9.12a1.26,1.26,0,0,1,1.09-.73,1.45,1.45,0,0,1,1,.33,1.32,1.32,0,0,1,.52.95,1.51,1.51,0,0,1-.17.8,20,20,0,0,0-1.6,6,31.13,31.13,0,0,0-.46,6.32,2,2,0,0,1-.2,1.09,1.08,1.08,0,0,1-.88.6,1.66,1.66,0,0,1-1.31-.62,16.46,16.46,0,0,1-3.66-7.06q-1.61,3.21-2.41,4.78c-1,1.87-1.81,2.83-2.5,2.88-.45,0-.83-.35-1.16-1.14q-1.28-3.27-2.74-12.58A1.39,1.39,0,0,1,15,21.65Zm35.63,2.6a4.14,4.14,0,0,0-3.55-2,4.46,4.46,0,0,0-3.89,2.48,8.78,8.78,0,0,0-1.29,4.68,6.26,6.26,0,0,0,.8,3.28,4.14,4.14,0,0,0,3.54,2,4.42,4.42,0,0,0,3.9-2.48,8.82,8.82,0,0,0,1.29-4.69,6.11,6.11,0,0,0-.81-3.26Zm-2.09,4.6a4.3,4.3,0,0,1-1.26,2.45,1.6,1.6,0,0,1-1.34.53c-.4-.09-.73-.43-1-1.08a4.1,4.1,0,0,1-.29-1.51,5.42,5.42,0,0,1,.11-1.2,5.31,5.31,0,0,1,.88-2c.55-.8,1.13-1.15,1.72-1,.41.08.73.43,1,1.07a4.41,4.41,0,0,1,.3,1.51,5.71,5.71,0,0,1-.13,1.23Zm-8.29-4.59a3.88,3.88,0,0,0-2.65-1.93,4.59,4.59,0,0,0-.9-.1,4.46,4.46,0,0,0-3.9,2.49,8.8,8.8,0,0,0-1.27,4.67,6.26,6.26,0,0,0,.8,3.28,4.14,4.14,0,0,0,3.54,2,4.43,4.43,0,0,0,3.9-2.48,8.82,8.82,0,0,0,1.29-4.69A6.29,6.29,0,0,0,40.25,24.26Zm-2.11,4.59a4.37,4.37,0,0,1-1.26,2.45,1.57,1.57,0,0,1-1.34.53c-.42-.08-.73-.43-1-1.07a4.41,4.41,0,0,1-.3-1.51A6.13,6.13,0,0,1,34.38,28a5.15,5.15,0,0,1,.88-2c.54-.8,1.12-1.14,1.72-1,.4.09.73.43,1,1.08a4.32,4.32,0,0,1,.3,1.51,5.13,5.13,0,0,1-.12,1.23Z"/></g></g></svg>