<svg xmlns="http://www.w3.org/2000/svg" viewBox="0 0 114.37 62.76"><defs><style>.cls-1{fill:#e6e6e6;}.cls-2{fill:#b3b3b3;}.cls-3{fill:#9a5c8e;}.cls-4{fill:#fff;}</style></defs><g id="Layer_2" data-name="Layer 2"><g id="Layer_1-2" data-name="Layer 1"><rect class="cls-1" x="9.53" y="13.94" width="104.84" height="48.81" rx="6.79"/><rect class="cls-2" x="3.45" y="7.56" width="104.84" height="48.81" rx="6.39"/><path class="cls-3" d="M9.5,0H92.4a9.56,9.56,0,0,1,9.5,9.5h0V41.2a9.5,9.5,0,0,1-9.5,9.5H62.7l4.1,10-17.9-10H9.5A9.5,9.5,0,0,1,0,41.2H0V9.5A9.56,9.56,0,0,1,9.5,0Z"/><path class="cls-4" d="M5.8,8.7A3.32,3.32,0,0,1,8.4,7.4q3.15-.3,3.6,3c1.3,8.7,2.7,16,4.2,22l9.1-17.3a4,4,0,0,1,3.1-2.5c1.8-.1,2.9,1,3.4,3.5a87.83,87.83,0,0,0,3.9,14.2c1.1-10.5,2.9-18.1,5.5-22.8a3,3,0,0,1,2.7-1.8,3.53,3.53,0,0,1,2.6.8,3.59,3.59,0,0,1,1.3,2.4,3.44,3.44,0,0,1-.4,2c-1.6,3-2.9,8-4,15a83.49,83.49,0,0,0-1.2,15.8,5,5,0,0,1-.5,2.7,2.91,2.91,0,0,1-2.2,1.5,4.46,4.46,0,0,1-3.3-1.5c-3.9-3.9-6.9-9.8-9.2-17.6-2.7,5.3-4.7,9.3-6,11.9q-3.6,7-6.3,7.2c-1.1.1-2.1-.9-2.9-2.9C9.7,37.6,7.4,27.1,5,11.6A4.14,4.14,0,0,1,5.8,8.7Zm89,6.5a9.55,9.55,0,0,0-6.6-4.8,16.6,16.6,0,0,0-2.2-.3c-4,0-7.2,2.1-9.7,6.2A21.93,21.93,0,0,0,73.1,28a15.59,15.59,0,0,0,2,8.2A9.55,9.55,0,0,0,81.7,41a16.6,16.6,0,0,0,2.2.3c4,0,7.3-2.1,9.7-6.2a21.93,21.93,0,0,0,3.2-11.7,15.59,15.59,0,0,0-2-8.2ZM89.6,26.7a11.51,11.51,0,0,1-3.1,6.1,3.89,3.89,0,0,1-3.4,1.3q-1.5-.3-2.4-2.7a9.86,9.86,0,0,1-.7-3.8,15.26,15.26,0,0,1,.3-3,12.13,12.13,0,0,1,2.2-4.9c1.4-2,2.8-2.9,4.3-2.6q1.5.3,2.4,2.7a9.86,9.86,0,0,1,.7,3.8,16.28,16.28,0,0,1-.3,3.1ZM68.9,15.2a9.55,9.55,0,0,0-6.6-4.8,16.6,16.6,0,0,0-2.2-.3c-4,0-7.2,2.1-9.7,6.2A22.87,22.87,0,0,0,47.2,28a15.59,15.59,0,0,0,2,8.2A9.55,9.55,0,0,0,55.8,41a16.6,16.6,0,0,0,2.2.3c4,0,7.2-2.1,9.7-6.2a21.93,21.93,0,0,0,3.2-11.7A15.59,15.59,0,0,0,68.9,15.2ZM63.6,26.7a11.51,11.51,0,0,1-3.1,6.1,3.92,3.92,0,0,1-3.4,1.3c-1.1-.2-1.8-1.1-2.4-2.7a12.28,12.28,0,0,1-.8-3.8,15.26,15.26,0,0,1,.3-3,12.13,12.13,0,0,1,2.2-4.9c1.4-2,2.8-2.9,4.3-2.6q1.5.3,2.4,2.7a9.86,9.86,0,0,1,.7,3.8,10.57,10.57,0,0,1-.2,3.1Z"/></g></g></svg>