<svg xmlns="http://www.w3.org/2000/svg" viewBox="0 0 86.5 70.1"><g id="Layer_2" data-name="Layer 2"><g id="Layer_1-2" data-name="Layer 1"><path d="M17.8,25.4,9.7,30.5C6.9,25,4.2,19.5,1.5,13.9A37.5,37.5,0,0,1,16.8,3.2c6.5-2.2,9.1-.9,25-1S60.5.6,67.1,2.5A39.4,39.4,0,0,1,85,13.7c-2.5,5.5-4.9,11-7.4,16.6l-8.4-4.9,1.2,43.2-53.6-.5Z" style="fill:none;stroke:#a7a9ac;stroke-linecap:round;stroke-linejoin:round;stroke-width:3px"/><path d="M31.4,2.1a14,14,0,0,0,3.8,8.5c.9,1,4.2,4.4,8.9,4.1S53,8.5,53.6,7.3a19.4,19.4,0,0,0,1.8-5.6" style="fill:none;stroke:#a7a9ac;stroke-linecap:round;stroke-linejoin:round;stroke-width:3px"/><path d="M30.1,35.8H58.2A3.3,3.3,0,0,1,61.5,39h0V49.8A3.2,3.2,0,0,1,58.2,53H48.1l1.4,3.4-6-3.4H30.1a3.2,3.2,0,0,1-3.3-3.2h0V39a3.3,3.3,0,0,1,3.3-3.2Z" style="fill:#9a5d8e"/><path d="M28.8,38.7a1.5,1.5,0,0,1,.9-.4c.7-.1,1.1.3,1.2,1,.5,3,.9,5.5,1.4,7.5l3.1-5.9a1.4,1.4,0,0,1,1.1-.8c.6-.1,1,.3,1.1,1.2A43.4,43.4,0,0,0,39,46.1a22.3,22.3,0,0,1,1.8-7.8,1.3,1.3,0,0,1,1-.6,1.1,1.1,0,0,1,.8.3,1.4,1.4,0,0,1,.5.8,1.4,1.4,0,0,1-.2.7,20.2,20.2,0,0,0-1.3,5.1,24.6,24.6,0,0,0-.4,5.4,2.9,2.9,0,0,1-.2.9.9.9,0,0,1-.7.5,1.7,1.7,0,0,1-1.2-.5,14.7,14.7,0,0,1-3.1-6l-2,4c-.8,1.6-1.6,2.5-2.2,2.5s-.7-.3-.9-1S29.4,45,28.5,39.7A1.9,1.9,0,0,1,28.8,38.7ZM59,41a3,3,0,0,0-2.2-1.7h-.7a3.7,3.7,0,0,0-3.3,2.1,6.4,6.4,0,0,0-1.1,4,4.7,4.7,0,0,0,.7,2.8,2.9,2.9,0,0,0,2.2,1.6h.7a3.7,3.7,0,0,0,3.3-2.1,6.4,6.4,0,0,0,1.1-4A4.4,4.4,0,0,0,59,41Zm-1.7,3.9a4,4,0,0,1-1.1,2,1.2,1.2,0,0,1-1.1.5c-.4-.1-.6-.4-.8-.9a3.1,3.1,0,0,1-.3-1.3c0-.4.1-.7.1-1.1a4.8,4.8,0,0,1,.8-1.6c.4-.7.9-1,1.4-.9s.6.4.8.9a3.1,3.1,0,0,1,.3,1.3c0,.3-.1.7-.1,1.1ZM50.2,41A3,3,0,0,0,48,39.3h-.7A3.7,3.7,0,0,0,44,41.3a8,8,0,0,0-1.1,4,4.7,4.7,0,0,0,.7,2.8,2.9,2.9,0,0,0,2.2,1.6h.7a3.7,3.7,0,0,0,3.3-2.1,6.4,6.4,0,0,0,1.1-4A4.4,4.4,0,0,0,50.2,41Zm-1.8,3.9a3.8,3.8,0,0,1-1,2,1.6,1.6,0,0,1-1.2.5,1.5,1.5,0,0,1-.8-.9,5.9,5.9,0,0,1-.2-1.3,4.1,4.1,0,0,1,.1-1.1,3.3,3.3,0,0,1,.7-1.6q.8-1.1,1.5-.9a1.5,1.5,0,0,1,.8.9,5.9,5.9,0,0,1,.2,1.3,2.1,2.1,0,0,1-.1,1.1Z" style="fill:#fff"/></g></g></svg>