<svg xmlns="http://www.w3.org/2000/svg" viewBox="0 0 96.4 88"><g id="Layer_2" data-name="Layer 2"><g id="Layer_1-2" data-name="Layer 1"><path d="M8.9,12.6,5,15.1,1,7A18.7,18.7,0,0,1,8.4,1.8c3.2-1.1,4.5-.4,12.2-.5s9.1-.8,12.3.2a20,20,0,0,1,8.7,5.4L38,15l-4.1-2.4.6,21L8.4,33.3Z" style="fill:#edf8fb;stroke:#a7a9ac;stroke-linecap:round;stroke-linejoin:round;stroke-width:2px"/><path d="M15.5,1.3a7.2,7.2,0,0,0,1.9,4.1,5.3,5.3,0,0,0,4.3,2c2.8-.2,4.3-3,4.6-3.6a9.5,9.5,0,0,0,.9-2.7" style="fill:#edf8fb;stroke:#a7a9ac;stroke-linecap:round;stroke-linejoin:round;stroke-width:2px"/><path d="M62.7,12.6l-3.9,2.5L54.8,7a18.7,18.7,0,0,1,7.4-5.2c3.2-1.1,4.4-.4,12.2-.5s9.1-.8,12.3.2a20,20,0,0,1,8.7,5.4L91.8,15l-4.1-2.4.6,21-26.1-.3Z" style="fill:none;stroke:#a7a9ac;stroke-linecap:round;stroke-linejoin:round;stroke-width:2px"/><path d="M69.3,1.3a6.6,6.6,0,0,0,1.9,4.1,5.3,5.3,0,0,0,4.3,2c2.8-.2,4.3-3,4.6-3.6A9.5,9.5,0,0,0,81,1.1" style="fill:none;stroke:#a7a9ac;stroke-linecap:round;stroke-linejoin:round;stroke-width:2px"/><path d="M8.9,66,5,68.5,1,60.4a18.7,18.7,0,0,1,7.4-5.2c3.2-1.1,4.5-.4,12.2-.5s9.1-.8,12.3.1a20.1,20.1,0,0,1,8.7,5.5l-3.6,8L33.9,66l.6,21L8.4,86.7Z" style="fill:none;stroke:#a7a9ac;stroke-linecap:round;stroke-linejoin:round;stroke-width:2px"/><path d="M15.5,54.6a7.2,7.2,0,0,0,1.9,4.2,5.6,5.6,0,0,0,4.3,2c2.8-.2,4.3-3.1,4.6-3.6a9.5,9.5,0,0,0,.9-2.7" style="fill:none;stroke:#a7a9ac;stroke-linecap:round;stroke-linejoin:round;stroke-width:2px"/><path d="M62.7,66l-3.9,2.5-4-8.1a18.7,18.7,0,0,1,7.4-5.2c3.2-1.1,4.4-.4,12.2-.5s9.1-.8,12.3.1a20.1,20.1,0,0,1,8.7,5.5l-3.6,8L87.7,66l.6,21-26.1-.3Z" style="fill:#fdfbe0;stroke:#a7a9ac;stroke-linecap:round;stroke-linejoin:round;stroke-width:2px"/><path d="M69.3,54.6a6.6,6.6,0,0,0,1.9,4.2,5.6,5.6,0,0,0,4.3,2c2.8-.2,4.3-3.1,4.6-3.6a9.5,9.5,0,0,0,.9-2.7" style="fill:#fdfbe0;stroke:#a7a9ac;stroke-linecap:round;stroke-linejoin:round;stroke-width:2px"/></g></g></svg>