<svg xmlns="http://www.w3.org/2000/svg" viewBox="0 0 724.5 483"><g id="Layer_2" data-name="Layer 2"><g id="Layer_1-2" data-name="Layer 1"><path d="M696.7,482.5H28.2A27.3,27.3,0,0,1,1,455.1V28A27.3,27.3,0,0,1,28.2.6H696.7A27.4,27.4,0,0,1,724,28V455.1A27.3,27.3,0,0,1,696.7,482.5Z" style="fill:#fff"/><path d="M696.7,482.5H28.2A27.3,27.3,0,0,1,1,455.1V28A27.3,27.3,0,0,1,28.2.6H696.7A27.4,27.4,0,0,1,724,28V455.1A27.3,27.3,0,0,1,696.7,482.5Z" style="fill:none;stroke:#fff;stroke-miterlimit:10;stroke-width:1.01003677256137px"/><path d="M51.2,113.9a15.9,15.9,0,0,1-5.5-3.1l1.8-3.9a13.4,13.4,0,0,0,4.8,2.9,18.3,18.3,0,0,0,6.1,1.1,11.4,11.4,0,0,0,6.2-1.4,4.7,4.7,0,0,0,2-3.9,4.2,4.2,0,0,0-1.1-2.9,8.3,8.3,0,0,0-2.7-1.7l-4.7-1.3a32.9,32.9,0,0,1-6-1.9A9.7,9.7,0,0,1,48.2,95a8,8,0,0,1-1.7-5.3,9.1,9.1,0,0,1,1.4-4.9,10.3,10.3,0,0,1,4.3-3.6,16.2,16.2,0,0,1,7-1.3,22.5,22.5,0,0,1,5.8.8,17,17,0,0,1,4.9,2.2l-1.6,4a19.7,19.7,0,0,0-4.4-2.1,15.8,15.8,0,0,0-4.7-.7q-4.1,0-6,1.5a4.5,4.5,0,0,0-2,3.9,4,4,0,0,0,1.1,2.9,8.8,8.8,0,0,0,2.8,1.7,34.5,34.5,0,0,0,4.6,1.3c2.5.7,4.5,1.3,6,1.9a10.8,10.8,0,0,1,3.9,2.8,7.7,7.7,0,0,1,1.7,5.2,8.4,8.4,0,0,1-1.5,4.9,9.2,9.2,0,0,1-4.3,3.6,16.7,16.7,0,0,1-7.1,1.3A21.8,21.8,0,0,1,51.2,113.9Z"/><path d="M100.9,88.6v26.1H96.6v-3.9a9.9,9.9,0,0,1-3.6,3.1,11.7,11.7,0,0,1-4.9,1.1,10.7,10.7,0,0,1-7.9-2.9c-2-1.9-2.9-4.7-2.9-8.5v-15h4.5v14.5a8.1,8.1,0,0,0,1.8,5.7,6.3,6.3,0,0,0,5,2,7.5,7.5,0,0,0,5.7-2.3,9,9,0,0,0,2.1-6.4V88.6Z"/><path d="M129.4,90.1a11.3,11.3,0,0,1,4.6,4.6,14.5,14.5,0,0,1,1.6,7,14.1,14.1,0,0,1-1.6,6.9,11.6,11.6,0,0,1-4.6,4.7,12.9,12.9,0,0,1-6.5,1.7,11.9,11.9,0,0,1-5.1-1.1,11.3,11.3,0,0,1-3.9-3.3v4.1h-4.3V78.2h4.5V92.6a9.5,9.5,0,0,1,3.8-3.1,11.8,11.8,0,0,1,5-1.1A12.9,12.9,0,0,1,129.4,90.1Zm-2.5,19.6a9.3,9.3,0,0,0,3-3.2,11,11,0,0,0,0-9.6,8.5,8.5,0,0,0-3-3.2,8.3,8.3,0,0,0-4.4-1.2,8,8,0,0,0-4.3,1.2,7.2,7.2,0,0,0-3,3.2,11,11,0,0,0,0,9.6,7.7,7.7,0,0,0,3,3.2,8,8,0,0,0,4.3,1.2A8.3,8.3,0,0,0,126.9,109.7Z"/><path d="M143.2,114.1a11.8,11.8,0,0,1-4.5-2.2l1.9-3.7a15,15,0,0,0,4,2,15.9,15.9,0,0,0,4.8.7c4,0,6-1.2,6-3.5a2.6,2.6,0,0,0-.8-1.9,4.2,4.2,0,0,0-2-1l-3.5-.7a33.2,33.2,0,0,1-4.9-1.1,8.3,8.3,0,0,1-3.3-2.2,6.2,6.2,0,0,1-1.4-4.3,7,7,0,0,1,2.9-5.7,12.5,12.5,0,0,1,7.6-2.1,21.4,21.4,0,0,1,5,.6,12,12,0,0,1,4.1,1.8l-1.9,3.7a12.7,12.7,0,0,0-7.2-2.1,9.1,9.1,0,0,0-4.5,1A3,3,0,0,0,144,96a2.4,2.4,0,0,0,.9,2,5.3,5.3,0,0,0,2.1,1.1l3.5.8a29.2,29.2,0,0,1,4.9,1.2,7.6,7.6,0,0,1,3.2,2,6,6,0,0,1,1.3,4.2,6.5,6.5,0,0,1-2.9,5.6,13.2,13.2,0,0,1-7.9,2.1A19.2,19.2,0,0,1,143.2,114.1Z"/><path d="M169.7,113.3a13.5,13.5,0,0,1-4.7-4.8,14.7,14.7,0,0,1,0-13.7,12.5,12.5,0,0,1,4.7-4.7,14.1,14.1,0,0,1,6.9-1.7,13.4,13.4,0,0,1,6.1,1.4,11,11,0,0,1,4.1,4.2l-3.4,2.3a8.2,8.2,0,0,0-6.9-3.8,8.3,8.3,0,0,0-4.4,1.2,8,8,0,0,0-3.1,3.2,11,11,0,0,0,0,9.6,8,8,0,0,0,3.1,3.2,8.3,8.3,0,0,0,4.4,1.2,8.2,8.2,0,0,0,6.9-3.8l3.4,2.3a10.1,10.1,0,0,1-4.1,4.1,12.3,12.3,0,0,1-6.1,1.5A14.1,14.1,0,0,1,169.7,113.3Z"/><path d="M200.5,89.6a12.6,12.6,0,0,1,5.7-1.2V93h-1.1a7.7,7.7,0,0,0-5.8,2.3,9.2,9.2,0,0,0-2.1,6.5v13h-4.5V88.6H197V93A8.2,8.2,0,0,1,200.5,89.6Z"/><path d="M211.8,82.8a3.5,3.5,0,0,1-.8-2.2,3.3,3.3,0,0,1,.8-2.2,3.2,3.2,0,0,1,2.3-.9,3.1,3.1,0,0,1,2.2.9,2.9,2.9,0,0,1,.8,2.1,3.3,3.3,0,0,1-.8,2.2,3.1,3.1,0,0,1-2.2.9A3.6,3.6,0,0,1,211.8,82.8Zm0,5.8h4.5v26.1h-4.5Z"/><path d="M244.8,90.1a11.3,11.3,0,0,1,4.6,4.6,14.5,14.5,0,0,1,1.6,7,14.1,14.1,0,0,1-1.6,6.9,11.6,11.6,0,0,1-4.6,4.7,12.9,12.9,0,0,1-6.5,1.7,11.9,11.9,0,0,1-5.1-1.1,10.1,10.1,0,0,1-3.8-3.3v4.1H225V78.2h4.5V92.6a10.2,10.2,0,0,1,3.8-3.1,12.2,12.2,0,0,1,5-1.1A12.9,12.9,0,0,1,244.8,90.1Zm-2.5,19.6a8.4,8.4,0,0,0,3-3.2,11,11,0,0,0,0-9.6,7.8,7.8,0,0,0-3-3.2,8.3,8.3,0,0,0-4.4-1.2,8.2,8.2,0,0,0-4.3,1.2,7.2,7.2,0,0,0-3,3.2,11,11,0,0,0,0,9.6,7.7,7.7,0,0,0,3,3.2,8.2,8.2,0,0,0,4.3,1.2A8.3,8.3,0,0,0,242.3,109.7Z"/><path d="M275.9,107.7l2.4,3.1a11,11,0,0,1-4.2,3.1,14,14,0,0,1-5.6,1.1,14.9,14.9,0,0,1-7.1-1.7,11.8,11.8,0,0,1-4.7-4.7,13.6,13.6,0,0,1-1.7-6.9,14.6,14.6,0,0,1,1.6-6.9,12,12,0,0,1,4.5-4.7,12.9,12.9,0,0,1,6.5-1.7,11.8,11.8,0,0,1,10.6,6.1,13.4,13.4,0,0,1,1.8,6.7l-20,4a8,8,0,0,0,3.2,4.2,9.5,9.5,0,0,0,5.4,1.5A9.4,9.4,0,0,0,275.9,107.7ZM263.3,93.5a8.2,8.2,0,0,0-2.9,3.2,9.9,9.9,0,0,0-1,4.7v.5l16.1-3.1a8.4,8.4,0,0,0-2.8-4.6,7.6,7.6,0,0,0-5.1-1.8A8.9,8.9,0,0,0,263.3,93.5Z"/><path d="M312.3,113.2a6.6,6.6,0,0,1-2.5,1.3,10.5,10.5,0,0,1-3,.5,7.9,7.9,0,0,1-5.9-2.1c-1.4-1.4-2.1-3.4-2.1-6.1V82.9h4.6v5.7h7.2v3.9h-7.2v14.1a4.8,4.8,0,0,0,1,3.3,3.8,3.8,0,0,0,2.9,1.1,5.1,5.1,0,0,0,3.5-1.2Z"/><path d="M320.9,113.3a12.5,12.5,0,0,1-4.6-4.8,14.7,14.7,0,0,1,0-13.7,11.6,11.6,0,0,1,4.6-4.7,14,14,0,0,1,6.8-1.7,13.6,13.6,0,0,1,6.7,1.7,12.2,12.2,0,0,1,4.6,4.7,14.7,14.7,0,0,1,0,13.7,13.2,13.2,0,0,1-4.6,4.8,13.6,13.6,0,0,1-6.7,1.7A14,14,0,0,1,320.9,113.3Zm11.1-3.6a7.7,7.7,0,0,0,3-3.2,11,11,0,0,0,0-9.6,7.2,7.2,0,0,0-3-3.2,8,8,0,0,0-4.3-1.2,8.3,8.3,0,0,0-4.4,1.2,7.2,7.2,0,0,0-3,3.2,11,11,0,0,0,0,9.6,7.7,7.7,0,0,0,3,3.2,8.3,8.3,0,0,0,4.4,1.2A8,8,0,0,0,332,109.7Z"/><path d="M363.8,113.3a12.7,12.7,0,0,1-4.7-4.8,14.7,14.7,0,0,1,0-13.7,11.8,11.8,0,0,1,4.7-4.7,14.1,14.1,0,0,1,13.4,0,11.6,11.6,0,0,1,4.6,4.7,14.7,14.7,0,0,1,0,13.7,12.5,12.5,0,0,1-4.6,4.8,14.1,14.1,0,0,1-13.4,0Zm11-3.6a7.7,7.7,0,0,0,3-3.2,11,11,0,0,0,0-9.6,7.2,7.2,0,0,0-3-3.2,8,8,0,0,0-4.3-1.2,7.7,7.7,0,0,0-4.3,1.2,8,8,0,0,0-3.1,3.2,11,11,0,0,0,0,9.6,8.7,8.7,0,0,0,3.1,3.2,7.7,7.7,0,0,0,4.3,1.2A8,8,0,0,0,374.8,109.7Z"/><path d="M413.2,88.6v26.1h-4.3v-3.9a9.9,9.9,0,0,1-3.6,3.1,11.4,11.4,0,0,1-4.9,1.1,10.7,10.7,0,0,1-7.9-2.9c-2-1.9-2.9-4.7-2.9-8.5v-15h4.5v14.5a8.1,8.1,0,0,0,1.8,5.7,6.4,6.4,0,0,0,5,2,7.5,7.5,0,0,0,5.7-2.3,9,9,0,0,0,2.1-6.4V88.6Z"/><path d="M429.8,89.6a11.9,11.9,0,0,1,5.6-1.2V93h-1a7.5,7.5,0,0,0-5.8,2.3c-1.5,1.5-2.2,3.7-2.2,6.5v13h-4.5V88.6h4.4V93A7.2,7.2,0,0,1,429.8,89.6Z"/><path d="M69.1,150.3c1.9,1.9,2.8,4.7,2.8,8.4v15H67.4V159.2a8.1,8.1,0,0,0-1.8-5.7,6.2,6.2,0,0,0-5-1.9,7.8,7.8,0,0,0-5.8,2.2,9.3,9.3,0,0,0-2.2,6.5v13.4H48.1V147.6h4.4v4a8.1,8.1,0,0,1,3.7-3.1,11.2,11.2,0,0,1,5.3-1.1A9.9,9.9,0,0,1,69.1,150.3Z"/><path d="M99.1,166.7l2.4,3a10.3,10.3,0,0,1-4.2,3.2,14,14,0,0,1-5.6,1.1,14.9,14.9,0,0,1-7.1-1.7,12.1,12.1,0,0,1-4.7-4.8,13,13,0,0,1-1.7-6.8,14.3,14.3,0,0,1,1.6-6.9A12.7,12.7,0,0,1,97,149a11.2,11.2,0,0,1,4.4,4.5,13.1,13.1,0,0,1,1.7,6.7l-19.9,4a8,8,0,0,0,3.2,4.2,9.5,9.5,0,0,0,5.4,1.4A9.3,9.3,0,0,0,99.1,166.7ZM86.5,152.5a7.5,7.5,0,0,0-2.9,3.2,9.9,9.9,0,0,0-1,4.7v.5l16-3.1a8.3,8.3,0,0,0-2.7-4.7,8,8,0,0,0-5.1-1.7A7.9,7.9,0,0,0,86.5,152.5Z"/><path d="M147.8,147.6V162c0,3.9-.9,6.8-2.8,8.9a10.2,10.2,0,0,1-7.9,3.1c-4.1,0-7-1.6-8.6-4.7a8,8,0,0,1-3.3,3.5A10.5,10.5,0,0,1,120,174c-3.5,0-6.2-1.1-8-3.1s-2.7-5-2.7-8.9V147.6h4.5v14c0,2.8.5,4.8,1.5,6.2s2.5,1.9,4.7,1.9,3.7-.6,4.7-2,1.6-3.4,1.6-6.1v-14h4.5v14c0,2.7.5,4.8,1.6,6.1s2.6,2,4.7,2a5.6,5.6,0,0,0,4.7-1.9,11.4,11.4,0,0,0,1.4-6.2v-14Z"/><path d="M157.4,173.1a12.9,12.9,0,0,1-4.4-2.2l1.9-3.7a13.6,13.6,0,0,0,4,2,19.9,19.9,0,0,0,4.8.7c4,0,6-1.2,6-3.5a2.4,2.4,0,0,0-.8-1.9,5.1,5.1,0,0,0-2.1-1,27.9,27.9,0,0,0-3.4-.7,29.2,29.2,0,0,1-4.9-1.2,7.2,7.2,0,0,1-3.3-2.1,5.9,5.9,0,0,1-1.4-4.3,6.7,6.7,0,0,1,2.8-5.7,12.8,12.8,0,0,1,7.7-2.1,22,22,0,0,1,5,.6,13,13,0,0,1,4.1,1.7l-1.9,3.8a12.8,12.8,0,0,0-7.3-2.1,7.8,7.8,0,0,0-4.4,1,3,3,0,0,0-1.5,2.6,2.6,2.6,0,0,0,.8,2,5.1,5.1,0,0,0,2.2,1.1l3.5.8a33.2,33.2,0,0,1,4.9,1.1,7.5,7.5,0,0,1,3.2,2.1,6,6,0,0,1,1.3,4.2,6.7,6.7,0,0,1-2.9,5.6,13.2,13.2,0,0,1-7.9,2.1A19.8,19.8,0,0,1,157.4,173.1Z"/><path d="M181.9,171.9a8.4,8.4,0,0,1-2-5.9V137.2h4.5v28.4a5.4,5.4,0,0,0,1,3.3,3.8,3.8,0,0,0,2.9,1.1,5.9,5.9,0,0,0,2.3-.5l.2,3.9a9.2,9.2,0,0,1-3.3.6A7.3,7.3,0,0,1,181.9,171.9Z"/><path d="M213.2,166.7l2.5,3a10.3,10.3,0,0,1-4.2,3.2,14.8,14.8,0,0,1-5.7,1.1,14.5,14.5,0,0,1-7-1.7,11.7,11.7,0,0,1-4.8-4.8,14,14,0,0,1-1.7-6.8,15.6,15.6,0,0,1,1.6-6.9,12,12,0,0,1,4.5-4.7,12.2,12.2,0,0,1,6.5-1.7,11.7,11.7,0,0,1,6.2,1.6,10.8,10.8,0,0,1,4.5,4.5,14.1,14.1,0,0,1,1.7,6.7l-20,4a8.5,8.5,0,0,0,3.2,4.2,9.6,9.6,0,0,0,5.5,1.4A9,9,0,0,0,213.2,166.7Zm-12.5-14.2a6.5,6.5,0,0,0-2.9,3.2,9.9,9.9,0,0,0-1.1,4.7v.5l16.1-3.1a8.4,8.4,0,0,0-2.8-4.7,8,8,0,0,0-5.1-1.7A7.3,7.3,0,0,0,200.7,152.5Z"/><path d="M236.8,172.2a6.8,6.8,0,0,1-2.4,1.3,10.6,10.6,0,0,1-3.1.5,7.8,7.8,0,0,1-5.8-2.1,8.5,8.5,0,0,1-2.1-6.1V141.9h4.5v5.7h7.2v3.9h-7.2v14.1a4.9,4.9,0,0,0,1.1,3.3,3.7,3.7,0,0,0,2.9,1.1,5.3,5.3,0,0,0,3.5-1.2Z"/><path d="M255.6,172.2a8.4,8.4,0,0,1-2.5,1.3,10.5,10.5,0,0,1-3,.5,7.9,7.9,0,0,1-5.9-2.1,8.5,8.5,0,0,1-2.1-6.1V141.9h4.5v5.7h7.2v3.9h-7.2v14.1a4.9,4.9,0,0,0,1.1,3.3,3.7,3.7,0,0,0,2.9,1.1,5.1,5.1,0,0,0,3.5-1.2Z"/><path d="M278.8,166.7l2.4,3a10.3,10.3,0,0,1-4.2,3.2,14,14,0,0,1-5.6,1.1,14.9,14.9,0,0,1-7.1-1.7,12.1,12.1,0,0,1-4.7-4.8,13,13,0,0,1-1.7-6.8,14.3,14.3,0,0,1,1.6-6.9,12.7,12.7,0,0,1,17.2-4.8,11.2,11.2,0,0,1,4.4,4.5,13.1,13.1,0,0,1,1.7,6.7l-19.9,4a8,8,0,0,0,3.2,4.2,9.5,9.5,0,0,0,5.4,1.4A9.3,9.3,0,0,0,278.8,166.7Zm-12.6-14.2a7.5,7.5,0,0,0-2.9,3.2,9.9,9.9,0,0,0-1,4.7v.5l16-3.1a8.3,8.3,0,0,0-2.7-4.7,8,8,0,0,0-5.1-1.7A7.9,7.9,0,0,0,266.2,152.5Z"/><path d="M297.1,148.6a11.9,11.9,0,0,1,5.6-1.2V152h-1a7.9,7.9,0,0,0-5.9,2.3,9.2,9.2,0,0,0-2.1,6.5v13h-4.5V147.6h4.4V152A6.8,6.8,0,0,1,297.1,148.6Z"/><path d="M59,248.3a8.2,8.2,0,0,1-2.8,1.5,14.4,14.4,0,0,1-3.7.5,11,11,0,0,1-3.9-.6,5.1,5.1,0,0,1-2.4-1.8,4.4,4.4,0,0,1-.8-2.5,4.5,4.5,0,0,1,.8-2.6,5.1,5.1,0,0,1,2.1-1.5,3.3,3.3,0,0,1-1.6-1.5,4.4,4.4,0,0,1-.6-2.3,4.1,4.1,0,0,1,.8-2.4,4.8,4.8,0,0,1,2.2-1.7,8.4,8.4,0,0,1,3.7-.7l3,.3a11.8,11.8,0,0,1,2.5,1l-.7,2a9.4,9.4,0,0,0-4.7-1.2,6.2,6.2,0,0,0-3.3.8,2.5,2.5,0,0,0-1.1,2.1,2.2,2.2,0,0,0,.9,1.9,3.6,3.6,0,0,0,2.5.7h4.2v2.1H51.8a6,6,0,0,0-3,.7,2.4,2.4,0,0,0-1,2.1,2.5,2.5,0,0,0,1.2,2.2,6.9,6.9,0,0,0,3.6.8,10.6,10.6,0,0,0,3.1-.5,7.3,7.3,0,0,0,2.5-1.3Z"/><path d="M81,238.4a5.7,5.7,0,0,1,1.4,4.2v7.5H80.1v-7.2a4.2,4.2,0,0,0-.8-2.9,3.2,3.2,0,0,0-2.4-.9,3.1,3.1,0,0,0-2.7,1.1,4.4,4.4,0,0,0-1.1,3.2v6.7H70.9v-7.2A4.2,4.2,0,0,0,70,240a3,3,0,0,0-2.4-.9,3.3,3.3,0,0,0-2.7,1.1,4.4,4.4,0,0,0-1,3.2v6.7H61.6v-13h2.2V239a3.4,3.4,0,0,1,1.8-1.5,4.9,4.9,0,0,1,2.5-.6,5.6,5.6,0,0,1,2.6.7,3.7,3.7,0,0,1,1.7,1.8,4.9,4.9,0,0,1,2-1.8,6.9,6.9,0,0,1,2.9-.7A4.7,4.7,0,0,1,81,238.4Z"/><path d="M98.5,237.1v13H96.3V248a5.2,5.2,0,0,1-1.9,1.7,7,7,0,0,1-2.5.5,5.8,5.8,0,0,1-3.3-.8,5.9,5.9,0,0,1-2.3-2.4,7.4,7.4,0,0,1-.8-3.4,7.8,7.8,0,0,1,.8-3.5,5.7,5.7,0,0,1,2.3-2.3,5.8,5.8,0,0,1,3.3-.9,4.8,4.8,0,0,1,2.4.6,4,4,0,0,1,1.9,1.5v-1.9Zm-4.3,10.5a4.6,4.6,0,0,0,1.5-1.6,5.1,5.1,0,0,0,0-4.8,4.6,4.6,0,0,0-1.5-1.6A4.3,4.3,0,0,0,92,239a3.7,3.7,0,0,0-2.1.6,3.3,3.3,0,0,0-1.5,1.6,5.1,5.1,0,0,0,0,4.8,3.3,3.3,0,0,0,1.5,1.6,3.7,3.7,0,0,0,2.1.6A4.3,4.3,0,0,0,94.2,247.6Z"/><path d="M102.8,234.1a1.8,1.8,0,0,1-.4-1.1,1.8,1.8,0,0,1,.4-1,1.6,1.6,0,0,1,1.1-.5,1.2,1.2,0,0,1,1.1.4,1.5,1.5,0,0,1,0,2.2,1.3,1.3,0,0,1-1.1.5A1.6,1.6,0,0,1,102.8,234.1Zm0,3h2.3v13h-2.3Z"/><path d="M110.4,249.2a3.9,3.9,0,0,1-1-2.9V231.9h2.3v14.2a2.1,2.1,0,0,0,.5,1.6,1.6,1.6,0,0,0,1.4.5,2,2,0,0,0,1.1-.2l.2,1.9a5.1,5.1,0,0,1-1.7.3A3.7,3.7,0,0,1,110.4,249.2Z"/><path d="M135.9,234.7c1.3,1.3,1.9,3.2,1.9,5.7v9.7h-2.4v-4.8h-9.5v4.8h-2.3v-9.7c0-2.5.6-4.4,1.9-5.7a7.8,7.8,0,0,1,10.4,0Zm-.5,8.5v-3a6,6,0,0,0-1.2-4,4.6,4.6,0,0,0-3.5-1.3,4.8,4.8,0,0,0-3.6,1.3,6,6,0,0,0-1.2,4v3Z"/><path d="M154.1,231.9v18.2H152V248a5.5,5.5,0,0,1-2,1.7,6.6,6.6,0,0,1-2.5.5,6.2,6.2,0,0,1-3.3-.8A5.7,5.7,0,0,1,142,247a6.4,6.4,0,0,1-.9-3.4,6.8,6.8,0,0,1,.9-3.5,5.4,5.4,0,0,1,2.2-2.3,6.3,6.3,0,0,1,3.3-.9,5.4,5.4,0,0,1,2.5.6,4.5,4.5,0,0,1,1.9,1.5v-7.1Zm-4.3,15.7a3.3,3.3,0,0,0,1.5-1.6,5.1,5.1,0,0,0,0-4.8,3.3,3.3,0,0,0-1.5-1.6,3.7,3.7,0,0,0-2.1-.6,4,4,0,0,0-2.2.6,4.6,4.6,0,0,0-1.5,1.6,5.1,5.1,0,0,0,0,4.8,4.6,4.6,0,0,0,1.5,1.6,4,4,0,0,0,2.2.6A3.7,3.7,0,0,0,149.8,247.6Z"/><path d="M170.3,231.9v18.2h-2.2V248a6.1,6.1,0,0,1-1.9,1.7,7.1,7.1,0,0,1-2.6.5,5.7,5.7,0,0,1-3.2-.8,5.3,5.3,0,0,1-2.3-2.4,7.4,7.4,0,0,1-.8-3.4,7.8,7.8,0,0,1,.8-3.5,5.1,5.1,0,0,1,2.3-2.3,5.7,5.7,0,0,1,3.2-.9,5.4,5.4,0,0,1,2.5.6A4,4,0,0,1,168,239v-7.1ZM166,247.6a4.6,4.6,0,0,0,1.5-1.6,6,6,0,0,0,0-4.8,4.6,4.6,0,0,0-1.5-1.6,4.3,4.3,0,0,0-4.4,0,4.6,4.6,0,0,0-1.5,1.6,6,6,0,0,0,0,4.8,4.6,4.6,0,0,0,1.5,1.6,4.3,4.3,0,0,0,4.4,0Z"/><path d="M178.5,237.5a6.1,6.1,0,0,1,2.8-.6v2.3h-.5a4,4,0,0,0-2.9,1.1,4.9,4.9,0,0,0-1.1,3.3v6.5h-2.2v-13h2.2v2.2A3.3,3.3,0,0,1,178.5,237.5Z"/><path d="M193.3,246.6l1.2,1.5a5.6,5.6,0,0,1-2.1,1.6,8.2,8.2,0,0,1-2.8.5,7.8,7.8,0,0,1-3.5-.8,5.6,5.6,0,0,1-2.4-2.4,6.9,6.9,0,0,1,0-6.8,5.6,5.6,0,0,1,2.2-2.4,5.9,5.9,0,0,1,3.2-.9,6.2,6.2,0,0,1,3.1.8,6.3,6.3,0,0,1,2.3,2.3,7.3,7.3,0,0,1,.8,3.3l-10,2a4.9,4.9,0,0,0,1.6,2.1,5.1,5.1,0,0,0,2.8.8A4.8,4.8,0,0,0,193.3,246.6Zm-6.3-7.1a3.6,3.6,0,0,0-1.4,1.6,4.8,4.8,0,0,0-.6,2.4v.2l8.1-1.6a4.3,4.3,0,0,0-1.4-2.3,3.9,3.9,0,0,0-2.6-.9A3.7,3.7,0,0,0,187,239.5Z"/><path d="M199.1,249.8a7.5,7.5,0,0,1-2.2-1.1l.9-1.9a5.4,5.4,0,0,0,2,1,6.7,6.7,0,0,0,2.4.4q3,0,3-1.8a1,1,0,0,0-.4-.9l-1-.5-1.7-.4-2.5-.5A3.6,3.6,0,0,1,198,243a2.8,2.8,0,0,1-.7-2.1,3.6,3.6,0,0,1,1.4-2.9,6.3,6.3,0,0,1,3.8-1.1,10.1,10.1,0,0,1,2.5.4,7.1,7.1,0,0,1,2.1.8l-1,1.9a6.1,6.1,0,0,0-3.6-1,3.4,3.4,0,0,0-2.2.5,1.4,1.4,0,0,0-.8,1.3,1.4,1.4,0,0,0,.5,1l1,.5,1.8.4,2.4.6a2.9,2.9,0,0,1,1.6,1,2.8,2.8,0,0,1,.7,2.1,3.2,3.2,0,0,1-1.5,2.8,6.4,6.4,0,0,1-3.9,1A9.9,9.9,0,0,1,199.1,249.8Z"/><path d="M211,249.8a8.2,8.2,0,0,1-2.3-1.1l1-1.9a4.2,4.2,0,0,0,2,1,6.7,6.7,0,0,0,2.4.4q3,0,3-1.8a1.3,1.3,0,0,0-.4-.9l-1-.5-1.7-.4a10.9,10.9,0,0,1-2.5-.5,3.9,3.9,0,0,1-1.7-1.1,3.3,3.3,0,0,1-.7-2.1,3.4,3.4,0,0,1,1.5-2.9,6.1,6.1,0,0,1,3.8-1.1,11.8,11.8,0,0,1,2.5.4,7.6,7.6,0,0,1,2,.8L218,240a6.5,6.5,0,0,0-3.6-1,3.4,3.4,0,0,0-2.2.5,1.5,1.5,0,0,0-.4,2.3l1.1.5,1.7.4,2.5.6a3.9,3.9,0,0,1,1.6,1,3.3,3.3,0,0,1,.6,2.1,3.1,3.1,0,0,1-1.4,2.8,6.8,6.8,0,0,1-4,1A9.2,9.2,0,0,1,211,249.8Z"/><path d="M675.3,331.1H50.3c-3.7,0-6.7-3.3-6.7-7.5V275.7c0-4.2,3-7.6,6.7-7.6h625c3.7,0,6.7,3.4,6.7,7.6v47.9C682,327.8,679,331.1,675.3,331.1Z" style="fill:none;stroke:gray;stroke-miterlimit:10;stroke-width:1.37578347868746px"/><path d="M246.8,420.4a3.6,3.6,0,0,1-3.6-3.6V371.7a3.6,3.6,0,0,1,3.6-3.5H466.3a3.5,3.5,0,0,1,3.5,3.5v45.1a3.6,3.6,0,0,1-3.5,3.6Z" style="fill:#333"/><path d="M466.3,368.7a3.1,3.1,0,0,1,3,3v45.1a3,3,0,0,1-3,3H246.8a2.9,2.9,0,0,1-3-3V371.7a3,3,0,0,1,3-3H466.3m0-1.1H246.8a4.1,4.1,0,0,0-4.1,4.1v45.1a4.1,4.1,0,0,0,4.1,4.1H466.3a4.1,4.1,0,0,0,4.1-4.1V371.7a4.1,4.1,0,0,0-4.1-4.1Z"/><path d="M313.2,401a8.7,8.7,0,0,1-2.7-1.5l.9-1.9a6.9,6.9,0,0,0,2.4,1.4,7.6,7.6,0,0,0,3,.5,4.9,4.9,0,0,0,3-.7,2.3,2.3,0,0,0,.5-3.3,2.5,2.5,0,0,0-1.4-.8,13,13,0,0,0-2.3-.7l-2.9-.9a5.6,5.6,0,0,1-2-1.4,4.5,4.5,0,0,1-.8-2.6,4.3,4.3,0,0,1,.7-2.5,5.1,5.1,0,0,1,2.1-1.7,7.3,7.3,0,0,1,3.5-.7,9,9,0,0,1,2.8.4,6.7,6.7,0,0,1,2.4,1.1l-.7,2a9.1,9.1,0,0,0-2.2-1.1l-2.3-.3a5.1,5.1,0,0,0-3,.7,2.3,2.3,0,0,0-1,2,1.8,1.8,0,0,0,.6,1.4,2.7,2.7,0,0,0,1.4.8l2.2.7,3,.9a5.2,5.2,0,0,1,1.9,1.4,3.5,3.5,0,0,1,.8,2.6,4,4,0,0,1-.7,2.4,5.4,5.4,0,0,1-2.1,1.8,9.1,9.1,0,0,1-3.5.6A10.9,10.9,0,0,1,313.2,401Z" style="fill:#f2f2f2"/><path d="M326.3,385.6a1.4,1.4,0,0,1-.5-1.1,1.4,1.4,0,0,1,.5-1,1.2,1.2,0,0,1,1-.5,1.8,1.8,0,0,1,1.1.4,1.5,1.5,0,0,1,0,2.2,1.4,1.4,0,0,1-1.1.5A1.2,1.2,0,0,1,326.3,385.6Zm-.1,2.9h2.3v12.9h-2.3Z" style="fill:#f2f2f2"/><path d="M344.6,388.5v11.2c0,2.2-.5,3.9-1.6,4.9a6.5,6.5,0,0,1-4.8,1.7,12.7,12.7,0,0,1-3.4-.5,6.2,6.2,0,0,1-2.5-1.5l1-1.8a5.4,5.4,0,0,0,2.2,1.3,7.5,7.5,0,0,0,2.6.4,4.2,4.2,0,0,0,3.2-1,4.7,4.7,0,0,0,1.1-3.3v-1a7.5,7.5,0,0,1-2,1.5,7,7,0,0,1-2.5.5,6.6,6.6,0,0,1-3.2-.8,6.1,6.1,0,0,1-2.3-2.2,7.3,7.3,0,0,1-.8-3.3,6.6,6.6,0,0,1,.8-3.2,5.4,5.4,0,0,1,2.3-2.2,6.6,6.6,0,0,1,3.2-.8,7.5,7.5,0,0,1,2.6.5,5.3,5.3,0,0,1,2,1.6v-2Zm-4.2,9.8a5.4,5.4,0,0,0,1.5-1.5,5.1,5.1,0,0,0,.5-2.2,4.1,4.1,0,0,0-4.2-4.2,4.1,4.1,0,0,0-3.1,1.2,4.1,4.1,0,0,0-1.2,3,5.1,5.1,0,0,0,.5,2.2,5.4,5.4,0,0,0,1.5,1.5,4.3,4.3,0,0,0,2.3.5A4.2,4.2,0,0,0,340.4,398.3Z" style="fill:#f2f2f2"/><path d="M359.3,389.8a6.1,6.1,0,0,1,1.4,4.2v7.4h-2.3v-7.1a4.2,4.2,0,0,0-.8-2.9,3.3,3.3,0,0,0-2.5-.9,4,4,0,0,0-2.9,1.1,4.4,4.4,0,0,0-1,3.2v6.6h-2.3V388.5h2.2v2a4,4,0,0,1,1.8-1.6,7.5,7.5,0,0,1,2.6-.5A5.2,5.2,0,0,1,359.3,389.8Z" style="fill:#f2f2f2"/><path d="M373.2,399.7a8.1,8.1,0,0,1-1.9-5.6v-9.7h2.4V394c0,3.6,1.5,5.4,4.6,5.4a4.2,4.2,0,0,0,3.4-1.3,6.1,6.1,0,0,0,1.2-4.1v-9.6h2.3v9.7a8,8,0,0,1-1.8,5.6,7.8,7.8,0,0,1-10.2,0Z" style="fill:#f2f2f2"/><path d="M399.5,389.2a6.9,6.9,0,0,1,2.2,2.3,6.7,6.7,0,0,1,.8,3.5,6.3,6.3,0,0,1-.8,3.4,5.4,5.4,0,0,1-2.2,2.3,5.9,5.9,0,0,1-3.2.9,5.4,5.4,0,0,1-2.5-.6,5.5,5.5,0,0,1-1.9-1.5v6.6h-2.2V388.5h2.1v2.1a4.8,4.8,0,0,1,1.9-1.6,5.5,5.5,0,0,1,2.6-.6A6.9,6.9,0,0,1,399.5,389.2Zm-1.3,9.7a3.9,3.9,0,0,0,1.5-1.6,4.4,4.4,0,0,0,.6-2.3,4.8,4.8,0,0,0-.6-2.4,4.6,4.6,0,0,0-1.5-1.6,4,4,0,0,0-4.2,0,3.3,3.3,0,0,0-1.5,1.6,4.8,4.8,0,0,0-.6,2.4,5.6,5.6,0,0,0,.5,2.3,3.9,3.9,0,0,0,1.5,1.6,4.3,4.3,0,0,0,2.2.6A3.7,3.7,0,0,0,398.2,398.9Z" style="fill:#f2f2f2"/><rect x="0.5" y="0.5" width="723" height="59" style="fill:#fff;stroke:#fff;stroke-miterlimit:10;stroke-width:1.01003677256137px"/><rect x="0.5" y="437.5" width="723" height="45" style="fill:#fff;stroke:#fff;stroke-miterlimit:10;stroke-width:1.01003677256137px"/></g></g></svg>