<svg xmlns="http://www.w3.org/2000/svg" xmlns:xlink="http://www.w3.org/1999/xlink" version="1.1" style="" xml:space="preserve" width="52" height="52"><rect id="backgroundrect" width="100%" height="100%" x="0" y="0" fill="none" stroke="none"/>
















<g class="currentLayer" style=""><title>Layer 1</title><g id="svg_1" class="selected" fill="#919191" fill-opacity="1">
	<path d="M26,0.08474575728178024 C11.663,0.08474575728178024 0,11.74774575728178 0,26.08474575728178 s11.663,26 26,26 s26,-11.663 26,-26 S40.337,0.08474575728178024 26,0.08474575728178024 zM26,50.08474575728178 C12.767,50.08474575728178 2,39.31774575728178 2,26.08474575728178 S12.767,2.0847457572817802 26,2.0847457572817802 s24,10.767 24,24 S39.233,50.08474575728178 26,50.08474575728178 z" id="svg_2" fill="#919191" fill-opacity="1"/>
	<path d="M26,37.08474575728178 c-0.553,0 -1,0.4470000000000001 -1,1 v2 c0,0.553 0.4470000000000001,1 1,1 s1,-0.4470000000000001 1,-1 v-2 C27,37.53174575728178 26.553,37.08474575728178 26,37.08474575728178 z" id="svg_3" fill="#919191" fill-opacity="1"/>
	<path d="M26.113,9.08574575728178 C26.075,9.08574575728178 26.037,9.08474575728178 25.998,9.08474575728178 c-2.116,0 -4.106,0.8150000000000002 -5.615,2.3040000000000003 C18.847,12.903745757281781 18,14.92674575728178 18,17.08474575728178 c0,0.553 0.4470000000000001,1 1,1 s1,-0.4470000000000001 1,-1 c0,-1.618 0.6350000000000002,-3.136 1.787,-4.272 c1.153,-1.137 2.688,-1.7650000000000001 4.299,-1.727 c3.161,0.04400000000000002 5.869,2.7520000000000002 5.913,5.913 c0.02900000000000001,2.084 -0.999,4.002 -2.7510000000000003,5.132 C26.588,23.84674575728178 25,26.87874575728178 25,30.24274575728178 V33.08474575728178 c0,0.553 0.4470000000000001,1 1,1 s1,-0.4470000000000001 1,-1 v-2.842 c0,-2.6420000000000003 1.276,-5.105 3.332,-6.432 c2.335,-1.506 3.706,-4.063 3.6670000000000007,-6.84 C33.939,12.68374575728178 30.401,9.14574575728178 26.113,9.08574575728178 z" id="svg_4" fill="#919191" fill-opacity="1"/>
</g><g id="svg_5">
</g><g id="svg_6">
</g><g id="svg_7">
</g><g id="svg_8">
</g><g id="svg_9">
</g><g id="svg_10">
</g><g id="svg_11">
</g><g id="svg_12">
</g><g id="svg_13">
</g><g id="svg_14">
</g><g id="svg_15">
</g><g id="svg_16">
</g><g id="svg_17">
</g><g id="svg_18">
</g><g id="svg_19">
</g></g></svg>