<svg xmlns="http://www.w3.org/2000/svg" viewBox="0 0 595.3 768.3"><g id="Layer_2" data-name="Layer 2"><g id="Layer_1-2" data-name="Layer 1"><rect width="595.3" height="768.34" style="fill:#fff"/><rect x="181.4" y="42.8" width="232.4" height="47.14" rx="23.6" style="fill:#e6e7e8"/><rect y="138.1" width="595.3" height="630.19" style="fill:#e6e7e8"/><rect x="83.2" y="205.6" width="194.4" height="189.04" rx="11.9" style="fill:#a7a9ac"/><rect x="83.2" y="420.5" width="194.4" height="12.71" rx="4.3" style="fill:#bcbec0"/><rect x="83.2" y="458.6" width="154.2" height="12.71" rx="3.8" style="fill:#bcbec0"/><rect x="317.6" y="205.6" width="194.4" height="189.04" rx="11.9" style="fill:#a7a9ac"/><rect x="317.6" y="420.5" width="194.4" height="12.71" rx="4.3" style="fill:#bcbec0"/><rect x="317.6" y="458.6" width="156.8" height="12.71" rx="3.8" style="fill:#bcbec0"/><rect x="83.2" y="527.6" width="428.8" height="117.66" rx="13.9" style="fill:#a7a9ac"/><rect x="83.2" y="675.4" width="194.4" height="12.71" rx="4.3" style="fill:#bcbec0"/><rect x="83.2" y="713.5" width="194.4" height="12.71" rx="4.3" style="fill:#bcbec0"/><rect x="317.6" y="675.4" width="194.4" height="12.71" rx="4.3" style="fill:#bcbec0"/><rect x="317.6" y="713.5" width="194.4" height="12.71" rx="4.3" style="fill:#bcbec0"/></g></g></svg>