<svg xmlns="http://www.w3.org/2000/svg" xmlns:xlink="http://www.w3.org/1999/xlink" width="330" height="889" viewBox="0 0 330 889">
  <defs>
    <rect id="desktop-a" width="330" height="889" x="0" y="0"/>
    <polygon id="desktop-c" points="190 0 331 0 331 889 0 889"/>
  </defs>
  <g fill="none" fill-rule="evenodd">
    <mask id="desktop-b" fill="#fff">
      <use xlink:href="#desktop-a"/>
    </mask>
    <g mask="url(#desktop-b)">
      <g transform="translate(-1)">
        <mask id="desktop-d" fill="#fff">
          <use xlink:href="#desktop-c"/>
        </mask>
        <use fill="#F7FCFF" xlink:href="#desktop-c"/>
        <g mask="url(#desktop-d)" opacity=".8">
          <g transform="matrix(-1 0 0 1 819 465)">
            <g transform="translate(170.316 67.55)">
              <polygon fill="#E5F5FF" points="545.298 338.939 570.281 338.939 570.281 101.212 545.298 101.212"/>
              <polygon fill="#F1FAFF" points="570.281 338.939 639.2 338.939 639.2 101.212 570.281 101.212"/>
              <polygon fill="#F1FAFF" points="314.148 360.688 367.963 360.688 367.963 94.345 314.148 94.345"/>
              <polygon fill="#E5F5FF" points="314.952 360.688 334.15 360.688 334.15 94.345 314.952 94.345"/>
              <polygon fill="#E5F5FF" points="350.71 94.345 369.909 94.345 369.909 70.863 350.71 70.863"/>
              <polygon fill="#F1FAFF" points="379.953 339.758 458.906 339.758 458.906 134.962 379.953 134.962"/>
              <polygon fill="#F1FAFF" points="367.963 337.206 391.943 337.206 391.943 70.863 367.963 70.863"/>
              <polygon fill="#E5F5FF" points="391.943 359.86 411.141 359.86 411.141 134.962 391.943 134.962"/>
              <polygon fill="#F1FAFF" points="470.867 322.827 501.262 322.827 501.262 0 470.867 0"/>
              <polygon fill="#F1FAFF" points="446.916 353.277 474.82 353.277 474.82 30.449 446.916 30.449"/>
              <polygon fill="#F1FAFF" points="495.296 347.188 523.201 347.188 523.201 24.361 495.296 24.361"/>
              <polygon fill="#E5F5FF" points="481.829 272.211 489.297 272.211 489.297 25.602 481.829 25.602"/>
              <polygon fill="#E5F5FF" points="458.143 289.885 465.611 289.885 465.611 43.277 458.143 43.277"/>
              <polygon fill="#E5F5FF" points="505.515 289.885 512.983 289.885 512.983 43.277 505.515 43.277"/>
            </g>
            <path fill="#E5F5FF" d="M15.9507283,433.183041 C15.9507283,433.183041 76.9587433,323.299559 148.992297,325.758731 C221.025352,328.217903 219.732689,367.122075 270.064264,367.05364 C320.39534,366.985704 377.913364,311.51921 461.569915,309.674956 C545.225967,307.830702 576.350622,373.133884 663.010919,369.5253 C751.483537,365.841288 826.16725,374.056012 864.83643,432.398284"/>
            <polygon fill="#AAD5FF" points="673.205 433.183 729.195 433.183 729.195 335.45 673.205 335.45"/>
            <polygon fill="#CFECFF" points="370.377 349.848 743.015 349.848 743.015 335.45 370.377 335.45"/>
            <polygon fill="#CFECFF" points="675.547 283.9 360.775 283.9 355.409 255.092 670.18 255.092"/>
            <polygon fill="#CFECFF" points="683.033 324.082 368.26 324.082 362.894 295.269 677.667 295.269"/>
            <polygon fill="#C3E4FF" points="652.019 255.092 666.989 335.45 648.923 335.45 633.953 255.092"/>
            <polygon fill="#C3E4FF" points="715.374 349.877 729.195 349.877 729.195 335.45 715.374 335.45"/>
            <polygon fill="#C3E4FF" points="729.195 433.183 743.015 433.183 743.015 335.45 729.195 335.45"/>
          </g>
        </g>
      </g>
    </g>
    <g mask="url(#desktop-b)">
      <g transform="matrix(-1 0 0 1 476 340)">
        <polygon fill="#3361C2" fill-rule="nonzero" points="227.349 504.434 205.437 548.126 330.853 548.126 278.613 520.326"/>
        <path fill="#24272D" fill-rule="nonzero" d="M91.7267862,528.068372 L209.583555,410.277899 C220.184245,399.67335 227.141541,385.974361 229.451251,371.158518 L239.525935,306.511972 L283.637067,370.817894 L214.437483,503.477924 L289.59803,525.749507 L360.710363,411.181863 C367.214364,400.707013 370.483068,388.545419 370.108379,376.221373 C369.733035,363.897327 365.730018,351.957793 358.601099,341.897588 L289.820748,242.61873 L178.069054,214.929912 L169.363426,228.587633 C160.683346,242.205396 155.607356,257.80533 154.611679,273.923406 L149.633291,354.127307 L16.1863093,491.451269 L91.7267862,528.068372 Z"/>
        <path fill="#F9D0B5" fill-rule="nonzero" d="M231.678424,274.512948 C231.678424,274.512948 223.614747,276.032656 211.240834,278.882108 C211.240834,278.882108 206.504816,287.849696 204.257991,288.05276 C197.203092,288.589898 176.699997,281.01756 187.305272,259.689244 C197.910547,238.360928 231.678424,241.230032 231.678424,241.230032"/>
        <polyline stroke="#FFF" stroke-linecap="square" stroke-width="1.966" points="293.803 381.947 280.788 370.287 298.821 361.274" opacity=".5"/>
        <line x1="241.51" x2="237.331" y1="287.778" y2="333.434" stroke="#FFF" stroke-linecap="square" stroke-width="1.966"/>
        <path fill="#6BA1FF" fill-rule="nonzero" d="M257.58569,94.1262244 C215.852393,84.9424716 178.069054,214.929912 178.069054,214.929912 L289.820748,242.638382 C289.820748,242.638382 315.577351,106.886531 257.58569,94.1262244 Z"/>
        <path fill="#6BA1FF" fill-rule="nonzero" d="M254.441445,93.7004441 C254.441445,93.7004441 230.066999,91.5584419 218.479147,98.1416598 C211.889335,101.888526 185.333569,130.442006 163.63173,154.403609 C150.530711,168.867037 158.391323,192.39631 177.387801,195.671543 L289.578379,214.929912 L293.148406,174.81486 L226.202198,157.855705 L239.643844,137.221738"/>
        <path fill="#6BA1FF" fill-rule="nonzero" d="M264.01829,96.1765201 C264.01829,96.1765201 308.371791,109.041635 315.629756,120.727665 C322.88772,132.413696 317.732469,214.929912 317.732469,214.929912 L234.20037,281.417138 L201.952212,242.638382 L273.116293,184.417843"/>
        <path fill="#24272D" fill-rule="nonzero" d="M293.758259,83.6631656 C313.900421,80.447542 327.401676,60.134548 323.91484,38.2926754 C320.428004,16.4501476 301.273004,1.35001422 281.131497,4.56563781 C260.989335,7.78060636 247.488079,28.0942554 250.974915,49.9361281 C254.461752,71.7786558 273.616752,86.8781342 293.758259,83.6631656 Z"/>
        <path fill="#F9D0B5" fill-rule="nonzero" d="M269.776188,126.930956 C273.059959,126.534653 276.125597,125.079795 278.508673,122.785167 C280.891093,120.491194 282.461905,117.48322 282.982016,114.216503 L291.104647,63.0573658 C291.669956,59.1061249 290.658558,55.0906895 288.288583,51.8783411 C285.918609,48.6666478 282.380679,46.5154749 278.438582,45.8892504 C274.496485,45.2630259 270.465957,46.2121883 267.217559,48.5323633 C263.969161,50.8518832 261.763605,54.3563823 261.077111,58.2886268 L252.954479,109.447764 C252.587651,111.769249 252.764515,114.144447 253.46935,116.386672 C254.174839,118.628241 255.389959,120.676572 257.019726,122.370522 C258.649493,124.063818 260.649363,125.357535 262.862125,126.148176 C265.075542,126.939472 267.442242,127.207386 269.776188,126.930956 L269.776188,126.930956 Z"/>
        <path fill="#F9D0B5" fill-rule="nonzero" d="M280.289756,101.744416 L283.401248,102.2226 C287.013199,102.768909 290.700481,102.513441 294.203039,101.473882 C297.704941,100.434978 300.934997,98.6381851 303.664595,96.2105826 C306.394192,93.78298 308.55586,90.7841768 309.996972,87.4277182 C311.437429,84.0706046 312.121303,80.4377163 312.000773,76.7871418 L311.345722,58.6947557 C311.140691,52.8537055 308.886661,47.2707436 304.978627,42.9245096 C301.070593,38.5782757 295.75813,35.7451993 289.971409,34.9231158 L289.971409,34.9231158 C283.447102,34.0204617 276.831087,35.7406139 271.572338,39.7062659 C266.313589,43.6719178 262.841164,49.5601313 261.915577,56.0811199 L259.432933,73.695322 C258.526998,80.1730775 260.206549,86.7477799 264.109997,91.996668 C268.012791,97.2455561 273.825058,100.747435 280.289756,101.744416 L280.289756,101.744416 Z"/>
        <polygon fill="#252B2D" fill-rule="nonzero" points="297.326 62.559 299.149 61.826 305.756 78.263 298.3 79.293 298.031 77.347 302.994 76.661"/>
        <path fill="#252B2D" fill-rule="nonzero" d="M292.611265 70.8524199C294.097575 70.8524199 295.303524 69.6471343 295.303524 68.1601786 295.303524 66.6732228 294.097575 65.4679372 292.611265 65.4679372 291.124299 65.4679372 289.919005 66.6732228 289.919005 68.1601786 289.919005 69.6471343 291.124299 70.8524199 292.611265 70.8524199zM306.386986 70.8524199C307.873952 70.8524199 309.079246 69.6471343 309.079246 68.1601786 309.079246 66.6732228 307.873952 65.4679372 306.386986 65.4679372 304.900021 65.4679372 303.694727 66.6732228 303.694727 68.1601786 303.694727 69.6471343 304.900021 70.8524199 306.386986 70.8524199z"/>
        <path fill="#252B2D" fill-rule="nonzero" d="M288.179308,83.2636137 L288.055922,81.3023513 C288.085625,81.3005477 288.121346,81.2988194 288.17576,81.2970181 C288.805941,81.276158 289.638795,81.315652 290.604436,81.4633385 C292.066991,81.6870237 293.515255,82.1175109 294.876876,82.8071975 C296.752093,83.7570296 298.332601,85.13599 299.508045,86.9990663 L297.846029,88.0476437 C296.868317,86.4979719 295.558837,85.3554778 293.988898,84.5602746 C292.827106,83.9718049 291.575997,83.5999209 290.307335,83.40589 C289.470139,83.2778481 288.756542,83.2440092 288.240775,83.2610821 C288.206092,83.2622301 288.180859,83.2634511 288.179308,83.2636137 Z" transform="rotate(-173 293.782 84.67)"/>
        <path fill="#24272D" fill-rule="nonzero" d="M193.697914,100.945259 C193.697914,100.945259 189.459735,134.188872 217.345254,133.854799 C263.506695,133.298009 270.915322,102.969353 267.718673,85.4534079 C266.408571,78.477162 262.131088,73.3022941 257.329565,68.3566925 C282.221501,62.9001546 280.524919,46.6025961 280.524919,46.6025961 C280.524919,46.6025961 326.817371,68.5270046 324.144763,39.3184783 C321.472155,10.1099519 294.104126,-1.46472087 275.304163,0.146693684 C231.605714,3.9001105 230.315263,31.7330391 218.596401,35.741924 C152.115279,58.4851408 193.697914,100.945259 193.697914,100.945259 Z"/>
        <path fill="#F9D0B5" fill-rule="nonzero" d="M256.586737,76.4059047 C259.648445,81.7818719 266.487832,83.6579252 271.863836,80.5968926 C277.239839,77.535205 279.115905,70.6958638 276.054197,65.3198966 L271.016855,56.4741478 C267.955802,51.0988357 261.116414,49.2221273 255.740411,52.283815 C250.364408,55.3448476 248.488342,62.1848438 251.55005,67.5601559 L256.586737,76.4059047 Z"/>
        <polygon fill="#252B2D" fill-rule="nonzero" points="258.245 59.47 259.953 58.496 267.106 71.047 265.398 72.02"/>
        <g transform="translate(289.176 81.429)">
          <path fill="#EA6F57" fill-rule="nonzero" d="M85.0389361,170.076731 C132.004846,170.076731 170.077872,132.00396 170.077872,85.0383653 C170.077872,38.0727706 132.004846,-4.26325641e-14 85.0389361,-4.26325641e-14 C38.0735161,-4.26325641e-14 -2.84217094e-13,38.0727706 -2.84217094e-13,85.0383653 C-2.84217094e-13,132.00396 38.0735161,170.076731 85.0389361,170.076731 Z"/>
          <path fill="#FFBA5F" fill-rule="nonzero" d="M100.22621,170.076731 C147.19212,170.076731 185.265146,132.00396 185.265146,85.0383653 C185.265146,38.0727706 147.19212,-4.26325641e-14 100.22621,-4.26325641e-14 C53.26079,-4.26325641e-14 15.187274,38.0727706 15.187274,85.0383653 C15.187274,132.00396 53.26079,170.076731 100.22621,170.076731 Z"/>
          <path fill="#F79D52" fill-rule="nonzero" d="M100.22621,149.02535 C135.565527,149.02535 164.213625,120.377445 164.213625,85.0383653 C164.213625,49.6992857 135.565527,21.0513801 100.22621,21.0513801 C64.8868932,21.0513801 36.2387954,49.6992857 36.2387954,85.0383653 C36.2387954,120.377445 64.8868932,149.02535 100.22621,149.02535 Z"/>
          <path fill="#E25D4B" fill-rule="nonzero" d="M118.773122,108.862629 C115.523045,112.282192 110.81499,114.468655 104.648957,115.422508 L104.648957,124.814059 L94.8213211,124.814059 L94.8213211,115.765444 C90.8740996,115.508731 86.9714601,114.783177 83.1957078,113.604946 C79.9652276,112.653053 76.8998478,111.210762 74.107839,109.328042 L79.428284,96.9725431 C82.1815898,98.8106808 85.1886701,100.236805 88.3544818,101.205355 C91.5815326,102.25229 94.9511478,102.794619 98.3437888,102.812256 C104.549015,102.812256 107.652118,101.203885 107.652118,97.9866542 C107.652118,96.2949992 106.765377,95.0388731 104.991896,94.2192557 C103.218414,93.3996384 100.367126,92.5388686 96.4380309,91.6374365 C92.7651601,90.8653403 89.1520586,89.8335924 85.6256716,88.5510112 C82.7342106,87.4487165 80.1709907,85.6277255 78.1790082,83.2599964 C76.1017811,80.8364177 75.0631675,77.5706858 75.0631675,73.4618209 C75.0278938,71.1460221 75.4599963,68.8463903 76.3325297,66.7010798 C77.205553,64.5557693 78.5013704,62.607892 80.1435556,60.9740462 C83.5239489,57.5054921 88.4083721,55.3827174 94.7968255,54.6052321 L94.7968255,45.2969654 L104.624461,45.2969654 L104.624461,54.4386632 C107.660447,54.7086029 110.663607,55.2749374 113.589852,56.1288484 C116.272611,56.8980052 118.846119,58.0076486 121.247178,59.4308336 L116.250075,71.8745165 C110.792454,68.8272839 105.497975,67.3036676 100.367126,67.3036676 C97.1435042,67.3036676 94.7948658,67.7935764 93.3221901,68.7733939 C91.8490246,69.7532115 91.1126867,71.0367725 91.1126867,72.6240769 C91.1126867,74.2015832 91.9861999,75.3856927 93.7337163,76.1759155 C95.4807427,76.9661384 98.2913682,77.7828163 102.165103,78.6254594 C105.85855,79.384818 109.492228,80.4131365 113.036252,81.7020865 C115.913505,82.8122198 118.472806,84.6145942 120.487814,86.9490095 C122.587577,89.3495625 123.637949,92.6157843 123.637949,96.747185 C123.664404,98.9875379 123.248469,101.210744 122.413658,103.289917 C121.578848,105.36909 120.34133,107.263077 118.773122,108.862629 L118.773122,108.862629 Z" transform="matrix(-1 0 0 1 197.747 0)"/>
        </g>
        <path fill="#F9D0B5" fill-rule="nonzero" d="M277.800562,187.74548 L295.323176,181.195014 C295.323176,181.195014 315.754215,195.664992 320.870163,185.78034 C320.870163,185.78034 324.145418,187.968195 325.730641,186.330579 C327.315865,184.692963 323.01873,174.402181 323.01873,174.402181 C323.01873,174.402181 325.121444,165.696612 319.363546,159.781542 C313.605648,153.866471 297.94338,142.87479 295.323176,144.197984 C292.702972,145.521178 277.813663,161.576369 277.813663,161.576369 L277.800562,187.74548 Z"/>
        <line x1="185.909" x2="274.112" y1="197.46" y2="199.405" stroke="#FFF" stroke-width="1.966"/>
        <line x1="269.409" x2="208.005" y1="154.03" y2="151.41" stroke="#FFF" stroke-width="1.966"/>
        <line x1="232.589" x2="218.283" y1="138.132" y2="151.718" stroke="#FFF" stroke-width="1.966"/>
        <line x1="222.39" x2="255.306" y1="225.922" y2="198.986" stroke="#FFF" stroke-width="1.966"/>
      </g>
    </g>
  </g>
</svg>
