<svg xmlns="http://www.w3.org/2000/svg" viewBox="0 0 595.3 768.3"><g id="Layer_2" data-name="Layer 2"><g id="Layer_1-2" data-name="Layer 1"><rect width="595.3" height="768.34" style="fill:#fff"/><rect x="181.4" y="42.8" width="232.4" height="47.14" rx="23.6" style="fill:#e6e7e8"/><rect x="83.2" y="120.7" width="428.8" height="125.62" rx="14.4" style="fill:#d1d3d4"/><rect x="113.4" y="277" width="368.4" height="12.71" rx="5.9" style="fill:#d1d3d4"/><rect x="113.4" y="315.2" width="264.1" height="12.71" rx="5" style="fill:#d1d3d4"/><rect y="367.3" width="595.3" height="401.08" style="fill:#e6e7e8"/><rect x="84.8" y="445.9" width="125.8" height="134.52" rx="8" style="fill:#a7a9ac"/><rect x="84.8" y="621.3" width="125.8" height="12.71" rx="3.4" style="fill:#bcbec0"/><rect x="84.8" y="659.4" width="125.8" height="12.71" rx="3.4" style="fill:#bcbec0"/><rect x="84.8" y="697.5" width="92" height="12.71" rx="3.4" style="fill:#bcbec0"/><rect x="234.7" y="445.9" width="125.8" height="134.52" rx="8" style="fill:#a7a9ac"/><rect x="234.7" y="621.3" width="125.8" height="12.71" rx="3.4" style="fill:#bcbec0"/><rect x="234.7" y="659.4" width="125.8" height="12.71" rx="3.4" style="fill:#bcbec0"/><rect x="234.7" y="697.5" width="92" height="12.71" rx="3.4" style="fill:#bcbec0"/><rect x="386.2" y="445.9" width="125.8" height="134.52" rx="8" style="fill:#a7a9ac"/><rect x="386.2" y="621.3" width="125.8" height="12.71" rx="3.4" style="fill:#bcbec0"/><rect x="386.2" y="659.4" width="125.8" height="12.71" rx="3.4" style="fill:#bcbec0"/><rect x="386.2" y="697.5" width="92" height="12.71" rx="3.4" style="fill:#bcbec0"/></g></g></svg>