<svg xmlns="http://www.w3.org/2000/svg" viewBox="0 0 97.7 97"><g id="Layer_2" data-name="Layer 2"><g id="Layer_1-2" data-name="Layer 1"><path d="M48.5,97A48.5,48.5,0,1,1,97,48.5a47.8,47.8,0,0,1-.9,9.2A3.4,3.4,0,0,1,92,60.4a3.5,3.5,0,0,1-2.7-4.1,40.4,40.4,0,0,0,.7-7.8A41.5,41.5,0,1,0,48.5,90a39.3,39.3,0,0,0,6.9-.6,3.5,3.5,0,0,1,4,2.9,3.4,3.4,0,0,1-2.8,4A43.6,43.6,0,0,1,48.5,97Z" style="fill:#333"/><path d="M89,52.5H7a3.5,3.5,0,0,1,0-7H89a3.5,3.5,0,0,1,0,7Z" style="fill:#333"/><path d="M25,52.5a3.5,3.5,0,0,1-3.5-3.4,51.1,51.1,0,0,1,23.6-45,3.4,3.4,0,0,1,4.8,1,3.4,3.4,0,0,1-1,4.8,44.2,44.2,0,0,0-20.4,39,3.5,3.5,0,0,1-3.4,3.6Z" style="fill:#333"/><path d="M72.6,51.5h-.1a3.6,3.6,0,0,1-3.4-3.6c.2-4.2-.1-9.9-3.7-18A45,45,0,0,0,48.7,10.4a3.4,3.4,0,0,1-1-4.8,3.4,3.4,0,0,1,4.8-1.1A52,52,0,0,1,71.8,27.1c4.2,9.5,4.5,16.5,4.3,21A3.5,3.5,0,0,1,72.6,51.5Z" style="fill:#333"/><path d="M79.2,95.7a3.5,3.5,0,0,1-3.5-3.5v-30a3.5,3.5,0,0,1,3.5-3.5,3.5,3.5,0,0,1,3.5,3.5v30A3.4,3.4,0,0,1,79.2,95.7Z" style="fill:#333"/><path d="M94.2,80.7h-30a3.5,3.5,0,0,1-3.5-3.5,3.5,3.5,0,0,1,3.5-3.5h30a3.5,3.5,0,0,1,3.5,3.5A3.4,3.4,0,0,1,94.2,80.7Z" style="fill:#333"/><path d="M49,52.5A3.5,3.5,0,0,1,45.5,49V7a3.5,3.5,0,0,1,7,0V49A3.5,3.5,0,0,1,49,52.5Z" style="fill:#333"/></g></g></svg>