<svg xmlns="http://www.w3.org/2000/svg" viewBox="0 0 91.9 95.4"><g id="Layer_2" data-name="Layer 2"><g id="Layer_1-2" data-name="Layer 1"><g id="Layer_2-2" data-name="Layer 2"><g id="Layer_1-2-2" data-name="Layer 1-2"><path d="M43.2,1.5A26.5,26.5,0,0,0,21.5,19.4a24,24,0,0,0,3.2,21.1c.9,1.2,1.9,2.3,2.9,3.4a10,10,0,0,1,1.6,2c-.6,0-6.3,2.9-8.5,4.3A54.4,54.4,0,0,0,9.5,60.4,50.8,50.8,0,0,0,1,76.7a16.7,16.7,0,0,0-.1,7.7A14.4,14.4,0,0,0,11.2,94.6c1.3.3,3.1.3,34.8.3,37.3,0,34.3.1,37.5-1.4A14,14,0,0,0,91.3,79c-.6-4.1-3.5-10.9-6.6-15.5A47.5,47.5,0,0,0,64.5,46.6l-2-.9,1.3-1.2a26.3,26.3,0,0,0,7.1-12.4A26.4,26.4,0,0,0,71.1,22,26.7,26.7,0,0,0,50.6,1.8,30.4,30.4,0,0,0,43.2,1.5Zm8.5,6.6a17.9,17.9,0,0,1,11.7,9.6,19.8,19.8,0,0,1,1.3,14.9A18.2,18.2,0,0,1,54.6,44.2a21.1,21.1,0,0,1-19.1-.9,25.1,25.1,0,0,1-5.6-5.2,20.2,20.2,0,0,1-2.3-18.6A18.3,18.3,0,0,1,39.2,8.4a19.9,19.9,0,0,1,7.3-1A15.2,15.2,0,0,1,51.7,8.1ZM37.2,50.3a2.5,2.5,0,0,1,1.2.8c0,.4-5.4,23.5-5.5,23.8s10.9,7.9,12.5,8.9,13-8.6,12.9-8.9-1.2-5.4-2.7-11.8S53,51.4,53,51.3a3.8,3.8,0,0,1,1.5-.9l1.6-.6,2.6.9A40.2,40.2,0,0,1,84,74.7c1.8,4.8,2,7.2.8,9.6a9.6,9.6,0,0,1-4.4,4.3l-1.3.5H46.9c-22,.1-32.7,0-33.7-.1a7.3,7.3,0,0,1-2.5-.8,11.8,11.8,0,0,1-3.7-4A5.1,5.1,0,0,1,6.5,81a11.8,11.8,0,0,1,.9-4.6A39.7,39.7,0,0,1,33.1,50.7l2.7-.9Zm12,11.6c1.3,5.5,2.4,10.2,2.4,10.3a14.3,14.3,0,0,1-2.8,2.4l-3.2,2-3.1-2c-2-1.4-2.9-2.1-2.8-2.4s1.1-4.8,2.4-10.3l2.3-10h2.5Z" style="fill:#f2f2f2"/><path d="M57.5,95.4H46c-32.3,0-33.6,0-34.9-.3A15.1,15.1,0,0,1,.4,84.5a17.6,17.6,0,0,1,.1-7.9A49.1,49.1,0,0,1,9.1,60.1,55.2,55.2,0,0,1,20.4,49.8a86,86,0,0,1,8-4.2,6.9,6.9,0,0,0-1.1-1.3,32.7,32.7,0,0,1-3-3.5A25.1,25.1,0,0,1,21,19.2,27.5,27.5,0,0,1,43.1,1h.1a31.4,31.4,0,0,1,7.5.3A27.5,27.5,0,0,1,71.6,21.9a27.5,27.5,0,0,1-.2,10.3,26.7,26.7,0,0,1-7.3,12.7l-.7.7,1.3.5A47.9,47.9,0,0,1,85.1,63.2c3.2,4.7,6.1,11.6,6.7,15.7A14.6,14.6,0,0,1,83.7,94l-.6.2C80.9,95.3,80.8,95.4,57.5,95.4Zm-28.3-49A64.5,64.5,0,0,0,21,50.6,50.8,50.8,0,0,0,9.9,60.7,49.6,49.6,0,0,0,1.5,76.8a15.9,15.9,0,0,0-.1,7.5,13.8,13.8,0,0,0,9.9,9.8c1.3.3,3.1.3,34.7.3h6.5c28.1,0,28.1,0,30.2-1.1a.9.9,0,0,0,.6-.3,13.3,13.3,0,0,0,7.5-13.9c-.6-4.1-3.4-10.8-6.5-15.3a46.4,46.4,0,0,0-20-16.7l-2.7-1.3,1.9-1.7A25,25,0,0,0,70.4,32a25.4,25.4,0,0,0,.2-9.9A26.1,26.1,0,0,0,50.5,2.3,29,29,0,0,0,43.3,2,26.2,26.2,0,0,0,22,19.6a23.6,23.6,0,0,0,3.1,20.6A30.7,30.7,0,0,0,28,43.6a10,10,0,0,1,1.6,2l.5.8Zm1.2,43.2H13.1a8,8,0,0,1-2.6-.9,10.5,10.5,0,0,1-3.9-4.2A5.3,5.3,0,0,1,6,80.9a13.1,13.1,0,0,1,.9-4.7,40.6,40.6,0,0,1,26-26l2.9-.9,1.6.5a3.3,3.3,0,0,1,1.4,1h.1v.2c0,.5-4.8,21-5.5,23.7,1.4,1.1,10.6,7.5,12.3,8.6s10.7-7.1,12.1-8.6-.3-1.1-.6-2.4-1.2-5.5-2.1-9.2c-1.4-5.8-2.6-11.7-2.6-11.9s1.8-1.4,1.8-1.4l1.8-.6,2.8.9A40.9,40.9,0,0,1,84.5,74.5c1.8,5,2,7.5.7,10a10.2,10.2,0,0,1-4.6,4.6l-1.5.5H30.4Zm5.4-39.3-2.5.9A38.8,38.8,0,0,0,7.9,76.6,11.2,11.2,0,0,0,7,81a5,5,0,0,0,.4,3A11.9,11.9,0,0,0,11,87.8a8.8,8.8,0,0,0,2.3.7c.9.1,12,.2,33.6.1H79l1.2-.5a9.1,9.1,0,0,0,4.2-4c1.1-2.3.9-4.6-.9-9.2a39.3,39.3,0,0,0-25-23.7l-2.4-.9-1.4.6a4.4,4.4,0,0,0-1.2.6c.2.9,1.2,5.7,2.6,11.5.9,3.7,1.6,7,2.1,9.2a22.5,22.5,0,0,0,.6,2.5c.1.3.2.7-4.8,4.6-7.4,5.8-8.5,5.2-8.9,4.9l-6.9-4.7c-6-4.2-5.9-4.3-5.8-4.8s5-20.9,5.5-23.4a2,2,0,0,0-.9-.5h0Zm9.8,26.9L42.2,75c-2.6-1.8-3.2-2.3-3-3s.3-1.3.7-2.9,1-4.4,1.7-7.3L44,51.4h3.3l2.4,10.4c2.4,10.2,2.4,10.3,2.4,10.4s-1,1.3-3,2.8Zm-5.4-5a21.7,21.7,0,0,0,2.6,2L45.6,76l2.9-1.8a25.4,25.4,0,0,0,2.6-2.1L48.7,62h0l-2.2-9.6H44.8L42.6,62c-.7,2.9-1.3,5.5-1.7,7.4Zm0,.2Zm5.7-25.8a20.1,20.1,0,0,1-16.4-8.2,20.6,20.6,0,0,1-2.4-19.1A19.2,19.2,0,0,1,39,7.9a19.4,19.4,0,0,1,7.5-1,15.8,15.8,0,0,1,5.3.7,18.4,18.4,0,0,1,12,9.9,19.6,19.6,0,0,1,1.4,15.2,18.9,18.9,0,0,1-10.4,12A22.6,22.6,0,0,1,45.9,46.6ZM45.4,7.9a17.2,17.2,0,0,0-6,1A17.6,17.6,0,0,0,28.1,19.7a19.5,19.5,0,0,0,2.2,18.1,22.3,22.3,0,0,0,5.5,5.1,20.7,20.7,0,0,0,18.6.8,17.4,17.4,0,0,0,9.8-11.2A19.4,19.4,0,0,0,63,17.9,17.7,17.7,0,0,0,51.6,8.6h-.1a14.1,14.1,0,0,0-5-.7Z" style="fill:#f2f2f2"/><path d="M55.6,63.2C54.2,56.9,53,51.6,53,51.4s.2-.3.6-.4H38.1l.3.3c0,.3-5.3,23.4-5.4,23.7s6.6,5,10.3,7.5l2.2,1.4,2.4-1.4C51.6,80,58.3,75.3,58.3,75S57.1,69.6,55.6,63.2ZM48.8,74.7l-3.1,2.1a21.1,21.1,0,0,1-3.1-2.1c-2-1.4-3-2.1-2.9-2.3s1.1-4.8,2.4-10.3l2.3-10H47l2.2,10c1.3,5.5,2.4,10.1,2.4,10.3S50.7,73.4,48.8,74.7Zm6.8-11.5C54.2,56.9,53,51.6,53,51.4s.2-.3.6-.4H38.1l.3.3c0,.3-5.3,23.4-5.4,23.7s6.6,5,10.3,7.5l2.2,1.4,2.4-1.4C51.6,80,58.3,75.3,58.3,75S57.1,69.6,55.6,63.2ZM48.8,74.7l-3.1,2.1a21.1,21.1,0,0,1-3.1-2.1c-2-1.4-3-2.1-2.9-2.3s1.1-4.8,2.4-10.3l2.3-10H47l2.2,10c1.3,5.5,2.4,10.1,2.4,10.3S50.7,73.4,48.8,74.7Zm6.8-11.5C54.2,56.9,53,51.6,53,51.4s.2-.3.6-.4H38.1l.3.3c0,.3-5.3,23.4-5.4,23.7s6.6,5,10.3,7.5l2.2,1.4,2.4-1.4C51.6,80,58.3,75.3,58.3,75S57.1,69.6,55.6,63.2ZM48.8,74.7l-3.1,2.1a21.1,21.1,0,0,1-3.1-2.1c-2-1.4-3-2.1-2.9-2.3s1.1-4.8,2.4-10.3l2.3-10H47l2.2,10c1.3,5.5,2.4,10.1,2.4,10.3S50.7,73.4,48.8,74.7Zm-5.5,7.8,2.2,1.4,2.4-1.4ZM55.6,63.2C54.2,56.9,53,51.6,53,51.4s.2-.3.6-.4H38.1l.3.3c0,.3-5.3,23.4-5.4,23.7s6.6,5,10.3,7.5l2.2,1.4,2.4-1.4C51.6,80,58.3,75.3,58.3,75S57.1,69.6,55.6,63.2ZM48.8,74.7l-3.1,2.1a21.1,21.1,0,0,1-3.1-2.1c-2-1.4-3-2.1-2.9-2.3s1.1-4.8,2.4-10.3l2.3-10H47l2.2,10c1.3,5.5,2.4,10.1,2.4,10.3S50.7,73.4,48.8,74.7Z" style="fill:aqua"/><path d="M46,52A26.2,26.2,0,0,1,19.6,26a26.4,26.4,0,0,1,52.8,0A26.2,26.2,0,0,1,46,52ZM46,5A21.2,21.2,0,0,0,24.6,26a21.4,21.4,0,0,0,42.8,0A21.2,21.2,0,0,0,46,5Z" style="fill:#f2f2f2"/></g></g></g></g></svg>