<?xml version="1.0" encoding="utf-8"?>
<!-- Generator: Adobe Illustrator 25.2.3, SVG Export Plug-In . SVG Version: 6.00 Build 0)  -->
<svg version="1.1" id="Layer_1" xmlns="http://www.w3.org/2000/svg" xmlns:xlink="http://www.w3.org/1999/xlink" x="0px" y="0px"
	 viewBox="0 0 100.9 112" style="enable-background:new 0 0 100.9 112;" xml:space="preserve">
<style type="text/css">
	.st0{fill:#333333;}
</style>
<g id="Layer_2_1_">
	<g id="Layer_1-2">
		<path class="st0" d="M16.8,71c-0.6,0-1.3-0.2-1.9-0.6c-8-5.1-13.4-12.7-14.6-20.8c-0.9-5.8,0.3-11.1,3.5-15
			c4.5-5.4,11.1-6.9,16.4-7.1c-0.9-4.5-1.1-10.7,2.5-16.4c3.2-5.3,9.1-9.1,16-10.6c7.5-1.5,15.4-0.1,21,3.9c5.2,3.7,7.7,9,8.9,13
			c4.8-2.6,10.3-3.1,15-1.1c3.5,1.5,6.4,4.2,8.2,7.5c0.9,1.7,0.2,3.8-1.5,4.7c-1.7,0.9-3.8,0.2-4.7-1.5c-1-1.9-2.6-3.4-4.6-4.3
			c-3.8-1.5-8.8-0.2-12.3,3.2c-1,1-2.4,1.3-3.7,0.8c-1.3-0.5-2.2-1.7-2.2-3.1c-0.1-0.9-0.7-9.1-7.1-13.7C51.5,7.3,45.7,6.3,40,7.5
			c-5.1,1-9.2,3.7-11.5,7.4c-3.7,5.9-1.3,13.1-0.4,15.2c0.5,1.1,0.3,2.4-0.4,3.4c-0.7,1-1.9,1.5-3.1,1.4l-0.3,0
			c-3.2-0.3-11-0.6-15.1,4.4c-1.9,2.3-2.6,5.7-2,9.4c1,6.1,5.2,11.9,11.5,16c1.6,1,2.1,3.2,1.1,4.8C19.1,70.4,18,71,16.8,71z"/>
		<g>
			<path class="st0" d="M68.2,58.6c5.8,3.3,7.9,10.8,4.5,16.6c-3.3,5.8-10.8,7.9-16.6,4.5c-5.6-3.2-7.7-10.2-4.9-16
				c1.8-3.7,5.4-6.2,9.5-6.7c0.8-0.1,1.5,0.5,1.7,1.3c0.1,0.9-0.5,1.6-1.3,1.8c-3.1,0.3-5.8,2.2-7.1,5c-2.2,4.5-0.3,10,4.2,12.2
				c4.5,2.2,10,0.3,12.2-4.2c2.2-4.5,0.3-9.9-4.2-12.1c-0.7-0.3-1.1-1-0.9-1.7c-0.1-0.2-0.2-0.5-0.2-0.7V33h-5.9v10.4l-1.3,0.3
				c-6.4,1-12.2,4.5-16.2,9.7l-0.8,1.1L31.3,49l-3,5.1l9.8,5.7L37.7,61c-0.8,2.6-1.2,5.2-1.2,7.9c0,3.4,0.7,6.8,2,9.9l0.5,1.3
				l-10.7,6.1l3,5.2l10.9-6.3l0.9,0.9c3.8,4.3,9.1,7.2,14.8,8.1l1.3,0.2v13.1h5.9V94.3l1.3-0.2c5.7-0.9,10.9-3.8,14.8-8.1l0.9-0.9
				L93,91.4l3-5.2l-10.7-6.1l0.5-1.3c1.3-3.1,2-6.5,2-9.9c0-2.7-0.4-5.3-1.2-7.9l-0.4-1.2l9.8-5.7L93,49l-9.6,5.5l-0.8-1.1
				c-2.6-3.3-5.9-6-9.7-7.7c-0.8-0.3-1.1-1.2-0.8-2c0,0,0-0.1,0.1-0.1c0.3-0.7,1.1-1.1,1.8-0.8c0.1,0,0.1,0.1,0.2,0.1
				c3.9,1.7,7.3,4.3,10,7.6l7.9-4.6c1.1-0.6,2.5-0.2,3.2,0.9l3.7,6.5c0.6,1,0.3,2.4-0.7,3c0,0-0.1,0-0.1,0.1l-8.3,4.8
				c0.7,2.5,1,5.1,1,7.7c0,3.3-0.6,6.7-1.7,9.8l9,5.2c1.1,0.6,1.5,2,0.8,3.1c0,0,0,0,0,0.1l-3.7,6.5c-0.6,1.1-2,1.5-3.1,0.8
				c0,0,0,0-0.1,0L82.7,89c-4,4-9,6.7-14.5,7.9v11.3c0,1.3-1,2.3-2.3,2.3h0h-7.5c-1.3,0-2.3-1-2.3-2.3l0,0V96.9
				C50.6,95.7,45.6,93,41.6,89l-9.4,5.4c-1.1,0.7-2.5,0.3-3.2-0.7c0,0,0,0,0-0.1l-3.8-6.5c-0.6-1.1-0.2-2.5,0.9-3.2l9-5.2
				c-1.1-3.1-1.7-6.5-1.7-9.8c0-2.6,0.3-5.2,1-7.7l-8.3-4.8c-1.1-0.6-1.5-2-0.9-3.1l3.8-6.5c0.7-1.1,2.1-1.5,3.2-0.9l7.9,4.6
				c4.1-4.9,9.7-8.3,16-9.6v-8.7c0-1.3,1-2.3,2.3-2.3h7.5c1.3,0,2.3,1,2.3,2.3c0,0,0,0,0,0S68.2,58.6,68.2,58.6z"/>
			<path class="st0" d="M65.9,112h-7.5c-2.1,0-3.8-1.7-3.8-3.8V98.1c-4.9-1.3-9.5-3.7-13.2-7.2l-8.4,4.8c-1.7,1.1-4.1,0.5-5.2-1.3
				l-0.1-0.1l-3.8-6.5c-1-1.9-0.4-4.2,1.4-5.2l8-4.6c-0.9-3-1.4-6-1.4-9.1c0-2.3,0.2-4.7,0.8-7l-7.3-4.2c-1.8-1-2.5-3.3-1.5-5.1
				l3.8-6.5c1.1-1.8,3.3-2.5,5.2-1.5l6.9,4c3.9-4.3,9.1-7.4,14.8-8.9v-7.5c0-2.1,1.7-3.8,3.8-3.8h7.5c2.1,0,3.8,1.7,3.8,3.8v25.6
				c6,3.9,7.9,11.9,4.3,18.2c-3.7,6.6-12.1,8.8-18.7,5.1c-6.3-3.6-8.7-11.5-5.5-17.9c2.1-4.2,6.1-7,10.7-7.5
				c1.3-0.1,2.5,0.6,3.1,1.7V34.5h-2.9v10.1l-2.6,0.6c-6.1,1-11.5,4.2-15.2,9.1l-1.6,2.2L31.8,51l-1.5,2.5l9.6,5.6l-0.8,2.4
				c-0.8,2.4-1.1,4.9-1.1,7.4c0,3.2,0.6,6.4,1.9,9.3l1,2.5l-10.5,6l1.5,2.6l10.6-6.1l1.7,1.7c3.7,4.1,8.6,6.8,14,7.7l2.6,0.4v12.9
				h2.9V93l2.6-0.4c5.4-0.9,10.3-3.6,13.9-7.6l1.8-1.8l10.6,6.1l1.5-2.6l-10.5-6l1-2.5c1.3-3,1.9-6.1,1.9-9.4c0-2.5-0.4-5-1.1-7.4
				l-0.8-2.3l9.6-5.6L92.5,51L83,56.5l-1.6-2.2c-2.4-3.1-5.5-5.6-9.1-7.2c-0.7-0.3-1.3-0.9-1.6-1.7c-0.3-0.7-0.3-1.6,0.1-2.3
				c0,0,0-0.1,0.1-0.2c0.3-0.7,0.8-1.2,1.5-1.5c0.7-0.3,1.5-0.3,2.2,0c0.1,0,0.2,0.1,0.3,0.1c3.7,1.6,7,4,9.7,7l6.8-4
				c1.9-1,4.2-0.4,5.2,1.4l3.7,6.5c0.5,0.8,0.7,1.8,0.4,2.7c-0.2,1-0.8,1.8-1.6,2.3c-0.1,0-0.1,0.1-0.2,0.1l-7.3,4.2
				c0.5,2.3,0.8,4.6,0.8,7c0,3.1-0.5,6.2-1.4,9.1l7.9,4.6c0.9,0.5,1.5,1.3,1.8,2.3c0.3,1,0.1,2-0.4,2.9l-0.1,0.1l-3.7,6.4
				c-0.5,0.9-1.3,1.5-2.3,1.8c-1,0.3-2,0.1-2.9-0.4l-8.5-4.9c-3.7,3.5-8.3,6-13.2,7.2v10.1C69.7,110.3,68,112,65.9,112z M58,108.9
				c0.1,0.1,0.2,0.1,0.4,0.1h7.5c0.1,0,0.3,0,0.4-0.1H58z M66.6,95.6v13c0.1-0.1,0.1-0.2,0.1-0.4V95.7l1.2-0.3
				c5.2-1.1,10-3.7,13.8-7.5l0.8-0.8l10.4,6c0.1,0.1,0.2,0.1,0.3,0.1L82.3,87l-0.1,0.1C78.3,91.6,72.7,94.6,66.6,95.6L66.6,95.6z
				 M41.8,87.1l0.8,0.8c3.8,3.8,8.5,6.4,13.8,7.5l1.2,0.3v12.5c0,0.1,0,0.3,0.1,0.4l0-13C51.6,94.6,46,91.6,42,87l0,0l-10.8,6.3
				c0.1,0,0.2-0.1,0.3-0.1L41.8,87.1z M97.8,86l-4.1,7.1c0.1-0.1,0.2-0.2,0.3-0.3l3.7-6.5C97.8,86.2,97.8,86.1,97.8,86z M26.4,85.9
				c0,0.2,0,0.3,0.1,0.5l3.8,6.5c0.1,0.1,0.2,0.2,0.3,0.3L26.4,85.9z M26.5,54.8c0.1,0.1,0.2,0.2,0.3,0.3l9.3,5.4l-0.3,1.1
				c-0.6,2.4-1,4.8-0.9,7.3c0,3.2,0.5,6.3,1.6,9.3l0.4,1.2l-10.1,5.8c-0.1,0.1-0.2,0.2-0.3,0.3l10.6-6l0-0.1
				C35.7,76,35,72.5,35,68.9c0-2.8,0.4-5.6,1.3-8.4l0-0.1L26.5,54.8z M87.2,79.4l10.6,6c-0.1-0.1-0.2-0.2-0.3-0.3l-10.1-5.8l0.4-1.2
				c1.1-3,1.6-6.1,1.6-9.3c0-2.5-0.3-4.9-0.9-7.3l-0.3-1.1l9.3-5.4c0.1-0.1,0.2-0.2,0.3-0.3L88,60.5l0,0c0.9,2.7,1.3,5.5,1.3,8.4
				C89.3,72.5,88.6,76,87.2,79.4L87.2,79.4z M60.8,58.6C60.8,58.6,60.8,58.6,60.8,58.6c-3.6,0.4-6.7,2.6-8.3,5.9
				c-2.5,5.1-0.6,11.2,4.3,14c5.1,2.9,11.7,1.1,14.6-4c2.9-5.1,1.1-11.7-4-14.6l-0.7-0.4l0,0.1l0.1,0c5.2,2.6,7.4,8.9,4.9,14.1
				c-1.2,2.5-3.4,4.5-6.1,5.4c-2.7,0.9-5.6,0.8-8.1-0.5c-2.5-1.2-4.5-3.4-5.4-6.1s-0.8-5.6,0.5-8.1c1.5-3.2,4.6-5.5,8.2-5.8
				C60.9,58.7,60.9,58.7,60.8,58.6C60.9,58.6,60.9,58.6,60.8,58.6z M63.8,59.5c-0.3,1.1-1.2,1.9-2.4,2.1l-0.1,0
				c-2.5,0.2-4.8,1.8-5.9,4.1c-0.9,1.8-1,3.9-0.4,5.8s2,3.5,3.9,4.3c3.8,1.8,8.3,0.2,10.2-3.5c1.8-3.7,0.3-8.3-3.5-10.1
				C64.4,61.9,63.7,60.8,63.8,59.5z M66.6,58.5c0,0,0,0.1,0,0.1l0.1,0.1V32.2c0-0.1,0-0.3-0.1-0.4V58.5z M30.6,47.3
				c-0.1,0.1-0.2,0.2-0.3,0.3l-3.8,6.5c0,0.1-0.1,0.2-0.1,0.3L30.6,47.3z M93.7,47.3l3.7,6.4L94,47.5C93.9,47.4,93.8,47.3,93.7,47.3
				z M73.6,44.3L73.6,44.3c4,1.9,7.5,4.7,10.2,8.2l0,0l9.5-5.4c-0.2,0-0.3,0-0.5,0.1l-9,5.2l-0.8-1C80.5,48.4,77.3,45.9,73.6,44.3
				L73.6,44.3z M31,47.1l9.5,5.4l0,0c4.2-5.5,10.3-9.2,17.1-10.3l0.1,0V31.8c-0.1,0.1-0.1,0.2-0.1,0.4v9.9l-1.2,0.2
				c-5.9,1.2-11.3,4.5-15.2,9.1l-0.8,1l-9-5.2C31.3,47.1,31.2,47.1,31,47.1z M58,31.5h8.3c-0.1-0.1-0.2-0.1-0.4-0.1h-7.5
				C58.3,31.4,58.1,31.4,58,31.5z"/>
		</g>
	</g>
</g>
</svg>
