<?xml version="1.0" encoding="utf-8"?>
<!-- Generator: Adobe Illustrator 25.2.3, SVG Export Plug-In . SVG Version: 6.00 Build 0)  -->
<svg version="1.1" id="Layer_1" xmlns="http://www.w3.org/2000/svg" xmlns:xlink="http://www.w3.org/1999/xlink" x="0px" y="0px"
	 viewBox="0 0 838.9 665.3" style="enable-background:new 0 0 838.9 665.3;" xml:space="preserve">
<style type="text/css">
	.st0{fill:#333333;}
</style>
<g id="Layer_2_1_">
	<g id="Layer_1-2">
		<path class="st0" d="M735.8,665.3H103.1C46.3,665.3,0,619.1,0,562.2V103.1C0,46.3,46.3,0,103.1,0h632.7
			c56.8,0,103.1,46.3,103.1,103.1v459.1C838.9,619.1,792.6,665.3,735.8,665.3z M103.1,55C76.6,55,55,76.6,55,103.1v459.1
			c0,26.5,21.6,48.1,48.1,48.1h632.7c26.5,0,48.1-21.6,48.1-48.1V103.1c0-26.5-21.6-48.1-48.1-48.1H103.1z"/>
		<path class="st0" d="M330.1,364.4H161.9c-15.2,0-27.5-12.3-27.5-27.5V168.7c0-15.2,12.3-27.5,27.5-27.5h168.2
			c15.2,0,27.5,12.3,27.5,27.5v168.2C357.6,352.1,345.3,364.4,330.1,364.4z M189.4,309.4h113.2V196.2H189.4V309.4z"/>
		<path class="st0" d="M626.1,215.8H449.6c-15.2,0-27.5-12.3-27.5-27.5s12.3-27.5,27.5-27.5h176.5c15.2,0,27.5,12.3,27.5,27.5
			S641.3,215.8,626.1,215.8z"/>
		<path class="st0" d="M626.1,360.4H449.6c-15.2,0-27.5-12.3-27.5-27.5s12.3-27.5,27.5-27.5h176.5c15.2,0,27.5,12.3,27.5,27.5
			S641.3,360.4,626.1,360.4z"/>
		<path class="st0" d="M636.7,521.4H161.9c-15.2,0-27.5-12.3-27.5-27.5s12.3-27.5,27.5-27.5h474.8c15.2,0,27.5,12.3,27.5,27.5
			S651.9,521.4,636.7,521.4z"/>
	</g>
</g>
</svg>
