<?xml version="1.0" encoding="utf-8"?>
<!-- Generator: Adobe Illustrator 25.2.3, SVG Export Plug-In . SVG Version: 6.00 Build 0)  -->
<svg version="1.1" id="Layer_1" xmlns="http://www.w3.org/2000/svg" xmlns:xlink="http://www.w3.org/1999/xlink" x="0px" y="0px"
	 viewBox="0 0 65.6 65.6" style="enable-background:new 0 0 65.6 65.6;" xml:space="preserve">
<style type="text/css">
	.st0{fill:#333333;}
</style>
<g id="Layer_2_1_">
	<g id="Layer_1-2">
		<g>
			<path class="st0" d="M42.7,56.8c-1.1,0-2,0.9-2,2v1.8H5v-10c-0.1-9.7,7.7-17.7,17.4-17.9h0.9c3.7,0.1,7.2,1.3,10.2,3.5
				c0.9,0.7,2.1,0.5,2.8-0.4c0.6-0.9,0.4-2.1-0.5-2.8c-1.6-1.2-3.3-2.2-5.2-2.9c7.5-4.3,10.2-13.9,5.9-21.4S22.6-1.5,15.1,2.8
				S4.9,16.7,9.2,24.2c1.4,2.5,3.4,4.5,5.9,5.9C6.6,33.3,1,41.5,1,50.6v10.5c0,1.9,1.6,3.5,3.5,3.5h36.7c1.9,0,3.5-1.6,3.5-3.5v-2.3
				C44.7,57.7,43.8,56.8,42.7,56.8z M11.2,16.6C11.3,10.1,16.6,5,23,5c3,0,5.9,1.2,8.1,3.4c4.5,4.5,4.5,11.9,0,16.4
				c-2.2,2.2-5.2,3.4-8.3,3.4C16.4,28.2,11.2,23,11.2,16.6z"/>
			<path class="st0" d="M41.2,65.6H4.5c-2.5,0-4.5-2-4.5-4.5V50.6c0-8.8,5.1-16.9,13-20.7c-1.9-1.4-3.5-3.2-4.7-5.2
				C6.1,20.8,5.6,16.3,6.8,12c1.2-4.3,4-7.9,7.9-10.1c3.9-2.2,8.4-2.8,12.7-1.6c4.3,1.2,7.9,4,10.1,7.9c4.2,7.4,2.1,16.8-4.7,21.7
				c1.3,0.6,2.5,1.4,3.7,2.3c1.3,1,1.6,2.8,0.7,4.1c-0.5,0.7-1.2,1.1-2,1.2c-0.8,0.1-1.6-0.1-2.2-0.6c-2.8-2.1-6.1-3.2-9.6-3.3
				l-0.9,0C13.3,33.9,5.9,41.4,6,50.6v9h33.7v-0.8c0-1.7,1.3-3,3-3s3,1.3,3,3v2.3C45.7,63.6,43.7,65.6,41.2,65.6z M22.8,1.7
				c-2.5,0-5,0.6-7.2,1.9c-7,4-9.5,13-5.5,20c1.3,2.3,3.2,4.2,5.5,5.5l1.8,1l-2,0.8C7.4,34.1,2,42,2,50.6v10.5
				c0,1.4,1.1,2.5,2.5,2.5h36.7c1.4,0,2.5-1.1,2.5-2.5v-2.3c0-0.6-0.4-1-1-1s-1,0.4-1,1v2.8H4v-11c-0.1-10.2,8.1-18.7,18.4-18.9h0.9
				c3.9,0.1,7.7,1.4,10.8,3.7c0.2,0.2,0.5,0.2,0.7,0.2c0.3,0,0.5-0.2,0.7-0.4c0.3-0.4,0.1-1.1-0.3-1.4c-1.5-1.2-3.2-2.1-4.9-2.8
				l-2-0.8l1.9-1.1c7-4,9.5-13,5.5-20c-1.9-3.4-5.1-5.9-8.9-6.9C25.5,1.9,24.1,1.7,22.8,1.7z M22.9,29.2c0,0-0.1,0-0.1,0
				c-6.9,0-12.6-5.7-12.6-12.6v0c0-3.4,1.4-6.6,3.8-8.9s5.7-3.6,9-3.6c3.3,0,6.4,1.3,8.7,3.6c2.4,2.4,3.7,5.6,3.7,8.9
				s-1.3,6.5-3.7,8.9C29.5,27.9,26.2,29.2,22.9,29.2z M12.2,16.6c0,5.8,4.8,10.6,10.6,10.6c2.8,0,5.6-1.1,7.6-3.1
				c2-2,3.1-4.7,3.1-7.5c0-2.8-1.1-5.5-3.1-7.5c-2-1.9-4.6-3-7.4-3.1c-2.9,0-5.6,1-7.6,3C13.4,11.1,12.2,13.8,12.2,16.6z"/>
		</g>
		<g>
			<path class="st0" d="M55.5,40.7l8.5-8.5c0.7-0.9,0.5-2.1-0.4-2.8c-0.7-0.5-1.7-0.5-2.4,0l-8.6,8.5l-8.5-8.5
				c-0.9-0.7-2.1-0.5-2.8,0.4c-0.5,0.7-0.5,1.7,0,2.4l8.5,8.5l-8.5,8.6c-0.8,0.7-0.8,1.9-0.1,2.7c0,0,0.1,0.1,0.1,0.1
				c0.7,0.8,1.9,0.8,2.7,0.1c0,0,0.1-0.1,0.1-0.1l8.5-8.6l8.6,8.6c0.7,0.8,1.9,0.8,2.7,0.1c0,0,0.1-0.1,0.1-0.1
				c0.8-0.7,0.8-1.9,0.1-2.7c0,0-0.1-0.1-0.1-0.1L55.5,40.7z"/>
			<path class="st0" d="M62.6,53.7c-0.8,0-1.6-0.3-2.1-0.9l-7.9-7.9l-7.8,7.9c0,0-0.1,0.1-0.1,0.1c-1.2,1.1-3,1-4.1-0.2c0,0,0,0,0,0
				c0,0-0.1-0.1-0.1-0.1c-1.1-1.2-1-3,0.2-4.1l7.8-7.9l-7.9-7.9c-0.8-1.1-0.8-2.5,0-3.6c1-1.3,2.9-1.6,4.2-0.6l0.1,0.1l7.8,7.8
				l8-7.9c1.1-0.8,2.5-0.8,3.6,0c0.6,0.5,1.1,1.2,1.2,2c0.1,0.8-0.1,1.6-0.6,2.2l-0.1,0.1l-7.8,7.8l7.8,7.9c0,0,0.1,0.1,0.1,0.1
				c0.5,0.6,0.8,1.3,0.8,2.1c0,0.8-0.4,1.5-0.9,2c0,0-0.1,0.1-0.1,0.1C64,53.5,63.3,53.7,62.6,53.7z M42.1,31.6l9.1,9.1L42,50
				c-0.4,0.4-0.4,0.9-0.1,1.3l0.1,0.1c0.3,0.4,0.9,0.4,1.3,0.1l0.1-0.1l9.2-9.3l9.3,9.3c0.4,0.4,0.9,0.4,1.3,0.1l0.1-0.1
				c0.2-0.2,0.3-0.4,0.3-0.6c0-0.2-0.1-0.5-0.2-0.6L63.3,50l-9.2-9.3l9.1-9.1c0.1-0.2,0.2-0.4,0.2-0.7c0-0.3-0.2-0.5-0.4-0.7
				c-0.3-0.3-0.8-0.3-1.2,0l-9.3,9.1l-9.1-9.1c-0.4-0.3-1-0.2-1.4,0.2C41.8,30.7,41.8,31.2,42.1,31.6z"/>
		</g>
	</g>
</g>
</svg>
