<?xml version="1.0" encoding="utf-8"?>
<!-- Generator: Adobe Illustrator 25.2.3, SVG Export Plug-In . SVG Version: 6.00 Build 0)  -->
<svg version="1.1" id="Layer_1" xmlns="http://www.w3.org/2000/svg" xmlns:xlink="http://www.w3.org/1999/xlink" x="0px" y="0px"
	 viewBox="0 0 104.9 94.5" style="enable-background:new 0 0 104.9 94.5;" xml:space="preserve">
<style type="text/css">
	.st0{fill:#333333;}
</style>
<g id="Layer_2_1_">
	<g id="Layer_1-2">
		<path class="st0" d="M70.9,94.5H14c-7.7,0-14-6.3-14-14c0,0,0-0.1,0-0.2l0-56.8c0-7.7,6.3-14,14-14h28.5c1.9,0,3.5,1.6,3.5,3.5
			s-1.6,3.5-3.5,3.5H14c-3.9,0-7,3.1-7,7v56.9c0,4,3.1,7.1,7,7.1h56.9c3.9,0,7-3.2,7-7.1V52.1c0-1.9,1.6-3.5,3.5-3.5
			s3.5,1.6,3.5,3.5v28.3c0.1,7.7-6.1,14-13.9,14.1C71,94.5,70.9,94.5,70.9,94.5z"/>
		<path class="st0" d="M43.1,55.6c-0.4,0-0.8-0.1-1.2-0.2c-1.8-0.7-2.8-2.7-2.1-4.5c3.1-8.5,10.8-24,28.1-33
			c1.7-0.9,3.8-0.2,4.7,1.5c0.9,1.7,0.2,3.8-1.5,4.7c-15.7,8.2-22.5,23.1-24.7,29.2C45.9,54.7,44.5,55.6,43.1,55.6z"/>
		<polygon class="st0" points="67.5,48.6 104.9,16.1 58,0 		"/>
	</g>
</g>
</svg>
