<?xml version="1.0" encoding="utf-8"?>
<!-- Generator: Adobe Illustrator 25.2.3, SVG Export Plug-In . SVG Version: 6.00 Build 0)  -->
<svg version="1.1" id="Layer_1" xmlns="http://www.w3.org/2000/svg" xmlns:xlink="http://www.w3.org/1999/xlink" x="0px" y="0px"
	 viewBox="0 0 85.2 70.8" style="enable-background:new 0 0 85.2 70.8;" xml:space="preserve">
<style type="text/css">
	.st0{fill-rule:evenodd;clip-rule:evenodd;fill:#333333;}
	.st1{fill:#333333;}
</style>
<g id="Layer_2_1_">
	<g id="Layer_1-2">
		<g>
			<path class="st0" d="M59.6,40.6c2.3,0.1,4.4,1.4,5.4,3.5c1-2,3-3.4,5.3-3.5c3.7,0,6.7,3.9,6.7,8.6s-3,8.7-6.7,8.7
				C68,57.8,66,56.4,65,54.4c-1,2.1-3.1,3.4-5.4,3.5C56,57.9,53,54,53,49.2S56,40.6,59.6,40.6z M5.6,1h74c1.3,0.1,2.4,0.7,3.2,1.7
				c0.9,1.2,1.4,2.7,1.4,4.2v57c0,1.5-0.5,3-1.4,4.2c-0.8,1-1.9,1.6-3.2,1.7h-74c-1.3-0.1-2.5-0.7-3.3-1.7C1.4,66.9,1,65.4,1,63.9
				v-57c0-1.5,0.4-3,1.3-4.2C3.1,1.7,4.3,1.1,5.6,1z M12.3,46.5c-0.9-0.1-1.5-0.9-1.4-1.8c0,0,0,0,0,0c-0.1-0.8,0.6-1.6,1.4-1.7
				h22.3c0.7,0,1.3,0.8,1.3,1.7s-0.6,1.8-1.3,1.8H12.3z M12.3,55.5c-0.8-0.1-1.5-0.9-1.4-1.7c-0.1-0.9,0.5-1.7,1.4-1.8c0,0,0,0,0,0
				h15c0.8,0,1.3,0.8,1.3,1.8s-0.5,1.7-1.3,1.7H12.3z M3.6,13.8h77.9V6.9c0-0.6-0.2-1.2-0.6-1.7c-0.3-0.5-0.8-0.8-1.3-0.8h-74
				C5,4.4,4.5,4.7,4.2,5.2C3.8,5.7,3.6,6.3,3.6,6.9C3.6,6.9,3.6,13.8,3.6,13.8z M81.5,30.9H3.6v33c0,0.6,0.2,1.2,0.6,1.7
				c0.3,0.5,0.8,0.8,1.4,0.8h74c0.6,0,1.1-0.3,1.4-0.8c0.3-0.5,0.5-1.1,0.5-1.7C81.5,63.9,81.5,30.9,81.5,30.9z"/>
			<path class="st1" d="M5.6,70.8C4,70.7,2.5,70,1.5,68.7c-1-1.5-1.5-3.1-1.5-4.8v-57c0-1.7,0.5-3.4,1.5-4.8c1-1.3,2.5-2,4.1-2.1
				l0.1,0h74c1.6,0.1,3.1,0.8,4,2.1c1,1.4,1.6,3.1,1.6,4.8v57c0,1.7-0.6,3.4-1.6,4.8c-1,1.3-2.4,2-4,2.1L5.6,70.8z M5.6,2
				c-1,0.1-1.9,0.5-2.5,1.3C2.4,4.3,2,5.6,2,6.9v57c0,1.3,0.4,2.6,1.1,3.6c0.6,0.7,1.5,1.2,2.5,1.3l73.9,0c0.9-0.1,1.8-0.5,2.4-1.3
				c0.8-1,1.2-2.3,1.2-3.6v-57c0-1.3-0.4-2.6-1.2-3.6c-0.6-0.8-1.5-1.2-2.4-1.3L5.6,2z M5.6,67.4c-0.9,0-1.8-0.5-2.2-1.3
				c-0.4-0.6-0.7-1.4-0.8-2.2l0-34h79.9v34c0,0.8-0.2,1.6-0.7,2.3c-0.5,0.7-1.3,1.2-2.1,1.2L5.6,67.4z M4.6,31.9v32
				c0,0.4,0.1,0.8,0.4,1.1c0.2,0.3,0.4,0.4,0.6,0.4h74c0.2,0,0.4-0.2,0.6-0.4c0.2-0.3,0.3-0.7,0.3-1.1v-32H4.6z M70.3,58.9
				c-2.1-0.1-4-1.1-5.3-2.7c-1.3,1.6-3.2,2.6-5.3,2.7c0,0,0,0,0,0c-4.2,0-7.6-4.4-7.6-9.7c0-5.3,3.4-9.6,7.6-9.6l0,0
				c2.1,0.1,4,1.1,5.3,2.7c1.3-1.6,3.2-2.6,5.3-2.7c0,0,0,0,0,0c4.3,0,7.8,4.3,7.8,9.6C78,54.5,74.5,58.9,70.3,58.9z M65,52.2
				l0.9,1.8c0.8,1.7,2.6,2.8,4.5,2.9c3,0,5.6-3.5,5.6-7.7c0-4.1-2.6-7.6-5.7-7.6c-1.8,0.1-3.6,1.2-4.4,2.9L65,46.3l-0.9-1.8
				c-0.9-1.7-2.6-2.8-4.5-3c-3.1,0-5.6,3.4-5.6,7.6c0,4.2,2.6,7.7,5.6,7.7c1.9-0.1,3.6-1.2,4.5-3L65,52.2z M27.3,56.5l-15.1,0
				c-1.3-0.2-2.3-1.3-2.3-2.7c-0.1-0.7,0.1-1.3,0.5-1.8c0.4-0.6,1-0.9,1.7-1l0.2,0h15c1.3,0,2.3,1.2,2.3,2.8
				C29.6,55.4,28.7,56.5,27.3,56.5z M12.4,54.5h14.9c0.3,0,0.3-0.7,0.3-0.7c0-0.5-0.2-0.8-0.3-0.8H12.4c-0.3,0.1-0.5,0.4-0.5,0.7
				l0,0.1l0,0.1C11.9,54.2,12.1,54.4,12.4,54.5z M34.6,47.5l-22.4,0c-0.7-0.1-1.3-0.4-1.7-1C10,46,9.8,45.3,9.9,44.7
				c0-1.3,0.9-2.5,2.3-2.7l0.1,0h22.3c1.2,0,2.3,1.2,2.3,2.7C36.9,46.1,36,47.5,34.6,47.5z M12.4,45.5h22.2c0.1,0,0.3-0.4,0.3-0.8
				c0-0.4-0.2-0.7-0.3-0.7l-22.2,0c-0.3,0.1-0.5,0.3-0.5,0.6l0,0.1l0,0.1c0,0.2,0,0.3,0.1,0.5C12.1,45.4,12.2,45.5,12.4,45.5z
				 M82.5,14.8H2.6V6.9c0-0.9,0.3-1.6,0.8-2.3c0.4-0.7,1.3-1.2,2.2-1.2l74,0c0.9,0,1.7,0.5,2.1,1.2c0.5,0.7,0.8,1.5,0.8,2.3V14.8z
				 M4.6,12.8h75.9V6.9c0-0.4-0.1-0.8-0.4-1L80,5.7c-0.1-0.2-0.3-0.3-0.5-0.3l-73.9,0C5.4,5.4,5.2,5.5,5,5.7C4.8,6.1,4.6,6.5,4.6,7
				L4.6,12.8z"/>
		</g>
	</g>
</g>
</svg>
