<?xml version="1.0" encoding="utf-8"?>
<!-- Generator: Adobe Illustrator 25.2.3, SVG Export Plug-In . SVG Version: 6.00 Build 0)  -->
<svg version="1.1" id="Layer_1" xmlns="http://www.w3.org/2000/svg" xmlns:xlink="http://www.w3.org/1999/xlink" x="0px" y="0px"
	 viewBox="0 0 93.8 89" style="enable-background:new 0 0 93.8 89;" xml:space="preserve">
<style type="text/css">
	.st0{fill:#333333;}
</style>
<g id="Layer_2_1_">
	<g id="Layer_1-2">
		<path class="st0" d="M59.2,89H18.4C8.3,89,0,79.6,0,68.1V20.8C0,9.3,8.3,0,18.4,0h40.8c9.4,0,17.3,8,18.3,18.7l-7,0.6
			C69.9,12.3,65,7,59.2,7H18.4C12.1,7,7,13.2,7,20.8v47.3C7,75.8,12.1,82,18.4,82h40.8c5.8,0,10.7-5.3,11.3-12.4l7,0.6
			C76.5,80.9,68.7,89,59.2,89z"/>
		<rect x="40.6" y="41" class="st0" width="24.1" height="7"/>
		<polygon class="st0" points="58.8,64.7 93.8,44.5 58.8,24.2 		"/>
	</g>
</g>
</svg>
