<svg xmlns="http://www.w3.org/2000/svg" viewBox="0 0 106.7 117.1"><defs><style>.cls-1{fill:#333;}</style></defs><g id="Layer_2" data-name="Layer 2"><g id="Layer_1-2" data-name="Layer 1"><path class="cls-1" d="M77,117.1c-5.8,0-11.5-2.9-14.2-7.8L55,96.4l-4.4,7.5-.4.5c-2.9,3.6-7.7,4.9-11.2,4.9h-.1A17.9,17.9,0,0,1,28,105.2a13.6,13.6,0,0,1-4.7-10.1V35.9c0-5.4,3.5-10.2,9-12.5a17.3,17.3,0,0,1,16.5,1.9L83,47.7a4.2,4.2,0,0,1,1,6.4,5.5,5.5,0,0,1-7.2,1L42.5,32.6l-.3-.2a5.8,5.8,0,0,0-5.5-.7,4.7,4.7,0,0,0-3,4.2V95.1a5.3,5.3,0,0,0,5.2,5H39a4,4,0,0,0,2.6-.8l8.8-14.8A5.2,5.2,0,0,1,55,82.1h0a5.3,5.3,0,0,1,4.6,2.4L72,105.1v.2a5.6,5.6,0,0,0,7,2.2,5,5,0,0,0,2.8-2.7,3.9,3.9,0,0,0-.2-3.5L69.1,81.6a4.1,4.1,0,0,1,.1-4.6,5.3,5.3,0,0,1,4.5-2.3H91.4a5,5,0,0,0,4.5-2.8,4.1,4.1,0,0,0-1-5,4.3,4.3,0,0,1,.2-6.5,5.9,5.9,0,0,1,7.4.2,12.5,12.5,0,0,1,3,14.7c-2.3,5.1-7.6,8.4-13.8,8.6H82.5L90.9,97v.2a12.2,12.2,0,0,1,.7,10.7,15.1,15.1,0,0,1-8.2,7.9A16.4,16.4,0,0,1,77,117.1ZM29.2,18a4.5,4.5,0,0,0,2.1-6.3l-4.4-7a5.5,5.5,0,0,0-7.1-1.8,4.3,4.3,0,0,0-2,6.2l4.4,7a5.1,5.1,0,0,0,4.5,2.4A7,7,0,0,0,29.2,18Zm-11,10.4a4.4,4.4,0,0,0-2.6-6.1L7.3,19.1A5.6,5.6,0,0,0,.4,21.5a4.4,4.4,0,0,0,2.7,6l8.3,3.2a5.2,5.2,0,0,0,2.1.4A5.1,5.1,0,0,0,18.2,28.4ZM50.6,13.6,53.4,6c.9-2.4-.5-5-3.3-5.8a5.3,5.3,0,0,0-6.5,2.9l-2.9,7.6c-.9,2.4.6,5,3.3,5.8l1.6.2A5.3,5.3,0,0,0,50.6,13.6ZM64.3,25.2l7-4.6a4.2,4.2,0,0,0,1.1-6.4,5.8,5.8,0,0,0-7.3-1l-7,4.6A4.2,4.2,0,0,0,57,24.2a5.7,5.7,0,0,0,4.2,1.9A5.6,5.6,0,0,0,64.3,25.2ZM7.6,50.9l7.8-2.8c2.7-.9,4-3.6,2.9-5.9a5.4,5.4,0,0,0-6.7-2.5L3.8,42.4c-2.7.9-4,3.6-2.9,5.9a5.1,5.1,0,0,0,4.8,2.9A6.3,6.3,0,0,0,7.6,50.9Z"/></g></g></svg>