<svg xmlns="http://www.w3.org/2000/svg" viewBox="0 0 94.8 89.5"><g id="Layer_2" data-name="Layer 2"><g id="Layer_1-2" data-name="Layer 1"><path d="M69.2,89.5H15.1A15.1,15.1,0,0,1,0,74.5V20.3a15.1,15.1,0,0,1,15.1-15H41.6a3.5,3.5,0,0,1,0,7H15.1a8,8,0,0,0-8.1,8V74.5a8,8,0,0,0,8.1,8H69.2a8,8,0,0,0,8-8V47.9a3.5,3.5,0,1,1,7,0V74.5A15,15,0,0,1,69.2,89.5Z" style="fill:#333"/><path d="M67,43A21.5,21.5,0,1,1,88.4,21.5,21.5,21.5,0,0,1,67,43ZM67,7A14.5,14.5,0,1,0,81.4,21.5,14.5,14.5,0,0,0,67,7Z" style="fill:#333"/><path d="M29.4,46.1A12.5,12.5,0,1,1,41.9,33.6,12.5,12.5,0,0,1,29.4,46.1Zm0-17.9a5.5,5.5,0,1,0,5.5,5.4A5.5,5.5,0,0,0,29.4,28.2Z" style="fill:#333"/><path d="M45.3,78.9A12.5,12.5,0,1,1,57.8,66.4,12.5,12.5,0,0,1,45.3,78.9Zm0-18a5.5,5.5,0,0,0-5.5,5.5,5.5,5.5,0,0,0,11,0A5.5,5.5,0,0,0,45.3,60.9Z" style="fill:#333"/><path d="M40.5,33.4a3.5,3.5,0,0,1-.7-6.9l9.5-2.1a3.6,3.6,0,0,1,4.2,2.7,3.4,3.4,0,0,1-2.7,4.1l-9.5,2.2Z" style="fill:#333"/><path d="M52.2,60.9a2.7,2.7,0,0,1-1.3-.2,3.5,3.5,0,0,1-2-4.5l7.4-19.1a3.5,3.5,0,0,1,4.5-2,3.6,3.6,0,0,1,2,4.6l-7.4,19A3.3,3.3,0,0,1,52.2,60.9Z" style="fill:#333"/><path d="M66.9,31.6A10.6,10.6,0,1,1,77.5,21,10.6,10.6,0,0,1,66.9,31.6Zm0-13.2A2.6,2.6,0,0,0,64.3,21a2.6,2.6,0,1,0,5.2,0A2.6,2.6,0,0,0,66.9,18.4Z" style="fill:#333"/><path d="M91.3,78.9a3.5,3.5,0,0,1-3.5-3.5V60.6a3.5,3.5,0,0,1,7,0V75.4A3.5,3.5,0,0,1,91.3,78.9Z" style="fill:#333"/></g></g></svg>