<svg xmlns="http://www.w3.org/2000/svg" viewBox="0 0 94.8 87.5"><g id="Layer_2" data-name="Layer 2"><g id="Layer_1-2" data-name="Layer 1"><path d="M3.5,87.5H3.4A3.5,3.5,0,0,1,0,83.9a39.5,39.5,0,0,1,78.9,0,3.4,3.4,0,0,1-3.4,3.6h-.1a3.5,3.5,0,0,1-3.5-3.4A32.5,32.5,0,0,0,7,84.1,3.5,3.5,0,0,1,3.5,87.5Z" style="fill:#333"/><path d="M16.5,87.5H3.5a3.5,3.5,0,0,1,0-7h13a3.5,3.5,0,0,1,0,7Z" style="fill:#333"/><path d="M75.4,87.5H32.5a3.5,3.5,0,0,1,0-7H75.4a3.5,3.5,0,0,1,0,7Z" style="fill:#333"/><path d="M40.1,41.2A20.6,20.6,0,1,1,60.7,20.6,20.6,20.6,0,0,1,40.1,41.2ZM40.1,7A13.6,13.6,0,1,0,53.7,20.6,13.6,13.6,0,0,0,40.1,7Z" style="fill:#333"/><path d="M91.3,86.9a3.5,3.5,0,0,1-3.5-3.4C87.6,70,81.8,57.7,73,52.2a3.5,3.5,0,1,1,3.7-5.9c11,6.8,17.9,21,18.1,37.1a3.5,3.5,0,0,1-3.5,3.5Z" style="fill:#333"/><path d="M67.5,34.5a4.1,4.1,0,0,1-1.8-.5,3.5,3.5,0,0,1-1.2-4.8,19.8,19.8,0,0,0,2.6-11.9A18.8,18.8,0,0,0,63.6,8a3.5,3.5,0,1,1,5.8-4,27.2,27.2,0,0,1,4.7,12.6,27.5,27.5,0,0,1-3.6,16.2A3.4,3.4,0,0,1,67.5,34.5Z" style="fill:#333"/></g></g></svg>