<svg xmlns="http://www.w3.org/2000/svg" viewBox="0 0 744.6 736.4"><g id="Layer_2" data-name="Layer 2"><g id="Layer_1-2" data-name="Layer 1"><g id="Layer_2-2" data-name="Layer 2"><g id="Layer_1-2-2" data-name="Layer 1-2"><path d="M633.8,736.4h-523A110.9,110.9,0,0,1,0,625.6V110.8A110.9,110.9,0,0,1,110.8,0H369.7a74,74,0,0,1,73.9,73.9v54a18.9,18.9,0,0,0,18.9,18.9H670.7a74.1,74.1,0,0,1,73.9,73.9h0V625.6A110.9,110.9,0,0,1,633.8,736.4ZM110.8,55A55.8,55.8,0,0,0,55,110.8V625.6a55.8,55.8,0,0,0,55.8,55.8h523a55.9,55.9,0,0,0,55.8-55.8V220.7a18.9,18.9,0,0,0-18.9-18.9H462.5a74,74,0,0,1-73.9-73.9v-54A18.9,18.9,0,0,0,369.7,55Z" style="fill:#f2f2f2"/><path d="M572.2,405.9H172.3a27.5,27.5,0,0,1,0-55H572.2a27.5,27.5,0,0,1,0,55Z" style="fill:#f2f2f2"/><path d="M572.2,582.1H172.3a27.5,27.5,0,0,1,0-55H572.2a27.5,27.5,0,0,1,0,55Z" style="fill:#f2f2f2"/><path d="M286.2,251.6H151.7a27.5,27.5,0,1,1,0-55H286.2a27.5,27.5,0,0,1,0,55Z" style="fill:#f0bdad"/></g></g></g></g></svg>