<?xml version="1.0" encoding="utf-8"?>
<!-- Generator: Adobe Illustrator 25.2.3, SVG Export Plug-In . SVG Version: 6.00 Build 0)  -->
<svg version="1.1" id="Layer_1" xmlns="http://www.w3.org/2000/svg" xmlns:xlink="http://www.w3.org/1999/xlink" x="0px" y="0px"
	 viewBox="0 0 104.5 104.5" style="enable-background:new 0 0 104.5 104.5;" xml:space="preserve">
<style type="text/css">
	.st0{fill:#333333;}
</style>
<g id="Layer_2_1_">
	<g id="Layer_1-2">
		<path class="st0" d="M52.3,104.6C23.5,104.6,0,81.1,0,52.3C0,23.5,23.5,0,52.3,0c28.8,0,52.3,23.5,52.3,52.3
			C104.6,81.1,81.1,104.6,52.3,104.6z M52.3,7C27.3,7,7,27.3,7,52.3s20.3,45.3,45.3,45.3s45.3-20.3,45.3-45.3S77.3,7,52.3,7z"/>
		<path class="st0" d="M48.6,82.6v-7.7c-5.1-0.2-10.1-1.6-13-3.6l2.2-7.5c3.8,2.3,8.1,3.5,12.5,3.5c5,0,8.4-2.4,8.4-6.3
			s-2.8-5.9-8.7-8.1c-8.4-3-13.8-6.8-13.8-14.3S41,26.5,49.1,25v-7.8h6.5v7.4c3.9,0.1,7.6,1,11.1,2.7l-2.2,7.3
			c-3.4-1.8-7.1-2.7-10.9-2.7c-5.6,0-7.6,2.9-7.6,5.6s2.9,5.1,9.7,7.8c9,3.4,13,7.7,13,14.8s-4.8,12.8-13.6,14.3v8.2H48.6z"/>
	</g>
</g>
</svg>
