<svg xmlns="http://www.w3.org/2000/svg" viewBox="0 0 92 103"><g id="Layer_2" data-name="Layer 2"><g id="Layer_1-2" data-name="Layer 1"><g id="Layer_2-2" data-name="Layer 2"><g id="Layer_1-2-2" data-name="Layer 1-2"><path d="M46,51.6A25.8,25.8,0,1,1,71.8,25.8,25.9,25.9,0,0,1,46,51.6ZM46,7A18.8,18.8,0,1,0,64.8,25.8,18.8,18.8,0,0,0,46,7Z" style="fill:#f2f2f2"/><path d="M88.5,103A3.5,3.5,0,0,1,85,99.5a39,39,0,0,0-78,0A3.5,3.5,0,0,1,3.5,103,3.5,3.5,0,0,1,0,99.5a46,46,0,0,1,92,0A3.5,3.5,0,0,1,88.5,103Z" style="fill:#f2f2f2"/><path d="M19.5,103H3.5a3.5,3.5,0,0,1,0-7h16a3.5,3.5,0,0,1,0,7Z" style="fill:#f2f2f2"/><path d="M88.5,103H36.9a3.5,3.5,0,0,1,0-7H88.5a3.5,3.5,0,0,1,0,7Z" style="fill:#f2f2f2"/><path d="M46,39c-3.3,0-6.4-1.6-7.7-4a3.6,3.6,0,0,1,1.4-4.8,3.5,3.5,0,0,1,4.7,1.4A3.5,3.5,0,0,0,46,32a3,3,0,0,0,1.6-.5,3.4,3.4,0,0,1,4.5-1.6,3.4,3.4,0,0,1,1.8,4.6C52.6,37.6,48.9,39,46,39Zm-1.5-7.4Z" style="fill:lime"/></g></g></g></g></svg>