<?xml version="1.0" encoding="utf-8"?>
<!-- Generator: Adobe Illustrator 25.2.3, SVG Export Plug-In . SVG Version: 6.00 Build 0)  -->
<svg version="1.1" id="Layer_1" xmlns="http://www.w3.org/2000/svg" xmlns:xlink="http://www.w3.org/1999/xlink" x="0px" y="0px"
	 viewBox="0 0 104.4 103" style="enable-background:new 0 0 104.4 103;" xml:space="preserve">
<style type="text/css">
	.st0{fill:#333333;}
	.st1{opacity:0.65;}
</style>
<g id="Layer_2_1_">
	<g id="Layer_1-2">
		<path class="st0" d="M46,51.6c-14.2,0-25.8-11.6-25.8-25.8C20.2,11.6,31.8,0,46,0c14.2,0,25.8,11.6,25.8,25.8
			C71.8,40,60.2,51.6,46,51.6z M46,7c-10.4,0-18.8,8.4-18.8,18.8c0,10.4,8.4,18.8,18.8,18.8s18.8-8.4,18.8-18.8
			C64.8,15.4,56.4,7,46,7z"/>
		<path class="st0" d="M88.5,103c-1.9,0-3.5-1.6-3.5-3.5c0-21.5-17.5-39-39-39S7,78,7,99.5c0,1.9-1.6,3.5-3.5,3.5S0,101.4,0,99.5
			c0-25.4,20.6-46,46-46s46,20.6,46,46C92,101.4,90.4,103,88.5,103z"/>
		<path class="st0" d="M19.5,103h-16c-1.9,0-3.5-1.6-3.5-3.5S1.6,96,3.5,96h16c1.9,0,3.5,1.6,3.5,3.5S21.4,103,19.5,103z"/>
		<path class="st0" d="M88.5,103H36.9c-1.9,0-3.5-1.6-3.5-3.5S35,96,36.9,96h51.6c1.9,0,3.5,1.6,3.5,3.5S90.4,103,88.5,103z"/>
		<path class="st0" d="M46,39c-3.3,0-6.4-1.6-7.7-4c-0.9-1.7-0.3-3.8,1.4-4.7c1.7-0.9,3.8-0.3,4.7,1.3c0.2,0.1,0.7,0.4,1.6,0.4
			c0.7,0,1.3-0.3,1.6-0.5c0.8-1.7,2.8-2.4,4.5-1.7c1.8,0.8,2.6,2.8,1.8,4.6C52.6,37.6,48.9,39,46,39z M44.5,31.6
			C44.5,31.6,44.5,31.6,44.5,31.6C44.5,31.6,44.5,31.6,44.5,31.6z M44.4,31.5L44.4,31.5L44.4,31.5z"/>
		<g class="st1">
			<path class="st0" d="M73.6,46.7c-1,0-2.1-0.5-2.8-1.3c-1.2-1.5-0.9-3.7,0.6-4.9C77,36.1,79.8,29,78.6,22
				c-0.9-6.9-5.7-12.7-12.2-14.8c-1.8-0.6-2.8-2.6-2.2-4.4c0.6-1.8,2.6-2.8,4.4-2.2c9,3,15.7,11,17,20.5c1.5,9.4-2.2,19-9.8,25
				C75.1,46.5,74.4,46.7,73.6,46.7z"/>
			<path class="st0" d="M100.9,99c-1.9,0-3.5-1.6-3.5-3.5c0-17.9-11.7-33.7-27.7-37.7c-1.9-0.5-3-2.4-2.6-4.2c0.5-1.9,2.4-3,4.2-2.6
				c19.5,4.8,33.1,23.1,33.1,44.5C104.4,97.4,102.8,99,100.9,99z"/>
		</g>
	</g>
</g>
</svg>
