<?xml version="1.0" encoding="utf-8"?>
<!-- Generator: Adobe Illustrator 25.2.3, SVG Export Plug-In . SVG Version: 6.00 Build 0)  -->
<svg version="1.1" id="Layer_1" xmlns="http://www.w3.org/2000/svg" xmlns:xlink="http://www.w3.org/1999/xlink" x="0px" y="0px"
	 viewBox="0 0 77.4 77.5" style="enable-background:new 0 0 77.4 77.5;" xml:space="preserve">
<style type="text/css">
	.st0{fill:#333333;}
</style>
<g id="Layer_2_1_">
	<g id="Layer_1-2">
		<path class="st0" d="M38.7,77.4c-10.2,0-20.3-4-27.9-11.9C-4.1,50.1-3.5,25.6,11.9,10.8l0.4-0.4h0.1C27.3-3.3,50.1-3.3,65,10.4
			h0.1l0.5,0.5l1,1.1c14.7,15.4,14.2,39.9-1.2,54.7C58,73.9,48.3,77.4,38.7,77.4z M5.8,41.5c1.5,17,15.6,30.2,32.9,30.3
			c17.3,0,31.5-13.2,32.9-30.3H5.8z M61.4,35.9h10.3C71,28.8,68.1,22,63.4,16.7c-1.7,1.4-3.5,2.7-5.4,3.8
			C60,25.4,61.1,30.6,61.4,35.9z M41.5,35.9h14.2c-0.3-4.5-1.3-8.8-2.9-13c-3.6,1.4-7.5,2.3-11.4,2.6V35.9z M21.7,35.9h14.2V25.5
			c-3.9-0.3-7.7-1.2-11.4-2.6C22.9,27.1,22,31.4,21.7,35.9z M5.8,35.9h10.3c0.3-5.3,1.4-10.5,3.4-15.4c-1.9-1.1-3.7-2.3-5.4-3.8
			C9.3,22,6.4,28.8,5.8,35.9z M41.5,7.2v12.6c3.1-0.3,6.1-0.9,9-2.1C48.2,13.7,45.1,10.1,41.5,7.2z M27,17.8
			c2.9,1.1,5.8,1.8,8.9,2.1V7.2C32.3,10.1,29.3,13.7,27,17.8z M18.2,12.8c1.2,0.9,2.4,1.8,3.7,2.5c1.5-2.7,3.2-5.3,5.3-7.6
			C23.9,8.9,20.9,10.6,18.2,12.8z M50.2,7.7c2,2.3,3.8,4.9,5.3,7.6c1.3-0.8,2.5-1.6,3.7-2.5C56.5,10.6,53.5,8.9,50.2,7.7z"/>
		<rect x="22.5" y="51" class="st0" width="6.3" height="7"/>
		<rect x="34.8" y="51" class="st0" width="7.2" height="7"/>
		<rect x="47.5" y="51" class="st0" width="7.4" height="7"/>
	</g>
</g>
</svg>
