<?xml version="1.0" encoding="utf-8"?>
<!-- Generator: Adobe Illustrator 25.2.3, SVG Export Plug-In . SVG Version: 6.00 Build 0)  -->
<svg version="1.1" id="Layer_1" xmlns="http://www.w3.org/2000/svg" xmlns:xlink="http://www.w3.org/1999/xlink" x="0px" y="0px"
	 viewBox="0 0 91.8 86.2" style="enable-background:new 0 0 91.8 86.2;" xml:space="preserve">
<style type="text/css">
	.st0{fill:#333333;}
</style>
<g id="Layer_2_1_">
	<g id="Layer_1-2">
		<path class="st0" d="M72.7,86.2h-61C5.2,86.2,0,81,0,74.5v-61C0,7,5.2,1.8,11.7,1.8h40.6c1.9,0,3.5,1.6,3.5,3.5s-1.6,3.5-3.5,3.5
			H11.7C9.1,8.8,7,10.9,7,13.5v61c0,2.6,2.1,4.7,4.7,4.7h61c2.6,0,4.7-2.1,4.7-4.7V35.2c0-1.9,1.6-3.5,3.5-3.5s3.5,1.6,3.5,3.5v39.3
			C84.4,81,79.2,86.2,72.7,86.2z"/>
		<path class="st0" d="M17.2,23.4c-2.7,0-4.9-2.2-4.9-4.9s2.2-4.9,4.9-4.9c2.7,0,4.9,2.2,4.9,4.9S19.9,23.4,17.2,23.4z M17.2,16.4
			c-1.2,0-2.1,0.9-2.1,2.1s0.9,2.1,2.1,2.1c1.2,0,2.1-0.9,2.1-2.1S18.4,16.4,17.2,16.4z"/>
		<path class="st0" d="M32,23.4c-2.7,0-4.9-2.2-4.9-4.9s2.2-4.9,4.9-4.9s4.9,2.2,4.9,4.9S34.7,23.4,32,23.4z M32,16.4
			c-1.2,0-2.1,0.9-2.1,2.1s0.9,2.1,2.1,2.1s2.1-0.9,2.1-2.1S33.2,16.4,32,16.4z"/>
		<path class="st0" d="M44,50.5C44,50.5,44,50.5,44,50.5c-2.1,0-3.3-0.9-4-1.6l0,0c-0.7-0.7-1.5-2-1.5-4.2
			c0.2-6.7,9.9-20.1,18.9-28.4C66.2,8.2,79.8-0.3,86.5,0c2.1,0.1,3.3,1,4,1.8c3.2,3.6-0.3,9.6-3.6,14.5c-3.4,4.9-8.1,10.5-12.7,15
			C66.3,39.1,51.3,50.5,44,50.5z M84.1,7.4C79.6,8.8,70.3,14,62.2,21.5c-4.4,4.1-8.8,9.2-12.1,14.2c-2.2,3.4-3.4,5.8-4,7.3
			c4.6-1.8,14.5-8.1,23.2-16.7C76.5,19.2,82.2,11.3,84.1,7.4z"/>
		<path class="st0" d="M31.4,69.1c-7,0-13.4-3.7-15.3-6.3c-1.1-1.6-0.9-3-0.7-3.7c1-2.9,4.1-2.7,5.7-2.5c0.7,0.1,2,0.2,2.8,0l0-0.3
			l0-0.3c0.1-4.3,2.1-11.6,7.2-14.1c5.4-2.8,13.1,0,16.4,6c3.1,5.6,0.8,11.2-0.3,13.3l-0.1,0.2C43.1,68.4,34.8,69.1,31.4,69.1z
			 M28.8,61.9c0.8,0.1,1.7,0.2,2.6,0.2c2.2,0,7.4-0.4,9.6-4.1c0.6-1.2,1.8-4.1,0.4-6.7c-1.8-3.2-5.5-4-7.1-3.2l0,0
			c-1.6,0.8-3.2,4.6-3.4,7.8c0.1,1.5-0.1,2.9-0.8,4.3l-0.3,0.5C29.5,61.2,29.2,61.5,28.8,61.9z"/>
		<rect x="53.5" y="28.6" transform="matrix(0.6539 -0.7565 0.7565 0.6539 -4.8071 54.3908)" class="st0" width="7" height="7.8"/>
	</g>
</g>
</svg>
