<?xml version="1.0" encoding="utf-8"?>
<!-- Generator: Adobe Illustrator 25.2.3, SVG Export Plug-In . SVG Version: 6.00 Build 0)  -->
<svg version="1.1" id="Layer_1" xmlns="http://www.w3.org/2000/svg" xmlns:xlink="http://www.w3.org/1999/xlink" x="0px" y="0px"
	 viewBox="0 0 111.9 86.9" style="enable-background:new 0 0 111.9 86.9;" xml:space="preserve">
<style type="text/css">
	.st0{fill:#333333;}
</style>
<g id="Layer_2_1_">
	<g id="Layer_1-2">
		<path class="st0" d="M93.4,46.2c-2.8,0-5-2.2-5-5V17.5c0-4.1-3.3-7.5-7.4-7.5H18.4c-2.8,0-5-2.2-5-5s2.2-5,5-5H81
			c9.6,0.1,17.4,7.9,17.4,17.5v23.7C98.4,44,96.2,46.2,93.4,46.2z"/>
		<polygon class="st0" points="75,35.8 93.4,67.8 111.9,35.8 		"/>
		<path class="st0" d="M93.4,86.9H30.9c-9.6,0-17.5-7.9-17.5-17.5v-24c0-2.8,2.2-5,5-5s5,2.2,5,5v24c0,4.1,3.4,7.5,7.5,7.5h62.5
			c2.8,0,5,2.2,5,5S96.2,86.9,93.4,86.9z"/>
		<polygon class="st0" points="36.9,50.8 18.4,18.9 0,50.8 		"/>
	</g>
</g>
</svg>
