<svg xmlns="http://www.w3.org/2000/svg" viewBox="0 0 90 84.5"><g id="Layer_2" data-name="Layer 2"><g id="Layer_1-2" data-name="Layer 1"><path d="M3.5,77.3A3.6,3.6,0,0,1,0,74.1V11.5A11.7,11.7,0,0,1,12,0H78A11.7,11.7,0,0,1,90,11.5v7.8a3.5,3.5,0,0,1-7,0V11.5A4.7,4.7,0,0,0,78,7H12a4.7,4.7,0,0,0-5,4.5v62a3.4,3.4,0,0,1-3.2,3.8Z" style="fill:#333"/><path d="M72.9,51.6h-56a3.5,3.5,0,0,1-3.5-3.5V30a3.5,3.5,0,0,1,3.5-3.5h56A3.5,3.5,0,0,1,76.4,30V48.1A3.5,3.5,0,0,1,72.9,51.6Zm-52.5-7h49V33.5h-49Z" style="fill:#333"/><path d="M29.7,84.5a12.9,12.9,0,0,1,0-25.8,12.9,12.9,0,0,1,0,25.8Zm0-18.8a5.8,5.8,0,0,0-5.6,5.9,5.6,5.6,0,1,0,11.2,0A5.8,5.8,0,0,0,29.7,65.7Z" style="fill:#333"/><path d="M72.6,83.5H55.1A3.5,3.5,0,0,1,51.6,80V62.2a3.5,3.5,0,0,1,3.5-3.5H72.6a3.5,3.5,0,0,1,3.5,3.5V80A3.5,3.5,0,0,1,72.6,83.5Zm-14-7H69.1V65.7H58.6Z" style="fill:#333"/><path d="M45,21.5H16.4a3.5,3.5,0,1,1,0-7H45a3.5,3.5,0,0,1,0,7Z" style="fill:#333"/></g></g></svg>