<?xml version="1.0" encoding="utf-8"?>
<!-- Generator: Adobe Illustrator 25.2.3, SVG Export Plug-In . SVG Version: 6.00 Build 0)  -->
<svg version="1.1" id="Layer_1" xmlns="http://www.w3.org/2000/svg" xmlns:xlink="http://www.w3.org/1999/xlink" x="0px" y="0px"
	 viewBox="0 0 118.9 118.9" style="enable-background:new 0 0 118.9 118.9;" xml:space="preserve">
<style type="text/css">
	.st0{fill:#333333;}
</style>
<g id="Layer_2_1_">
	<g id="Layer_1-2">
		<g>
			<path class="st0" d="M78.5,66.1l-2.1-1l1.3-1.3c3.8-3.7,6.4-8.3,7.7-13.4c0.8-3.6,0.9-7.3,0.2-10.9c-2.4-11-11.1-19.5-22.1-21.8
				c-2.6-0.4-5.3-0.5-8-0.3c-10.9,1.4-20,8.9-23.5,19.3c-2.5,7.7-1.2,16.2,3.5,22.8c1,1.3,2,2.5,3.1,3.7c1.1,1.2,1.9,2.1,1.7,2.1
				s-6.8,3.2-9.1,4.7l-1.8,1.2c-0.8,0.6-0.9,1.8-0.3,2.5c0.3,0.4,0.8,0.6,1.3,0.7h5.1l0.9-0.2c2.6-1.5,5.3-2.8,8.2-3.7l2.4-0.7h1.1
				l0.9,0.3c0.8,0.4,1.3,0.7,1.3,0.9s-0.3,1.4-0.8,3.4c-1.3,5.9-4,17.6-4.9,21.2c-0.1,0.7,0.2,1.4,0.7,1.8c2.7,2.1,11.1,8,12.6,8.9
				s14-9.3,13.9-9.6s-1.3-5.9-2.9-12.8c-0.9-3.7-1.6-7.1-2.2-9.5S66,71.2,66,71.1l1.7-0.9l1.2-0.4H70l2.2,0.7
				c2.9,0.9,5.7,2.2,8.3,3.7l0.9,0.2h5.1c1-0.1,1.7-0.9,1.7-1.9c0-0.5-0.3-1-0.7-1.3C84.7,69.2,81.6,67.5,78.5,66.1z M62,82.7
				c1.4,5.9,2.5,10.9,2.6,11.1s-1,1.1-3.1,2.5l-3.4,2.3l-3.3-2.2l-2.3-1.7c-0.5-0.4-0.8-1.1-0.6-1.8c0.4-1.7,1.3-5.7,2.4-10.2
				l1.9-8.3l0.2-1.2c0.2-0.8,0.9-1.3,1.7-1.3l0,0c0.8,0,1.5,0.5,1.7,1.3l0.3,1.2L62,82.7z M67.8,63.5c-6.6,3-14.3,2.6-20.6-0.9
				c-2.4-1.5-4.4-3.5-6.1-5.7c-4.1-5.9-5-13.4-2.5-20.1c2.1-5.7,6.7-10.1,12.5-12c2.6-0.9,4.1-1.1,7.9-1s4,0.1,5.7,0.7
				c5.5,1.5,10.1,5.2,12.7,10.3c2.5,5,3,10.8,1.3,16.1C77.1,56.5,73.1,61.1,67.8,63.5z"/>
			<path class="st0" d="M58.1,106.8c-0.2,0-0.3,0-0.4-0.1c-1.5-0.9-10-6.8-12.6-8.9c-0.7-0.5-1-1.4-0.9-2.3C45,92,47.7,80.3,49,74.3
				c0.4-1.5,0.7-2.7,0.8-3.2c-0.1-0.1-0.4-0.3-1-0.6L48,70.3h-0.9L44.7,71c-2.8,0.9-5.5,2.2-8.1,3.7l-0.1,0.1l-1,0.2h-5.1
				c-0.7,0-1.3-0.4-1.7-0.9c-0.4-0.5-0.6-1.1-0.5-1.7c0.1-0.6,0.4-1.2,0.8-1.5l1.8-1.2c1.6-1,6.7-3.7,8.7-4.5
				c-0.4-0.5-1-1.2-1.4-1.5c-1.1-1.2-2.2-2.4-3.1-3.7c-4.7-6.7-6.1-15.4-3.6-23.2c3.6-10.6,12.8-18.2,23.9-19.6
				c2.7-0.3,5.5-0.1,8.1,0.3c11.2,2.3,20,11,22.5,22.2c0.7,3.7,0.6,7.4-0.2,11.1c-1.3,5.2-4,9.9-7.8,13.6L77.3,65l1.5,0.7
				c3.2,1.4,6.2,3.2,9.1,5.1c0.5,0.4,0.8,1,0.9,1.7c0.1,1.3-0.9,2.4-2.1,2.5l-5.2,0l-1.1-0.3c-2.6-1.5-5.4-2.7-8.2-3.7l-2.1-0.7H69
				l-1.1,0.4l-1.3,0.7c0.1,0.4,0.2,1.2,0.6,2.9c0.3,1.2,0.6,2.6,1,4.1c0.4,1.7,0.8,3.5,1.2,5.4c0.9,4,1.7,7.6,2.3,10
				c0.3,1.5,0.6,2.7,0.6,2.8c0.1,0.4,0.2,0.5-3.4,3.4C64.8,103.2,59.9,106.8,58.1,106.8z M46.9,69.3l1.3,0l0.9,0.3
				c1.2,0.6,1.6,0.9,1.6,1.4c0,0.2-0.2,0.9-0.8,3.5c-1.3,6-4,17.7-4.9,21.2c-0.1,0.5,0.1,1,0.5,1.3c2.7,2.1,11,8,12.5,8.9
				c1.4,0.3,11.7-7.8,13.1-9.3c-0.1-0.4-0.3-1.2-0.6-2.6c-0.5-2.3-1.3-5.9-2.3-9.9c-0.5-1.9-0.9-3.7-1.2-5.4
				c-0.3-1.5-0.7-2.9-0.9-4.1c-0.6-2.3-0.7-3.2-0.7-3.4v-0.3l2-1l1.4-0.5l1.3,0l2.2,0.7c2.9,1,5.7,2.2,8.3,3.7l0.8,0.2h5
				c0.7,0,1.2-0.7,1.2-1.4c0-0.4-0.2-0.7-0.5-0.9c-2.8-1.9-5.8-3.6-8.9-5l0,0l-2.7-1.3l1.8-1.8c3.7-3.6,6.3-8.1,7.6-13.2
				c0.8-3.5,0.9-7.1,0.2-10.7c-2.4-10.8-10.9-19.2-21.7-21.4c-2.6-0.4-5.2-0.5-7.9-0.3c-10.7,1.4-19.6,8.7-23.1,19
				c-2.4,7.5-1.1,15.9,3.4,22.4c0.9,1.3,2,2.5,3.1,3.6c1.9,2.1,2,2.2,1.8,2.6l-0.1,0.3l-0.3,0c-0.7,0.3-6.7,3.2-8.9,4.6l-1.8,1.2
				c-0.2,0.2-0.4,0.5-0.4,0.8c0,0.3,0.1,0.7,0.3,1c0.2,0.3,0.6,0.5,0.9,0.5l5,0l0.8-0.2c2.6-1.5,5.4-2.8,8.2-3.7L46.9,69.3z
				 M58.1,99.2l-3.6-2.4l-2.3-1.7c-0.7-0.6-1-1.5-0.8-2.3l0.4-1.8c0.5-2.1,1.2-5.1,2-8.4l1.9-8.3l0.2-1.2c0.2-1,1.2-1.7,2.2-1.7
				c1,0,1.9,0.7,2.2,1.7l0.3,1.2l1.9,8.3c0.7,2.8,1.3,5.4,1.7,7.4c0.4,1.8,0.8,3.4,0.8,3.6c0.2,0.4,0.3,0.7-3.3,3.1L58.1,99.2z
				 M58.1,72.4c-0.6,0-1.1,0.4-1.2,0.9l-0.2,1.2l-1.9,8.3c-0.8,3.3-1.5,6.4-2,8.4L52.4,93c-0.1,0.5,0,1,0.4,1.3l2.3,1.7l3,2l3.1-2.1
				c2-1.3,2.7-1.9,2.8-2.1c-0.1-0.4-0.3-1.3-0.8-3.5c-0.5-2-1.1-4.6-1.7-7.4l0,0l-2.2-9.5C59.2,72.8,58.7,72.4,58.1,72.4
				C58.1,72.4,58.1,72.4,58.1,72.4z M64.1,94C64.1,94,64.1,94,64.1,94C64.1,94,64.1,94,64.1,94z M58.4,66c-4,0-7.9-1-11.5-3
				c-2.4-1.6-4.5-3.5-6.3-5.8c-4.2-6-5.1-13.7-2.6-20.6c2.2-5.9,6.9-10.3,12.8-12.3c2.7-0.9,4.3-1.1,8.1-1l0.1,0
				c3.7,0.1,4,0.1,5.7,0.7c5.6,1.5,10.3,5.3,13,10.5c2.6,5.1,3.1,11,1.3,16.5C77.5,56.8,73.5,61.5,68,64h0C65,65.3,61.7,66,58.4,66z
				 M57.4,24.3c-2.6,0-4,0.2-6.1,1c-5.7,1.9-10.1,6.1-12.2,11.7c-2.5,6.5-1.5,13.9,2.4,19.6c1.6,2.2,3.7,4.1,6,5.6
				c6.1,3.4,13.7,3.8,20.1,0.9l0,0c5.2-2.3,9.1-6.8,10.6-12.3c1.7-5.2,1.2-10.8-1.3-15.7c-2.5-5-7-8.6-12.4-10
				c-1.6-0.6-1.8-0.6-5.5-0.7l-0.1,0C58.4,24.3,57.9,24.3,57.4,24.3z"/>
		</g>
		<rect x="49.5" y="73.9" class="st0" width="6.7" height="1"/>
		<rect x="60.1" y="73.9" class="st0" width="6.6" height="1"/>
		<path class="st0" d="M59.5,119C26.7,119,0,92.3,0,59.5S26.7,0,59.5,0S119,26.7,119,59.5S92.3,119,59.5,119z M59.5,7
			C30.6,7,7,30.6,7,59.5C7,88.4,30.6,112,59.5,112c28.9,0,52.5-23.6,52.5-52.5C112,30.6,88.4,7,59.5,7z"/>
	</g>
</g>
</svg>
