<svg xmlns="http://www.w3.org/2000/svg" viewBox="0 0 92.1 86.1"><g id="Layer_2" data-name="Layer 2"><g id="Layer_1-2" data-name="Layer 1"><g id="Layer_2-2" data-name="Layer 2"><g id="Layer_1-2-2" data-name="Layer 1-2"><path d="M51.8,86.1H41.9a8.5,8.5,0,0,1-8.5-8.5V60.2a8.5,8.5,0,0,1,8.5-8.5h9.9a8.5,8.5,0,0,1,8.5,8.5V77.6A8.5,8.5,0,0,1,51.8,86.1ZM41.9,58.7a1.5,1.5,0,0,0-1.5,1.5V77.6a1.5,1.5,0,0,0,1.5,1.5h9.9a1.5,1.5,0,0,0,1.5-1.5V60.2a1.5,1.5,0,0,0-1.5-1.5Z" style="fill:aqua"/><path d="M60.4,86.1H31.7A20.6,20.6,0,0,1,11.2,65.7V24.6h7V65.7A13.5,13.5,0,0,0,31.7,79.1H60.4A13.5,13.5,0,0,0,73.9,65.7V25.3h7V65.7A20.6,20.6,0,0,1,60.4,86.1Z" style="fill:#f2f2f2"/><path d="M88.6,36.5a3.6,3.6,0,0,1-2-.6L45.7,7.7,5.5,35.1a3.5,3.5,0,1,1-4-5.8L43.7.6a3.6,3.6,0,0,1,4,0L90.6,30.1a3.5,3.5,0,0,1-2,6.4Z" style="fill:#f2f2f2"/></g></g></g></g></svg>