<?xml version="1.0" encoding="utf-8"?>
<!-- Generator: Adobe Illustrator 25.2.3, SVG Export Plug-In . SVG Version: 6.00 Build 0)  -->
<svg version="1.1" id="Layer_1" xmlns="http://www.w3.org/2000/svg" xmlns:xlink="http://www.w3.org/1999/xlink" x="0px" y="0px"
	 viewBox="0 0 114.7 98.6" style="enable-background:new 0 0 114.7 98.6;" xml:space="preserve">
<style type="text/css">
	.st0{fill:#333333;}
</style>
<g id="Layer_2_1_">
	<g id="Layer_1-2">
		<path class="st0" d="M59.9,96.5H12.3C5.4,96.5,0,90,0,81.8V14.7C0,6.5,5.4,0,12.3,0h71.2c6.7,0,12.2,6.6,12.2,14.7v22.2
			c0,1.9-1.6,3.5-3.5,3.5s-3.5-1.6-3.5-3.5V14.7c0-4.2-2.4-7.7-5.2-7.7H12.3C9.4,7,7,10.5,7,14.7v67.1c0,4.2,2.4,7.7,5.3,7.7h47.6
			c1.9,0,3.5,1.6,3.5,3.5S61.8,96.5,59.9,96.5z"/>
		<path class="st0" d="M30.8,43.7c-7.3,0-13.2-5.9-13.2-13.2s5.9-13.2,13.2-13.2c7.3,0,13.2,5.9,13.2,13.2S38.1,43.7,30.8,43.7z
			 M30.8,24.3c-3.4,0-6.2,2.8-6.2,6.2s2.8,6.2,6.2,6.2c3.4,0,6.2-2.8,6.2-6.2S34.2,24.3,30.8,24.3z"/>
		<path class="st0" d="M74.8,32.3H53.7c-1.9,0-3.5-1.6-3.5-3.5s1.6-3.5,3.5-3.5h21.1c1.9,0,3.5,1.6,3.5,3.5S76.7,32.3,74.8,32.3z"/>
		<path class="st0" d="M66.2,43.6H53.7c-1.9,0-3.5-1.6-3.5-3.5s1.6-3.5,3.5-3.5h12.5c1.9,0,3.5,1.6,3.5,3.5S68.1,43.6,66.2,43.6z"/>
		<path class="st0" d="M86.4,98.6c-7.6,0-14.7-2.9-20-8.3c-11-11-11-29,0-40l0,0c5.3-5.3,12.5-8.3,20-8.3c7.6,0,14.7,2.9,20,8.3
			c5.3,5.3,8.3,12.5,8.3,20s-2.9,14.7-8.3,20C101.1,95.7,94,98.6,86.4,98.6z M71.3,55.3c-8.3,8.3-8.3,21.8,0,30.1
			c4,4,9.4,6.2,15.1,6.2c5.7,0,11-2.2,15.1-6.2s6.2-9.4,6.2-15.1s-2.2-11-6.2-15.1c-4-4-9.4-6.2-15.1-6.2S75.4,51.2,71.3,55.3
			L71.3,55.3z"/>
		<path class="st0" d="M82.1,80c-1,0-2-0.4-2.7-1.3l-8.8-10.5c-1.2-1.5-1-3.7,0.4-4.9c1.5-1.2,3.7-1,4.9,0.4l6.7,8l14.8-10.6
			c1.6-1.1,3.8-0.8,4.9,0.8s0.8,3.8-0.8,4.9L84.1,79.3C83.5,79.8,82.8,80,82.1,80z"/>
		<path class="st0" d="M12,77.5c-1.9,0-3.5-1.6-3.5-3.5c0-11.6,9.6-29.5,22.4-29.5c13,0,22.4,16.6,22.4,27.8c0,1.9-1.6,3.5-3.5,3.5
			s-3.5-1.6-3.5-3.5c0-10.5-8.8-20.8-15.4-20.8c-7.9,0-15.4,14-15.4,22.5C15.5,75.9,13.9,77.5,12,77.5z"/>
		<path class="st0" d="M30.9,77.5c-1.9,0-3.5-1.6-3.5-3.5V56.6c0-1.9,1.6-3.5,3.5-3.5s3.5,1.6,3.5,3.5V74
			C34.4,75.9,32.8,77.5,30.9,77.5z"/>
		<polygon class="st0" points="25,58.3 30.9,48 36.9,58.3 		"/>
	</g>
</g>
</svg>
