<svg xmlns="http://www.w3.org/2000/svg" viewBox="0 0 87.5 87.5"><g id="Layer_2" data-name="Layer 2"><g id="Layer_1-2" data-name="Layer 1"><path d="M44.5,87.5H13.4A13.4,13.4,0,0,1,0,74.1V13.4A13.4,13.4,0,0,1,13.4,0H24.5A3.5,3.5,0,0,1,28,3.5,3.5,3.5,0,0,1,24.5,7H13.4A6.4,6.4,0,0,0,7,13.4V74.1a6.4,6.4,0,0,0,6.4,6.4H44.5a3.5,3.5,0,0,1,0,7Z" style="fill:#f2f2f2"/><path d="M84,87.5H66.5a3.5,3.5,0,0,1,0-7h14V13.4A6.4,6.4,0,0,0,74.1,7H42a3.5,3.5,0,0,1-3.5-3.5A3.5,3.5,0,0,1,42,0H74.1A13.4,13.4,0,0,1,87.5,13.4V84A3.5,3.5,0,0,1,84,87.5Z" style="fill:#f2f2f2"/><path d="M66.5,87.5A3.5,3.5,0,0,1,63,84V49H22.8a3.6,3.6,0,0,1-3.6-3.5v-21A3.6,3.6,0,0,1,22.8,21H38.5V3.5a3.5,3.5,0,0,1,7,0v21A3.5,3.5,0,0,1,42,28H26.2V42H66.5A3.5,3.5,0,0,1,70,45.5V84A3.5,3.5,0,0,1,66.5,87.5Z" style="fill:#f2f2f2"/><path d="M36.5,76A10.5,10.5,0,1,1,47,65.5,10.5,10.5,0,0,1,36.5,76Zm0-14A3.5,3.5,0,1,0,40,65.5,3.5,3.5,0,0,0,36.5,62Z" style="fill:#ffd500"/></g></g></svg>