<?xml version="1.0" encoding="utf-8"?>
<!-- Generator: Adobe Illustrator 25.2.3, SVG Export Plug-In . SVG Version: 6.00 Build 0)  -->
<svg version="1.1" id="Layer_1" xmlns="http://www.w3.org/2000/svg" xmlns:xlink="http://www.w3.org/1999/xlink" x="0px" y="0px"
	 viewBox="0 0 88.9 88.9" style="enable-background:new 0 0 88.9 88.9;" xml:space="preserve">
<style type="text/css">
	.st0{fill:#333333;}
</style>
<g id="Layer_2_1_">
	<g id="Layer_1-2">
		<g>
			<path class="st0" d="M62.6,73.4H10.1c-5,0.1-9-3.9-9.1-8.9c0,0,0-0.1,0-0.1V10.1C1,5.1,5.1,1,10.1,1c0,0,0,0,0,0H39
				c0.8,0,1.5,0.5,1.7,1.2L64.3,71c0.2,0.6,0.1,1.2-0.2,1.7C63.7,73.2,63.2,73.4,62.6,73.4z M10.1,4.6c-3,0-5.5,2.5-5.5,5.5l0,0
				v54.3c0.1,3,2.5,5.4,5.5,5.4H60L37.7,4.6H10.1z"/>
			<path class="st0" d="M62.7,74.4C62.6,74.4,62.6,74.4,62.7,74.4l-52.6,0c0,0-0.1,0-0.1,0c-5.5,0-9.9-4.4-10-9.9l0-0.1V10.1
				C0,4.5,4.5,0,10.1,0H39c1.2-0.1,2.3,0.7,2.7,1.9l23.6,68.8c0.3,0.9,0.2,1.8-0.3,2.6C64.4,74,63.5,74.4,62.7,74.4z M62.6,72.4
				L62.6,72.4c0.3,0,0.5-0.1,0.7-0.3c0.1-0.2,0.1-0.5,0-0.8L39.8,2.5C39.7,2.2,39.4,2,39,2L10.1,2C5.6,2,2,5.6,2,10.1v54.3
				c0,4.5,3.7,8,8.1,8H62.6z M10.1,70.8c-3.5,0-6.4-2.9-6.5-6.4V10.1c0-3.6,2.9-6.5,6.5-6.5h28.3l23,67.2H10.1
				C10.1,70.8,10.1,70.8,10.1,70.8z M10.1,5.6c-2.5,0-4.5,2-4.5,4.5v54.3c0,2.4,2.1,4.4,4.5,4.4c0,0,0,0,0,0h48.5L37,5.6H10.1z"/>
		</g>
		<g>
			<path class="st0" d="M78.9,87.9h-29c-0.7,0-1.4-0.4-1.7-1.1l-5.4-14.5c-0.4-0.9,0-2,0.9-2.4c0,0,0,0,0.1,0c1-0.3,2,0.2,2.4,1.1
				l5,13.3h27.7c3,0,5.4-2.4,5.4-5.4l0,0V24.5c0-3-2.4-5.4-5.4-5.4l0,0H44.5c-1,0-1.8-0.8-1.8-1.8c0-1,0.8-1.8,1.8-1.8h34.4
				c5,0,9,4,9,9v54.4C87.9,83.9,83.9,87.9,78.9,87.9z"/>
			<path class="st0" d="M49.8,88.9c-1.1,0-2.1-0.7-2.6-1.7l-5.4-14.5c-0.6-1.4,0.1-3,1.5-3.6l0.1-0.1c1.5-0.5,3,0.3,3.7,1.6
				l4.8,12.7h27c2.4,0,4.4-2,4.4-4.4V24.5c0-2.4-2-4.4-4.4-4.4H44.5c-1.5,0-2.8-1.3-2.8-2.8s1.3-2.8,2.8-2.8h34.4
				c5.5,0,10,4.5,10,10v54.4c0,5.5-4.5,10-10,10L49.8,88.9C49.9,88.9,49.9,88.9,49.8,88.9z M44.4,70.8c-0.1,0-0.2,0-0.3,0
				c-0.4,0.2-0.5,0.6-0.4,1l5.4,14.6c0.1,0.3,0.4,0.5,0.7,0.4h29c4.4,0,8-3.6,8-8V24.5c0-4.4-3.6-8-8-8H44.5c-0.4,0-0.8,0.4-0.8,0.8
				c0,0.4,0.4,0.8,0.8,0.8h34.4c3.5,0,6.4,2.9,6.4,6.4v54.4c0,3.5-2.9,6.4-6.4,6.4H50.5l-5.2-13.9C45.1,71,44.8,70.8,44.4,70.8z"/>
		</g>
		<g>
			<path class="st0" d="M49.9,87.9c-0.4,0-0.9-0.1-1.2-0.4c-0.7-0.7-0.8-1.8-0.2-2.6l12.7-14.5c0.7-0.7,1.8-0.8,2.6-0.1
				c0.7,0.7,0.7,1.8,0.1,2.5L51.3,87.3C50.9,87.7,50.4,87.9,49.9,87.9z"/>
			<path class="st0" d="M49.9,88.9c-0.6,0-1.3-0.2-1.8-0.6L48,88.2c-1.1-1.1-1.2-2.7-0.3-3.9l12.8-14.6c1.1-1.1,2.9-1.2,4-0.2
				c1.1,1.1,1.2,2.8,0.2,3.9L52.1,88C51.5,88.6,50.7,88.9,49.9,88.9C49.9,88.9,49.9,88.9,49.9,88.9z M49.4,86.7
				c0.2,0.1,0.3,0.2,0.5,0.2h0c0.3,0,0.5-0.1,0.7-0.3l12.6-14.5c0.3-0.3,0.3-0.8,0-1.1c-0.3-0.3-0.9-0.3-1.2,0.1L49.3,85.6
				C49,85.9,49.1,86.4,49.4,86.7z"/>
		</g>
		<g>
			<path class="st0" d="M35.4,51.7c-0.8,0-1.4-0.5-1.7-1.2l-7.3-20.6L19,50.5c-0.3,0.9-1.4,1.4-2.3,1.1c0,0,0,0,0,0
				c-0.9-0.4-1.4-1.4-1.1-2.3l9.1-25.4c0.5-0.9,1.6-1.3,2.5-0.9c0.4,0.2,0.7,0.5,0.9,0.9l9,25.4c0.4,0.9,0,1.9-0.9,2.2
				c-0.1,0-0.1,0.1-0.2,0.1L35.4,51.7z"/>
			<path class="st0" d="M17.3,52.7c-0.3,0-0.5,0-0.8-0.1h-0.2l-0.2-0.1c-1.3-0.6-2-2.1-1.6-3.5l9.2-25.6c0.7-1.4,2.5-2,3.9-1.3
				c0.6,0.3,1,0.7,1.3,1.3l0,0.1L38,49c0.3,0.6,0.3,1.3,0,2c-0.3,0.7-0.8,1.2-1.4,1.5c-0.1,0-0.2,0.1-0.3,0.1l-0.1,0l-0.8,0.1
				c0,0,0,0,0,0c-1.2,0-2.2-0.8-2.6-1.9l-6.4-18l-6.5,18c-0.2,0.7-0.8,1.3-1.4,1.6C18.1,52.6,17.7,52.7,17.3,52.7z M17.1,50.7
				c0.2,0.1,0.4,0,0.6,0c0.2-0.1,0.3-0.3,0.4-0.5l8.3-23.2l8.2,23.2c0.1,0.3,0.4,0.5,0.7,0.5l0.4-0.1c0.2-0.1,0.4-0.2,0.4-0.4
				c0.1-0.2,0.1-0.4,0-0.5l-9-25.4c-0.1-0.2-0.2-0.3-0.4-0.4c-0.2-0.1-0.5-0.1-0.7,0c-0.2,0.1-0.4,0.2-0.5,0.4l-9.1,25.3
				C16.4,50,16.6,50.5,17.1,50.7z"/>
		</g>
		<g>
			<path class="st0" d="M30,40.8h-7.3c-1,0-1.8-0.8-1.8-1.8c0-1,0.8-1.8,1.8-1.8H30c1,0,1.8,0.8,1.8,1.8C31.8,40,31,40.8,30,40.8
				C30,40.8,30,40.8,30,40.8z"/>
			<path class="st0" d="M30,41.8h-7.3c-1.5,0-2.8-1.3-2.8-2.8c0-1.5,1.3-2.8,2.8-2.8H30c0,0,0,0,0,0c0.7,0,1.4,0.3,2,0.8
				c0.5,0.5,0.8,1.2,0.8,2C32.8,40.5,31.5,41.8,30,41.8z M22.7,38.2c-0.4,0-0.8,0.4-0.8,0.8c0,0.2,0.1,0.4,0.2,0.6
				c0.2,0.2,0.4,0.2,0.6,0.2H30c0.2,0,0.4-0.1,0.6-0.2c0.2-0.2,0.2-0.4,0.2-0.6c0-0.4-0.4-0.8-0.8-0.8c0,0,0,0,0,0H22.7z"/>
		</g>
		<g>
			<path class="st0" d="M78.9,40.8H53.5c-1,0-1.8-0.8-1.8-1.8c0-1,0.8-1.8,1.8-1.8h25.4c1,0,1.8,0.8,1.8,1.8
				C80.7,40,79.9,40.8,78.9,40.8z"/>
			<path class="st0" d="M78.9,41.8H53.5c-1.5,0-2.8-1.3-2.8-2.8c0-1.5,1.3-2.8,2.8-2.8h25.4c0.7,0,1.5,0.3,2,0.8
				c0.5,0.5,0.8,1.2,0.8,2C81.7,40.5,80.4,41.8,78.9,41.8z M53.5,38.2c-0.4,0-0.8,0.4-0.8,0.8s0.4,0.8,0.8,0.8h25.4h0
				c0.4,0,0.8-0.4,0.8-0.8c0-0.2-0.1-0.4-0.2-0.6c-0.2-0.2-0.4-0.2-0.6-0.2H53.5z"/>
		</g>
		<g>
			<path class="st0" d="M64.4,40.8c-1,0-1.8-0.8-1.8-1.8c0,0,0,0,0,0v-3.6c0-1,0.8-1.8,1.8-1.8c1,0,1.8,0.8,1.8,1.8c0,0,0,0,0,0V39
				C66.2,40,65.4,40.8,64.4,40.8z"/>
			<path class="st0" d="M64.4,41.8c-1.5,0-2.8-1.3-2.8-2.8v-3.6c0-1.5,1.3-2.8,2.8-2.8c0,0,0,0,0,0c1.5,0,2.8,1.3,2.8,2.8V39
				C67.2,40.5,65.9,41.8,64.4,41.8z M64.4,34.6L64.4,34.6c-0.4,0-0.8,0.4-0.8,0.8V39c0,0.4,0.4,0.8,0.8,0.8s0.8-0.4,0.8-0.8v-3.6
				c0-0.2-0.1-0.4-0.2-0.6C64.8,34.7,64.6,34.6,64.4,34.6z"/>
		</g>
		<g>
			<path class="st0" d="M59,62.6c-1,0.1-1.8-0.7-1.9-1.7c0-0.6,0.3-1.3,0.8-1.6c7.9-5.6,13.7-17.1,13.7-20.3c0-1,0.8-1.8,1.8-1.8
				l0,0c1,0,1.8,0.8,1.9,1.8c0,4.8-7,17.4-15.3,23.2C59.7,62.5,59.4,62.6,59,62.6z"/>
			<path class="st0" d="M58.9,63.6c-0.7,0-1.3-0.2-1.8-0.7c-0.6-0.5-0.9-1.2-0.9-1.9c-0.1-1,0.4-2,1.3-2.5
				c7.5-5.3,13.2-16.5,13.2-19.5c0-1.5,1.3-2.8,2.8-2.8c0,0,0,0,0,0c1.5,0,2.8,1.2,2.9,2.7c0,5.2-7,17.9-15.7,24
				c-0.4,0.4-1,0.6-1.6,0.6C59,63.6,58.9,63.6,58.9,63.6z M73.4,38.2C73.4,38.2,73.4,38.2,73.4,38.2c-0.4,0-0.8,0.4-0.8,0.8
				c0,3.7-6.1,15.4-14.1,21.1c-0.3,0.2-0.4,0.5-0.4,0.7c0,0.2,0.1,0.4,0.3,0.6s0.4,0.2,0.6,0.2l0.1,0c0.1,0,0.2,0,0.3-0.1l0.1-0.1
				c7.9-5.5,14.9-17.9,14.9-22.4C74.3,38.6,73.9,38.2,73.4,38.2z"/>
		</g>
		<g>
			<path class="st0" d="M73.4,66.2c-0.4,0-0.9-0.2-1.2-0.5c-1.3-1.2-12.9-11.9-14.9-16.9c-0.4-0.9,0-2,0.9-2.4c0,0,0,0,0.1,0
				c0.9-0.4,1.9,0,2.2,0.9c0,0,0,0.1,0.1,0.1c1.5,3.7,10.7,12.5,14.1,15.7c0.7,0.7,0.7,1.8,0.1,2.5C74.4,66,73.9,66.2,73.4,66.2z"/>
			<path class="st0" d="M73.4,67.2L73.4,67.2c-0.7-0.1-1.3-0.3-1.8-0.7c-4-3.7-13.3-12.6-15.2-17.3c-0.6-1.4,0-3,1.5-3.7l0.1-0.1
				c0.6-0.3,1.3-0.3,2,0c0.7,0.3,1.2,0.8,1.5,1.4c0,0.1,0.1,0.2,0.1,0.2c0.9,2.3,6,7.9,13.8,15.3c1.1,1.1,1.2,2.8,0.2,3.9
				C75,66.9,74.2,67.2,73.4,67.2L73.4,67.2z M59,47.3c-0.1,0-0.2,0-0.3,0.1c-0.5,0.2-0.7,0.7-0.5,1.1c1.4,3.5,8.5,10.9,14.6,16.6
				c0.2,0.1,0.4,0.2,0.6,0.2c0.2,0,0.5-0.1,0.7-0.3c0.3-0.3,0.2-0.8-0.1-1.1c-5.8-5.4-12.9-12.6-14.3-16l0.9-0.5l-0.9,0.4
				c-0.1-0.2-0.2-0.3-0.4-0.4C59.2,47.3,59.1,47.3,59,47.3z"/>
		</g>
	</g>
</g>
</svg>
