<svg xmlns="http://www.w3.org/2000/svg" viewBox="0 0 95 86.3"><g id="Layer_2" data-name="Layer 2"><g id="Layer_1-2" data-name="Layer 1"><path d="M79.9,86.3H22a3.6,3.6,0,0,1-3.6-3.5A3.5,3.5,0,0,1,22,79.3H79.9c4.3,0,7.8-2.9,7.8-6.5V24.7C87.7,15,78.4,7,67.1,7H12.5A3.6,3.6,0,0,1,8.8,3.5,3.7,3.7,0,0,1,12.5,0H67.1C82.5,0,95,11.1,95,24.7V72.8C95,80.2,88.3,86.3,79.9,86.3Z" style="fill:#333"/><path d="M12.3,7a5.3,5.3,0,0,1,5.3,5.3v9.4H7V12.3A5.3,5.3,0,0,1,12.3,7m0-7h0A12.3,12.3,0,0,0,0,12.3v11a5.4,5.4,0,0,0,5.4,5.4H24.6V12.3A12.3,12.3,0,0,0,12.3,0Z" style="fill:#333"/><path d="M40,86.3H21.1a3.5,3.5,0,0,1-3.5-3.5V24.6a3.5,3.5,0,0,1,3.5-3.5,3.5,3.5,0,0,1,3.5,3.5V79.3H40a3.5,3.5,0,0,1,3.5,3.5A3.5,3.5,0,0,1,40,86.3Z" style="fill:#333"/><path d="M39.5,31.7a7.3,7.3,0,0,1-7.2-7.3,7.2,7.2,0,0,1,7.2-7.2,7.3,7.3,0,0,1,7.3,7.2A7.3,7.3,0,0,1,39.5,31.7Zm0-7.5-.2.2a.3.3,0,0,0,.5,0C39.8,24.3,39.7,24.2,39.5,24.2Z" style="fill:#333"/><path d="M72.1,27.9H54.7a3.7,3.7,0,0,1-4-3.5,3.8,3.8,0,0,1,4-3.5H72.1A3.7,3.7,0,0,1,76,24.4,3.6,3.6,0,0,1,72.1,27.9Z" style="fill:#333"/><path d="M39.5,50.2a7.2,7.2,0,0,1,0-14.4,7.2,7.2,0,1,1,0,14.4Zm0-7.4a.2.2,0,0,0-.2.2.3.3,0,0,0,.5,0C39.8,42.9,39.7,42.8,39.5,42.8Z" style="fill:#333"/><path d="M57.3,68.6a7.3,7.3,0,0,1,0-14.5,7.3,7.3,0,1,1,0,14.5Zm0-7.5c-.1,0-.2.1-.2.3s.5.2.5,0A.3.3,0,0,0,57.3,61.1Z" style="fill:#333"/><path d="M72.1,46.5H54.7a3.8,3.8,0,0,1-4-3.5,3.8,3.8,0,0,1,4-3.5H72.1a3.5,3.5,0,1,1,0,7Z" style="fill:#333"/><path d="M71.4,80.8a5.3,5.3,0,0,1-.5,2H43.7a5.1,5.1,0,0,1-.4-2c0-4.6,6.3-8.2,14-8.2S71.4,76.2,71.4,80.8Z" style="fill:#333"/><path d="M70.9,86.3H43.7a3.5,3.5,0,0,1-3.2-2.2,7.8,7.8,0,0,1-.7-3.3c0-6.6,7.7-11.8,17.5-11.8s17.6,5.2,17.6,11.8a9.8,9.8,0,0,1-.7,3.3A3.6,3.6,0,0,1,70.9,86.3Zm-23.4-7H67.1c-1.4-1.6-5-3.3-9.8-3.3S49,77.7,47.5,79.3Z" style="fill:#333"/><path d="M6.2,84.9a3.5,3.5,0,0,1-3.5-3.5V46.5A3.5,3.5,0,0,1,6.2,43a3.5,3.5,0,0,1,3.5,3.5V81.4A3.5,3.5,0,0,1,6.2,84.9Z" style="fill:#999"/><path d="M11.8,86.3H6.2a3.5,3.5,0,0,1-3.5-3.5,3.5,3.5,0,0,1,3.5-3.5h5.6a3.5,3.5,0,0,1,3.5,3.5A3.5,3.5,0,0,1,11.8,86.3Z" style="fill:#999"/></g></g></svg>