<svg xmlns="http://www.w3.org/2000/svg" viewBox="0 0 111.2 94.7"><defs><style>.cls-1,.cls-2,.cls-3,.cls-4,.cls-5{fill:none;stroke-width:7px;}.cls-1,.cls-2,.cls-3{stroke:#f2f2f2;}.cls-1,.cls-2{stroke-miterlimit:10;}.cls-2,.cls-3,.cls-4,.cls-5,.cls-6{stroke-linecap:round;}.cls-3,.cls-4,.cls-5,.cls-6{stroke-linejoin:round;}.cls-4{stroke:#ff0;}.cls-5{stroke:aqua;}.cls-6{fill:lime;stroke:lime;}</style></defs><g id="Layer_2" data-name="Layer 2"><g id="Layer_1-2" data-name="Layer 1"><circle class="cls-1" cx="78.7" cy="40.6" r="12.8"/><path class="cls-2" d="M49.8,91.2a29,29,0,0,1,57.9,0"/><line class="cls-1" x1="107.7" y1="91.2" x2="49.8" y2="91.2"/><path class="cls-3" d="M37.9,83.8h-24c-5.7,0-10.4-4.2-10.4-9.4V12.9c0-5.2,4.7-9.4,10.4-9.4H62c5.7,0,10.4,4.2,10.4,9.4v4.4"/><line class="cls-3" x1="18.8" y1="26.3" x2="46.3" y2="26.3"/><line class="cls-4" x1="18.8" y1="43.6" x2="24.3" y2="43.6"/><line class="cls-5" x1="37.9" y1="43.6" x2="55.1" y2="43.6"/><line class="cls-3" x1="18.8" y1="60.9" x2="23.1" y2="60.9"/><polygon class="cls-6" points="46.9 65.5 43.5 64.2 40.4 66.3 40.6 62.6 37.6 60.4 41.2 59.4 42.4 55.9 44.4 59 48.1 59 45.8 62 46.9 65.5"/></g></g></svg>