<?xml version="1.0" encoding="utf-8"?>
<!-- Generator: Adobe Illustrator 25.2.3, SVG Export Plug-In . SVG Version: 6.00 Build 0)  -->
<svg version="1.1" id="Layer_1" xmlns="http://www.w3.org/2000/svg" xmlns:xlink="http://www.w3.org/1999/xlink" x="0px" y="0px"
	 viewBox="0 0 83.9 85.1" style="enable-background:new 0 0 83.9 85.1;" xml:space="preserve">
<style type="text/css">
	.st0{fill:#333333;}
</style>
<g id="Layer_2_1_">
	<g id="Layer_1-2">
		<path class="st0" d="M41.8,85.1c-7.9,0-15.7-2.3-22.5-6.6C-0.1,66-5.8,40,6.6,20.6c3.6-5.6,8.6-10.4,14.3-13.7
			c1.7-1,3.8-0.4,4.8,1.3c1,1.7,0.4,3.8-1.3,4.8c-4.8,2.8-8.9,6.7-11.9,11.4C2.1,40.6,6.9,62.2,23.1,72.6
			C39.3,82.9,60.9,78.2,71.3,62c5-7.9,6.7-17.2,4.7-26.3s-7.4-16.9-15.3-21.9c-1.6-1-2.1-3.2-1.1-4.8c1-1.6,3.2-2.1,4.8-1.1
			c9.4,6,15.9,15.4,18.3,26.3s0.4,22.1-5.6,31.6c-6,9.4-15.4,15.9-26.3,18.3C47.9,84.7,44.8,85.1,41.8,85.1z"/>
		<path class="st0" d="M41.9,41.2c-1.9,0-3.5-1.6-3.5-3.5V3.5C38.4,1.6,40,0,41.9,0s3.5,1.6,3.5,3.5v34.2
			C45.4,39.6,43.8,41.2,41.9,41.2z"/>
	</g>
</g>
</svg>
