<svg xmlns="http://www.w3.org/2000/svg" viewBox="0 0 91.6 90.9"><g id="Layer_2" data-name="Layer 2"><g id="Layer_1-2" data-name="Layer 1"><g id="Layer_2-2" data-name="Layer 2"><g id="Layer_1-2-2" data-name="Layer 1-2"><path d="M0,84.1V6.8C0,3.1,3.5,0,7.7,0H83.9c4.2,0,7.7,3.1,7.7,6.8V84.1c0,3.7-3.5,6.8-7.7,6.8H7.7C3.5,90.9,0,87.8,0,84.1ZM84.6,7.2,83.9,7H7.7L7,7.2V83.7l.7.2H83.9l.7-.2Z" style="fill:#f2f2f2"/><path d="M2.5,58.1A3.5,3.5,0,0,1,6,54.6H88.1a3.5,3.5,0,0,1,0,7H6A3.5,3.5,0,0,1,2.5,58.1Z" style="fill:#f2f2f2"/><path d="M0,30.1a3.5,3.5,0,0,1,3.5-3.5H88.1a3.5,3.5,0,0,1,0,7H3.5A3.5,3.5,0,0,1,0,30.1Z" style="fill:#f2f2f2"/><path d="M13.1,15.9a6.4,6.4,0,0,1,6.5-6.3,6.4,6.4,0,0,1,6.5,6.3,6.4,6.4,0,0,1-6.5,6.3A6.4,6.4,0,0,1,13.1,15.9Zm6,0a.7.7,0,0,0,.5.7.7.7,0,0,0,0-1.4A.7.7,0,0,0,19.1,15.9Z" style="fill:#b3ff00"/><path d="M13.1,43.6a6.4,6.4,0,0,1,6.5-6.3,6.3,6.3,0,1,1,0,12.6A6.4,6.4,0,0,1,13.1,43.6Zm6,0a.7.7,0,0,0,.5.7.7.7,0,0,0,0-1.4A.7.7,0,0,0,19.1,43.6Z" style="fill:#f2f2f2"/><path d="M13.1,74.2a6.4,6.4,0,0,1,6.5-6.3,6.3,6.3,0,1,1,0,12.6A6.4,6.4,0,0,1,13.1,74.2Zm6,0a.7.7,0,0,0,.5.7.7.7,0,0,0,0-1.4A.7.7,0,0,0,19.1,74.2Z" style="fill:#f2f2f2"/><path d="M31.1,15.9a3.5,3.5,0,0,1,3.5-3.5H72.7a3.5,3.5,0,1,1,0,7H34.6A3.5,3.5,0,0,1,31.1,15.9Z" style="fill:#f2f2f2"/><path d="M31.1,44.4a3.5,3.5,0,0,1,3.5-3.5H72.7a3.5,3.5,0,0,1,0,7H34.6A3.5,3.5,0,0,1,31.1,44.4Z" style="fill:#f2f2f2"/><path d="M31.1,74.2a3.5,3.5,0,0,1,3.5-3.5H72.7a3.5,3.5,0,0,1,0,7H34.6A3.5,3.5,0,0,1,31.1,74.2Z" style="fill:#f2f2f2"/></g></g></g></g></svg>