<svg xmlns="http://www.w3.org/2000/svg" viewBox="0 0 75.76 75.66"><g id="Layer_2" data-name="Layer 2"><g id="Layer_1-2" data-name="Layer 1"><path d="M37.88,75.66C17,75.66,0,59.89,0,40.49V17.82L36.94,0,75.76,17.77V40.49C75.76,59.89,58.77,75.66,37.88,75.66ZM7,22.21V40.49C7,56,20.85,68.66,37.88,68.66S68.76,56,68.76,40.49V22.26L37,7.73Z" style="fill:#333"/><path d="M22.81,55.91V51.38L40.12,37.62a21.54,21.54,0,0,0,3.24-3,7.55,7.55,0,0,0,1.4-2.43,7.47,7.47,0,0,0,.34-2.11,4.44,4.44,0,0,0-2.05-3.88,10.9,10.9,0,0,0-6-1.38,16.73,16.73,0,0,0-5.76.94,11.68,11.68,0,0,0-4.45,2.86L21.12,25A16.79,16.79,0,0,1,28,20.5a27.88,27.88,0,0,1,9.68-1.59,24.23,24.23,0,0,1,8.25,1.28,12.08,12.08,0,0,1,5.42,3.62,8.61,8.61,0,0,1,1.9,5.58,11.5,11.5,0,0,1-.56,3.51,11.77,11.77,0,0,1-2.12,3.68A30.31,30.31,0,0,1,46,40.9L31.15,52.73l-1.68-2.55H54.94v5.73Z" style="fill:#333"/></g></g></svg>