<?xml version="1.0" encoding="utf-8"?>
<!-- Generator: Adobe Illustrator 25.2.3, SVG Export Plug-In . SVG Version: 6.00 Build 0)  -->
<svg version="1.1" id="Layer_1" xmlns="http://www.w3.org/2000/svg" xmlns:xlink="http://www.w3.org/1999/xlink" x="0px" y="0px"
	 viewBox="0 0 105 105" style="enable-background:new 0 0 105 105;" xml:space="preserve">
<style type="text/css">
	.st0{fill-rule:evenodd;clip-rule:evenodd;fill:#333333;}
	.st1{fill:#333333;}
</style>
<g id="Layer_2_1_">
	<g id="Layer_1-2">
		<g id="Page-1">
			<g id="icon-5-mail-envelope-open">
				<g>
					<path id="mail-envelope-open_1_" class="st0" d="M53.8,73.4h6.6l26.8-22.2V20.8c-0.1-2.2-1.8-3.9-4-3.8c0,0-0.1,0-0.1,0H21.9
						c-2.2-0.1-4,1.5-4.1,3.7c0,0,0,0,0,0v30.9l26.8,21.7L53.8,73.4z M38.6,13.2L52.5,1.9l13.9,11.3h16.7c4.6,0,8.2,3.4,8.2,7.5
						v12.7l12.2,9.9V96c0,4.1-3.6,7.5-8.1,7.5H9.7c-4.6,0-8.2-3.4-8.2-7.5V43.3l12.2-9.9V20.7c0-4.1,3.7-7.5,8.2-7.5L38.6,13.2z
						 M60.4,13.2l-7.9-6.4l-7.8,6.4L60.4,13.2z M91.3,38.3l6.1,5l-6.1,5V38.3z M13.7,48.3l-6.1-5l6.1-5V48.3z M40.3,77.2L11.7,99.7
						h81.6L64.8,77.2H40.3z M98.2,98.7L66.8,73.5l32.7-26.4V96C99.5,97,99,98,98.2,98.7z M6.9,98.7l31.3-25.2L5.6,47.1V96
						C5.6,97,6.1,98,6.9,98.7z"/>
					<path class="st1" d="M95.4,105H9.7c-5.3,0-9.7-4-9.7-9V42.6l12.2-9.9v-12c0-5,4.4-9,9.7-9h16.2L52.5,0l14.4,11.7h16.2
						c5.3,0,9.7,4,9.7,9v12l12.2,9.9V96C105,101,100.7,105,95.4,105z M3,44v52c0,3.3,3,6,6.7,6h85.7c3.6,0,6.6-2.7,6.6-6V44
						l-12.2-9.9V20.7c0-3.3-3-6-6.7-6H65.9L52.5,3.8L39.1,14.7H21.9c-3.6,0-6.7,2.7-6.7,6v13.4L3,44z M97.6,101.2H7.4l32.4-25.5
						h25.5L97.6,101.2z M16,98.2H89L64.3,78.7H40.8L16,98.2z M6.9,100.6l-0.9-0.8c-1.1-0.9-1.8-2.3-1.8-3.8l0-52.1l36.5,29.5
						L6.9,100.6z M7.1,50.2V96c0,0.2,0,0.4,0.1,0.5l28.6-23L7.1,50.2z M98.2,100.6L64.4,73.5L101,44v52c0,1.5-0.7,2.9-1.8,3.8
						L98.2,100.6z M69.2,73.5l28.7,23C98,96.3,98,96.2,98,96l0-45.7L69.2,73.5z M60.9,74.9h-7.2l-9.7-0.1L16.3,52.3l0-31.8
						c0.3-3,2.8-5.2,5.7-5l61.2,0c2.9-0.1,5.4,2.3,5.5,5.3v31.1L60.9,74.9z M53.8,71.9h6.1l25.8-21.4V20.8c0-1.3-1.1-2.3-2.4-2.3
						c0,0,0,0-0.1,0l-0.1,0H21.9c-0.7,0-1.3,0.2-1.8,0.6c-0.5,0.4-0.7,1-0.8,1.6v30.1l25.8,20.9L53.8,71.9z M15.2,51.5l-10-8.2
						l10-8.2V51.5z M10,43.3l2.2,1.8v-3.7L10,43.3z M89.8,51.5V35.1l10,8.2L89.8,51.5z M92.8,41.5v3.7l2.2-1.8L92.8,41.5z
						 M64.6,14.7H40.5l12-9.8L64.6,14.7z M48.9,11.7h7.3l-3.7-3L48.9,11.7z"/>
				</g>
			</g>
		</g>
	</g>
</g>
</svg>
