<svg xmlns="http://www.w3.org/2000/svg" viewBox="0 0 94.5 84.1"><g id="Layer_2" data-name="Layer 2"><g id="Layer_1-2" data-name="Layer 1"><path d="M32.8,55.8a3.5,3.5,0,0,1-2.3-.9l-8.6-7.6L3.5,47A3.5,3.5,0,0,1,0,43.5,3.5,3.5,0,0,1,3.5,40h0l19.8.3a3.1,3.1,0,0,1,2.2.9L32.2,47,45.5,28a3.5,3.5,0,0,1,2.9-1.5H60.8L88.6,1a3.6,3.6,0,0,1,5,.2,3.6,3.6,0,0,1-.2,5L64.5,32.6a3.6,3.6,0,0,1-2.3.9h-12L35.7,54.3a3.5,3.5,0,0,1-2.4,1.4Z" style="fill:#333"/><path d="M11.7,63.6V77.1H7.5V63.6h4.2m4.4-7H3A2.6,2.6,0,0,0,.5,59.2V81.6A2.5,2.5,0,0,0,3,84.1H16.1a2.6,2.6,0,0,0,2.6-2.5V59.2a2.6,2.6,0,0,0-2.6-2.6Z" style="fill:#333"/><path d="M36.7,72.1v5H32.5v-5h4.2m4.9-7h-14a2.1,2.1,0,0,0-2.1,2.1V82a2.1,2.1,0,0,0,2.1,2.1h14A2.1,2.1,0,0,0,43.7,82V67.2a2.1,2.1,0,0,0-2.1-2.1Z" style="fill:#333"/><path d="M61.6,49.1v28H57.5v-28h4.1m3.9-7H53.6a3.1,3.1,0,0,0-3.1,3.1V81a3.1,3.1,0,0,0,3.1,3.1H65.5A3.1,3.1,0,0,0,68.6,81V45.2a3.1,3.1,0,0,0-3.1-3.1Z" style="fill:#333"/><path d="M86.6,40.5V77.1H82.5V40.5h4.1m3.6-7H78.9a3.4,3.4,0,0,0-3.4,3.4V80.7a3.4,3.4,0,0,0,3.4,3.4H90.2a3.4,3.4,0,0,0,3.4-3.4V36.9a3.4,3.4,0,0,0-3.4-3.4Z" style="fill:#333"/><path d="M91,19.6a3.5,3.5,0,0,1-3.5-3.5v-9H77.8a3.5,3.5,0,0,1-3.4-3.5A3.5,3.5,0,0,1,77.9,0H91a3.5,3.5,0,0,1,3.5,3.5V16.1A3.5,3.5,0,0,1,91,19.6Z" style="fill:#333"/></g></g></svg>