<?xml version="1.0" encoding="utf-8"?>
<!-- Generator: Adobe Illustrator 25.2.3, SVG Export Plug-In . SVG Version: 6.00 Build 0)  -->
<svg version="1.1" id="Layer_1" xmlns="http://www.w3.org/2000/svg" xmlns:xlink="http://www.w3.org/1999/xlink" x="0px" y="0px"
	 viewBox="0 0 85.4 84.4" style="enable-background:new 0 0 85.4 84.4;" xml:space="preserve">
<style type="text/css">
	.st0{fill:#333333;}
</style>
<g id="Layer_2_1_">
	<g id="Layer_1-2">
		<path class="st0" d="M51,84.4H11.7C5.2,84.4,0,79.2,0,72.7v-61C0,5.2,5.2,0,11.7,0h61c6.5,0,11.7,5.2,11.7,11.7v40.6
			c0,1.9-1.6,3.5-3.5,3.5s-3.5-1.6-3.5-3.5V11.7c0-2.6-2.1-4.7-4.7-4.7h-61C9.1,7,7,9.1,7,11.7v61c0,2.6,2.1,4.7,4.7,4.7H51
			c1.9,0,3.5,1.6,3.5,3.5S52.9,84.4,51,84.4z"/>
		<path class="st0" d="M71.5,72.6c-0.7,0-1.5-0.2-2.1-0.7L43.1,51.6c-1.5-1.2-1.8-3.4-0.6-4.9c1.2-1.5,3.4-1.8,4.9-0.6l26.3,20.3
			c1.5,1.2,1.8,3.4,0.6,4.9C73.6,72.1,72.5,72.6,71.5,72.6z"/>
		<polygon class="st0" points="40.6,60.7 31.3,38.1 55.5,41.4 		"/>
		<polygon class="st0" points="61.2,76.6 85.4,79.9 76.1,57.3 		"/>
		<path class="st0" d="M57.6,38.8c-0.7,0-1.4-0.2-1.9-0.6l-9.2-6.1c-1-0.7-1.6-1.9-1.6-3.1l0.7-11c0.1-1.3,0.8-2.4,2-2.9l10-4.9
			c1.1-0.5,2.5-0.5,3.5,0.2l9.1,6.1c1,0.7,1.6,1.9,1.5,3.1l-0.7,11c-0.1,1.2-0.8,2.4-1.9,2.9l-9.9,4.9
			C58.7,38.7,58.1,38.8,57.6,38.8z M52,27.4l5.8,3.9l6.3-3.1l0.4-7l-5.8-3.9l-6.4,3.1L52,27.4z M67.5,30.4L67.5,30.4L67.5,30.4z"/>
		<path class="st0" d="M25.3,30.8c-4.7,0-8.6-3.9-8.6-8.6c0-4.7,3.9-8.6,8.6-8.6c4.7,0,8.6,3.9,8.6,8.6C33.9,26.9,30,30.8,25.3,30.8
			z M25.3,20.6c-0.9,0-1.6,0.7-1.6,1.6c0,0.9,0.7,1.6,1.6,1.6c0.9,0,1.6-0.7,1.6-1.6C26.9,21.3,26.2,20.6,25.3,20.6z"/>
	</g>
</g>
</svg>
