<svg xmlns="http://www.w3.org/2000/svg" viewBox="0 0 106.1 107.7"><g id="Layer_2" data-name="Layer 2"><g id="Layer_1-2" data-name="Layer 1"><g id="Layer_2-2" data-name="Layer 2"><g id="Layer_1-2-2" data-name="Layer 1-2"><g id="Layer_2-2-2" data-name="Layer 2-2"><g id="Layer_1-2-2-2" data-name="Layer 1-2-2"><path d="M26.5,107.7A26.6,26.6,0,0,1,0,81.4v-55A26.6,26.6,0,0,1,26.5,0H62.8a3.5,3.5,0,0,1,3.5,3.5A3.5,3.5,0,0,1,62.8,7H26.5A19.5,19.5,0,0,0,7,26.4v55a19.5,19.5,0,0,0,19.5,19.3H76.6A19.5,19.5,0,0,0,96,81.3V55.4a3.5,3.5,0,0,1,7,0V81.3a26.6,26.6,0,0,1-26.4,26.4Z" style="fill:#f2f2f2"/><path d="M51.5,55.3A16.8,16.8,0,1,1,68.3,38.5,16.8,16.8,0,0,1,51.5,55.3Zm0-26.6a9.8,9.8,0,1,0,9.8,9.8A9.8,9.8,0,0,0,51.5,28.7Z" style="fill:#ffadad"/><path d="M77.9,71.7H25.1a3.5,3.5,0,0,1,0-7H77.9a3.5,3.5,0,0,1,0,7Z" style="fill:#f2f2f2"/><path d="M77.9,86H25.1a3.5,3.5,0,1,1,0-7H77.9a3.5,3.5,0,0,1,0,7Z" style="fill:#f2f2f2"/><path d="M97.1,40.9a2,2,0,0,1-1.1-.3l-9.6-5-9.5,5a2.3,2.3,0,0,1-2.5-.2,2.5,2.5,0,0,1-1-2.3l1.8-10.7-7.7-7.5a2.4,2.4,0,0,1-.6-2.4,2.7,2.7,0,0,1,2-1.7l10.6-1.5,4.7-9.7a2.6,2.6,0,0,1,2.2-1.3h0a2.3,2.3,0,0,1,2.1,1.3l4.9,9.7L104,15.8a2.7,2.7,0,0,1,2,1.7,2.4,2.4,0,0,1-.6,2.4l-7.7,7.5,1.8,10.7a2.5,2.5,0,0,1-1,2.3A2.4,2.4,0,0,1,97.1,40.9ZM86.4,30.5a2,2,0,0,1,1.1.3l6.4,3.3L92.7,27a2.6,2.6,0,0,1,.7-2.1l5.1-5-7-1a2.3,2.3,0,0,1-1.8-1.3l-3.3-6.5-3.2,6.5a2.3,2.3,0,0,1-1.8,1.3l-7,1,5.1,5a2.6,2.6,0,0,1,.7,2.1L79,34.1l6.3-3.3A2,2,0,0,1,86.4,30.5Zm-5.3-14Z" style="fill:#f2f2f2"/></g></g></g></g></g></g></svg>