<?xml version="1.0" encoding="utf-8"?>
<!-- Generator: Adobe Illustrator 25.2.3, SVG Export Plug-In . SVG Version: 6.00 Build 0)  -->
<svg version="1.1" id="Layer_1" xmlns="http://www.w3.org/2000/svg" xmlns:xlink="http://www.w3.org/1999/xlink" x="0px" y="0px"
	 viewBox="0 0 67.8 81" style="enable-background:new 0 0 67.8 81;" xml:space="preserve">
<style type="text/css">
	.st0{fill:#333333;}
</style>
<g id="Layer_2_1_">
	<g id="Layer_1-2">
		<g>
			<path class="st0" d="M38.6,6.3l-4.2,4.3l-1.7-1.8c-2.2-2.1-3.1-2.6-4.7-2.6c-0.6,0-1.1,0.1-1.6,0.3c-0.2,0.1-4,3.8-8.3,8.1
				c-8.5,8.5-9.4,9.6-11,12.7c-1.8,3.3-2.7,7.1-2.7,10.9c-0.1,2.5,0.3,5,1.1,7.3c1.1,3.4,2.9,6.5,5.3,9.2l0.7,0.7l-1.3,1.2
				c-1.7,1.5-2.6,3.6-2.7,5.8c0,2.2,0.9,4.2,3,6.5s2.5,3.4,2.5,4.8c0,1.1-0.4,2.1-1.3,2.7c-1.7,1.5-4.2,1.1-6.8-1.1l-1.1-0.9L3,75.3
				l-0.8,0.8l0.7,0.7c2.6,2.3,6.1,3.3,8.8,2.4c0.7-0.3,1.4-0.7,1.9-1.2c1.1-1.1,1.7-2.7,1.6-4.3c0-2.5-0.7-4-3.1-6.7
				c-0.7-0.6-1.2-1.4-1.7-2.2c-0.4-0.7-0.6-1.4-0.5-2.2c-0.1-0.8,0.1-1.6,0.5-2.3c0.7-1.2,1.6-2.2,2.7-3l1.4,0.9
				c3.1,2.4,6.7,4.1,10.5,4.9c3,0.4,6,0.4,9,0c3.7-0.8,7.1-2.3,10.1-4.6c1.6-1.2,16.4-15.9,17-16.9c0.4-0.6,0.5-1.2,0.4-1.9
				c0-1.6-0.4-2.4-2.6-4.6l-1.7-1.7l4.2-4.3l4.2-4.2l-3-3l-3-3.1L55.4,23c-2.3,2.3-4.2,4.1-4.3,4.1S40.6,16.9,40.6,16.6l4.2-4.3
				l4.1-4.1l-3-3l-3-3.1L38.6,6.3z M41.7,12l-3.8,3.8l-1.3-1.3l-1.3-1.3l3.8-3.9l3.8-3.8l1.3,1.4l1.3,1.3L41.7,12z M28.9,8.8
				C29.7,9.2,58.7,38.2,59,38.9s0.6,1-7.7,9.3c-4.4,4.4-8.2,8-8.9,8.5c-4.2,3.3-9.4,4.9-14.7,4.5c-5.5-0.6-10-2.9-14.4-7.4
				S6.6,44,6.6,38.3c0-4.7,1.6-9.3,4.5-13c1-1.3,16-16.4,16.5-16.7S28.3,8.5,28.9,8.8z M60.9,23.6l1.3,1.3l-3.8,3.8l-3.8,3.8
				l-1.3-1.3L52,29.9l3.7-3.8l3.9-3.8L60.9,23.6z"/>
			<path class="st0" d="M9.6,81c-2.6,0-5.4-1.1-7.7-3.1l-1.8-1.8l1.9-1.9l1.7-1.9l2.2,1.8c1,0.8,3.3,2.5,4.9,1.1l0.1-0.1
				c0.5-0.3,0.7-0.9,0.7-1.4c0-1-0.1-1.7-2.1-3.8C7,67.3,6,65,6,62.4c0.1-2.7,1.2-5.2,3.2-6.9l0.2-0.2C7,52.5,5.2,49.4,4.1,46
				c-0.9-2.5-1.3-5.2-1.2-7.8c0-4,0.9-8,2.9-11.6c1.7-3.3,2.8-4.6,11.3-13c8.1-8.1,8.5-8.3,8.7-8.4c0.7-0.4,1.5-0.5,2.3-0.5
				c2.2,0,3.5,0.9,5.7,3l0.7,0.7l3.1-3.2L42.9,0l4,4.2l4,4l-5.2,5.2l-3.2,3.3c1.9,2,6.5,6.5,8.5,8.4c0.7-0.7,1.8-1.8,3.2-3.1
				l5.3-5.3l4.1,4.2l4,4l-5.3,5.3l-3.2,3.2L60,34c2.2,2.2,3,3.4,3,5.5c0.1,1-0.1,2-0.6,2.8C61.5,43.8,46.5,58.6,45,59.7
				c-3.1,2.4-6.8,4-10.7,4.9l-0.1,0c-3.1,0.4-6.3,0.4-9.4,0l-0.1,0c-4-0.9-7.8-2.6-11.1-5.1l-0.4-0.3c-0.6,0.6-1.1,1.2-1.5,1.9
				c-0.2,0.4-0.3,0.9-0.3,1.4l0,0.1l0,0.1c0,0.5,0.1,0.9,0.3,1.3c0.4,0.7,0.9,1.3,1.4,1.9l0.1,0.1c2.6,3,3.5,4.8,3.5,7.6
				c0.1,2-0.6,4-2,5.4c-0.7,0.7-1.5,1.2-2.4,1.5C11.4,80.9,10.5,81,9.6,81z M28.1,10.1C25.6,12.5,13,25.3,12.3,26.2
				c-2.7,3.4-4.2,7.7-4.2,12.1c0,5.3,2.1,10.2,6.3,14.5c4.2,4.2,8.3,6.4,13.5,7c4.9,0.4,9.7-1.1,13.6-4.2c0.6-0.4,4.2-3.8,8.8-8.4
				c1.6-1.6,6.2-6.2,7.2-7.7C54.3,36,30.4,12.1,28.1,10.1z M54.1,29.9l0.5,0.5l5.5-5.5l-0.5-0.5l-2.8,2.8L54.1,29.9z M51.1,28.6
				C51.1,28.6,51.1,28.6,51.1,28.6L51.1,28.6C51.1,28.6,51.1,28.6,51.1,28.6z M37.4,13.2l0.5,0.5l5.5-5.5l-0.5-0.5l-2.7,2.7
				L37.4,13.2z"/>
		</g>
		<g>
			<path class="st0" d="M28.5,18.2l-0.4,0.4l10.1,10.1l10.1,10.1l0.4-0.4c0.2-0.1,0.3-0.3,0.3-0.5c0-0.1-19.9-20.1-20-20.1
				L28.5,18.2z"/>
			<path class="st0" d="M48.3,40.9L26,18.6l1.6-1.6l0.9-0.7H29c0.7,0,0.7,0,11.1,10.5c10.4,10.5,10.4,10.5,10.4,11.1l0,0.2
				c-0.1,0.6-0.4,1.1-0.8,1.5L48.3,40.9z"/>
		</g>
		<g>
			<path class="st0" d="M24.2,22.6L23.8,23l10.1,10l10,10.1l0.5-0.4l0.4-0.4l-10-10.1l-10.2-10C24.4,22.3,24.3,22.4,24.2,22.6z"/>
			<path class="st0" d="M43.8,45.1L32.8,34.1L21.7,23l1.4-1.4c0.2-0.3,0.5-0.5,0.8-0.7l1-0.6l11,10.8l11.1,11.2l-1.6,1.6L43.8,45.1z
				"/>
		</g>
	</g>
</g>
</svg>
