<svg xmlns="http://www.w3.org/2000/svg" viewBox="0 0 102.5 100.8"><g id="Layer_2" data-name="Layer 2"><g id="Layer_1-2" data-name="Layer 1"><g id="Layer_2-2" data-name="Layer 2"><g id="Layer_1-2-2" data-name="Layer 1-2"><path d="M18.3,92.5H15.8A15.8,15.8,0,0,1,0,76.7V15.8A15.8,15.8,0,0,1,15.8,0H76.7A15.8,15.8,0,0,1,92.5,15.8v5.5a3.5,3.5,0,0,1-7,0V15.8A8.7,8.7,0,0,0,76.7,7H15.8A8.7,8.7,0,0,0,7,15.8V76.7a8.7,8.7,0,0,0,8.8,8.8h2.5a3.5,3.5,0,0,1,0,7Z" style="fill:#f2f2f2"/><path d="M65.3,100.8a37.2,37.2,0,1,1,37.2-37.2A37.3,37.3,0,0,1,65.3,100.8Zm0-67.4A30.2,30.2,0,1,0,95.5,63.6,30.2,30.2,0,0,0,65.3,33.4Z" style="fill:#f2f2f2"/><path d="M83,81.8a3.1,3.1,0,0,1-2-.7L63.4,68.4a3.3,3.3,0,0,1-1.5-2.7l-.6-16.4a3.5,3.5,0,1,1,7-.2l.5,14.7L85,75.5a3.3,3.3,0,0,1,.8,4.8A3.2,3.2,0,0,1,83,81.8Z" style="fill:aqua"/><path d="M40,23.6H19.5a3.5,3.5,0,0,1,0-7H40a3.5,3.5,0,0,1,0,7Z" style="fill:#ff0"/><path d="M25.8,36.7H19.5a3.5,3.5,0,0,1,0-7h6.3a3.5,3.5,0,0,1,0,7Z" style="fill:#f2f2f2"/></g></g></g></g></svg>