<svg xmlns="http://www.w3.org/2000/svg" viewBox="0 0 97 87.5"><g id="Layer_2" data-name="Layer 2"><g id="Layer_1-2" data-name="Layer 1"><path d="M34.6,33H7.1A7.1,7.1,0,0,1,0,25.9V7.1A7.1,7.1,0,0,1,7.1,0H34.6a7.1,7.1,0,0,1,7.1,7.1V25.9A7.1,7.1,0,0,1,34.6,33ZM7.1,7H7V25.9c0,.1,0,.1.1.1H34.6c.1,0,.1,0,.1-.1V7.1H7.1Z" style="fill:#333"/><path d="M33.9,87.5H8.4A8.1,8.1,0,0,1,.3,79.4V46.1A8.1,8.1,0,0,1,8.4,38H33.9A8.1,8.1,0,0,1,42,46.1V79.4A8.1,8.1,0,0,1,33.9,87.5ZM8.4,45a1.1,1.1,0,0,0-1.1,1.1V79.4a1.1,1.1,0,0,0,1.1,1.1H33.9A1.1,1.1,0,0,0,35,79.4V46.1A1.1,1.1,0,0,0,33.9,45Z" style="fill:#333"/><path d="M86.5,87.5h-29A10.5,10.5,0,0,1,47,77V11A10.5,10.5,0,0,1,57.5.5h29A10.5,10.5,0,0,1,97,11V77A10.5,10.5,0,0,1,86.5,87.5Zm-29-80A3.5,3.5,0,0,0,54,11V77a3.5,3.5,0,0,0,3.5,3.5h29A3.5,3.5,0,0,0,90,77V11a3.5,3.5,0,0,0-3.5-3.5Z" style="fill:#333"/><rect x="13.4" y="50.8" width="15.2" height="24.5" rx="4.1" style="fill:#333"/><path d="M93.5,56h-13A3.5,3.5,0,0,1,77,52.5v-17A3.5,3.5,0,0,1,80.5,32h13A3.5,3.5,0,0,1,97,35.5v17A3.5,3.5,0,0,1,93.5,56ZM84,49h6V39H84Z" style="fill:#333"/></g></g></svg>