<svg xmlns="http://www.w3.org/2000/svg" viewBox="0 0 92 94.2"><g id="Layer_2" data-name="Layer 2"><g id="Layer_1-2" data-name="Layer 1"><g id="Layer_2-2" data-name="Layer 2"><g id="Layer_1-2-2" data-name="Layer 1-2"><path d="M46.1,94.2A46.9,46.9,0,0,1,12.3,79.9a3.5,3.5,0,1,1,5-4.8,40.2,40.2,0,0,0,56.6.9A39.5,39.5,0,0,0,85.1,56a3.5,3.5,0,1,1,6.8,1.6A47.1,47.1,0,0,1,46.1,94.2Z" style="fill:#f2f2f2"/><polygon points="4.1 89.6 3.5 56.8 32.2 72.6 4.1 89.6" style="fill:#f2f2f2"/><path d="M3.5,40.9H2.7A3.5,3.5,0,0,1,.1,36.6,46.9,46.9,0,0,1,46,0h.2A46.5,46.5,0,0,1,79.7,14.3a3.5,3.5,0,1,1-5,4.8A39.7,39.7,0,0,0,46.2,7H46A39.9,39.9,0,0,0,6.9,38.2,3.5,3.5,0,0,1,3.5,40.9Z" style="fill:#f2f2f2"/><polygon points="59.8 21.6 88.5 37.4 87.9 4.6 59.8 21.6" style="fill:#f2f2f2"/><path d="M64,43.3H60.9a3.3,3.3,0,0,1-1.6-.7,2.8,2.8,0,0,1-.7-1.7,2.1,2.1,0,0,1,.7-1.5h0l.4-.4c0-.1,0-.1.1-.1h0l1.6-1.7c.5-.4.4-1.2-.2-1.8L57.8,32c-.6-.6-1.4-.7-1.8-.2l-1.7,1.6h0c-.1.1-.2.2-.2.3l-.3.2h0a2.5,2.5,0,0,1-1.6.6,2.3,2.3,0,0,1-2.3-2.3h0v-.7h0V29.3c0-.6-.6-1.1-1.5-1.1H43.6a1.2,1.2,0,0,0-1.4,1.1v2.3h-.1a.4.4,0,0,0,.1.3v.4h0a2.9,2.9,0,0,1-.7,1.6,2.6,2.6,0,0,1-3.3.1h0l-.4-.3v-.2h-.1l-1.6-1.7-.4-.3h-.4a2.2,2.2,0,0,0-1.1.5l-3.4,3.4c-.6.6-.7,1.4-.2,1.8l1.7,1.7h0c0,.1.1.1.2.2l.3.3h0a2,2,0,0,1,.6,1.5,2.4,2.4,0,0,1-2.3,2.4h-3c-.7,0-1.1.6-1.1,1.4v4.8c0,.8.4,1.4,1.1,1.4h3a2.9,2.9,0,0,1,1.6.7,2.3,2.3,0,0,1,.1,3.2h0l-.4.4h-.1L30.6,57l-.3.3v.4a2.2,2.2,0,0,0,.5,1.1l3.4,3.4a1.8,1.8,0,0,0,1.2.5.9.9,0,0,0,.7-.3l1.6-1.6h.1l.2-.3.2-.2h0a2.5,2.5,0,0,1,1.6-.6A2.4,2.4,0,0,1,42.2,62h-.1v.7h0V65c0,.6.7,1.1,1.5,1.1h4.8c.9,0,1.5-.5,1.5-1.1V62.6h0v-.7h0a2,2,0,0,1,.7-1.6,2.4,2.4,0,0,1,3.2-.1h0l.4.4c0,.1.1.1.1.2h0L56,62.4a.9.9,0,0,0,.7.3,2.2,2.2,0,0,0,1.1-.5l3.4-3.4a2.2,2.2,0,0,0,.5-1.1v-.5l-1.9-1.9h0c-.1-.1-.2-.1-.2-.2l-.3-.3h0a2,2,0,0,1-.6-1.5,2.3,2.3,0,0,1,2.2-2.4H64a1.2,1.2,0,0,0,1.1-1.4V44.7A1.2,1.2,0,0,0,64,43.3Zm-.6,6H61a4.1,4.1,0,0,0-4,4.2,4,4,0,0,0,1.8,3.3h0l1.1,1.1-3.1,3-1-1h-.1l-.5-.6a4,4,0,0,0-5.8-.2A4.1,4.1,0,0,0,48.2,63h0v1.5H43.8V62.9h.1V62a4.1,4.1,0,0,0-4.1-4.1,4.2,4.2,0,0,0-3.4,1.8h-.1l-1,1-3.1-3,1-1.1h.1l.6-.5a4.1,4.1,0,0,0,0-5.8h0a4,4,0,0,0-3.7-1.1H28.6V44.9H31a4.1,4.1,0,0,0,4.1-4.1,4.2,4.2,0,0,0-1.8-3.4h-.1l-1-1.1,3.1-3,1,1h0l.6.6a3.8,3.8,0,0,0,2.9,1.2A4.1,4.1,0,0,0,43.9,32a2.2,2.2,0,0,0-.1-.8h0V29.9h4.4v1.4h0a2.2,2.2,0,0,0-.1.8,4.1,4.1,0,0,0,4.1,4.1,4.4,4.4,0,0,0,3.5-1.8h0l1.1-1,3.1,3.1-1,.9h-.1l-.7.5a4.1,4.1,0,0,0,0,5.8h0A3.9,3.9,0,0,0,61,45h2.4Z"/><path d="M48.4,68.1H43.6A3.3,3.3,0,0,1,40.1,65V61.8h-.6l-.6,1h-.4l-1,1a2.8,2.8,0,0,1-2,.9h-.3a4.3,4.3,0,0,1-2.3-1h-.1l-3.5-3.5a4.1,4.1,0,0,1-1-2.1V56.5l.9-.9,2.2-2.4a.1.1,0,0,0-.1-.1l-.3-.2H28.1A3.1,3.1,0,0,1,25,49.5V44.7a3.1,3.1,0,0,1,3.1-3.4h3a.4.4,0,0,0,.3-.4l-.3-.3-.4-.5-1.5-1.4a2.9,2.9,0,0,1-.9-2A3.2,3.2,0,0,1,29.4,34l3.5-3.5a4.1,4.1,0,0,1,2.1-1h1.4l1.2.9,1,1.1h1.1v1h.3c0-.1.1-.2.1-.3a1.9,1.9,0,0,1-.1-.8V29a3.4,3.4,0,0,1,3.5-2.8h4.7a3.3,3.3,0,0,1,3.5,3.1v2.9a.3.3,0,0,0,.3.3l.4-.2h0l.3-.3,1.7-1.6a2.8,2.8,0,0,1,1.9-.9,3.2,3.2,0,0,1,2.7,1.1L62.6,34a3.2,3.2,0,0,1,1.1,2.7,2.8,2.8,0,0,1-.9,1.9l-2.2,2.3c0,.1,0,.2.1.2a.5.5,0,0,0,.4.2h3.2a3.4,3.4,0,0,1,2.8,3.5v4.6a3.4,3.4,0,0,1-2.8,3.5H60.9c-.1,0-.2.1-.2.3h0l.5.5h0l2.5,2.5V58a4.1,4.1,0,0,1-1,2.1h-.1l-3.5,3.5a4.1,4.1,0,0,1-2.1,1h-.2a3.1,3.1,0,0,1-2.2-.9l-2.3-2.2h-.4V65A3.3,3.3,0,0,1,48.4,68.1Zm-2.5-5.6h.2A6.5,6.5,0,0,1,48,57.6a6.3,6.3,0,0,1,8.7.3v.2l.2-.2a6.1,6.1,0,0,1-2-4.4,6.1,6.1,0,0,1,6-6.2h.4V47H61a6,6,0,0,1-4.4-1.9,6.1,6.1,0,0,1,.1-8.6l.2-.2h-.1a6.2,6.2,0,0,1-10.7-4v-.3h-.2a6,6,0,0,1-1.8,4.3,6.2,6.2,0,0,1-4.3,1.8,5.8,5.8,0,0,1-4.4-1.8v-.2l-.2.2a6.3,6.3,0,0,1,2,4.5A6.1,6.1,0,0,1,31,46.9h-.4v.2a5.8,5.8,0,0,1,4.7,1.8,6,6,0,0,1,0,8.6l-.2.2.2.2h0a6.1,6.1,0,0,1,4.5-2h0A6.1,6.1,0,0,1,45.9,62Z" style="fill:aqua"/></g></g></g></g></svg>