<?xml version="1.0" encoding="utf-8"?>
<!-- Generator: Adobe Illustrator 25.2.3, SVG Export Plug-In . SVG Version: 6.00 Build 0)  -->
<svg version="1.1" id="Layer_1" xmlns="http://www.w3.org/2000/svg" xmlns:xlink="http://www.w3.org/1999/xlink" x="0px" y="0px"
	 viewBox="0 0 91.6 90.9" style="enable-background:new 0 0 91.6 90.9;" xml:space="preserve">
<style type="text/css">
	.st0{fill:#333333;}
</style>
<g id="Layer_2_1_">
	<g id="Layer_1-2">
		<path class="st0" d="M83.9,90.9H7.7c-4.2,0-7.7-3.1-7.7-6.8V6.8C0,3.1,3.5,0,7.7,0h76.2c4.2,0,7.7,3.1,7.7,6.8v77.3
			C91.6,87.8,88.1,90.9,83.9,90.9z M7,83.7c0.1,0.1,0.4,0.2,0.7,0.2h76.2c0.3,0,0.6-0.1,0.7-0.2V7.2C84.5,7.1,84.2,7,83.9,7H7.7
			C7.4,7,7.1,7.1,7,7.2V83.7z"/>
		<path class="st0" d="M85.6,61.6H3.5C1.6,61.6,0,60,0,58.1s1.6-3.5,3.5-3.5h82.1c1.9,0,3.5,1.6,3.5,3.5S87.5,61.6,85.6,61.6z"/>
		<path class="st0" d="M88.1,33.6H3.5C1.6,33.6,0,32,0,30.1s1.6-3.5,3.5-3.5h84.6c1.9,0,3.5,1.6,3.5,3.5S90,33.6,88.1,33.6z"/>
		<path class="st0" d="M72,22.2c-3.6,0-6.5-2.8-6.5-6.3c0-3.5,2.9-6.3,6.5-6.3s6.5,2.8,6.5,6.3C78.5,19.4,75.6,22.2,72,22.2z
			 M72,15.2c-0.2,0-0.5,0.3-0.5,0.7c0,0.4,0.3,0.7,0.5,0.7s0.5-0.3,0.5-0.7C72.5,15.5,72.2,15.2,72,15.2z"/>
		<path class="st0" d="M72,49.9c-3.6,0-6.5-2.8-6.5-6.3s2.9-6.3,6.5-6.3s6.5,2.8,6.5,6.3S75.6,49.9,72,49.9z M72,42.9
			c-0.2,0-0.5,0.3-0.5,0.7s0.3,0.7,0.5,0.7s0.5-0.3,0.5-0.7S72.2,42.9,72,42.9z"/>
		<path class="st0" d="M72,80.5c-3.6,0-6.5-2.8-6.5-6.3s2.9-6.3,6.5-6.3s6.5,2.8,6.5,6.3S75.6,80.5,72,80.5z M72,73.5
			c-0.2,0-0.5,0.3-0.5,0.7s0.3,0.7,0.5,0.7s0.5-0.3,0.5-0.7S72.2,73.5,72,73.5z"/>
		<path class="st0" d="M57,19.4H18.9c-1.9,0-3.5-1.6-3.5-3.5s1.6-3.5,3.5-3.5H57c1.9,0,3.5,1.6,3.5,3.5S58.9,19.4,57,19.4z"/>
		<path class="st0" d="M57,47.9H18.9c-1.9,0-3.5-1.6-3.5-3.5s1.6-3.5,3.5-3.5H57c1.9,0,3.5,1.6,3.5,3.5S58.9,47.9,57,47.9z"/>
		<path class="st0" d="M57,77.7H18.9c-1.9,0-3.5-1.6-3.5-3.5s1.6-3.5,3.5-3.5H57c1.9,0,3.5,1.6,3.5,3.5S58.9,77.7,57,77.7z"/>
	</g>
</g>
</svg>
