<svg xmlns="http://www.w3.org/2000/svg" viewBox="0 0 92.2 91.4"><g id="Layer_2" data-name="Layer 2"><g id="Layer_1-2" data-name="Layer 1"><g id="Layer_2-2" data-name="Layer 2"><g id="Layer_1-2-2" data-name="Layer 1-2"><path d="M88,36.7H80.9a5.5,5.5,0,0,1-5.3-5.5A5.4,5.4,0,0,1,77,27.6h.1l.9-.9.3-.2h-.1l3.9-3.9c1.1-1,.9-2.8-.5-4.2l-8-7.9c-1.4-1.4-3.2-1.6-4.3-.6l-3.9,3.9h0l-.5.5-.6.7h0a5.5,5.5,0,0,1-3.7,1.4,5.4,5.4,0,0,1-5.5-5.2h0V9.6h0V4.1c0-1.5-1.4-2.6-3.4-2.6H40.4C38.5,1.5,37,2.6,37,4.1V9.6h0v1.6h.1a6,6,0,0,1-1.6,3.6,5.8,5.8,0,0,1-7.7.2h.1l-1-.9-.2-.3h0L22.8,10,22,9.3h-.9a3.3,3.3,0,0,0-2.5,1.2l-8,7.9C9.2,19.8,9,21.6,10,22.6l3.9,3.9h0l.6.4.6.7h0a5.6,5.6,0,0,1,1.5,3.7,5.4,5.4,0,0,1-5.3,5.5H4.1c-1.5,0-2.6,1.4-2.6,3.3V51.3c0,2,1.1,3.4,2.6,3.4h7.2a6.2,6.2,0,0,1,3.6,1.6,5.7,5.7,0,0,1,.2,7.6h0l-.9.9-.3.2h0L10,68.8l-.7.8v.9A3.4,3.4,0,0,0,10.6,73l7.9,8a4.2,4.2,0,0,0,2.6,1.2,2.8,2.8,0,0,0,1.7-.7l3.9-3.9h.1c.1-.3.3-.4.4-.6l.7-.6h-.1A5.5,5.5,0,0,1,31.5,75a5.7,5.7,0,0,1,5.6,5.2H37v1.7h0v5.4c0,1.5,1.5,2.6,3.4,2.6H51.7c2,0,3.4-1.1,3.4-2.6V81.9h.1a1.7,1.7,0,0,1-.1-.7v-.9h0a4.8,4.8,0,0,1,1.6-3.6,5.9,5.9,0,0,1,7.6-.2h0l.9.8.2.3h.1l3.9,3.9a2.3,2.3,0,0,0,1.6.6,3.7,3.7,0,0,0,2.6-1.2l8-7.9a3.7,3.7,0,0,0,1.2-2.6v-1l-4.5-4.5h.1l-.6-.5-.6-.6H77a5.5,5.5,0,0,1,.4-7.8,5,5,0,0,1,3.5-1.4H88c1.6,0,2.7-1.4,2.7-3.4V40.1C90.6,38.2,89.5,36.7,88,36.7ZM86.7,50.8H83.1a6.2,6.2,0,0,0-1.9-.2,9.6,9.6,0,0,0-9.7,9.3,9.7,9.7,0,0,0,4.4,8.2h0l2.5,2.4-7.2,7.2-2.4-2.3v-.3l-1.2-1.4a9.8,9.8,0,0,0-13.7,0,9.2,9.2,0,0,0-2.6,8.6h0V86H41V82.5a12.3,12.3,0,0,0,.2-1.9,9.6,9.6,0,0,0-9.9-9.5,9.5,9.5,0,0,0-7.8,4.2h0L21,77.8l-7.3-7.2,2.4-2.3.2-.2a5.7,5.7,0,0,0,1.5-1.2A9.4,9.4,0,0,0,18,53.6l-.2-.2A9.5,9.5,0,0,0,9,50.8H5.4V40.6H9l1.9.2a9.6,9.6,0,0,0,5.4-17.6h-.1l-2.5-2.5L21,13.6,23.3,16l.2.2a5.7,5.7,0,0,0,1.2,1.5A9.7,9.7,0,0,0,41,9h0V5.4H51.2V9a6.2,6.2,0,0,0-.2,1.9,9.6,9.6,0,0,0,9.9,9.5,9.5,9.5,0,0,0,7.8-4.2h0l2.5-2.5,7.2,7.2-2.3,2.3-.2.2a4.4,4.4,0,0,0-1.5,1.2A9.6,9.6,0,0,0,81.2,41l1.9-.2h3.6Z" style="fill:#f2f2f2"/><path d="M51.7,91.4H40.4c-2.8,0-4.9-1.8-4.9-4.1V79.6a4.1,4.1,0,0,0-4-3.1,4.6,4.6,0,0,0-2,.5l-1.2,1c0,.1-.1.1-.1.2l-.3.9h-.6l-3.4,3.5a4.3,4.3,0,0,1-2.8,1.1h-.2a5.4,5.4,0,0,1-3.4-1.6l-7.9-8a5.2,5.2,0,0,1-1.8-3.5h0V69L9,67.7l5-4.9a4,4,0,0,0-.2-5.5,4.4,4.4,0,0,0-2.6-1.1H4.1C1.7,56.2,0,54.1,0,51.3V40.1c0-2.7,1.8-4.8,4.1-4.8h7.2a4,4,0,0,0,3.8-4A4,4,0,0,0,14,28.6l-.5-.6-.7-.4L8.9,23.7c-1.6-1.7-1.3-4.4.6-6.4l8-7.8A5.3,5.3,0,0,1,21,7.8h1.6l1.2,1.1,5.5,5.3a4.4,4.4,0,0,0,5.2-.5,4.4,4.4,0,0,0,1-1.9V4.1c0-2.3,2.1-4.1,4.9-4.1H51.7c2.8,0,4.9,1.7,4.9,4.1v7.1a4,4,0,0,0,4,3.7,3.5,3.5,0,0,0,2.6-1l.6-.7,4.4-4.4c1.8-1.6,4.5-1.3,6.5.6l8,7.9a5.9,5.9,0,0,1,1.6,3.8,3.4,3.4,0,0,1-1.2,2.6L81.8,25h1.3L79,27.9l-1.2,1.2a3.1,3.1,0,0,0-.7,2.1,3.9,3.9,0,0,0,3.9,4h7c2.3,0,4,2,4.2,4.8V51.2c0,2.8-1.8,4.9-4.2,4.9H80.9a3.9,3.9,0,0,0-2.5,1,4.1,4.1,0,0,0-.7,5.2h.1l1,1,3.7,3.1h-.6l2.4,2.4v1.6a5.2,5.2,0,0,1-1.7,3.7L74.7,82a5.4,5.4,0,0,1-3.6,1.6,3.6,3.6,0,0,1-2.7-1l-3.5-3.5h-.2l-.6-.8-.8-.7a4.4,4.4,0,0,0-5.6.2,3.6,3.6,0,0,0-1.1,2.5v1h0l.8,2.1h-.8v3.9C56.6,89.7,54.5,91.4,51.7,91.4ZM38.5,81.7v5.6c0,.6.9,1.1,1.9,1.1H51.7c.9,0,1.9-.4,1.9-1.1v-7a6.8,6.8,0,0,1,2.1-4.7,7.4,7.4,0,0,1,9.6-.3l1.3,1.2,3.9,3.9.5.2a2.3,2.3,0,0,0,1.5-.7l8-8a2.1,2.1,0,0,0,.8-1.6V70l-4.7-4.7h-.3l-.4-.5-.7-.9-.5-.5h.2a6.9,6.9,0,0,1,1.5-8.5,7.2,7.2,0,0,1,4.5-1.8H88c.9,0,1.2-1,1.2-1.9V40.1c-.1-1-.6-1.9-1.2-1.9H80.9a7.2,7.2,0,0,1-4.7-2,7.3,7.3,0,0,1-2.1-5,7.2,7.2,0,0,1,.8-3.2h-.2l.6-.6.6-.8.4-.5h.2L81,21.5a.5.5,0,0,0,.3-.5,2.2,2.2,0,0,0-.8-1.5l-8-7.9c-.7-.8-1.7-1.1-2.2-.6L66,15.3l-.7.8a6.7,6.7,0,0,1-4.7,1.8h-.1a6.9,6.9,0,0,1-6.9-6.6V4.1c0-.7-1-1.1-1.9-1.1H40.4c-1,0-1.9.5-1.9,1.1V9.7h.2v1.6a6.9,6.9,0,0,1-2,4.5,7.3,7.3,0,0,1-9.8.3l-3.1-2.6h.5l-2.8-2.7h-.3a2.1,2.1,0,0,0-1.4.7h0l-8,7.9a1.9,1.9,0,0,0-.8,1.3.8.8,0,0,0,.2.7l3.8,3.8.6.5.7.8a6.8,6.8,0,0,1,1.9,4.7,7,7,0,0,1-6.7,7H4.1c-.6,0-1.1.8-1.1,1.8V51.3c0,.9.4,1.9,1.1,1.9h7.3a8.1,8.1,0,0,1,4.5,2,7.1,7.1,0,0,1,.3,9.7l-1.4,1.3-4,4v.2a1.8,1.8,0,0,0,.8,1.4h.1l7.9,8a2.8,2.8,0,0,0,1.5.8.9.9,0,0,0,.7-.3l2.5-2.5h-.4l2.9-2.6a6.9,6.9,0,0,1,4.7-1.8h0a7.2,7.2,0,0,1,7.1,6.6v1.6Zm14.3,5.8H39.5V82.2a8.8,8.8,0,0,0,.2-1.7,7.7,7.7,0,0,0-2.5-5.6,8.6,8.6,0,0,0-5.9-2.3,8.3,8.3,0,0,0-6.6,3.5v.3L21,79.9l-9.5-9.3,4-3.8a3.8,3.8,0,0,0,1.2-.9,8.1,8.1,0,0,0,2.5-5.6,7.9,7.9,0,0,0-2.3-5.6v-.2a8.1,8.1,0,0,0-7.5-2.2H3.9V39.1H9.2l1.8.2h0a8,8,0,0,0,8.1-8,8.1,8.1,0,0,0-3.3-6.6h-.1l-.6-.4-3.5-3.6L21,11.5l3.8,3.9a3.8,3.8,0,0,0,.9,1.2,8.3,8.3,0,0,0,11.5,0,7.9,7.9,0,0,0,2.3-7.3V3.9H52.7V9.4a6.6,6.6,0,0,0-.1,1.4A7.8,7.8,0,0,0,55,16.6a8.1,8.1,0,0,0,5.7,2.3h.2a8.3,8.3,0,0,0,6.6-3.5v-.3l3.6-3.5,9.3,9.3-3.7,3.7h-.2a2.7,2.7,0,0,0-1,.8v.2a7.6,7.6,0,0,0-2.4,5.7,8.1,8.1,0,0,0,2.3,5.7,8.2,8.2,0,0,0,5.7,2.4l2-.2h5.1v13h-7A8,8,0,0,0,73,59.9a8.2,8.2,0,0,0,3.7,6.9l.2.2,3.6,3.5-9.3,9.3L67.3,76v-.3l-.8-1a8.4,8.4,0,0,0-11.6.1A7.6,7.6,0,0,0,52.8,82v5.5Zm-10.3-3h7.3v-2a10.7,10.7,0,0,1,3.1-9.9,11.4,11.4,0,0,1,15.7,0h.1l1.6,1.8v.3l.9.8,5.1-5.1L75,69.3a11.2,11.2,0,0,1-5-9.4A11,11,0,0,1,81,49.1h.2a7.5,7.5,0,0,1,2.1.2h1.9v-7h-2l-2,.2h0a11.1,11.1,0,0,1-7.9-3.3,11,11,0,0,1-3.2-7.8,10.8,10.8,0,0,1,3.2-7.8A4.6,4.6,0,0,1,75,22.2l1.3-1.3-5.1-5.1-1.3,1.4a11.4,11.4,0,0,1-9,4.7,10.9,10.9,0,0,1-8-3.1,11.7,11.7,0,0,1-3.4-7.9,7.5,7.5,0,0,1,.2-2.1V6.9H42.5v2a11.3,11.3,0,0,1-3.1,9.9,11.5,11.5,0,0,1-15.8,0,10.9,10.9,0,0,1-1.3-1.7L21,15.7l-5.2,5L17.1,22a10.8,10.8,0,0,1,5,9.3,11.1,11.1,0,0,1-11.2,11h-.2l-1.8-.2h-2v7.2H8.8a11.4,11.4,0,0,1,10.1,3c0,.1.1.2.2.3a11.1,11.1,0,0,1,3.1,7.7A11.2,11.2,0,0,1,18.8,68a7,7,0,0,1-1.6,1.3l-1.3,1.3L21,75.7l1.3-1.4a11.4,11.4,0,0,1,9-4.7,11.1,11.1,0,0,1,8,3.1,11.7,11.7,0,0,1,3.4,7.9,12.3,12.3,0,0,1-.2,2Z" style="fill:#f2f2f2"/><path d="M46.1,59.8A14.1,14.1,0,1,1,60.2,45.7,14.1,14.1,0,0,1,46.1,59.8Zm0-21.2a7.1,7.1,0,1,0,7.1,7.1A7.1,7.1,0,0,0,46.1,38.6Z" style="fill:lime"/></g></g></g></g></svg>