<?xml version="1.0" encoding="utf-8"?>
<!-- Generator: Adobe Illustrator 25.2.3, SVG Export Plug-In . SVG Version: 6.00 Build 0)  -->
<svg version="1.1" id="Layer_1" xmlns="http://www.w3.org/2000/svg" xmlns:xlink="http://www.w3.org/1999/xlink" x="0px" y="0px"
	 viewBox="0 0 108.7 117.5" style="enable-background:new 0 0 108.7 117.5;" xml:space="preserve">
<style type="text/css">
	.st0{fill:#333333;}
</style>
<g id="Layer_2_1_">
	<g id="Layer_1-2">
		<g>
			<path class="st0" d="M63,42.3C71.4,47,74.3,57.6,69.6,66s-15.3,11.3-23.7,6.6c-8-4.5-11.1-14.5-7.1-22.8
				c2.6-5.3,7.7-8.9,13.5-9.6c1.2,0.1,2.1,1.1,2.1,2.3c-0.1,0.9-0.7,1.7-1.6,2c-4.3,0.6-8.1,3.3-10.1,7.2
				c-3.2,6.4-0.5,14.2,5.9,17.4c6.4,3.2,14.2,0.5,17.4-5.9c3.2-6.4,0.5-14.2-5.9-17.4c0,0,0,0,0,0c-0.9-0.4-1.4-1.5-1.2-2.5
				c-0.2-0.3-0.3-0.7-0.3-1.1V5.9h-8.5v14.9l-1.8,0.3c-9.2,1.5-17.4,6.5-23,13.9l-1.2,1.5l-13.5-7.8L6.3,36l13.9,8l-0.5,1.7
				c-1.2,3.6-1.8,7.4-1.8,11.2c0,4.8,1,9.6,2.8,14.1l0.8,1.8L6.3,81.5l4.3,7.4l15.5-9l1.2,1.4c5.5,6.1,12.9,10.1,21,11.5l1.8,0.3
				v18.5h8.5V93.1l1.8-0.3c8.1-1.4,15.5-5.4,21.1-11.5l1.2-1.4l15.5,9l4.2-7.4l-15.2-8.7L88,71c1.8-4.5,2.8-9.3,2.8-14.1
				c0-3.8-0.6-7.6-1.8-11.2L88.5,44l13.9-8l-4.2-7.3l-13.6,7.8L83.4,35c-3.6-4.8-8.3-8.6-13.7-11.1c-1.1-0.6-1.5-1.9-0.9-3
				c0.5-0.9,1.7-1.4,2.7-1c5.5,2.6,10.3,6.3,14.2,10.9l11.2-6.5c1.6-0.9,3.6-0.4,4.5,1.2l5.4,9.2c0.9,1.6,0.4,3.6-1.2,4.6l-11.8,6.8
				c0.9,3.5,1.4,7.2,1.4,10.8c0,4.8-0.8,9.5-2.4,14l12.8,7.4c1.6,0.9,2.1,2.9,1.2,4.5l-5.4,9.2c-0.9,1.6-2.9,2.1-4.5,1.2l-13.4-7.7
				c-5.6,5.7-12.7,9.6-20.5,11.3v15.9c0,1.8-1.5,3.3-3.3,3.3c0,0,0,0,0,0H49c-1.8,0-3.3-1.5-3.3-3.3l0,0V96.8
				c-7.8-1.7-14.9-5.6-20.5-11.3l-13.4,7.7c-1.6,0.9-3.6,0.4-4.5-1.2l-5.4-9.2c-0.9-1.6-0.3-3.6,1.3-4.5c0,0,0,0,0,0L16,70.9
				c-1.7-4.5-2.5-9.2-2.5-14c0-3.7,0.5-7.3,1.5-10.8L3.2,39.3c-1.6-0.9-2.2-3-1.3-4.6l5.4-9.2c0.9-1.6,2.9-2.1,4.5-1.2L23,30.8
				c5.8-7,13.8-11.8,22.7-13.7V4.8c0-1.8,1.5-3.3,3.3-3.3h10.7C61.5,1.5,63,3,63,4.8V42.3L63,42.3z"/>
			<path class="st0" d="M59.7,117.5H49c-2.6,0-4.8-2.2-4.8-4.8V98c-7.3-1.8-13.9-5.4-19.2-10.6l-12.4,7.1C10.3,95.8,7.3,95,6,92.8
				l-5.4-9.2c-1.3-2.3-0.5-5.3,1.8-6.6l11.7-6.8c-1.5-4.3-2.2-8.8-2.2-13.3c0-3.4,0.4-6.8,1.3-10.1L2.5,40.6
				c-2.3-1.3-3.2-4.3-1.9-6.6L6,24.7c1.3-2.3,4.3-3.1,6.5-1.7l10.1,5.9c5.7-6.4,13.2-10.9,21.5-13V4.8C44.2,2.2,46.4,0,49,0h10.7
				c2.6,0,4.8,2.2,4.8,4.8v36.6c8.5,5.3,11.4,16.5,6.4,25.3c-5.1,9.1-16.7,12.3-25.8,7.1c-8.7-4.9-12.1-15.8-7.7-24.8
				c2.8-5.8,8.3-9.7,14.7-10.4l0.1,0l0.1,0c1,0.1,1.9,0.5,2.5,1.2c0.7,0.7,1,1.7,0.9,2.7c-0.1,1.5-1.1,2.9-2.6,3.3L53,46
				c-3.9,0.5-7.2,2.9-9,6.4C41.2,58,43.6,65,49.3,67.8c5.7,2.8,12.6,0.5,15.4-5.2c2.8-5.7,0.5-12.6-5.2-15.4
				c-1.4-0.7-2.2-2.1-2.1-3.6c-0.2-0.4-0.3-0.9-0.2-1.4V7.4h-5.5v14.7l-3.1,0.5c-8.8,1.4-16.7,6.2-22,13.3l-2,2.5l-13.3-7.7
				l-2.8,4.7L22,43.3l-0.8,2.8c-1.2,3.5-1.7,7.1-1.7,10.8c0,4.7,0.9,9.2,2.7,13.5l1.3,3L8.4,82.1l2.8,4.8L26.4,78l2,2.3
				c5.2,5.8,12.4,9.7,20.1,11l3,0.5v18.3h5.5V91.8l3.1-0.5c7.7-1.3,14.9-5.2,20.2-11l2-2.3l15.3,8.9l2.7-4.8l-15.1-8.6l1.3-3
				c1.8-4.3,2.7-8.8,2.7-13.5c0-3.6-0.6-7.3-1.7-10.7l-0.8-2.9l13.6-7.8l-2.7-4.7l-13.4,7.7l-2-2.5c-3.4-4.6-8-8.3-13.2-10.7l-0.1,0
				c-0.9-0.5-1.5-1.3-1.8-2.2c-0.3-0.9-0.2-1.9,0.3-2.8c0.9-1.6,2.8-2.3,4.5-1.7l0.1,0.1c5.3,2.5,10,6,13.9,10.3L96.1,23
				c2.3-1.3,5.2-0.5,6.5,1.7l5.4,9.2c1.3,2.3,0.5,5.3-1.7,6.6l-10.8,6.3c0.8,3.3,1.2,6.7,1.2,10.1c0,4.5-0.7,9-2.1,13.3l11.7,6.8
				c2.3,1.3,3.1,4.3,1.7,6.5l-5.4,9.2c-1.3,2.3-4.3,3.1-6.5,1.7l-12.4-7.1c-5.4,5.2-12,8.8-19.2,10.6v14.7
				C64.5,115.3,62.3,117.5,59.7,117.5z M25.5,83.6l0.8,0.8c5.4,5.5,12.2,9.3,19.7,10.9l1.2,0.3v17.1c0,1,0.8,1.8,1.8,1.8h10.7
				c1,0,1.8-0.8,1.8-1.8V95.6l1.2-0.3c7.5-1.6,14.4-5.4,19.7-10.9l0.8-0.8l14.4,8.3c0.9,0.5,2,0.2,2.5-0.7l5.4-9.2
				c0.5-0.8,0.2-1.9-0.7-2.4l-13.9-8l0.4-1.2c1.6-4.3,2.3-8.9,2.3-13.5c0-3.5-0.5-7-1.4-10.4l-0.3-1.1l12.8-7.4
				c0.9-0.5,1.2-1.7,0.6-2.6l-5.4-9.2c-0.5-0.9-1.6-1.2-2.5-0.7l-12.3,7.1l-0.8-1c-3.8-4.5-8.3-8-13.6-10.5
				c-0.3-0.1-0.6,0.1-0.8,0.3c-0.2,0.3-0.1,0.7,0.2,0.9c5.6,2.6,10.5,6.6,14.2,11.5l0.4,0.5l13.8-7.9l5.7,9.9l-14.2,8.2l0.2,0.6
				c1.2,3.7,1.9,7.7,1.9,11.6c0,5.1-1,10-2.9,14.7l-0.3,0.6l15.3,8.8l-5.7,10L83,81.8l-0.4,0.5c-5.8,6.3-13.6,10.6-22,12l-0.6,0.1
				v18.7H48.6V94.4l-0.5-0.1c-8.4-1.4-16.1-5.7-21.9-12l-0.4-0.5L10.1,91l-5.8-10l15.3-8.8l-0.2-0.6c-1.9-4.7-2.9-9.7-2.9-14.7
				c0-4,0.6-7.9,1.9-11.7l0.2-0.5L4.2,36.5l5.8-9.9l13.7,7.9l0.4-0.5c5.8-7.7,14.3-12.9,23.9-14.4l0.5-0.1V4.4h11.5v37.8
				c0,0.1,0,0.2,0.1,0.3l0.3,0.5l-0.1,0.6c-0.1,0.3,0.1,0.7,0.4,0.8c7.2,3.6,10.2,12.3,6.6,19.4c-1.7,3.5-4.7,6.1-8.4,7.3
				c-3.7,1.2-7.6,1-11.1-0.7c-7.2-3.5-10.1-12.3-6.6-19.4c2.2-4.3,6.3-7.3,11.1-8c0.2-0.1,0.4-0.3,0.4-0.6c0-0.3-0.1-0.4-0.2-0.5
				c-0.1-0.1-0.2-0.2-0.4-0.2c-5.3,0.7-9.8,3.9-12.2,8.7c-3.7,7.5-0.9,16.7,6.5,20.8c7.6,4.3,17.4,1.6,21.7-6
				c4.3-7.6,1.6-17.4-6-21.7l-0.8-0.4V4.8c0-1-0.8-1.8-1.8-1.8H49c-1,0-1.8,0.8-1.8,1.8v13.5L46,18.6c-8.5,1.8-16.3,6.5-21.9,13.2
				l-0.8,1L11,25.6c-0.9-0.5-2-0.2-2.5,0.7l-5.4,9.2c-0.5,0.9-0.2,2,0.7,2.5l12.8,7.4l-0.3,1.1c-1,3.4-1.4,6.9-1.4,10.4
				c0,4.6,0.8,9.2,2.4,13.5l0.5,1.2L4,79.6c-0.9,0.5-1.2,1.6-0.7,2.5l5.4,9.2c0.5,0.9,1.6,1.2,2.5,0.7L25.5,83.6z"/>
		</g>
	</g>
</g>
</svg>
