<?xml version="1.0" encoding="utf-8"?>
<!-- Generator: Adobe Illustrator 25.2.3, SVG Export Plug-In . SVG Version: 6.00 Build 0)  -->
<svg version="1.1" id="Layer_1" xmlns="http://www.w3.org/2000/svg" xmlns:xlink="http://www.w3.org/1999/xlink" x="0px" y="0px"
	 viewBox="0 0 102.5 100.8" style="enable-background:new 0 0 102.5 100.8;" xml:space="preserve">
<style type="text/css">
	.st0{fill:#333333;}
</style>
<g id="Layer_2_1_">
	<g id="Layer_1-2">
		<path class="st0" d="M18.3,92.5h-2.5C7.1,92.5,0,85.4,0,76.7V15.8C0,7.1,7.1,0,15.8,0h60.9c8.7,0,15.8,7.1,15.8,15.8v5.5
			c0,1.9-1.6,3.5-3.5,3.5s-3.5-1.6-3.5-3.5v-5.5c0-4.9-3.9-8.8-8.8-8.8H15.8C10.9,7,7,10.9,7,15.8v60.9c0,4.9,3.9,8.8,8.8,8.8h2.5
			c1.9,0,3.5,1.6,3.5,3.5S20.2,92.5,18.3,92.5z"/>
		<path class="st0" d="M65.3,100.8c-20.5,0-37.2-16.7-37.2-37.2c0-20.5,16.7-37.2,37.2-37.2c20.5,0,37.2,16.7,37.2,37.2
			C102.5,84.1,85.8,100.8,65.3,100.8z M65.3,33.4c-16.7,0-30.2,13.5-30.2,30.2s13.5,30.2,30.2,30.2s30.2-13.5,30.2-30.2
			S82,33.4,65.3,33.4z"/>
		<path class="st0" d="M83,81.8c-0.7,0-1.4-0.2-2-0.7L63.4,68.4c-0.9-0.6-1.4-1.6-1.5-2.7l-0.6-16.4c-0.1-1.9,1.4-3.6,3.4-3.6
			c1.9-0.1,3.6,1.4,3.6,3.4l0.5,14.7L85,75.5c1.6,1.1,1.9,3.3,0.8,4.9C85.2,81.3,84.1,81.8,83,81.8z"/>
		<path class="st0" d="M40,23.6H19.5c-1.9,0-3.5-1.6-3.5-3.5s1.6-3.5,3.5-3.5H40c1.9,0,3.5,1.6,3.5,3.5S41.9,23.6,40,23.6z"/>
		<path class="st0" d="M25.8,36.7h-6.3c-1.9,0-3.5-1.6-3.5-3.5s1.6-3.5,3.5-3.5h6.3c1.9,0,3.5,1.6,3.5,3.5S27.7,36.7,25.8,36.7z"/>
	</g>
</g>
</svg>
