<?xml version="1.0" encoding="utf-8"?>
<!-- Generator: Adobe Illustrator 25.2.3, SVG Export Plug-In . SVG Version: 6.00 Build 0)  -->
<svg version="1.1" id="Layer_1" xmlns="http://www.w3.org/2000/svg" xmlns:xlink="http://www.w3.org/1999/xlink" x="0px" y="0px"
	 viewBox="0 0 94.4 85.6" style="enable-background:new 0 0 94.4 85.6;" xml:space="preserve">
<style type="text/css">
	.st0{fill:#93C2A0;}
	.st1{fill:#414042;}
	.st2{fill:#877083;}
</style>
<g id="Layer_2_1_">
	<g id="Layer_1-2">
		<path class="st0" d="M37,58.5h18.1c2.3,0,4.2,1.9,4.2,4.2V78c0,2.3-1.9,4.2-4.2,4.2H37c-2.3,0-4.2-1.9-4.2-4.2V62.7
			C32.8,60.4,34.7,58.5,37,58.5z"/>
		<path class="st1" d="M94.4,32.8c0-1.9-0.3-3.8-0.9-5.6l0,0c0-0.3,0-0.3-0.3-0.6l-8-19.8c-1.5-4.2-5.6-6.9-10-6.8H19.2
			c-4.7,0-8.3,2.4-9.7,6.5L0.9,26.8v0.6C0.3,29.3,0,31.3,0,33.3c-0.1,5.2,2.1,10.1,5.9,13.6v29.8c0,4.9,4,8.8,8.9,8.9h64
			c4.9,0,8.8-4,8.9-8.9V48.1C91.7,43.7,94.4,38.4,94.4,32.8L94.4,32.8z M78.8,77.9h-64c-0.9,0-1.7-0.7-1.8-1.6c0-0.1,0-0.1,0-0.2
			V50.5c2,0.6,4.1,0.9,6.2,0.9c5.5,0.1,10.8-2.4,14.2-6.8c3.5,4.2,8.7,6.5,14.2,6.5c5.5,0.1,10.8-2.4,14.2-6.8
			c3.6,4.2,8.9,6.7,14.5,6.8c1.6,0,3.2-0.2,4.7-0.6v25.4C80.7,76.9,79.9,77.7,78.8,77.9L78.8,77.9z M81.4,43.1
			c-1.7,0.9-3.7,1.3-5.6,1.2c-4.1,0-7.9-2.1-10-5.6c-0.3-0.3-0.3-0.9-0.9-1.5c-0.8-0.9-2-1.5-3.2-1.5c-1.3-0.1-2.5,0.5-3.2,1.5
			c-0.4,0.4-0.7,0.9-0.9,1.5c-3.4,5.5-10.7,7.3-16.2,3.9c-1.6-1-2.9-2.3-3.9-3.9c-0.3-0.3-0.3-0.9-0.9-1.2c-1.5-1.8-5.3-1.8-6.5,0
			c-0.4,0.4-0.8,0.9-0.9,1.5c-2.1,3.5-5.9,5.7-10,5.6c-1.9,0.1-3.9-0.3-5.6-1.2l0,0c-3.9-2.1-6.2-6.2-6.2-10.6
			c0-1.3,0.2-2.6,0.6-3.8v-0.3l8.5-20.1c0.3-0.6,0.6-2.1,3.2-2.1h56.1c1.5-0.2,3,0.7,3.5,2.1l8,19.8v0.3c0.3,1.3,0.5,2.5,0.6,3.8
			C87.8,36.9,85.3,40.9,81.4,43.1L81.4,43.1z"/>
		<path class="st2" d="M67.1,27.3H26.7c-2.2,0-4-1.8-4-4s1.8-4,4-4h40.4c2.2,0,4,1.8,4,4S69.3,27.3,67.1,27.3z"/>
	</g>
</g>
</svg>
