<svg xmlns="http://www.w3.org/2000/svg" viewBox="0 0 91.8 86.2"><g id="Layer_2" data-name="Layer 2"><g id="Layer_1-2" data-name="Layer 1"><g id="Layer_2-2" data-name="Layer 2"><g id="Layer_1-2-2" data-name="Layer 1-2"><path d="M72.7,86.2h-61A11.7,11.7,0,0,1,0,74.5v-61A11.7,11.7,0,0,1,11.7,1.8H52.3a3.5,3.5,0,0,1,3.5,3.5,3.5,3.5,0,0,1-3.5,3.5H11.7A4.7,4.7,0,0,0,7,13.5v61a4.7,4.7,0,0,0,4.7,4.7h61a4.7,4.7,0,0,0,4.7-4.7V35.2a3.5,3.5,0,0,1,7,0V74.5A11.7,11.7,0,0,1,72.7,86.2Z" style="fill:#f2f2f2"/><path d="M17.2,23.4a4.9,4.9,0,1,1,4.9-4.9A4.9,4.9,0,0,1,17.2,23.4Zm0-7a2.1,2.1,0,1,0,2.1,2.1A2.1,2.1,0,0,0,17.2,16.4Z" style="fill:#f2f2f2"/><path d="M32,23.4a4.9,4.9,0,1,1,4.9-4.9A4.9,4.9,0,0,1,32,23.4Zm0-7a2.1,2.1,0,1,0,2.1,2.1A2.1,2.1,0,0,0,32,16.4Z" style="fill:aqua"/><path d="M44,50.5h-.1A5.3,5.3,0,0,1,40,48.9h0a5.6,5.6,0,0,1-1.5-4.1c.2-6.7,9.9-20.2,18.9-28.5S79.8-.3,86.5,0a5.4,5.4,0,0,1,4,1.8c3.2,3.5-.3,9.6-3.6,14.5a104,104,0,0,1-12.8,15C66.3,39.1,51.3,50.5,44,50.5ZM84.1,7.4C79.6,8.7,70.3,14,62.2,21.5A78.4,78.4,0,0,0,50.1,35.7,34.5,34.5,0,0,0,46,43c4.6-1.8,14.5-8.1,23.2-16.7S82.2,11.3,84.1,7.4Z" style="fill:#f2f2f2"/><path d="M31.4,69.1c-7,0-13.4-3.7-15.3-6.3a3.7,3.7,0,0,1-.7-3.7c1-2.9,4.1-2.7,5.7-2.6a13.1,13.1,0,0,0,2.8.1V56c.1-4.3,2.1-11.6,7.2-14.1s13.1,0,16.5,6,.8,11.2-.4,13.3v.3C43.1,68.3,34.8,69.1,31.4,69.1Zm-2.6-7.2,2.6.2c2.2,0,7.4-.4,9.6-4.1.6-1.2,1.9-4.1.4-6.7s-5.4-4.1-7.1-3.2h0c-1.6.8-3.2,4.6-3.4,7.8a7.9,7.9,0,0,1-.7,4.3l-.3.5Z" style="fill:#ff0"/><rect x="53.5" y="28.5" width="7" height="7.8" transform="translate(-4.8 54.4) rotate(-49.2)" style="fill:#f2f2f2"/></g></g></g></g></svg>