<?xml version="1.0" encoding="utf-8"?>
<!-- Generator: Adobe Illustrator 25.2.3, SVG Export Plug-In . SVG Version: 6.00 Build 0)  -->
<svg version="1.1" id="Layer_1" xmlns="http://www.w3.org/2000/svg" xmlns:xlink="http://www.w3.org/1999/xlink" x="0px" y="0px"
	 viewBox="0 0 106.8 99.7" style="enable-background:new 0 0 106.8 99.7;" xml:space="preserve">
<style type="text/css">
	.st0{fill:#333333;}
</style>
<g id="Layer_2_1_">
	<g id="Layer_1-2">
		<g>
			<path class="st0" d="M11.2,0.5C5.3,0.5,0.5,5.3,0.5,11.2v57c0.1,5.9,4.8,10.6,10.7,10.7h46.3v-7.1H11.2c-2,0-3.6-1.6-3.6-3.6
				V14.4L50.4,44l42.7-29.6v28.8h7.1v-32c0-5.9-4.7-10.6-10.6-10.7H11.2z M11.2,7.6h78.4l0.6,0.2L50.4,35.4L10.5,7.8L11.2,7.6z
				 M63.6,51.4l-5.1,5.1l18.9,18.8L58.5,94.2l5.1,5l18.8-18.8l18.9,18.8l5-5L87.5,75.3l18.8-18.8l-5-5.1L82.4,70.3L63.6,51.4z"/>
			<path class="st0" d="M63.6,99.7c-0.1,0-0.3,0-0.3-0.1l-5.1-5c-0.1-0.1-0.1-0.2-0.2-0.4c0-0.1,0.1-0.3,0.1-0.4l18.5-18.5
				L58.1,56.9c-0.1-0.1-0.1-0.2-0.1-0.4s0.1-0.3,0.1-0.4l5.1-5.1c0.1-0.1,0.2-0.1,0.4-0.1c0,0,0,0,0,0c0.1,0,0.3,0.1,0.4,0.1
				l18.4,18.5L100.9,51c0.1-0.1,0.2-0.1,0.4-0.1c0.1,0,0.3,0.1,0.4,0.2l5,5.1c0.2,0.2,0.2,0.5,0,0.7L88.2,75.3l18.4,18.5
				c0.2,0.2,0.2,0.5,0,0.7l-5,5c-0.2,0.2-0.5,0.2-0.7,0L82.4,81.1L64,99.6C63.9,99.7,63.7,99.7,63.6,99.7z M59.2,94.2l4.4,4.3L82,80
				c0.2-0.2,0.5-0.2,0.7,0l18.5,18.4l4.3-4.3L87.1,75.7c-0.2-0.2-0.2-0.5,0-0.7l18.4-18.5l-4.3-4.4L82.8,70.7
				c-0.1,0.1-0.2,0.1-0.4,0.1c0,0,0,0,0,0c-0.1,0-0.3-0.1-0.4-0.1L63.6,52.1l-4.4,4.4l18.5,18.4c0.1,0.1,0.1,0.2,0.1,0.4
				s-0.1,0.3-0.1,0.4L59.2,94.2z M57.5,79.4H11.2C5.1,79.3,0.1,74.3,0,68.2v-57C0,5,5,0,11.2,0h78.4c6.1,0.1,11.1,5.1,11.1,11.2v32
				c0,0.3-0.2,0.5-0.5,0.5h-7.1c-0.3,0-0.5-0.2-0.5-0.5V15.4L50.7,44.4c-0.2,0.1-0.4,0.1-0.6,0l-42-29.1v52.8c0,1.7,1.4,3.1,3.1,3.1
				h46.3c0.3,0,0.5,0.2,0.5,0.5v7.1C58,79.2,57.8,79.4,57.5,79.4z M89.6,1H11.2C5.6,1,1,5.6,1,11.2v57c0.1,5.6,4.6,10.1,10.2,10.2
				H57v-6.1H11.2c-2.3,0-4.1-1.8-4.1-4.1V14.4c0-0.2,0.1-0.4,0.3-0.4c0.2-0.1,0.4-0.1,0.5,0l42.5,29.4L92.8,14
				c0.2-0.1,0.4-0.1,0.5,0c0.2,0.1,0.3,0.3,0.3,0.4v28.3h6.1V11.2C99.7,5.6,95.2,1.1,89.6,1z M50.4,35.9c-0.1,0-0.2,0-0.3-0.1
				L10.2,8.2C10.1,8.1,10,7.9,10,7.7c0-0.2,0.2-0.3,0.4-0.4l0.7-0.2c0,0,0.1,0,0.1,0h78.4c0.1,0,0.1,0,0.2,0l0.6,0.2
				c0.2,0.1,0.3,0.2,0.3,0.4c0,0.2-0.1,0.4-0.2,0.5L50.7,35.8C50.6,35.9,50.5,35.9,50.4,35.9z M11.8,8.1l38.6,26.7L88.9,8.1H11.8z"
				/>
		</g>
	</g>
</g>
</svg>
