<svg xmlns="http://www.w3.org/2000/svg" viewBox="0 0 77.3 77.3"><g id="Layer_2" data-name="Layer 2"><g id="Layer_1-2" data-name="Layer 1"><g id="Layer_2-2" data-name="Layer 2"><g id="Layer_1-2-2" data-name="Layer 1-2"><path d="M38.7,77.3A38.7,38.7,0,0,1,11.9,10.7l.4-.4h.1a38.8,38.8,0,0,1,52.6,0h.1l.5.5,1,1.1a38.8,38.8,0,0,1-1.2,54.7A38.2,38.2,0,0,1,38.7,77.3ZM5.8,41.4a33,33,0,0,0,65.8,0Zm55.6-5.6H71.7a34.1,34.1,0,0,0-8.3-19.2A40.4,40.4,0,0,1,58,20.4,47.8,47.8,0,0,1,61.4,35.8Zm-19.9,0H55.7a44.6,44.6,0,0,0-2.9-13,40.2,40.2,0,0,1-11.4,2.6V35.8Zm-19.8,0H35.9V25.4a41,41,0,0,1-11.4-2.6A44.4,44.4,0,0,0,21.7,35.8Zm-15.9,0H16.1a47.8,47.8,0,0,1,3.4-15.4,32.9,32.9,0,0,1-5.4-3.8A32.8,32.8,0,0,0,5.8,35.8ZM41.5,7.1V19.7a31.1,31.1,0,0,0,9-2.1A37.8,37.8,0,0,0,41.5,7.1ZM27,17.7a34,34,0,0,0,8.9,2.1V7.1A36.5,36.5,0,0,0,27,17.7Zm-8.8-5a30,30,0,0,0,3.7,2.5,39.8,39.8,0,0,1,5.3-7.6A30.8,30.8,0,0,0,18.2,12.7Zm32-5.1a44.9,44.9,0,0,1,5.3,7.6l3.7-2.5A30.8,30.8,0,0,0,50.2,7.6Z" style="fill:#f2f2f2"/><rect x="22.5" y="50.9" width="6.3" height="7" style="fill:#f2f2f2"/><rect x="34.8" y="50.9" width="7.2" height="7" style="fill:#ff8c93"/><rect x="47.5" y="50.9" width="7.4" height="7" style="fill:aqua"/></g></g></g></g></svg>