<svg xmlns="http://www.w3.org/2000/svg" xmlns:xlink="http://www.w3.org/1999/xlink" viewBox="0 0 723 482"><defs><clipPath id="clip-path"><path d="M695.7,481.9H27.3A27.4,27.4,0,0,1,0,454.5V27.4A27.4,27.4,0,0,1,27.3,0H695.7A27.4,27.4,0,0,1,723,27.4V454.5A27.4,27.4,0,0,1,695.7,481.9Z" style="fill:#fff"/></clipPath></defs><g id="Layer_2" data-name="Layer 2"><g id="Layer_1-2" data-name="Layer 1"><path d="M695.7,481.9H27.3A27.4,27.4,0,0,1,0,454.5V27.4A27.4,27.4,0,0,1,27.3,0H695.7A27.4,27.4,0,0,1,723,27.4V454.5A27.4,27.4,0,0,1,695.7,481.9Z" style="fill:#fff"/><g style="clip-path:url(#clip-path)"><rect width="228" height="482" style="fill:#ddd9d2"/></g><path d="M297.9,90.8a10.1,10.1,0,0,1-4.4-2.8l1.1-2.4a10.7,10.7,0,0,0,4.1,2.6,13.9,13.9,0,0,0,5.3,1,9.2,9.2,0,0,0,5.7-1.5,4.3,4.3,0,0,0,1.9-3.7,3.7,3.7,0,0,0-1-2.8,6.3,6.3,0,0,0-2.6-1.6l-4.1-1.3a31.3,31.3,0,0,1-5.1-1.6,7.8,7.8,0,0,1-3.3-2.4,6.3,6.3,0,0,1-1.3-4.3,6.9,6.9,0,0,1,1.1-4,8,8,0,0,1,3.5-3,13.9,13.9,0,0,1,5.8-1.1,19.9,19.9,0,0,1,4.8.7,14.8,14.8,0,0,1,4,1.9l-1,2.5a14.6,14.6,0,0,0-3.8-1.8,14.4,14.4,0,0,0-4-.6,8.9,8.9,0,0,0-5.6,1.5,4.7,4.7,0,0,0-.9,6.7,7.6,7.6,0,0,0,2.6,1.6l4.2,1.2,5.1,1.6a8.2,8.2,0,0,1,3.2,2.4,6.1,6.1,0,0,1,1.4,4.2,7.3,7.3,0,0,1-1.2,4.1,7.8,7.8,0,0,1-3.5,2.9,14.9,14.9,0,0,1-5.9,1A18.1,18.1,0,0,1,297.9,90.8Z"/><path d="M339.7,69.5V91.6h-2.8v-4a9.2,9.2,0,0,1-3.1,3.1,9.4,9.4,0,0,1-4.5,1.1,8.9,8.9,0,0,1-6.6-2.4c-1.6-1.6-2.4-4-2.4-7.1V69.5h2.8V82a7.7,7.7,0,0,0,1.7,5.3,6.1,6.1,0,0,0,4.7,1.8,6.8,6.8,0,0,0,5.3-2.1,8.4,8.4,0,0,0,2-5.9V69.5Z"/><path d="M364.1,70.7a10.4,10.4,0,0,1,3.8,4,12.9,12.9,0,0,1,0,11.7,10.4,10.4,0,0,1-3.8,4,10.9,10.9,0,0,1-5.4,1.4,9.5,9.5,0,0,1-4.8-1.2,8.6,8.6,0,0,1-3.4-3.4v4.4h-2.8V60.4h2.9V73.7a9.8,9.8,0,0,1,3.4-3.3,10.2,10.2,0,0,1,4.7-1.1A10.9,10.9,0,0,1,364.1,70.7Zm-1.6,17.4a7.3,7.3,0,0,0,2.9-3.1,9.3,9.3,0,0,0,1-4.5,9.2,9.2,0,0,0-1-4.4,7.3,7.3,0,0,0-2.9-3.1,7.7,7.7,0,0,0-4-1.1,8.1,8.1,0,0,0-4.1,1.1,7.1,7.1,0,0,0-2.8,3.1,9.3,9.3,0,0,0-1.1,4.4,9.4,9.4,0,0,0,1.1,4.5,7.1,7.1,0,0,0,2.8,3.1,8.1,8.1,0,0,0,4.1,1.1A7.7,7.7,0,0,0,362.5,88.1Z"/><path d="M375.9,91a9.9,9.9,0,0,1-3.7-1.9l1.3-2.4a12.9,12.9,0,0,0,3.3,1.8,12.5,12.5,0,0,0,4.3.7,8.3,8.3,0,0,0,4.3-.9,3.3,3.3,0,0,0,1.4-2.7,2.4,2.4,0,0,0-.8-1.9,5.5,5.5,0,0,0-2-1.1l-3.1-.7a22.3,22.3,0,0,1-4.1-1,5,5,0,0,1-2.7-1.8,4.8,4.8,0,0,1-1.1-3.5,5.5,5.5,0,0,1,2.2-4.5,9.5,9.5,0,0,1,6.2-1.8,14.5,14.5,0,0,1,4.1.6,12,12,0,0,1,3.4,1.5l-1.2,2.4a10.4,10.4,0,0,0-6.3-1.9,7.1,7.1,0,0,0-4.2,1,3.3,3.3,0,0,0-1.4,2.6,2.9,2.9,0,0,0,.8,2.1,5.5,5.5,0,0,0,2,1.1,27.4,27.4,0,0,0,3.2.7,35.3,35.3,0,0,1,4.1,1,6.5,6.5,0,0,1,2.6,1.7,4.8,4.8,0,0,1,1.1,3.4,5.3,5.3,0,0,1-2.3,4.6,10.8,10.8,0,0,1-6.4,1.7A16.4,16.4,0,0,1,375.9,91Z"/><path d="M398.1,90.4a11.5,11.5,0,0,1-3.9-4,12.8,12.8,0,0,1-1.4-5.9,12,12,0,0,1,1.4-5.7,10,10,0,0,1,3.9-4,11,11,0,0,1,5.7-1.5,11.4,11.4,0,0,1,4.9,1.1,9,9,0,0,1,3.4,3.3L410,75.2a6.8,6.8,0,0,0-2.7-2.4,7.3,7.3,0,0,0-3.5-.9,8.2,8.2,0,0,0-4.2,1.1,7.3,7.3,0,0,0-2.9,3.1,9.2,9.2,0,0,0-1,4.4,9.5,9.5,0,0,0,1,4.6,7.6,7.6,0,0,0,2.9,3,8.2,8.2,0,0,0,4.2,1.1,8.5,8.5,0,0,0,3.5-.8,8,8,0,0,0,2.7-2.5l2.1,1.5a8.3,8.3,0,0,1-3.4,3.3,11.4,11.4,0,0,1-4.9,1.1A12,12,0,0,1,398.1,90.4Z"/><path d="M423.5,70.5a9.4,9.4,0,0,1,4.9-1.2v2.9h-.6a6.8,6.8,0,0,0-5.3,2.1,8.8,8.8,0,0,0-1.9,6V91.6h-2.9V69.5h2.8v4.3A6.5,6.5,0,0,1,423.5,70.5Z"/><path d="M433.6,64a2,2,0,0,1-.6-1.5,2,2,0,0,1,.6-1.4,1.8,1.8,0,0,1,1.5-.7,2.1,2.1,0,0,1,1.5,3.6,2,2,0,0,1-3,0Zm0,5.5h2.9V91.6h-2.9Z"/><path d="M460.9,70.7a10.4,10.4,0,0,1,3.8,4,12.9,12.9,0,0,1,0,11.7,10.4,10.4,0,0,1-3.8,4,10.9,10.9,0,0,1-5.4,1.4,9.5,9.5,0,0,1-4.8-1.2,8.6,8.6,0,0,1-3.4-3.4v4.4h-2.8V60.4h2.9V73.7a9.8,9.8,0,0,1,3.4-3.3,10.5,10.5,0,0,1,4.7-1.1A10.9,10.9,0,0,1,460.9,70.7Zm-1.6,17.4a7.3,7.3,0,0,0,2.9-3.1,9.3,9.3,0,0,0,1-4.5,9.2,9.2,0,0,0-1-4.4,7.3,7.3,0,0,0-2.9-3.1,7.7,7.7,0,0,0-4-1.1,8.1,8.1,0,0,0-4.1,1.1,7.1,7.1,0,0,0-2.8,3.1,9.3,9.3,0,0,0-1.1,4.4,9.4,9.4,0,0,0,1.1,4.5,7.1,7.1,0,0,0,2.8,3.1,8.1,8.1,0,0,0,4.1,1.1A7.7,7.7,0,0,0,459.3,88.1Z"/><path d="M484.7,88.4a8.6,8.6,0,0,0,2.9-2.1l1.6,1.9a9.2,9.2,0,0,1-3.5,2.7,11.9,11.9,0,0,1-4.7.9,11.1,11.1,0,0,1-5.8-1.5,10.3,10.3,0,0,1-4-4,12.5,12.5,0,0,1,0-11.5,9,9,0,0,1,3.7-4,10,10,0,0,1,5.4-1.5,9.8,9.8,0,0,1,5.1,1.4,9.4,9.4,0,0,1,3.7,3.7,11,11,0,0,1,1.4,5.5L473,83.4a8.2,8.2,0,0,0,3,4.2,8.8,8.8,0,0,0,8.7.8ZM476.3,73a8.4,8.4,0,0,0-2.7,2.9,9.2,9.2,0,0,0-1,4.4v1l15.1-3.1a8.4,8.4,0,0,0-2.5-4.5,7.1,7.1,0,0,0-4.9-1.8A7.7,7.7,0,0,0,476.3,73Z"/><path d="M517.5,90.2a6.7,6.7,0,0,1-2,1.2,6.9,6.9,0,0,1-2.5.4,6.2,6.2,0,0,1-4.6-1.7,6.4,6.4,0,0,1-1.6-4.7V64.7h2.9v4.8h6.4V72h-6.4V85.2a4.5,4.5,0,0,0,.9,3,3.3,3.3,0,0,0,2.7,1,4.3,4.3,0,0,0,3.2-1.1Z"/><path d="M525.1,90.3a9.4,9.4,0,0,1-3.9-4,12.5,12.5,0,0,1,0-11.5,8.9,8.9,0,0,1,3.9-4,10.3,10.3,0,0,1,5.5-1.5,10.7,10.7,0,0,1,5.6,1.5,9.2,9.2,0,0,1,3.8,4,11,11,0,0,1,1.4,5.7,11.1,11.1,0,0,1-1.4,5.8,9.8,9.8,0,0,1-3.8,4,10.7,10.7,0,0,1-5.6,1.5A10.3,10.3,0,0,1,525.1,90.3Zm9.6-2.2a7.1,7.1,0,0,0,2.8-3.1,9.3,9.3,0,0,0,1-4.5,9.2,9.2,0,0,0-1-4.4,7.1,7.1,0,0,0-2.8-3.1,8.1,8.1,0,0,0-4.1-1.1,7.7,7.7,0,0,0-4,1.1,7.3,7.3,0,0,0-2.9,3.1,9.2,9.2,0,0,0-1,4.4,9.3,9.3,0,0,0,1,4.5,7.3,7.3,0,0,0,2.9,3.1,7.7,7.7,0,0,0,4,1.1A8.1,8.1,0,0,0,534.7,88.1Z"/><path d="M561.1,90.3a9.4,9.4,0,0,1-3.9-4,11.1,11.1,0,0,1-1.4-5.8,11,11,0,0,1,1.4-5.7,8.9,8.9,0,0,1,3.9-4,10.3,10.3,0,0,1,5.5-1.5,10.7,10.7,0,0,1,5.6,1.5,9.2,9.2,0,0,1,3.8,4,11,11,0,0,1,1.4,5.7,11.1,11.1,0,0,1-1.4,5.8,9.8,9.8,0,0,1-3.8,4,10.7,10.7,0,0,1-5.6,1.5A10.3,10.3,0,0,1,561.1,90.3Zm9.6-2.2a7.1,7.1,0,0,0,2.8-3.1,9.3,9.3,0,0,0,1-4.5,9.2,9.2,0,0,0-1-4.4,7.1,7.1,0,0,0-2.8-3.1,8.2,8.2,0,0,0-8.2,0,7.1,7.1,0,0,0-2.8,3.1,9.2,9.2,0,0,0-1,4.4,9.3,9.3,0,0,0,1,4.5,7.1,7.1,0,0,0,2.8,3.1,8.2,8.2,0,0,0,8.2,0Z"/><path d="M602.5,69.5V91.6h-2.8v-4a8.4,8.4,0,0,1-3.1,3.1,9.4,9.4,0,0,1-4.5,1.1,8.9,8.9,0,0,1-6.6-2.4c-1.6-1.6-2.4-4-2.4-7.1V69.5H586V82a7.6,7.6,0,0,0,1.6,5.3,6.2,6.2,0,0,0,4.8,1.8,6.9,6.9,0,0,0,5.3-2.1,8.4,8.4,0,0,0,1.9-5.9V69.5Z"/><path d="M616.3,70.5a9.5,9.5,0,0,1,5-1.2v2.9h-.7a6.8,6.8,0,0,0-5.3,2.1,8.8,8.8,0,0,0-1.9,6V91.6h-2.9V69.5h2.8v4.3A6.9,6.9,0,0,1,616.3,70.5Z"/><path d="M312.8,122.1c1.6,1.6,2.4,4,2.4,7.1V142h-2.9V129.5a7.7,7.7,0,0,0-1.7-5.3,6.1,6.1,0,0,0-4.7-1.8,7,7,0,0,0-5.4,2.1,8,8,0,0,0-2,5.9V142h-2.9V119.9h2.7V124a8.5,8.5,0,0,1,3.3-3.2,10.6,10.6,0,0,1,4.8-1.1A8.6,8.6,0,0,1,312.8,122.1Z"/><path d="M335.8,138.8a7.7,7.7,0,0,0,2.9-2.2l1.6,2a10.6,10.6,0,0,1-3.5,2.7,11.9,11.9,0,0,1-4.7.9,11.1,11.1,0,0,1-5.8-1.5,10.3,10.3,0,0,1-4-4,12.1,12.1,0,0,1-1.4-5.8,12.4,12.4,0,0,1,1.4-5.8,10.2,10.2,0,0,1,3.7-4,10.9,10.9,0,0,1,5.4-1.4,10.4,10.4,0,0,1,5.2,1.4,9.8,9.8,0,0,1,3.6,3.7,11,11,0,0,1,1.4,5.5l-17.4,3.5a7.5,7.5,0,0,0,2.9,4.2,9.5,9.5,0,0,0,8.7.8Zm-8.3-15.4a7.8,7.8,0,0,0-2.8,2.9,9.2,9.2,0,0,0-1,4.4v.9l15.1-3a8.4,8.4,0,0,0-2.5-4.5,6.9,6.9,0,0,0-4.9-1.8A6.6,6.6,0,0,0,327.5,123.4Z"/><path d="M380.3,119.9v12.2c0,3.3-.7,5.8-2.2,7.5a8.7,8.7,0,0,1-6.7,2.6,9.6,9.6,0,0,1-4.7-1.1,8.1,8.1,0,0,1-2.9-3.6,6.8,6.8,0,0,1-2.9,3.5,9.7,9.7,0,0,1-11.3-1.4c-1.5-1.7-2.3-4.2-2.3-7.5V119.9h2.9v12c0,2.6.5,4.5,1.4,5.7a5.4,5.4,0,0,0,4.6,1.9,5.6,5.6,0,0,0,4.7-1.9c1-1.3,1.5-3.2,1.5-5.8V119.9h2.9v11.9c0,2.6.5,4.5,1.5,5.8a6.5,6.5,0,0,0,9.2,0q1.5-1.8,1.5-5.7v-12Z"/><path d="M388.9,141.4a11.6,11.6,0,0,1-3.7-1.9l1.3-2.4a12.9,12.9,0,0,0,3.3,1.8,15.4,15.4,0,0,0,4.2.7,7.5,7.5,0,0,0,4.4-1,3,3,0,0,0,1.4-2.6,2.4,2.4,0,0,0-.8-1.9,4.3,4.3,0,0,0-2-1.1l-3.1-.7a35.3,35.3,0,0,1-4.1-1,6.4,6.4,0,0,1-2.7-1.8A4.8,4.8,0,0,1,386,126a5.5,5.5,0,0,1,2.2-4.5,9.5,9.5,0,0,1,6.2-1.8,15.1,15.1,0,0,1,4.1.6,12,12,0,0,1,3.4,1.5l-1.3,2.4a9.9,9.9,0,0,0-6.2-1.9,7.1,7.1,0,0,0-4.2,1,3.1,3.1,0,0,0-1.4,2.6,2.6,2.6,0,0,0,.8,2,4.5,4.5,0,0,0,2,1.2l3.2.7a35.3,35.3,0,0,1,4.1,1,5.6,5.6,0,0,1,2.6,1.7,4.7,4.7,0,0,1,1.1,3.4,5.4,5.4,0,0,1-2.3,4.6,11.2,11.2,0,0,1-6.5,1.7A16.2,16.2,0,0,1,388.9,141.4Z"/><path d="M409.5,140.5a6.4,6.4,0,0,1-1.6-4.7v-25h2.9v24.8a4.5,4.5,0,0,0,.9,3,3.3,3.3,0,0,0,2.7,1,3.8,3.8,0,0,0,1.9-.4l.2,2.5a7.5,7.5,0,0,1-2.6.5A5.7,5.7,0,0,1,409.5,140.5Z"/><path d="M432.8,138.8a7.7,7.7,0,0,0,2.9-2.2l1.6,2a11,11,0,0,1-3.6,2.7,11.4,11.4,0,0,1-4.6.9,11.1,11.1,0,0,1-5.8-1.5,9.6,9.6,0,0,1-4-4,12.1,12.1,0,0,1-1.4-5.8,12.4,12.4,0,0,1,1.3-5.8,10.4,10.4,0,0,1,3.8-4,10.9,10.9,0,0,1,5.4-1.4,9.8,9.8,0,0,1,5.1,1.4,10.1,10.1,0,0,1,3.7,3.7,11,11,0,0,1,1.4,5.5l-17.5,3.5a7.6,7.6,0,0,0,3,4.2,8.4,8.4,0,0,0,5,1.5A8.7,8.7,0,0,0,432.8,138.8Zm-8.4-15.4a6.9,6.9,0,0,0-2.7,2.9,9.2,9.2,0,0,0-1,4.4v.9l15-3a7.7,7.7,0,0,0-2.4-4.5,7.2,7.2,0,0,0-4.9-1.8A6.9,6.9,0,0,0,424.4,123.4Z"/><path d="M455,140.6a6.7,6.7,0,0,1-2,1.2,10.1,10.1,0,0,1-2.5.4,6.2,6.2,0,0,1-4.6-1.7,6.4,6.4,0,0,1-1.6-4.7V115.1h2.8v4.8h6.5v2.5h-6.5v13.2a4.5,4.5,0,0,0,1,3,3.3,3.3,0,0,0,2.7,1,4.5,4.5,0,0,0,3.1-1.1Z"/><path d="M470.7,140.6a6.7,6.7,0,0,1-2,1.2,10.1,10.1,0,0,1-2.5.4,6.2,6.2,0,0,1-4.6-1.7,6.4,6.4,0,0,1-1.6-4.7V115.1h2.8v4.8h6.5v2.5h-6.5v13.2a4.5,4.5,0,0,0,1,3,3.3,3.3,0,0,0,2.7,1,4.5,4.5,0,0,0,3.1-1.1Z"/><path d="M487.9,138.8a7.4,7.4,0,0,0,2.8-2.2l1.6,2a10.6,10.6,0,0,1-3.5,2.7,12.3,12.3,0,0,1-10.5-.6,9.4,9.4,0,0,1-3.9-4,11.1,11.1,0,0,1-1.4-5.8,12.4,12.4,0,0,1,1.3-5.8,10.4,10.4,0,0,1,3.8-4,10.9,10.9,0,0,1,5.4-1.4,10,10,0,0,1,8.7,5.1,11,11,0,0,1,1.5,5.5l-17.5,3.5a7.5,7.5,0,0,0,2.9,4.2,8.8,8.8,0,0,0,5.1,1.5A9,9,0,0,0,487.9,138.8Zm-8.4-15.4a7.8,7.8,0,0,0-2.8,2.9,10.5,10.5,0,0,0-.9,4.4v.9l15-3a7.3,7.3,0,0,0-2.5-4.5,6.8,6.8,0,0,0-4.8-1.8A6.9,6.9,0,0,0,479.5,123.4Z"/><path d="M505.3,120.9a9.7,9.7,0,0,1,5-1.2v2.9h-.7a6.9,6.9,0,0,0-5.3,2.1,9,9,0,0,0-1.9,6V142h-2.8V119.9h2.7v4.3A6.9,6.9,0,0,1,505.3,120.9Z"/><path d="M306.4,211.8a7.3,7.3,0,0,1-2.5,1.3,12.7,12.7,0,0,1-3.4.5,9.7,9.7,0,0,1-3.6-.6,4.9,4.9,0,0,1-2.1-1.6,3.6,3.6,0,0,1-.8-2.3,3.8,3.8,0,0,1,.8-2.3,4.5,4.5,0,0,1,1.9-1.4,3.7,3.7,0,0,1-1.5-1.3,4.6,4.6,0,0,1-.5-2.1,3.4,3.4,0,0,1,.7-2.2,4.1,4.1,0,0,1,2-1.6,8.6,8.6,0,0,1,3.4-.6,12.4,12.4,0,0,1,2.7.3,6.9,6.9,0,0,1,2.3.9l-.6,1.8a9.2,9.2,0,0,0-4.3-1.1,6,6,0,0,0-3,.7,2.4,2.4,0,0,0-1.1,1.9,2.2,2.2,0,0,0,.8,1.8,3.9,3.9,0,0,0,2.3.6h3.9v2h-4a4.8,4.8,0,0,0-2.6.6,2,2,0,0,0-1,1.9,2.4,2.4,0,0,0,1.1,2,6.8,6.8,0,0,0,3.3.7,8.7,8.7,0,0,0,2.8-.5,6.2,6.2,0,0,0,2.3-1.2Z"/><path d="M326.5,202.8a5.2,5.2,0,0,1,1.2,3.8v6.8h-2v-6.6a4,4,0,0,0-.8-2.6,2.9,2.9,0,0,0-2.2-.8,3.2,3.2,0,0,0-2.5,1,4.2,4.2,0,0,0-.9,2.9v6.1h-2.1v-6.6a3.5,3.5,0,0,0-.8-2.6,2.9,2.9,0,0,0-2.1-.8,3,3,0,0,0-2.5,1,3.8,3.8,0,0,0-1,2.9v6.1h-2V201.6h2v1.7a4.4,4.4,0,0,1,1.6-1.4,5.6,5.6,0,0,1,2.3-.4,4.7,4.7,0,0,1,2.4.5,4.1,4.1,0,0,1,1.6,1.6,4.7,4.7,0,0,1,1.8-1.6,6.7,6.7,0,0,1,2.6-.5A4.5,4.5,0,0,1,326.5,202.8Z"/><path d="M342.4,201.6v11.8h-2v-1.9a4.3,4.3,0,0,1-1.8,1.5,4.3,4.3,0,0,1-2.3.5,6,6,0,0,1-3-.7,5.8,5.8,0,0,1-2-2.1,6.9,6.9,0,0,1-.8-3.2,6.6,6.6,0,0,1,.8-3.2,5.8,5.8,0,0,1,2-2.1,6,6,0,0,1,3-.7,5.9,5.9,0,0,1,2.3.4,4.9,4.9,0,0,1,1.7,1.5v-1.8Zm-3.9,9.5a3.5,3.5,0,0,0,1.3-1.4,4.2,4.2,0,0,0,.5-2.2,4,4,0,0,0-.5-2.2,4.7,4.7,0,0,0-1.3-1.5,4.2,4.2,0,0,0-4,0,5,5,0,0,0-1.4,1.5,5.1,5.1,0,0,0-.5,2.2,5.4,5.4,0,0,0,.5,2.2,3.8,3.8,0,0,0,1.4,1.4,3.6,3.6,0,0,0,4,0Z"/><path d="M346.3,198.9a1.4,1.4,0,0,1,0-2,1.3,1.3,0,0,1,1-.4,1.4,1.4,0,0,1,1.4,1.4,1.3,1.3,0,0,1-.4,1,1.2,1.2,0,0,1-1,.4A1.3,1.3,0,0,1,346.3,198.9Zm0,2.7h2.1v11.8h-2.1Z"/><path d="M353.2,212.6a3.7,3.7,0,0,1-.9-2.7V196.8h2.1v12.9a2.1,2.1,0,0,0,.4,1.5,1.4,1.4,0,0,0,1.3.5,1.6,1.6,0,0,0,1-.2l.2,1.8a3.9,3.9,0,0,1-1.5.2A3.6,3.6,0,0,1,353.2,212.6Z"/><path d="M376.4,199.4a7.1,7.1,0,0,1,1.7,5.2v8.8H376v-4.3h-8.7v4.3h-2.1v-8.8a7.6,7.6,0,0,1,1.7-5.2,6.4,6.4,0,0,1,4.7-1.8A6.3,6.3,0,0,1,376.4,199.4Zm-.4,7.8v-2.8a4.9,4.9,0,0,0-1.2-3.6,4.1,4.1,0,0,0-3.2-1.2,4.4,4.4,0,0,0-3.2,1.2,5.3,5.3,0,0,0-1.1,3.6v2.8Z"/><path d="M393,196.8v16.6h-2v-1.9a3.5,3.5,0,0,1-1.7,1.5,4.6,4.6,0,0,1-2.3.5,5.8,5.8,0,0,1-3-.7,5.3,5.3,0,0,1-2.1-2.1,6.8,6.8,0,0,1-.7-3.2,6.6,6.6,0,0,1,.7-3.2,5.3,5.3,0,0,1,2.1-2.1,5.8,5.8,0,0,1,3-.7,5.4,5.4,0,0,1,2.2.4,4.1,4.1,0,0,1,1.7,1.5v-6.6Zm-3.9,14.3a3.8,3.8,0,0,0,1.4-1.4,5.4,5.4,0,0,0,.5-2.2,5.1,5.1,0,0,0-.5-2.2,5,5,0,0,0-1.4-1.5,4.6,4.6,0,0,0-2-.5,3.8,3.8,0,0,0-1.9.5,4.1,4.1,0,0,0-1.9,3.7,4.2,4.2,0,0,0,.5,2.2,3.2,3.2,0,0,0,1.4,1.4,3.1,3.1,0,0,0,1.9.6A3.6,3.6,0,0,0,389.1,211.1Z"/><path d="M407.7,196.8v16.6h-2v-1.9A3.5,3.5,0,0,1,404,213a4.7,4.7,0,0,1-2.4.5,5.4,5.4,0,0,1-2.9-.7,5.3,5.3,0,0,1-2.1-2.1,6.8,6.8,0,0,1-.7-3.2,6.6,6.6,0,0,1,.7-3.2,5.3,5.3,0,0,1,2.1-2.1,5.4,5.4,0,0,1,2.9-.7,5.6,5.6,0,0,1,2.3.4,4.1,4.1,0,0,1,1.7,1.5v-6.6Zm-3.9,14.3a3.8,3.8,0,0,0,1.4-1.4,5.4,5.4,0,0,0,.4-2.2,5.1,5.1,0,0,0-.4-2.2,5,5,0,0,0-1.4-1.5,4.2,4.2,0,0,0-4,0,4.7,4.7,0,0,0-1.3,1.5,4,4,0,0,0-.5,2.2,4.2,4.2,0,0,0,.5,2.2,3.5,3.5,0,0,0,1.3,1.4,3.6,3.6,0,0,0,4,0Z"/><path d="M415.2,202a5,5,0,0,1,2.6-.5v2h-.5a3.7,3.7,0,0,0-2.7,1.1,4,4,0,0,0-.9,2.9v5.9h-2.1V201.6h2v2A4.1,4.1,0,0,1,415.2,202Z"/><path d="M428.6,210.2l1.2,1.4a7.5,7.5,0,0,1-2,1.5,7.8,7.8,0,0,1-5.7-.3,5.2,5.2,0,0,1-2.2-2.2,6.4,6.4,0,0,1,0-6.2,5.1,5.1,0,0,1,5-2.9,5.5,5.5,0,0,1,2.8.7,5.5,5.5,0,0,1,2,2,6.2,6.2,0,0,1,.8,3.1l-9.1,1.8a3.6,3.6,0,0,0,1.5,1.9,4.8,4.8,0,0,0,2.4.7A4,4,0,0,0,428.6,210.2Zm-5.7-6.4a3.5,3.5,0,0,0-1.3,1.4,5.1,5.1,0,0,0-.5,2.2v.2l7.3-1.4a3.2,3.2,0,0,0-1.2-2.1,3.2,3.2,0,0,0-2.3-.8A3.3,3.3,0,0,0,422.9,203.8Z"/><path d="M434,213.2a6.9,6.9,0,0,1-2.1-1l.9-1.7,1.8.9a8.3,8.3,0,0,0,2.2.3c1.8,0,2.7-.5,2.7-1.6a1,1,0,0,0-.4-.9,1.9,1.9,0,0,0-.9-.4l-1.5-.3-2.3-.6a3.8,3.8,0,0,1-1.5-.9,3.2,3.2,0,0,1-.6-2,3,3,0,0,1,1.3-2.6,5.8,5.8,0,0,1,3.5-.9l2.2.2a6.8,6.8,0,0,1,1.9.8l-.9,1.7a5.8,5.8,0,0,0-3.3-.9,4,4,0,0,0-2,.4,1.5,1.5,0,0,0-.7,1.2,1.3,1.3,0,0,0,.4.9,1.9,1.9,0,0,0,1,.5l1.6.4a9,9,0,0,1,2.2.5,3.1,3.1,0,0,1,1.5,1,2.4,2.4,0,0,1,.6,1.8,3.2,3.2,0,0,1-1.3,2.6,6.5,6.5,0,0,1-3.7.9A10.9,10.9,0,0,1,434,213.2Z"/><path d="M444.7,213.2a7.5,7.5,0,0,1-2-1l.9-1.7,1.8.9a8.3,8.3,0,0,0,2.2.3c1.8,0,2.7-.5,2.7-1.6a1,1,0,0,0-.4-.9,1.9,1.9,0,0,0-.9-.4l-1.5-.3-2.3-.6a3.8,3.8,0,0,1-1.5-.9,3.2,3.2,0,0,1-.6-2,3,3,0,0,1,1.3-2.6,5.7,5.7,0,0,1,3.4-.9l2.3.2a6.8,6.8,0,0,1,1.9.8l-.9,1.7a5.8,5.8,0,0,0-3.3-.9,3.7,3.7,0,0,0-2,.4,1.5,1.5,0,0,0-.7,1.2,1.3,1.3,0,0,0,.4.9,1.9,1.9,0,0,0,1,.5l1.6.4a10.3,10.3,0,0,1,2.2.5,3.1,3.1,0,0,1,1.5,1,2.4,2.4,0,0,1,.6,1.8,3,3,0,0,1-1.4,2.6,6,6,0,0,1-3.6.9A12.4,12.4,0,0,1,444.7,213.2Z"/><path d="M651.2,287.2h-355c-2.1,0-3.8-3.1-3.8-6.9V236.7c0-3.8,1.7-6.9,3.8-6.9h355c2.1,0,3.8,3.1,3.8,6.9v43.6C655,284.1,653.3,287.2,651.2,287.2Z" style="fill:none;stroke:gray;stroke-miterlimit:10;stroke-width:0.989203740898075px"/><path d="M296.6,375.4a3.6,3.6,0,0,1-3.6-3.5V326.8a3.6,3.6,0,0,1,3.6-3.6H516.1a3.6,3.6,0,0,1,3.5,3.6v45.1a3.5,3.5,0,0,1-3.5,3.5Z" style="fill:#333"/><path d="M516.1,323.8a3,3,0,0,1,3,3v45.1a3.1,3.1,0,0,1-3,3H296.6a3,3,0,0,1-3-3V326.8a2.9,2.9,0,0,1,3-3H516.1m0-1.1H296.6a4.1,4.1,0,0,0-4.1,4.1v45.1a4.1,4.1,0,0,0,4.1,4.1H516.1a4.1,4.1,0,0,0,4.1-4.1V326.8a4.1,4.1,0,0,0-4.1-4.1Z"/><path d="M363,356.1a8.8,8.8,0,0,1-2.7-1.6l.9-1.9a5.7,5.7,0,0,0,2.4,1.4,7.3,7.3,0,0,0,3,.6,6,6,0,0,0,3-.7,2.2,2.2,0,0,0,1-1.9,2.5,2.5,0,0,0-.5-1.5,4.7,4.7,0,0,0-1.4-.8l-2.3-.7-3-.9a5.2,5.2,0,0,1-1.9-1.4,4,4,0,0,1-.8-2.6,4,4,0,0,1,.7-2.4,4.2,4.2,0,0,1,2.1-1.8,8.8,8.8,0,0,1,3.5-.6,13.3,13.3,0,0,1,2.8.3,6.7,6.7,0,0,1,2.4,1.2l-.7,1.9a10.7,10.7,0,0,0-2.2-1,6.6,6.6,0,0,0-2.3-.4,4.7,4.7,0,0,0-3,.8,2.2,2.2,0,0,0-1,1.9,1.7,1.7,0,0,0,.6,1.4,3,3,0,0,0,1.3.9l2.3.6,3,1a4.3,4.3,0,0,1,1.9,1.4,3.3,3.3,0,0,1,.8,2.5,4.5,4.5,0,0,1-.7,2.5,5.1,5.1,0,0,1-2.1,1.7,9.1,9.1,0,0,1-3.5.7A10.5,10.5,0,0,1,363,356.1Z" style="fill:#f2f2f2"/><path d="M376,340.7a1.7,1.7,0,0,1,0-2.2,1.5,1.5,0,0,1,1.1-.4,1.4,1.4,0,0,1,1.1.4,1.4,1.4,0,0,1,.5,1.1,1.6,1.6,0,0,1-.5,1.1,1.4,1.4,0,0,1-1.1.4A1.5,1.5,0,0,1,376,340.7Zm0,2.9h2.3v12.9H376Z" style="fill:#f2f2f2"/><path d="M394.4,343.6v11.1c0,2.3-.5,3.9-1.6,5a6.5,6.5,0,0,1-4.8,1.6,9.7,9.7,0,0,1-3.4-.5,6.1,6.1,0,0,1-2.5-1.4l1-1.8a6.6,6.6,0,0,0,2.2,1.2,7.5,7.5,0,0,0,2.6.5,4.3,4.3,0,0,0,3.2-1.1,4.4,4.4,0,0,0,1.1-3.2v-1.1a4.8,4.8,0,0,1-2,1.5,5.3,5.3,0,0,1-2.5.5,5.7,5.7,0,0,1-3.2-.8,5.4,5.4,0,0,1-2.3-2.2,6.6,6.6,0,0,1-.8-3.2,7.3,7.3,0,0,1,.8-3.3,6.9,6.9,0,0,1,2.3-2.2,6.6,6.6,0,0,1,3.2-.7,5.8,5.8,0,0,1,2.6.5,5.3,5.3,0,0,1,2,1.6v-2Zm-4.3,9.7a3.6,3.6,0,0,0,1.6-1.4,5.4,5.4,0,0,0,.5-2.2,3.8,3.8,0,0,0-1.2-3,4.1,4.1,0,0,0-3-1.2,4.1,4.1,0,0,0-3.1,1.2,3.8,3.8,0,0,0-1.2,3,5.4,5.4,0,0,0,.5,2.2,4,4,0,0,0,1.5,1.4,4.4,4.4,0,0,0,2.3.6A3.7,3.7,0,0,0,390.1,353.3Z" style="fill:#f2f2f2"/><path d="M409.1,344.9a5.6,5.6,0,0,1,1.4,4.1v7.5h-2.3v-7.2a4.4,4.4,0,0,0-.8-2.8,3.3,3.3,0,0,0-2.5-.9,3.6,3.6,0,0,0-2.9,1.1,4.3,4.3,0,0,0-1.1,3.1v6.7h-2.2V343.6h2.2v1.9a4.5,4.5,0,0,1,1.8-1.5,5.5,5.5,0,0,1,2.6-.5A4.8,4.8,0,0,1,409.1,344.9Z" style="fill:#f2f2f2"/><path d="M423,354.7c-1.3-1.3-1.9-3.1-1.9-5.6v-9.6h2.4V349c0,3.7,1.5,5.5,4.6,5.5a4.3,4.3,0,0,0,3.4-1.4,5.9,5.9,0,0,0,1.2-4.1v-9.5H435v9.6a7.9,7.9,0,0,1-1.8,5.6,7.5,7.5,0,0,1-10.2,0Z" style="fill:#f2f2f2"/><path d="M449.3,344.3a5.4,5.4,0,0,1,2.2,2.3,6.3,6.3,0,0,1,.8,3.4,6.7,6.7,0,0,1-.8,3.5,6.1,6.1,0,0,1-2.2,2.3,7,7,0,0,1-3.3.8,6.4,6.4,0,0,1-2.4-.5,5.8,5.8,0,0,1-1.9-1.6v6.7h-2.2V343.6h2.1v2a5.8,5.8,0,0,1,1.9-1.6,5.3,5.3,0,0,1,2.5-.5A6,6,0,0,1,449.3,344.3ZM448,354a4.6,4.6,0,0,0,1.5-1.6,4.8,4.8,0,0,0,.6-2.4,4.1,4.1,0,0,0-.6-2.3,3.9,3.9,0,0,0-1.5-1.6,3.7,3.7,0,0,0-2.1-.6,4.3,4.3,0,0,0-2.2.6,4.6,4.6,0,0,0-1.5,1.6,5.2,5.2,0,0,0-.5,2.3,6,6,0,0,0,.5,2.4,4.6,4.6,0,0,0,1.5,1.6,4.3,4.3,0,0,0,2.2.6A3.7,3.7,0,0,0,448,354Z" style="fill:#f2f2f2"/><path d="M389.5,450.7a3.9,3.9,0,0,1-1.8-1.8,4.8,4.8,0,0,1,0-5,3.9,3.9,0,0,1,1.8-1.8,5.5,5.5,0,0,1,2.5-.7,4.9,4.9,0,0,1,2.5.7,3.9,3.9,0,0,1,1.8,1.8,4.3,4.3,0,0,1,.7,2.5,5.5,5.5,0,0,1-.7,2.5,3.9,3.9,0,0,1-1.8,1.8,4.8,4.8,0,0,1-5,0Zm4.7-.5a3.5,3.5,0,0,0,1.6-1.6,4.3,4.3,0,0,0,.6-2.2,5.6,5.6,0,0,0-.5-2.3,6.1,6.1,0,0,0-1.6-1.6,5.6,5.6,0,0,0-2.3-.5,5.1,5.1,0,0,0-2.2.5,3.7,3.7,0,0,0-1.6,1.7,4.3,4.3,0,0,0,0,4.4,3.3,3.3,0,0,0,1.5,1.6,4.6,4.6,0,0,0,2.3.6A4,4,0,0,0,394.2,450.2Zm-3.6-1.3a1.9,1.9,0,0,1-1-1,3,3,0,0,1,0-3,2.7,2.7,0,0,1,1-1.1,4,4,0,0,1,1.5-.3,2.8,2.8,0,0,1,1.3.3,2.5,2.5,0,0,1,1,.8l-.6.4a1.6,1.6,0,0,0-.8-.6l-.9-.2a2,2,0,0,0-1.5.6,2.4,2.4,0,0,0,0,3.2,2,2,0,0,0,1.5.6l.9-.2a1.6,1.6,0,0,0,.8-.6l.6.4a2.5,2.5,0,0,1-1,.8,2.8,2.8,0,0,1-1.3.3A2.8,2.8,0,0,1,390.6,448.9Z"/><path d="M408.8,450.4v.9h-6.9v-.7l4.1-4a5.8,5.8,0,0,0,1.1-1.3,5.2,5.2,0,0,0,.2-1.1,1.7,1.7,0,0,0-.6-1.4,2.6,2.6,0,0,0-1.7-.5,3.7,3.7,0,0,0-2.7,1.1l-.7-.6a3.1,3.1,0,0,1,1.5-1,4.5,4.5,0,0,1,2-.4,3.6,3.6,0,0,1,2.4.7,2.3,2.3,0,0,1,.9,1.9,2.6,2.6,0,0,1-.4,1.5,5.1,5.1,0,0,1-1.2,1.6l-3.4,3.3Z"/><path d="M411.9,450.8a4.7,4.7,0,0,1-1.4-1.7,7.5,7.5,0,0,1,0-5.4,4.7,4.7,0,0,1,1.4-1.7,3.6,3.6,0,0,1,2-.6,3.7,3.7,0,0,1,2.1.6,4.7,4.7,0,0,1,1.4,1.7,7.5,7.5,0,0,1,0,5.4,4.7,4.7,0,0,1-1.4,1.7,3.7,3.7,0,0,1-2.1.6A3.6,3.6,0,0,1,411.9,450.8Zm3.6-.8a3.9,3.9,0,0,0,1-1.4,8.2,8.2,0,0,0,0-4.4,3.9,3.9,0,0,0-1-1.4,3,3,0,0,0-1.6-.5,3,3,0,0,0-1.5.5,3.9,3.9,0,0,0-1,1.4,6.3,6.3,0,0,0,0,4.4,3.9,3.9,0,0,0,1,1.4,3,3,0,0,0,1.5.5A3,3,0,0,0,415.5,450Z"/><path d="M426,450.4v.9h-6.9v-.7l4.1-4a5.8,5.8,0,0,0,1.1-1.3,5.2,5.2,0,0,0,.2-1.1,1.7,1.7,0,0,0-.6-1.4,2.6,2.6,0,0,0-1.7-.5,3.7,3.7,0,0,0-2.7,1.1l-.7-.6a3.1,3.1,0,0,1,1.5-1,4.5,4.5,0,0,1,2-.4,3.6,3.6,0,0,1,2.4.7,2.3,2.3,0,0,1,.9,1.9,2.6,2.6,0,0,1-.4,1.5,5.1,5.1,0,0,1-1.2,1.6l-3.4,3.3Z"/><path d="M430,441.5v9.8h-1v-8.9h-2.3v-.9Z"/><path d="M432.6,451.2a.7.7,0,0,1-.2-.6c0-.2,0-.4.2-.5s.3-.2.5-.2.4,0,.5.2a.5.5,0,0,1,.3.5.9.9,0,0,1-.3.6l-.5.2Z"/><path d="M446.8,450.4v.9h-6.9v-9.8h6.7v.9h-5.7v3.5H446v.9h-5.1v3.6Z"/><path d="M460.5,444.7a3.2,3.2,0,0,1,.8,2.3v4.3h-1v-4.2a2.4,2.4,0,0,0-.6-1.7,1.9,1.9,0,0,0-1.5-.6,2.5,2.5,0,0,0-1.9.7,2.7,2.7,0,0,0-.6,1.9v3.9h-1v-4.2a2.4,2.4,0,0,0-.6-1.7,2,2,0,0,0-1.6-.6,2.4,2.4,0,0,0-1.8.7,2.7,2.7,0,0,0-.6,1.9v3.9h-1v-7.4h.9v1.4a3.8,3.8,0,0,1,1.1-1.1,4.1,4.1,0,0,1,1.6-.3,3.1,3.1,0,0,1,1.7.4,2.7,2.7,0,0,1,1,1.1,2.3,2.3,0,0,1,1.1-1.1,3.7,3.7,0,0,1,1.8-.4A2.9,2.9,0,0,1,460.5,444.7Z"/><path d="M468.8,444.6a2.9,2.9,0,0,1,.8,2.1v4.6h-1v-1.1a3,3,0,0,1-1,.9,3.3,3.3,0,0,1-1.5.3,3,3,0,0,1-2-.6,1.9,1.9,0,0,1-.7-1.6,2,2,0,0,1,.6-1.5,3.4,3.4,0,0,1,2.2-.6h2.4v-.4a2,2,0,0,0-.6-1.5,2.1,2.1,0,0,0-1.5-.5,3.5,3.5,0,0,0-1.4.3,2.4,2.4,0,0,0-1.1.6l-.4-.7a2.9,2.9,0,0,1,1.3-.8l1.7-.2A3.1,3.1,0,0,1,468.8,444.6Zm-1.1,5.6a2,2,0,0,0,.9-1.1v-1.2h-2.4c-1.2,0-1.8.4-1.8,1.3a1.2,1.2,0,0,0,.4,1,2.1,2.1,0,0,0,1.4.4A2.4,2.4,0,0,0,467.7,450.2Z"/><path d="M472.3,442.1c-.2-.1-.2-.3-.2-.5s0-.4.2-.5l.5-.2.5.2a.7.7,0,0,1,0,1l-.5.2Zm0,1.8h1v7.4h-1Z"/><path d="M476.1,440.9h1v10.4h-1Z"/><path d="M492.5,451.3v-6.5l-3.3,5.4h-.8l-3.2-5.3v6.4h-1.8v-9.8H485l3.9,6.5,3.8-6.5h1.5v9.8Z"/><path d="M502.1,444.5a3.1,3.1,0,0,1,.9,2.4v4.4h-1.7v-.9a2.4,2.4,0,0,1-.9.8l-1.4.2a3.3,3.3,0,0,1-1.5-.3,2,2,0,0,1-1.3-1.9,2.1,2.1,0,0,1,.7-1.7,3.8,3.8,0,0,1,2.4-.6h1.9a1.6,1.6,0,0,0-.4-1.2,2.1,2.1,0,0,0-1.4-.4l-1.3.2a3.1,3.1,0,0,0-1,.5l-.7-1.2a3.7,3.7,0,0,1,1.4-.7,5.2,5.2,0,0,1,1.8-.3A3.7,3.7,0,0,1,502.1,444.5Zm-1.6,5.3a1.8,1.8,0,0,0,.7-.8v-.9h-1.8c-1,0-1.5.3-1.5,1a.9.9,0,0,0,.4.8l1,.2A2.1,2.1,0,0,0,500.5,449.8Z"/><path d="M509.6,443.7v1.7h-.4a2,2,0,0,0-1.6.6,2.2,2.2,0,0,0-.6,1.7v3.6h-1.8v-7.5h1.7v1.1A2.9,2.9,0,0,1,509.6,443.7Z"/><path d="M514.1,448.1l-1.3,1.2v2h-1.7V440.9h1.7v6.3l3.7-3.4h2.1l-3.2,3.2,3.5,4.3h-2.2Z"/><path d="M526.7,448.1h-5.9a2,2,0,0,0,.8,1.3,3,3,0,0,0,3.7-.3l.9,1.1a2.7,2.7,0,0,1-1.2.9,5.2,5.2,0,0,1-1.8.3,5.4,5.4,0,0,1-2.2-.5,3.5,3.5,0,0,1-1.9-3.3,3.3,3.3,0,0,1,.5-2,3.2,3.2,0,0,1,1.4-1.4,3.8,3.8,0,0,1,1.9-.5,4.2,4.2,0,0,1,2,.5,3.8,3.8,0,0,1,1.4,1.4,4.2,4.2,0,0,1,.4,2Zm-5.2-2.5a2.3,2.3,0,0,0-.7,1.4h4.3a2.3,2.3,0,0,0-.7-1.4,2.5,2.5,0,0,0-1.5-.5A2.4,2.4,0,0,0,521.5,445.6Z"/><path d="M532.9,450.9l-.7.4h-.9a3,3,0,0,1-2-.6,2.9,2.9,0,0,1-.6-1.9v-3.6h-1.3v-1.4h1.3v-1.7h1.7v1.7h2v1.4h-2v3.5a1.2,1.2,0,0,0,.3.9,1,1,0,0,0,.8.3,1.2,1.2,0,0,0,.9-.3Z"/><path d="M534.5,442.3a1.2,1.2,0,0,1-.4-.8,1,1,0,0,1,.4-.7,1.2,1.2,0,0,1,1.6,0,.8.8,0,0,1,.3.7,1.3,1.3,0,0,1-.3.8,1.2,1.2,0,0,1-1.6,0Zm-.1,1.5h1.7v7.5h-1.7Z"/><path d="M545,444.6a2.9,2.9,0,0,1,.8,2.4v4.3h-1.7v-4.1a2,2,0,0,0-.5-1.4,1.4,1.4,0,0,0-1.3-.5,2.3,2.3,0,0,0-1.5.5,2.4,2.4,0,0,0-.6,1.7v3.8h-1.8v-7.5h1.7v1a2.8,2.8,0,0,1,1.1-.8,4,4,0,0,1,1.5-.3A3,3,0,0,1,545,444.6Z"/><path d="M555.6,443.8v6.4c0,2.6-1.4,3.9-4.1,3.9l-2-.2a4.8,4.8,0,0,1-1.6-.8l.8-1.3,1.2.6a4,4,0,0,0,1.5.3,2.5,2.5,0,0,0,1.9-.6,2.9,2.9,0,0,0,.5-1.7V450a2.1,2.1,0,0,1-1.1.7,3.2,3.2,0,0,1-1.4.3,4.1,4.1,0,0,1-1.9-.5,3.5,3.5,0,0,1-1.4-1.3,3.6,3.6,0,0,1-.5-1.9,4.1,4.1,0,0,1,.5-1.9,4.1,4.1,0,0,1,1.4-1.2,4.1,4.1,0,0,1,1.9-.5,3.3,3.3,0,0,1,1.5.3,2.8,2.8,0,0,1,1.1.8v-1Zm-2.4,5.1a1.9,1.9,0,0,0,.7-1.6,1.8,1.8,0,0,0-.7-1.5,2.1,2.1,0,0,0-1.6-.6,2.5,2.5,0,0,0-1.7.6,2,2,0,0,0-.6,1.5,2.1,2.1,0,0,0,.6,1.6,2.5,2.5,0,0,0,1.7.6A2.1,2.1,0,0,0,553.2,448.9Z"/><rect width="66" height="482" transform="translate(66 482) rotate(180)" style="fill:#ddd9d2"/><rect x="679" width="44" height="482" transform="translate(1402 482) rotate(180)" style="fill:#fff"/></g></g></svg>