<svg xmlns="http://www.w3.org/2000/svg" viewBox="0 0 595.3 768.3"><g id="Layer_2" data-name="Layer 2"><g id="Layer_1-2" data-name="Layer 1"><rect width="595.3" height="768.34" style="fill:#fff"/><rect x="181.4" y="42.8" width="232.4" height="47.14" rx="23.6" style="fill:#e6e7e8"/><rect x="83.2" y="191.7" width="428.8" height="12.71" rx="6.4" style="fill:#d1d3d4"/><rect x="83.2" y="152.6" width="428.8" height="12.71" rx="6.4" style="fill:#d1d3d4"/><rect x="83.2" y="229.8" width="307.4" height="12.71" rx="5.4" style="fill:#d1d3d4"/><rect y="301" width="595.3" height="467.37" style="fill:#e6e7e8"/><rect x="83.2" y="603.3" width="164.1" height="12.71" rx="3.9" style="fill:#bcbec0"/><rect x="105.4" y="641.4" width="120.1" height="12.71" rx="3.9" style="fill:#bcbec0"/><rect x="348.7" y="603.3" width="164.1" height="12.71" rx="3.9" style="fill:#bcbec0"/><rect x="370.8" y="641.4" width="120.1" height="12.71" rx="3.9" style="fill:#bcbec0"/><path d="M499.4,441.5l-34.5-30.2a8.7,8.7,0,0,0-5.7-2.2H402.5a8.7,8.7,0,0,0-5.7,2.2l-34.5,30.2a2.9,2.9,0,0,0-.4,3.7l16.1,22a3.3,3.3,0,0,0,2.1,1.1,2.9,2.9,0,0,0,2.2-1l6.2-7.4-.5,56.4a2.8,2.8,0,0,0,.8,2,3.4,3.4,0,0,0,2,.9h80.1a2.9,2.9,0,0,0,2.8-2.8l-.4-56.4,6.1,7.3a3.2,3.2,0,0,0,2.2,1,2.7,2.7,0,0,0,2.1-1.1l16.1-22A2.9,2.9,0,0,0,499.4,441.5Zm-48.2-26.9a20.9,20.9,0,0,1-40.7,0Zm30.2,46.5-8.8-10.5a2.8,2.8,0,0,0-3.1-.8,2.7,2.7,0,0,0-1.8,2.6l.5,61.3H393.5l.5-61.3a2.7,2.7,0,0,0-1.8-2.6,2.6,2.6,0,0,0-3,.8l-8.9,10.5L367.8,444l32.6-28.6a3.4,3.4,0,0,1,2.1-.8h2.4a26.5,26.5,0,0,0,26,21.7,26,26,0,0,0,18.6-7.8,26.5,26.5,0,0,0,7.3-13.9h2.4a3.2,3.2,0,0,1,2.1.8L493.9,444Z" style="fill:#a7a9ac;stroke:#a7a9ac;stroke-miterlimit:10;stroke-width:4.136713595847397px"/><path d="M160.6,587.5v-7.2a21,21,0,0,1-10.9-3.2l1.7-4.7a19.3,19.3,0,0,0,10.3,3c5.1,0,8.5-2.9,8.5-7s-2.8-6.3-8.1-8.5c-7.2-2.8-11.7-6.1-11.7-12.3s4.2-10.4,10.7-11.5v-7.2h4.5v6.9a19.5,19.5,0,0,1,9.2,2.5L173,543a17.7,17.7,0,0,0-8.9-2.4c-5.5,0-7.6,3.3-7.6,6.1s2.6,5.6,8.8,8.2,11.1,6.7,11.1,13-3.9,10.9-11.3,12.2v7.4Z" style="fill:#808285"/><path d="M429.4,587.5v-7.2a20.7,20.7,0,0,1-10.9-3.2l1.7-4.7a18.9,18.9,0,0,0,10.2,3c5.1,0,8.5-2.9,8.5-7s-2.7-6.3-8-8.5c-7.3-2.8-11.8-6.1-11.8-12.3s4.2-10.4,10.8-11.5v-7.2h4.4v6.9a20,20,0,0,1,9.3,2.5l-1.8,4.7a17.8,17.8,0,0,0-9-2.4c-5.5,0-7.6,3.3-7.6,6.1s2.7,5.6,8.9,8.2,11,6.7,11,13-3.9,10.9-11.2,12.2v7.4Z" style="fill:#808285"/><path d="M234,441.5l-34.5-30.2a8.7,8.7,0,0,0-5.7-2.2H137.1a8.7,8.7,0,0,0-5.7,2.2L96.9,441.5a2.8,2.8,0,0,0-.4,3.7l16.1,22a3.1,3.1,0,0,0,2.1,1.1,3.2,3.2,0,0,0,2.2-1l6.1-7.4-.4,56.4a2.8,2.8,0,0,0,.8,2,3.4,3.4,0,0,0,2,.9h80.1a2.9,2.9,0,0,0,2.8-2.8l-.5-56.4,6.2,7.3a2.9,2.9,0,0,0,2.2,1,2.9,2.9,0,0,0,2.1-1.1l16.1-22A2.9,2.9,0,0,0,234,441.5Zm-48.2-26.9a20.9,20.9,0,0,1-40.7,0Zm30.1,46.5-8.8-10.5a2.6,2.6,0,0,0-3-.8,2.7,2.7,0,0,0-1.8,2.6l.5,61.3H128.1l.5-61.3a2.7,2.7,0,0,0-1.8-2.6,2.8,2.8,0,0,0-3.1.8l-8.8,10.5L102.4,444,135,415.4a3.2,3.2,0,0,1,2.1-.8h2.4a26.5,26.5,0,0,0,7.3,13.9,26,26,0,0,0,18.6,7.8,26.5,26.5,0,0,0,26-21.7h2.4a3.4,3.4,0,0,1,2.1.8L228.5,444Z" style="fill:#a7a9ac;stroke:#a7a9ac;stroke-miterlimit:10;stroke-width:4.136713595847397px"/></g></g></svg>