<svg xmlns="http://www.w3.org/2000/svg" viewBox="0 0 595.3 768.3"><g id="Layer_2" data-name="Layer 2"><g id="Layer_1-2" data-name="Layer 1"><rect width="595.3" height="768.34" style="fill:#fff"/><rect x="181.4" y="42.8" width="232.4" height="47.14" rx="23.6" style="fill:#e6e7e8"/><rect x="83.2" y="120.7" width="428.8" height="125.62" rx="14.4" style="fill:#d1d3d4"/><rect x="113.4" y="277" width="368.4" height="12.71" rx="5.9" style="fill:#d1d3d4"/><rect x="113.4" y="315.2" width="264.1" height="12.71" rx="5" style="fill:#d1d3d4"/><rect y="367.3" width="595.3" height="401.08" style="fill:#e6e7e8"/><rect x="84.8" y="420" width="187.5" height="177.39" rx="11.3" style="fill:#a7a9ac"/><rect x="84.8" y="638.3" width="187.5" height="12.71" rx="4.2" style="fill:#bcbec0"/><rect x="84.8" y="676.4" width="187.5" height="12.71" rx="4.2" style="fill:#bcbec0"/><rect x="84.8" y="714.5" width="137.2" height="12.71" rx="4.2" style="fill:#bcbec0"/><rect x="323" y="420" width="187.5" height="177.39" rx="11.3" style="fill:#a7a9ac"/><rect x="323" y="638.3" width="187.5" height="12.71" rx="4.2" style="fill:#bcbec0"/><rect x="323" y="676.4" width="187.5" height="12.71" rx="4.2" style="fill:#bcbec0"/><rect x="323" y="714.5" width="137.2" height="12.71" rx="4.2" style="fill:#bcbec0"/></g></g></svg>