<svg xmlns="http://www.w3.org/2000/svg" viewBox="0 0 434.11 459.06"><defs><style>.cls-1,.cls-3,.cls-4{fill:none;stroke-linecap:round;stroke-width:30px;}.cls-1{stroke:gray;stroke-miterlimit:10;}.cls-2{fill:gray;}.cls-3,.cls-4{stroke:#009245;stroke-linejoin:round;}.cls-4{stroke-dasharray:11.33 11.33;}.cls-5{fill:#009245;}</style></defs><g id="Layer_2" data-name="Layer 2"><g id="Layer_1-2" data-name="Layer 1"><path class="cls-1" d="M347.53,87.74a202,202,0,0,1,60.34,220.54c-36.6,105.39-151.71,161.15-257.09,124.55S-10.37,281.12,26.24,175.73C60.9,75.92,166,20.62,266.55,46.16"/><path class="cls-1" d="M197,142.69a102.08,102.08,0,0,0-81.52,105.79"/><polygon class="cls-2" points="71.91 249.38 139.45 308.48 156.87 220.44 71.91 249.38"/><path class="cls-3" d="M318.6,230q.38,3,.57,6"/><path class="cls-4" d="M319.28,247.29a102.11,102.11,0,0,1-76.89,94.24"/><path class="cls-3" d="M236.86,342.77q-2.94.57-5.92,1"/><polygon class="cls-5" points="279.25 260.74 290.69 171.73 362.07 226.13 279.25 260.74"/><circle class="cls-1" cx="310.09" cy="61.01" r="46"/></g></g></svg>