<svg xmlns="http://www.w3.org/2000/svg" viewBox="0 0 447.5 452"><defs><style>.cls-1,.cls-2{fill:none;}.cls-1,.cls-3{stroke:gray;}.cls-1,.cls-2,.cls-3{stroke-linecap:round;stroke-miterlimit:10;stroke-width:30px;}.cls-2{stroke:#0071bc;}.cls-3{fill:#ccc;}</style></defs><g id="Layer_2" data-name="Layer 2"><g id="Layer_1-2" data-name="Layer 1"><path class="cls-1" d="M209.5,419.5H55.69A40.69,40.69,0,0,1,15,378.81v-162C15,105.61,105.11,15.5,216.27,15.5h162A40.69,40.69,0,0,1,419,56.19V217"/><path class="cls-1" d="M189.5,15h28a0,0,0,0,1,0,0V148.69A39.31,39.31,0,0,1,178.19,188H16.5a0,0,0,0,1,0,0v0A173,173,0,0,1,189.5,15Z"/><line class="cls-1" x1="269.5" y1="99" x2="340.5" y2="99"/><line class="cls-1" x1="269.5" y1="171" x2="340.5" y2="171"/><circle class="cls-2" cx="366" cy="370.5" r="66.5"/><rect class="cls-3" x="75.5" y="261" width="142" height="87" rx="37.85"/></g></g></svg>