<svg xmlns="http://www.w3.org/2000/svg" viewBox="0 0 681 681"><defs><style>.cls-1{opacity:0;}.cls-2{fill:#fff;}.cls-3{fill:none;stroke:#004859;stroke-linecap:round;stroke-linejoin:round;stroke-width:40px;}.cls-4{fill:#e83d00;}</style></defs><g id="Layer_2" data-name="Layer 2"><g id="Layer_1-2" data-name="Layer 1"><g class="cls-1"><rect class="cls-2" x="0.5" y="0.5" width="680" height="680"/><path d="M680,1V680H1V1H680m1-1H0V681H681V0Z"/></g><path class="cls-3" d="M295,57.42a284.58,284.58,0,0,1,44.62-5.61"/><path class="cls-3" d="M569.79,174.4A281.74,281.74,0,0,1,624,341c0,156.3-126.7,283-283,283S58,497.3,58,341c0-111.52,64.5-208,158.24-254.08"/><path class="cls-4" d="M479,50a47,47,0,1,1-47,47,47,47,0,0,1,47-47m0-30a77,77,0,1,0,77,77,77,77,0,0,0-77-77Z"/></g></g></svg>