<svg xmlns="http://www.w3.org/2000/svg" viewBox="0 0 681 681"><defs><style>.cls-1{opacity:0;}.cls-2{fill:#fff;}.cls-3{fill:#004859;}.cls-4{fill:#f15a24;}</style></defs><g id="Layer_2" data-name="Layer 2"><g id="Layer_1-2" data-name="Layer 1"><g class="cls-1"><rect class="cls-2" x="0.5" y="0.5" width="680" height="680"/><path d="M680,1V680H1V1H680m1-1H0V681H681V0Z"/></g><path class="cls-3" d="M341,82c4.64,0,9.33.12,13.95.37a5.38,5.38,0,0,1,3.94,1.95,5,5,0,0,1,1.16,4A134.49,134.49,0,0,0,359,104.84a130.59,130.59,0,0,0,10.42,51.41,133.18,133.18,0,0,0,70.2,70.27A130.59,130.59,0,0,0,491,237h1.15a131.76,131.76,0,0,0,68.9-20.12,5.59,5.59,0,0,1,3-.9,5.3,5.3,0,0,1,4.78,2.86,256.67,256.67,0,0,1,22.29,57.66A259.52,259.52,0,0,1,599,340,257.76,257.76,0,0,1,341,598a270.55,270.55,0,0,1-33.66-2.12A256.46,256.46,0,0,1,85.12,373.66,260,260,0,0,1,95,262,257.83,257.83,0,0,1,341,82m0-40C163.71,42,22.57,196.83,45.44,378.65c16.84,134,122.93,240.07,256.91,256.91A309.65,309.65,0,0,0,341,638c164.58,0,298-133.42,298-298a296.73,296.73,0,0,0-34.85-140,45.42,45.42,0,0,0-64.34-17,91.64,91.64,0,0,1-48,14H491c-50.51,0-92.07-41.5-92-92.11a90.34,90.34,0,0,1,.74-11.58,45.32,45.32,0,0,0-42.67-50.88Q349.09,42,341,42Z"/><circle class="cls-4" cx="491" cy="105" r="48"/><path class="cls-4" d="M491,72a33,33,0,1,1-33,33,33,33,0,0,1,33-33m0-30a63,63,0,1,0,63,63,63,63,0,0,0-63-63Z"/></g></g></svg>