<svg xmlns="http://www.w3.org/2000/svg" viewBox="0 0 681 681"><g id="Layer_2" data-name="Layer 2"><g id="Layer_1-2" data-name="Layer 1"><g style="opacity:0"><rect x="0.5" y="0.5" width="680" height="680" style="fill:#fff"/><path d="M680,1V680H1V1H680m1-1H0V681H681V0Z"/></g><path d="M295,57.4a287.5,287.5,0,0,1,44.7-5.6" style="fill:none;stroke:#fff;stroke-linecap:round;stroke-linejoin:round;stroke-width:50px"/><path d="M589.8,206A281.8,281.8,0,0,1,624,341c0,156.3-126.7,283-283,283S58,497.3,58,341c0-111.5,64.5-208,158.2-254.1" style="fill:none;stroke:#fff;stroke-linecap:round;stroke-linejoin:round;stroke-width:50px"/><circle cx="479" cy="97" r="52" style="fill:#fff"/><path d="M479,70a27,27,0,1,1-27,27,27,27,0,0,1,27-27m0-50a77,77,0,1,0,77,77,77,77,0,0,0-77-77Z" style="fill:#fff"/></g></g></svg>