<svg xmlns="http://www.w3.org/2000/svg" viewBox="0 0 595.3 768.3"><g id="Layer_2" data-name="Layer 2"><g id="Layer_1-2" data-name="Layer 1"><rect width="595.3" height="768.34" style="fill:#fff"/><rect x="181.4" y="42.8" width="232.4" height="47.14" rx="23.6" style="fill:#e6e7e8"/><rect x="83.2" y="190.7" width="428.8" height="12.71" rx="6.4" style="fill:#d1d3d4"/><rect x="83.2" y="151.6" width="428.8" height="12.71" rx="6.4" style="fill:#d1d3d4"/><rect x="83.2" y="228.8" width="307.4" height="12.71" rx="5.4" style="fill:#d1d3d4"/><rect y="301" width="595.3" height="467.37" style="fill:#e6e7e8"/><rect x="83.2" y="603.3" width="125.9" height="12.71" rx="3.4" style="fill:#bcbec0"/><rect x="100.2" y="641.4" width="92.1" height="12.71" rx="3.4" style="fill:#bcbec0"/><rect x="234.7" y="603.3" width="125.9" height="12.71" rx="3.4" style="fill:#bcbec0"/><rect x="251.7" y="641.4" width="92.1" height="12.71" rx="3.4" style="fill:#bcbec0"/><rect x="390.6" y="603.3" width="125.9" height="12.71" rx="3.4" style="fill:#bcbec0"/><rect x="407.6" y="641.4" width="92.1" height="12.71" rx="3.4" style="fill:#bcbec0"/><path d="M201.2,435.1l-27.7-24.2a7.2,7.2,0,0,0-4.6-1.8H123.5a7.2,7.2,0,0,0-4.6,1.8L91.2,435.1a2.2,2.2,0,0,0-.3,2.9l12.9,17.7a2.2,2.2,0,0,0,1.7.9,2.1,2.1,0,0,0,1.7-.8l5-5.9-.3,45.2a2.3,2.3,0,0,0,.6,1.6,2.4,2.4,0,0,0,1.6.7h64.3a2.1,2.1,0,0,0,2.1-2.3l-.3-45.2,5,5.9a2.1,2.1,0,0,0,1.7.8,2.2,2.2,0,0,0,1.7-.9L201.5,438A2.2,2.2,0,0,0,201.2,435.1Zm-38.7-21.6a15.9,15.9,0,0,1-4.5,8.1,16.8,16.8,0,0,1-11.8,4.9,16.5,16.5,0,0,1-11.8-5,15.3,15.3,0,0,1-4.5-8Zm24.2,37.3-7-8.4a2.3,2.3,0,0,0-2.5-.7,2.3,2.3,0,0,0-1.4,2.1l.3,49.2H116.3l.3-49.2a2,2,0,0,0-1.4-2,2.1,2.1,0,0,0-2.5.6l-7,8.4L95.6,437.1l26.2-22.9a2.8,2.8,0,0,1,1.7-.7h1.9a21.4,21.4,0,0,0,5.9,11.2,21,21,0,0,0,29.8,0,21.4,21.4,0,0,0,5.9-11.2h1.9a2.8,2.8,0,0,1,1.7.7l26.2,22.9Z" style="fill:#a7a9ac;stroke:#a7a9ac;stroke-miterlimit:10;stroke-width:3.318321943283081px"/><path d="M353.1,435.1l-27.7-24.2a7,7,0,0,0-4.6-1.8H275.4a7.2,7.2,0,0,0-4.6,1.8l-27.6,24.2a2.2,2.2,0,0,0-.4,2.9l12.9,17.7a2.2,2.2,0,0,0,1.7.9,2.5,2.5,0,0,0,1.8-.8l4.9-5.9-.3,45.2a2.3,2.3,0,0,0,.6,1.6,2.4,2.4,0,0,0,1.6.7h64.3a2.2,2.2,0,0,0,2.2-2.3l-.4-45.2,5,5.9a2.3,2.3,0,0,0,1.7.8,2.2,2.2,0,0,0,1.7-.9L353.4,438A2.2,2.2,0,0,0,353.1,435.1Zm-38.7-21.6a16.5,16.5,0,0,1-4.4,8.1,17.1,17.1,0,0,1-11.9,4.9,16.5,16.5,0,0,1-11.8-5,16,16,0,0,1-4.5-8Zm24.2,37.3-7-8.4a2.3,2.3,0,0,0-2.5-.7,2.4,2.4,0,0,0-1.4,2.1l.4,49.2H268.2l.3-49.2a2,2,0,0,0-1.4-2,2,2,0,0,0-2.4.6l-7.1,8.4-10-13.7,26.1-22.9a2.8,2.8,0,0,1,1.7-.7h1.9a21.4,21.4,0,0,0,5.9,11.2,21.2,21.2,0,0,0,14.9,6.2,21.6,21.6,0,0,0,15-6.2,21.3,21.3,0,0,0,5.8-11.2h1.9a2.4,2.4,0,0,1,1.7.7l26.2,22.9Z" style="fill:#a7a9ac;stroke:#a7a9ac;stroke-miterlimit:10;stroke-width:3.318321943283081px"/><path d="M508.7,435.1,481,410.9a7.2,7.2,0,0,0-4.6-1.8H431a7.2,7.2,0,0,0-4.6,1.8l-27.7,24.2a2.2,2.2,0,0,0-.3,2.9l12.9,17.7a2.2,2.2,0,0,0,1.7.9,2.1,2.1,0,0,0,1.7-.8l5-5.9-.4,45.2a2.4,2.4,0,0,0,.7,1.6,2.3,2.3,0,0,0,1.5.7h64.3a2.2,2.2,0,0,0,2.2-2.3l-.3-45.2,4.9,5.9a2.5,2.5,0,0,0,1.8.8,2.2,2.2,0,0,0,1.7-.9L509,438A2.2,2.2,0,0,0,508.7,435.1ZM470,413.5a15.9,15.9,0,0,1-4.5,8.1,16.8,16.8,0,0,1-11.8,4.9,16.3,16.3,0,0,1-11.8-5,15.3,15.3,0,0,1-4.5-8Zm24.2,37.3-7.1-8.4a2.1,2.1,0,0,0-2.4-.7,2.3,2.3,0,0,0-1.4,2.1l.3,49.2H423.8l.3-49.2a2.2,2.2,0,0,0-1.4-2,2.1,2.1,0,0,0-2.5.6l-7,8.4-10.1-13.7,26.2-22.9a2.4,2.4,0,0,1,1.7-.7h1.9a21.4,21.4,0,0,0,5.9,11.2,21,21,0,0,0,29.8,0,21.4,21.4,0,0,0,5.9-11.2h1.9a2.8,2.8,0,0,1,1.7.7l26.1,22.9Z" style="fill:#a7a9ac;stroke:#a7a9ac;stroke-miterlimit:10;stroke-width:3.318321943283081px"/><path d="M142.1,587.5v-7.2a20.7,20.7,0,0,1-10.9-3.2l1.7-4.7a18.6,18.6,0,0,0,10.2,3c5.1,0,8.5-2.9,8.5-7s-2.8-6.3-8-8.5c-7.3-2.8-11.8-6.1-11.8-12.3s4.2-10.4,10.8-11.5v-7.2H147v6.9a20,20,0,0,1,9.3,2.5l-1.8,4.7a17.8,17.8,0,0,0-9-2.4c-5.5,0-7.6,3.3-7.6,6.1s2.7,5.6,8.9,8.2,11,6.7,11,13-3.9,10.9-11.2,12.2v7.4Z" style="fill:#808285"/><path d="M293.5,587.5v-7.2a21,21,0,0,1-10.9-3.2l1.7-4.7a19.3,19.3,0,0,0,10.3,3c5,0,8.5-2.9,8.5-7s-2.8-6.3-8.1-8.5c-7.3-2.8-11.8-6.1-11.8-12.3s4.2-10.4,10.8-11.5v-7.2h4.4v6.9a20,20,0,0,1,9.3,2.5l-1.8,4.7a17.8,17.8,0,0,0-9-2.4c-5.5,0-7.5,3.3-7.5,6.1s2.6,5.6,8.8,8.2,11.1,6.7,11.1,13-4,10.9-11.3,12.2v7.4Z" style="fill:#808285"/><path d="M450.6,587.5v-7.2a20.7,20.7,0,0,1-10.9-3.2l1.7-4.7a18.6,18.6,0,0,0,10.2,3c5.1,0,8.5-2.9,8.5-7s-2.8-6.3-8-8.5c-7.3-2.8-11.8-6.1-11.8-12.3s4.2-10.4,10.8-11.5v-7.2h4.4v6.9a20,20,0,0,1,9.3,2.5L463,543a17.8,17.8,0,0,0-9-2.4c-5.5,0-7.6,3.3-7.6,6.1s2.7,5.6,8.9,8.2,11,6.7,11,13-3.9,10.9-11.2,12.2v7.4Z" style="fill:#808285"/></g></g></svg>