<svg xmlns="http://www.w3.org/2000/svg" xmlns:xlink="http://www.w3.org/1999/xlink" viewBox="0 0 723 482"><defs><clipPath id="clip-path"><path d="M695.7,481.9H27.3A27.4,27.4,0,0,1,0,454.5V27.4A27.4,27.4,0,0,1,27.3,0H695.7A27.4,27.4,0,0,1,723,27.4V454.5A27.4,27.4,0,0,1,695.7,481.9Z" style="fill:#fff"/></clipPath></defs><g id="Layer_2" data-name="Layer 2"><g id="Layer_1-2" data-name="Layer 1"><path d="M695.7,481.9H27.3A27.4,27.4,0,0,1,0,454.5V27.4A27.4,27.4,0,0,1,27.3,0H695.7A27.4,27.4,0,0,1,723,27.4V454.5A27.4,27.4,0,0,1,695.7,481.9Z" style="fill:#fff"/><g style="clip-path:url(#clip-path)"><rect width="723" height="140" style="fill:#ddd9d2"/></g><path d="M37,217.9a13.6,13.6,0,0,1-4.6-2.7l1.5-3.2a11.7,11.7,0,0,0,4.1,2.4,15.2,15.2,0,0,0,5.1.9,9.1,9.1,0,0,0,5.2-1.2,3.6,3.6,0,0,0,1.7-3.2,3.2,3.2,0,0,0-.9-2.4,6.1,6.1,0,0,0-2.3-1.5l-3.9-1.1a28.2,28.2,0,0,1-5.1-1.6,7.8,7.8,0,0,1-3.3-2.4,6.6,6.6,0,0,1-1.4-4.4,7.9,7.9,0,0,1,1.2-4.2,8.1,8.1,0,0,1,3.6-2.9,12.9,12.9,0,0,1,5.9-1.2,20,20,0,0,1,4.9.7,12.9,12.9,0,0,1,4.1,1.9l-1.3,3.3a14.3,14.3,0,0,0-3.8-1.7,13.2,13.2,0,0,0-3.9-.6,8.9,8.9,0,0,0-5.1,1.2,4.2,4.2,0,0,0-1.7,3.3,3.3,3.3,0,0,0,1,2.5,5.7,5.7,0,0,0,2.4,1.4,26.4,26.4,0,0,0,3.8,1.1,39.4,39.4,0,0,1,5.1,1.6,8.5,8.5,0,0,1,3.3,2.4,6.5,6.5,0,0,1,1.3,4.3,7.9,7.9,0,0,1-1.2,4.2,9.1,9.1,0,0,1-3.6,3,15,15,0,0,1-6,1.1A21.1,21.1,0,0,1,37,217.9Z"/><path d="M78.9,196.6v21.9H75.3v-3.3a8.1,8.1,0,0,1-3.1,2.7,9.1,9.1,0,0,1-4.1.9,9.3,9.3,0,0,1-6.7-2.4c-1.6-1.7-2.4-4-2.4-7.2V196.6h3.8v12.2a6.9,6.9,0,0,0,1.5,4.8,5.4,5.4,0,0,0,4.2,1.6,5.9,5.9,0,0,0,4.8-1.9,7.3,7.3,0,0,0,1.8-5.4V196.6Z"/><path d="M102.9,197.8a9.5,9.5,0,0,1,3.8,3.9,11.5,11.5,0,0,1,1.4,5.9,11.1,11.1,0,0,1-1.4,5.8,9.8,9.8,0,0,1-3.8,4,11,11,0,0,1-5.5,1.4,9.1,9.1,0,0,1-4.3-1,7.6,7.6,0,0,1-3.2-2.7v3.4H86.2V187.8H90v12.1a9,9,0,0,1,7.4-3.5A11,11,0,0,1,102.9,197.8Zm-2.1,16.5a6.6,6.6,0,0,0,2.5-2.7,8.7,8.7,0,0,0,.9-4,9.1,9.1,0,0,0-.9-4.1,8.1,8.1,0,0,0-2.5-2.7,7.5,7.5,0,0,0-3.7-.9,6.8,6.8,0,0,0-6.2,3.6,9.1,9.1,0,0,0-.9,4.1,8.7,8.7,0,0,0,.9,4,6.2,6.2,0,0,0,2.6,2.7,6.5,6.5,0,0,0,3.6,1A6.6,6.6,0,0,0,100.8,214.3Z"/><path d="M114.5,218.1a11.3,11.3,0,0,1-3.8-1.9l1.6-3.1a11.9,11.9,0,0,0,3.4,1.6,14.5,14.5,0,0,0,4.1.6c3.3,0,5-.9,5-2.9a1.9,1.9,0,0,0-.7-1.6,3.9,3.9,0,0,0-1.7-.9l-2.9-.6a16.8,16.8,0,0,1-4.1-.9,7.5,7.5,0,0,1-2.8-1.8,5.2,5.2,0,0,1-1.2-3.6,5.7,5.7,0,0,1,2.4-4.8,10.5,10.5,0,0,1,6.4-1.8,20.2,20.2,0,0,1,4.3.5,12,12,0,0,1,3.4,1.5l-1.6,3.1a11.2,11.2,0,0,0-6.1-1.7,7.3,7.3,0,0,0-3.7.8,2.5,2.5,0,0,0-1.3,2.2,2.4,2.4,0,0,0,.7,1.7,5.1,5.1,0,0,0,1.8.9l3,.7a22.3,22.3,0,0,1,4.1,1,5.5,5.5,0,0,1,2.7,1.7,5.2,5.2,0,0,1,1.1,3.5,5.4,5.4,0,0,1-2.4,4.7,11.3,11.3,0,0,1-6.7,1.8A20.8,20.8,0,0,1,114.5,218.1Z"/><path d="M136.9,217.3a9.6,9.6,0,0,1-4-4,11,11,0,0,1-1.4-5.7,11.1,11.1,0,0,1,1.4-5.8,10.3,10.3,0,0,1,4-4,11.7,11.7,0,0,1,5.7-1.4,10.7,10.7,0,0,1,5.1,1.2,8.4,8.4,0,0,1,3.5,3.5l-2.9,1.9a6.6,6.6,0,0,0-2.4-2.3,6.2,6.2,0,0,0-3.3-.8,7.5,7.5,0,0,0-3.7.9,6.7,6.7,0,0,0-2.6,2.7,8,8,0,0,0-1,4.1,7.4,7.4,0,0,0,1,4,6.4,6.4,0,0,0,2.6,2.8,7.5,7.5,0,0,0,3.7.9,7.3,7.3,0,0,0,3.3-.8,6.6,6.6,0,0,0,2.4-2.3l2.9,1.9a9.1,9.1,0,0,1-3.5,3.5,10.7,10.7,0,0,1-5.1,1.2A10.8,10.8,0,0,1,136.9,217.3Z"/><path d="M162.8,197.4a10,10,0,0,1,4.8-1v3.8h-.9a6.3,6.3,0,0,0-4.9,1.9,7.8,7.8,0,0,0-1.8,5.5v10.9h-3.8V196.6h3.7v3.7A5.8,5.8,0,0,1,162.8,197.4Z"/><path d="M172.3,191.6a2.7,2.7,0,0,1,0-3.6,2.6,2.6,0,0,1,1.9-.8,2.4,2.4,0,0,1,1.8.7,2.5,2.5,0,0,1,.8,1.8,2.6,2.6,0,0,1-.8,1.9,2.5,2.5,0,0,1-1.8.8A2.6,2.6,0,0,1,172.3,191.6Zm0,5h3.8v21.9h-3.8Z"/><path d="M200.1,197.8a10.2,10.2,0,0,1,3.8,3.9,12.5,12.5,0,0,1,1.4,5.9,12.1,12.1,0,0,1-1.4,5.8,10.4,10.4,0,0,1-3.8,4,11.2,11.2,0,0,1-5.5,1.4,8.8,8.8,0,0,1-4.3-1,7.6,7.6,0,0,1-3.2-2.7v3.4h-3.7V187.8h3.8v12.1a9,9,0,0,1,3.2-2.6,9.9,9.9,0,0,1,4.2-.9A11.2,11.2,0,0,1,200.1,197.8Zm-2.2,16.5a6.2,6.2,0,0,0,2.6-2.7,8.7,8.7,0,0,0,.9-4,9.1,9.1,0,0,0-.9-4.1,7.5,7.5,0,0,0-2.6-2.7,7.6,7.6,0,0,0-7.2,0,7.5,7.5,0,0,0-2.6,2.7,9.1,9.1,0,0,0-.9,4.1,8.7,8.7,0,0,0,.9,4,6.2,6.2,0,0,0,2.6,2.7,7,7,0,0,0,7.2,0Z"/><path d="M226.2,212.7l2.1,2.5a8.5,8.5,0,0,1-3.5,2.7,12.1,12.1,0,0,1-4.8.9,12.5,12.5,0,0,1-5.9-1.4,9.6,9.6,0,0,1-4-4,11.4,11.4,0,0,1-1.5-5.8,12.1,12.1,0,0,1,1.4-5.8,10.4,10.4,0,0,1,3.8-4,11,11,0,0,1,5.5-1.4,9.8,9.8,0,0,1,8.9,5.1,11.8,11.8,0,0,1,1.5,5.7l-16.8,3.3a6.6,6.6,0,0,0,2.7,3.6,7.9,7.9,0,0,0,4.5,1.2A7.7,7.7,0,0,0,226.2,212.7Zm-10.5-12a6,6,0,0,0-2.5,2.7,8.2,8.2,0,0,0-.8,4v.4l13.5-2.7a7.1,7.1,0,0,0-2.3-3.9,6.6,6.6,0,0,0-4.3-1.5A6.9,6.9,0,0,0,215.7,200.7Z"/><path d="M256.9,217.3a10.3,10.3,0,0,1-2.1,1.1,7.5,7.5,0,0,1-2.6.4,6.6,6.6,0,0,1-4.9-1.8,6.9,6.9,0,0,1-1.8-5.1V191.8h3.9v4.8h6v3.3h-6v11.8a4.7,4.7,0,0,0,.8,2.8,3.3,3.3,0,0,0,2.5.9,4.5,4.5,0,0,0,3-1Z"/><path d="M264.2,217.3a10.3,10.3,0,0,1-4-4,12.5,12.5,0,0,1,0-11.5,11,11,0,0,1,4-4,11.3,11.3,0,0,1,5.6-1.4,12,12,0,0,1,5.7,1.4,11.5,11.5,0,0,1,3.9,4,12.5,12.5,0,0,1,0,11.5,10.7,10.7,0,0,1-3.9,4,11,11,0,0,1-5.7,1.5A10.4,10.4,0,0,1,264.2,217.3Zm9.3-3a6,6,0,0,0,2.5-2.7,8.7,8.7,0,0,0,.9-4,9.1,9.1,0,0,0-.9-4.1,7.2,7.2,0,0,0-2.5-2.7,7.5,7.5,0,0,0-3.7-.9,7.4,7.4,0,0,0-3.6.9,8.4,8.4,0,0,0-2.6,2.7,9.1,9.1,0,0,0-.9,4.1,8.7,8.7,0,0,0,.9,4,6.8,6.8,0,0,0,2.6,2.7,6.5,6.5,0,0,0,3.6,1A6.6,6.6,0,0,0,273.5,214.3Z"/><path d="M300.2,217.3a10,10,0,0,1-3.9-4,12.5,12.5,0,0,1,0-11.5,10.7,10.7,0,0,1,3.9-4,12,12,0,0,1,5.7-1.4,11.3,11.3,0,0,1,5.6,1.4,11,11,0,0,1,4,4,12.5,12.5,0,0,1,0,11.5,10.3,10.3,0,0,1-4,4,10.4,10.4,0,0,1-5.6,1.5A11,11,0,0,1,300.2,217.3Zm9.3-3a6.2,6.2,0,0,0,2.6-2.7,8.7,8.7,0,0,0,.9-4,9.1,9.1,0,0,0-.9-4.1,7.5,7.5,0,0,0-2.6-2.7,6.9,6.9,0,0,0-3.6-.9,7.5,7.5,0,0,0-3.7.9,8.1,8.1,0,0,0-2.5,2.7,9.1,9.1,0,0,0-.9,4.1,8.7,8.7,0,0,0,.9,4,6.6,6.6,0,0,0,2.5,2.7,6.6,6.6,0,0,0,3.7,1A6.1,6.1,0,0,0,309.5,214.3Z"/><path d="M341.9,196.6v21.9h-3.6v-3.3a8.1,8.1,0,0,1-3.1,2.7,9.5,9.5,0,0,1-4.1.9,9.2,9.2,0,0,1-6.7-2.4c-1.6-1.7-2.4-4-2.4-7.2V196.6h3.8v12.2a6.9,6.9,0,0,0,1.5,4.8,5.4,5.4,0,0,0,4.2,1.6,6.2,6.2,0,0,0,4.8-1.9,7.3,7.3,0,0,0,1.8-5.4V196.6Z"/><path d="M355.8,197.4a9.9,9.9,0,0,1,4.7-1v3.8h-.8a6.3,6.3,0,0,0-4.9,1.9,7.8,7.8,0,0,0-1.8,5.5v10.9h-3.8V196.6h3.7v3.7A5.8,5.8,0,0,1,355.8,197.4Z"/><path d="M394,198.8c1.5,1.6,2.3,4,2.3,7.1v12.6h-3.8V206.4q0-3.3-1.5-4.8a5.4,5.4,0,0,0-4.2-1.6,6.6,6.6,0,0,0-4.9,1.8,7.7,7.7,0,0,0-1.8,5.4v11.3h-3.8V196.6h3.6v3.3a8.2,8.2,0,0,1,3.2-2.6,10.6,10.6,0,0,1,4.5-.9A8.8,8.8,0,0,1,394,198.8Z"/><path d="M419.2,212.7l2.1,2.5a8.8,8.8,0,0,1-3.6,2.7,11.9,11.9,0,0,1-4.7.9,13,13,0,0,1-6-1.4,11,11,0,0,1-4-4,12.4,12.4,0,0,1-1.4-5.8,12.1,12.1,0,0,1,1.4-5.8,10.4,10.4,0,0,1,3.8-4,10.9,10.9,0,0,1,5.4-1.4,10,10,0,0,1,5.2,1.3,9.9,9.9,0,0,1,3.8,3.8,11.7,11.7,0,0,1,1.4,5.7l-16.8,3.3a7.7,7.7,0,0,0,2.7,3.6,8.5,8.5,0,0,0,4.6,1.2A8,8,0,0,0,419.2,212.7Zm-10.6-12a6.4,6.4,0,0,0-2.4,2.7,8.2,8.2,0,0,0-.9,4v.4l13.5-2.7a6.5,6.5,0,0,0-2.3-3.9,6.4,6.4,0,0,0-4.3-1.5A7.5,7.5,0,0,0,408.6,200.7Z"/><path d="M460.2,196.6v12.1c0,3.3-.8,5.7-2.3,7.5a8.7,8.7,0,0,1-6.7,2.6q-5.2,0-7.2-3.9a6.6,6.6,0,0,1-2.8,2.9,8.7,8.7,0,0,1-4.4,1c-3,0-5.2-.9-6.7-2.6s-2.3-4.2-2.3-7.5V196.6h3.8v11.8a8.7,8.7,0,0,0,1.2,5.1,5.6,5.6,0,0,0,8,0c.9-1.1,1.3-2.8,1.3-5.1V196.6h3.8v11.8a8.7,8.7,0,0,0,1.3,5.1,4.6,4.6,0,0,0,4,1.7c1.8,0,3.1-.5,3.9-1.7s1.3-2.8,1.3-5.1V196.6Z"/><path d="M468.3,218.1a9.9,9.9,0,0,1-3.7-1.9l1.6-3.1a9.8,9.8,0,0,0,3.4,1.6,13.4,13.4,0,0,0,4,.6c3.4,0,5-.9,5-2.9a2.1,2.1,0,0,0-.6-1.6,5.6,5.6,0,0,0-1.7-.9l-2.9-.6a19,19,0,0,1-4.2-.9,7.5,7.5,0,0,1-2.8-1.8,6.2,6.2,0,0,1,1.3-8.4,10.3,10.3,0,0,1,6.4-1.8,20.1,20.1,0,0,1,4.2.5,12.7,12.7,0,0,1,3.5,1.5l-1.7,3.1a10.9,10.9,0,0,0-6.1-1.7,7.5,7.5,0,0,0-3.7.8,2.6,2.6,0,0,0-1.2,2.2,2.1,2.1,0,0,0,.7,1.7,4.6,4.6,0,0,0,1.7.9l3,.7a22.3,22.3,0,0,1,4.1,1,5.5,5.5,0,0,1,2.7,1.7,4.8,4.8,0,0,1,1.2,3.5A5.5,5.5,0,0,1,480,217a11.1,11.1,0,0,1-6.7,1.8A20.8,20.8,0,0,1,468.3,218.1Z"/><path d="M488.9,217a6.8,6.8,0,0,1-1.7-4.9V187.8h3.9v23.9a4.1,4.1,0,0,0,.8,2.8,3.1,3.1,0,0,0,2.4.9,4.1,4.1,0,0,0,1.9-.4l.2,3.3a8.6,8.6,0,0,1-2.7.5A6.2,6.2,0,0,1,488.9,217Z"/><path d="M515.3,212.7l2.1,2.5a8.8,8.8,0,0,1-3.6,2.7,11.9,11.9,0,0,1-4.7.9,13,13,0,0,1-6-1.4,11,11,0,0,1-4-4,12.4,12.4,0,0,1-1.4-5.8,12.1,12.1,0,0,1,1.4-5.8,10.4,10.4,0,0,1,3.8-4,10.9,10.9,0,0,1,5.4-1.4,10,10,0,0,1,5.2,1.3,9.9,9.9,0,0,1,3.8,3.8,11.7,11.7,0,0,1,1.4,5.7l-16.8,3.3a7.7,7.7,0,0,0,2.7,3.6,8.5,8.5,0,0,0,4.6,1.2A8,8,0,0,0,515.3,212.7Zm-10.6-12a6.4,6.4,0,0,0-2.4,2.7,8.2,8.2,0,0,0-.9,4v.4l13.5-2.7a6.5,6.5,0,0,0-2.3-3.9,6.4,6.4,0,0,0-4.3-1.5A7.5,7.5,0,0,0,504.7,200.7Z"/><path d="M535.2,217.3a10.3,10.3,0,0,1-2.1,1.1,7.3,7.3,0,0,1-2.5.4,6.7,6.7,0,0,1-5-1.8,7.3,7.3,0,0,1-1.7-5.1V191.8h3.8v4.8h6.1v3.3h-6.1v11.8a4.1,4.1,0,0,0,.9,2.8,3,3,0,0,0,2.4.9,4.4,4.4,0,0,0,3-1Z"/><path d="M551,217.3a10.3,10.3,0,0,1-2.1,1.1,7.5,7.5,0,0,1-2.6.4,6.4,6.4,0,0,1-4.9-1.8,6.9,6.9,0,0,1-1.8-5.1V191.8h3.9v4.8h6v3.3h-6v11.8a4.1,4.1,0,0,0,.8,2.8,3.3,3.3,0,0,0,2.5.9,4.7,4.7,0,0,0,3-1Z"/><path d="M570.5,212.7l2.1,2.5a8.8,8.8,0,0,1-3.6,2.7,11.9,11.9,0,0,1-4.7.9,13,13,0,0,1-6-1.4,11,11,0,0,1-4-4,12.4,12.4,0,0,1-1.4-5.8,12.1,12.1,0,0,1,1.4-5.8,10.4,10.4,0,0,1,3.8-4,10.9,10.9,0,0,1,5.4-1.4,10,10,0,0,1,5.2,1.3,9.9,9.9,0,0,1,3.8,3.8,11.7,11.7,0,0,1,1.4,5.7l-16.8,3.3a7.7,7.7,0,0,0,2.7,3.6,8.5,8.5,0,0,0,4.6,1.2A7.9,7.9,0,0,0,570.5,212.7Zm-10.6-12a6.4,6.4,0,0,0-2.4,2.7,8.2,8.2,0,0,0-.9,4v.4l13.5-2.7a6.5,6.5,0,0,0-2.3-3.9,6.4,6.4,0,0,0-4.3-1.5A7.5,7.5,0,0,0,559.9,200.7Z"/><path d="M585.9,197.4a9.9,9.9,0,0,1,4.7-1v3.8h-.8a6.3,6.3,0,0,0-4.9,1.9,7.8,7.8,0,0,0-1.8,5.5v10.9h-3.8V196.6h3.6v3.7A6.5,6.5,0,0,1,585.9,197.4Z"/><path d="M45.7,282.1a6.4,6.4,0,0,1-2.6,1.3,9.3,9.3,0,0,1-3.4.5,11.3,11.3,0,0,1-3.5-.5,4.7,4.7,0,0,1-2.2-1.6,3.9,3.9,0,0,1-.7-2.3,4,4,0,0,1,.7-2.4,3.6,3.6,0,0,1,1.9-1.3,3.2,3.2,0,0,1-1.4-1.4,3.7,3.7,0,0,1-.6-2.1,3.6,3.6,0,0,1,.7-2.2,4.1,4.1,0,0,1,2-1.6,9,9,0,0,1,3.4-.6,11.8,11.8,0,0,1,2.7.3l2.3.9-.6,1.8a8.8,8.8,0,0,0-4.3-1,5.1,5.1,0,0,0-3,.7,2.4,2.4,0,0,0-.2,3.7,3.6,3.6,0,0,0,2.2.6H43v1.9H39.1a4.9,4.9,0,0,0-2.7.6,2.1,2.1,0,0,0-1,1.9,2.3,2.3,0,0,0,1.1,2,6,6,0,0,0,3.3.7,9.2,9.2,0,0,0,2.9-.4,6.6,6.6,0,0,0,2.2-1.2Z"/><path d="M65.7,273.1a5.4,5.4,0,0,1,1.3,3.8v6.9H64.9v-6.6a3.8,3.8,0,0,0-.8-2.6,2.7,2.7,0,0,0-2.2-.9,3.7,3.7,0,0,0-2.5,1,4.5,4.5,0,0,0-.9,3v6.1H56.4v-6.6a3.8,3.8,0,0,0-.7-2.6,2.8,2.8,0,0,0-2.2-.9,3.4,3.4,0,0,0-2.5,1,4.5,4.5,0,0,0-.9,3v6.1H48V271.9h2v1.8a3.6,3.6,0,0,1,1.6-1.4,5.9,5.9,0,0,1,2.3-.5,4.8,4.8,0,0,1,2.4.6,3.5,3.5,0,0,1,1.6,1.6,4,4,0,0,1,1.8-1.6,5.5,5.5,0,0,1,2.6-.6A4.4,4.4,0,0,1,65.7,273.1Z"/><path d="M81.6,271.9v11.9h-2v-1.9a5,5,0,0,1-1.7,1.5,6,6,0,0,1-2.4.5,5.7,5.7,0,0,1-2.9-.8,5.3,5.3,0,0,1-2.1-2.1,6.6,6.6,0,0,1-.7-3.2,6.2,6.2,0,0,1,.7-3.1,5.3,5.3,0,0,1,2.1-2.1,4.9,4.9,0,0,1,2.9-.8,5.6,5.6,0,0,1,2.3.5,3.9,3.9,0,0,1,1.7,1.4v-1.8Zm-3.9,9.6a5,5,0,0,0,1.4-1.5,5.1,5.1,0,0,0,.5-2.2,4.6,4.6,0,0,0-.5-2.1,3.4,3.4,0,0,0-1.4-1.5,3.5,3.5,0,0,0-2-.5,3,3,0,0,0-1.9.5,2.9,2.9,0,0,0-1.4,1.5,3.6,3.6,0,0,0-.5,2.1,4.1,4.1,0,0,0,1.9,3.7,3.8,3.8,0,0,0,1.9.5A4.6,4.6,0,0,0,77.7,281.5Z"/><path d="M85.6,269.2a1.2,1.2,0,0,1-.4-1,1.4,1.4,0,0,1,.4-1,1.5,1.5,0,0,1,1-.4,1.4,1.4,0,0,1,1,2.4,1.3,1.3,0,0,1-1,.4A1.2,1.2,0,0,1,85.6,269.2Zm-.1,2.7h2.1v11.9H85.5Z"/><path d="M92.4,282.9a3.6,3.6,0,0,1-.9-2.6V267.2h2.1v12.9a2.4,2.4,0,0,0,.4,1.5,2,2,0,0,0,1.4.5l1-.2v1.7a4,4,0,0,1-1.5.3A3.3,3.3,0,0,1,92.4,282.9Z"/><path d="M115.6,269.8a7,7,0,0,1,1.8,5.2v8.8h-2.2v-4.4h-8.7v4.4h-2.1V275a7,7,0,0,1,1.8-5.2,6.8,6.8,0,0,1,9.4,0Zm-.4,7.7v-2.7a5.8,5.8,0,0,0-1.1-3.7,4.4,4.4,0,0,0-3.2-1.2,4.1,4.1,0,0,0-3.2,1.2,5.3,5.3,0,0,0-1.2,3.7v2.7Z"/><path d="M132.2,267.2v16.6h-1.9v-1.9a6.5,6.5,0,0,1-1.8,1.5,5.9,5.9,0,0,1-2.3.5,6.1,6.1,0,0,1-3-.8,5.1,5.1,0,0,1-2-2.1,6.6,6.6,0,0,1-.8-3.2,6.2,6.2,0,0,1,.8-3.1,5.1,5.1,0,0,1,2-2.1,5.2,5.2,0,0,1,3-.8,5.1,5.1,0,0,1,2.2.5,4.9,4.9,0,0,1,1.8,1.4v-6.5Zm-3.9,14.3a4,4,0,0,0,1.4-1.5,5.1,5.1,0,0,0,.5-2.2,4.6,4.6,0,0,0-.5-2.1,2.9,2.9,0,0,0-1.4-1.5,3.2,3.2,0,0,0-1.9-.5,3.3,3.3,0,0,0-2,.5,2.9,2.9,0,0,0-1.4,1.5,4.6,4.6,0,0,0-.5,2.1,5.1,5.1,0,0,0,.5,2.2,4,4,0,0,0,1.4,1.5,4.2,4.2,0,0,0,2,.5A4.1,4.1,0,0,0,128.3,281.5Z"/><path d="M146.9,267.2v16.6h-2v-1.9a5,5,0,0,1-1.7,1.5,5.9,5.9,0,0,1-2.3.5,6.1,6.1,0,0,1-3-.8,5.3,5.3,0,0,1-2.1-2.1,7.9,7.9,0,0,1-.7-3.2,7.4,7.4,0,0,1,.7-3.1,5.3,5.3,0,0,1,2.1-2.1,5.2,5.2,0,0,1,3-.8,5.4,5.4,0,0,1,2.2.5,4.9,4.9,0,0,1,1.8,1.4v-6.5ZM143,281.5a4,4,0,0,0,1.4-1.5,5.1,5.1,0,0,0,.5-2.2,4.6,4.6,0,0,0-.5-2.1,2.9,2.9,0,0,0-1.4-1.5,3.3,3.3,0,0,0-2-.5,3.2,3.2,0,0,0-1.9.5,2.9,2.9,0,0,0-1.4,1.5,4.6,4.6,0,0,0-.5,2.1,5.1,5.1,0,0,0,.5,2.2,4,4,0,0,0,1.4,1.5,4.1,4.1,0,0,0,1.9.5A4.2,4.2,0,0,0,143,281.5Z"/><path d="M154.4,272.3a6.7,6.7,0,0,1,2.6-.5v2.1h-.5a3.3,3.3,0,0,0-2.6,1,4,4,0,0,0-1,3v5.9h-2.1V271.9h2v2A4.1,4.1,0,0,1,154.4,272.3Z"/><path d="M167.9,280.6,169,282a5.2,5.2,0,0,1-1.9,1.4,7.1,7.1,0,0,1-2.6.5,6.6,6.6,0,0,1-3.2-.8,5.6,5.6,0,0,1-2.2-2.1,6.8,6.8,0,0,1-.7-3.2,6.4,6.4,0,0,1,.7-3.1,5.3,5.3,0,0,1,2.1-2.1,5.5,5.5,0,0,1,2.9-.8,5.3,5.3,0,0,1,2.8.7,5.1,5.1,0,0,1,2,2.1,5.8,5.8,0,0,1,.8,3l-9.1,1.8a3.2,3.2,0,0,0,1.5,1.9,4.1,4.1,0,0,0,2.5.7A4.5,4.5,0,0,0,167.9,280.6Zm-5.7-6.5a4.1,4.1,0,0,0-1.4,1.5,4.6,4.6,0,0,0-.4,2.1v.2l7.3-1.4a3.3,3.3,0,0,0-1.3-2.1,3.6,3.6,0,0,0-2.3-.8A3.8,3.8,0,0,0,162.2,274.1Z"/><path d="M173.2,283.5a5.3,5.3,0,0,1-2-1l.8-1.7a4.8,4.8,0,0,0,1.9.9,7.6,7.6,0,0,0,2.1.3c1.8,0,2.7-.5,2.7-1.6a1.1,1.1,0,0,0-.3-.8l-.9-.5-1.6-.3-2.3-.5a4.4,4.4,0,0,1-1.5-1,3,3,0,0,1-.6-2,3.1,3.1,0,0,1,1.3-2.5,5.4,5.4,0,0,1,3.5-1l2.3.3a4.3,4.3,0,0,1,1.8.8l-.8,1.7a5.6,5.6,0,0,0-3.3-1,3.4,3.4,0,0,0-2,.5,1.3,1.3,0,0,0-.7,1.2,1.1,1.1,0,0,0,.4.9,1.9,1.9,0,0,0,.9.5l1.6.3,2.3.6a3.1,3.1,0,0,1,1.4.9,2.7,2.7,0,0,1,.6,1.9,2.9,2.9,0,0,1-1.3,2.5,5.7,5.7,0,0,1-3.6,1A7.7,7.7,0,0,1,173.2,283.5Z"/><path d="M184,283.5a6.9,6.9,0,0,1-2.1-1l.9-1.7a5.1,5.1,0,0,0,1.8.9l2.2.3c1.8,0,2.7-.5,2.7-1.6a1.1,1.1,0,0,0-.3-.8,3.1,3.1,0,0,0-1-.5l-1.5-.3-2.3-.5a4.4,4.4,0,0,1-1.5-1,3,3,0,0,1-.6-2,2.9,2.9,0,0,1,1.3-2.5,5.4,5.4,0,0,1,3.5-1l2.3.3a4.9,4.9,0,0,1,1.8.8l-.9,1.7a5.1,5.1,0,0,0-3.2-1,3.4,3.4,0,0,0-2,.5,1.3,1.3,0,0,0-.7,1.2,1.4,1.4,0,0,0,.3.9,3.1,3.1,0,0,0,1,.5l1.6.3,2.2.6a2.9,2.9,0,0,1,1.5.9,2.7,2.7,0,0,1,.6,1.9,2.9,2.9,0,0,1-1.3,2.5,5.7,5.7,0,0,1-3.6,1A7.7,7.7,0,0,1,184,283.5Z"/><path d="M677.8,357.5H38.5a6.8,6.8,0,0,1-6.8-6.8V307a6.8,6.8,0,0,1,6.8-6.8H677.8a6.8,6.8,0,0,1,6.8,6.8v43.7A6.8,6.8,0,0,1,677.8,357.5Z" style="fill:none;stroke:gray;stroke-miterlimit:10;stroke-width:1.32751287039027px"/><path d="M251.8,438.8a3.5,3.5,0,0,1-3.5-3.6V390.1a3.5,3.5,0,0,1,3.5-3.5H471.3a3.6,3.6,0,0,1,3.6,3.5v45.1a3.6,3.6,0,0,1-3.6,3.6Z" style="fill:#333"/><path d="M471.3,387.1a3,3,0,0,1,3,3v45.1a2.9,2.9,0,0,1-3,3H251.8a3,3,0,0,1-3-3V390.1a3.1,3.1,0,0,1,3-3H471.3m0-1.1H251.8a4.1,4.1,0,0,0-4.1,4.1v45.1a4.1,4.1,0,0,0,4.1,4.1H471.3a4.1,4.1,0,0,0,4.1-4.1V390.1a4.1,4.1,0,0,0-4.1-4.1Z"/><path d="M318.2,419.4a8.7,8.7,0,0,1-2.7-1.5l.9-1.9a8.9,8.9,0,0,0,2.4,1.4,10.5,10.5,0,0,0,3,.5,4.7,4.7,0,0,0,3-.7,2.3,2.3,0,0,0,1.1-1.9,1.7,1.7,0,0,0-.6-1.4,3.4,3.4,0,0,0-1.4-.9l-2.2-.6-3-.9a4.8,4.8,0,0,1-2-1.5,3.9,3.9,0,0,1-.8-2.5,5.2,5.2,0,0,1,.7-2.5,5.1,5.1,0,0,1,2.1-1.7,7.5,7.5,0,0,1,3.5-.7,9.7,9.7,0,0,1,2.9.4,6.6,6.6,0,0,1,2.4,1.1l-.8,1.9-2.2-1a9.1,9.1,0,0,0-2.3-.3,5.1,5.1,0,0,0-3,.7,2.6,2.6,0,0,0-1,2,2,2,0,0,0,.6,1.4,4.7,4.7,0,0,0,1.4.8l2.2.7,3,.9a4.5,4.5,0,0,1,1.9,1.4,3.6,3.6,0,0,1,.9,2.6,4.3,4.3,0,0,1-.8,2.4,4.1,4.1,0,0,1-2.1,1.7,7.3,7.3,0,0,1-3.5.7A11.3,11.3,0,0,1,318.2,419.4Z" style="fill:#f2f2f2"/><path d="M331.3,404a1.4,1.4,0,0,1-.5-1.1,1.4,1.4,0,0,1,.5-1,1.4,1.4,0,0,1,1.1-.5,1.6,1.6,0,0,1,1.1,2.6,1.5,1.5,0,0,1-1.1.4A1.4,1.4,0,0,1,331.3,404Zm-.1,2.9h2.3v12.9h-2.3Z" style="fill:#f2f2f2"/><path d="M349.6,406.9V418c0,2.3-.5,4-1.6,5a6.4,6.4,0,0,1-4.8,1.7,11.4,11.4,0,0,1-3.3-.5,6,6,0,0,1-2.6-1.5l1.1-1.8a5,5,0,0,0,2.1,1.3,7.8,7.8,0,0,0,2.6.4,4.1,4.1,0,0,0,3.3-1.1,4.2,4.2,0,0,0,1-3.2v-1a6.2,6.2,0,0,1-2,1.5,6.6,6.6,0,0,1-2.5.5,6.3,6.3,0,0,1-5.5-3,7.3,7.3,0,0,1-.8-3.3,6.6,6.6,0,0,1,.8-3.2,5.4,5.4,0,0,1,2.3-2.2,6.9,6.9,0,0,1,3.2-.8,7.1,7.1,0,0,1,2.6.5,5.3,5.3,0,0,1,2,1.6v-2Zm-4.2,9.8a5.4,5.4,0,0,0,1.5-1.5,4,4,0,0,0,.5-2.2,4.4,4.4,0,0,0-1.1-3,4.3,4.3,0,0,0-3.1-1.2,4.1,4.1,0,0,0-3.1,1.2,4.1,4.1,0,0,0-1.2,3,5.1,5.1,0,0,0,.5,2.2,4.6,4.6,0,0,0,1.6,1.5,5.1,5.1,0,0,0,2.2.5A5.4,5.4,0,0,0,345.4,416.7Z" style="fill:#f2f2f2"/><path d="M364.3,408.2a6.1,6.1,0,0,1,1.4,4.2v7.4h-2.2v-7.1a4.2,4.2,0,0,0-.9-2.9,3.3,3.3,0,0,0-2.5-.9,4,4,0,0,0-2.9,1.1,4.4,4.4,0,0,0-1,3.2v6.6h-2.3V406.9h2.2v2a4.6,4.6,0,0,1,1.8-1.6,7.6,7.6,0,0,1,2.7-.5A5.1,5.1,0,0,1,364.3,408.2Z" style="fill:#f2f2f2"/><path d="M378.2,418a7.6,7.6,0,0,1-1.8-5.5v-9.7h2.3v9.6c0,3.6,1.5,5.4,4.6,5.4a4.5,4.5,0,0,0,3.5-1.3,6.1,6.1,0,0,0,1.2-4.1v-9.6h2.2v9.7a8,8,0,0,1-1.8,5.6,6.9,6.9,0,0,1-5.1,1.9A6.6,6.6,0,0,1,378.2,418Z" style="fill:#f2f2f2"/><path d="M404.5,407.6a5.4,5.4,0,0,1,2.2,2.3,6.8,6.8,0,0,1,.9,3.5,6.4,6.4,0,0,1-.9,3.4,4.9,4.9,0,0,1-2.2,2.3,5.7,5.7,0,0,1-3.2.8,5.3,5.3,0,0,1-2.5-.5,6.6,6.6,0,0,1-1.9-1.5v6.6h-2.2V406.9h2.2V409a5.2,5.2,0,0,1,1.9-1.7,6.7,6.7,0,0,1,5.7.3Zm-1.3,9.7a2.9,2.9,0,0,0,1.5-1.6,4.4,4.4,0,0,0,.6-2.3,4.8,4.8,0,0,0-.6-2.4,3.3,3.3,0,0,0-1.5-1.6,4,4,0,0,0-4.2,0,3.3,3.3,0,0,0-1.5,1.6,4.8,4.8,0,0,0-.6,2.4,4.4,4.4,0,0,0,.6,2.3,2.9,2.9,0,0,0,1.5,1.6,4,4,0,0,0,4.2,0Z" style="fill:#f2f2f2"/><rect width="723" height="58" style="fill:#ddd9d2"/><rect y="454" width="723" height="28" style="fill:#fff"/></g></g></svg>