<svg xmlns="http://www.w3.org/2000/svg" viewBox="0 0 431 289.2"><g id="Layer_2" data-name="Layer 2"><g id="Layer_1-2" data-name="Layer 1"><g id="Layer_2-2" data-name="Layer 2"><g id="Layer_1-2-2" data-name="Layer 1-2"><path d="M12.8,0H418.2C425.3,0,431,3.8,431,8.6V280.7c0,4.7-5.7,8.5-12.8,8.5H12.8c-7.1,0-12.8-3.8-12.8-8.5V8.6C0,3.8,5.7,0,12.8,0Z" style="fill:#f7f7f7"/><g style="opacity:0.5600000023841858"><path d="M98.4,86.9h82.9a9.6,9.6,0,0,1,9.5,9.5h0v31.7a9.5,9.5,0,0,1-9.5,9.5H151.6l4,10-17.9-10H98.4a9.5,9.5,0,0,1-9.5-9.5h0V96.4a9.5,9.5,0,0,1,9.4-9.5Z" style="fill:#9a5c8e"/><path d="M94.7,95.6a3.3,3.3,0,0,1,2.6-1.3,3.1,3.1,0,0,1,3.6,3c1.3,8.7,2.7,16,4.2,22l9.1-17.3c.8-1.5,1.8-2.4,3.1-2.4s2.9,1,3.4,3.4a76.5,76.5,0,0,0,3.9,14.2c1.1-10.5,2.9-18.1,5.5-22.8a3.3,3.3,0,0,1,2.7-1.8,3.6,3.6,0,0,1,3.9,3.2,3.4,3.4,0,0,1-.4,2c-1.6,3-3,8-4,15a83.5,83.5,0,0,0-1.2,15.8,4.2,4.2,0,0,1-.5,2.7,2.7,2.7,0,0,1-2.2,1.5,4.4,4.4,0,0,1-3.2-1.5c-3.9-4-6.9-9.9-9.2-17.7-2.6,5.3-4.6,9.3-6,11.9-2.4,4.7-4.5,7.1-6.2,7.2s-2.1-.8-2.9-2.8c-2.1-5.4-4.4-15.9-6.9-31.4A3.7,3.7,0,0,1,94.7,95.6Zm89,6.5a9.6,9.6,0,0,0-6.6-4.8,8.3,8.3,0,0,0-2.2-.3c-4,0-7.2,2.1-9.8,6.3a22.5,22.5,0,0,0-3.2,11.6,15.6,15.6,0,0,0,2,8.2,9.6,9.6,0,0,0,6.6,4.8,9.1,9.1,0,0,0,2.3.3c4,0,7.2-2.1,9.7-6.2a22.2,22.2,0,0,0,3.2-11.7,15.6,15.6,0,0,0-2-8.2Zm-5.2,11.5a11.9,11.9,0,0,1-3.1,6.1A4.3,4.3,0,0,1,172,121q-1.5-.3-2.4-2.7a9.5,9.5,0,0,1-.8-3.7,14.5,14.5,0,0,1,.3-3,13.2,13.2,0,0,1,2.2-5c1.4-2,2.8-2.8,4.3-2.5s1.8,1,2.4,2.7a9.5,9.5,0,0,1,.8,3.7,16.3,16.3,0,0,1-.3,3.1Zm-20.7-11.5a9.6,9.6,0,0,0-6.6-4.8,9,9,0,0,0-2.3-.2c-4,0-7.2,2-9.7,6.2a22.5,22.5,0,0,0-3.2,11.6,15.6,15.6,0,0,0,2,8.2,9.6,9.6,0,0,0,6.6,4.8,9.1,9.1,0,0,0,2.3.3c4,0,7.2-2.1,9.7-6.2a22.2,22.2,0,0,0,3.2-11.7A15.6,15.6,0,0,0,157.8,102.1Zm-5.3,11.5a10.3,10.3,0,0,1-3.1,6.1A3.9,3.9,0,0,1,146,121c-1-.2-1.8-1-2.4-2.7a9.5,9.5,0,0,1-.8-3.7,15.3,15.3,0,0,1,.3-3,15,15,0,0,1,2.2-5c1.4-2,2.8-2.8,4.3-2.5s1.8,1.1,2.5,2.7a11.6,11.6,0,0,1,.7,3.7,15.5,15.5,0,0,1-.3,3.1Z" style="fill:#fff"/></g><g style="opacity:0.5699999928474426"><path d="M106.9,171.6a8.2,8.2,0,0,1,.4,11.4.8.8,0,0,0-.4.4,10.9,10.9,0,0,1-7,2.1H93.1v7.8H91.3V169.5h8.5A10.5,10.5,0,0,1,106.9,171.6Zm-1.2,10.7a6.9,6.9,0,0,0,.1-9.5c-.1,0-.1,0-.1-.1a9.5,9.5,0,0,0-5.9-1.7H93v12.9h6.8A8.8,8.8,0,0,0,105.7,182.3Z"/><path d="M118.4,176.4a8.7,8.7,0,0,1,4.2-1v1.7h-.4a6,6,0,0,0-4.6,1.8,7.6,7.6,0,0,0-1.7,5.2v9.2h-1.7V175.5h1.6v3.9A6.3,6.3,0,0,1,118.4,176.4Z"/><path d="M129.5,192.3a9.2,9.2,0,0,1-3.2-3.3,10,10,0,0,1,0-9.2,9.2,9.2,0,0,1,3.2-3.3,9.8,9.8,0,0,1,9.1,0,9.2,9.2,0,0,1,3.2,3.3,10,10,0,0,1,0,9.2,9.2,9.2,0,0,1-3.2,3.3,9.8,9.8,0,0,1-9.1,0Zm8.2-1.4a6.5,6.5,0,0,0,2.6-2.6,8.9,8.9,0,0,0,0-7.8,6.5,6.5,0,0,0-2.6-2.6,7.3,7.3,0,0,0-7.3,0,5.7,5.7,0,0,0-2.5,2.6,8.3,8.3,0,0,0,0,7.8,5.7,5.7,0,0,0,2.5,2.6A7.3,7.3,0,0,0,137.7,190.9Z"/><path d="M164,168v25.3h-1.7v-4.2a7.1,7.1,0,0,1-3,3.2,8.1,8.1,0,0,1-4.3,1.1,10,10,0,0,1-4.5-1.1,8.6,8.6,0,0,1-3.1-3.2,9.8,9.8,0,0,1,0-9.4,8.6,8.6,0,0,1,3.1-3.2,10,10,0,0,1,4.5-1.1,9.2,9.2,0,0,1,4.3,1.1,8.9,8.9,0,0,1,3,3.1V168Zm-5.2,22.9a6.5,6.5,0,0,0,2.6-2.6,8.9,8.9,0,0,0,0-7.8,6.5,6.5,0,0,0-2.6-2.6,7.3,7.3,0,0,0-7.3,0,5.7,5.7,0,0,0-2.5,2.6,8.3,8.3,0,0,0,0,7.8,5.7,5.7,0,0,0,2.5,2.6A7.3,7.3,0,0,0,158.8,190.9Z"/><path d="M186.7,175.5v17.8h-1.6v-3.8a6.9,6.9,0,0,1-2.7,2.9,7.9,7.9,0,0,1-4,1,6.9,6.9,0,0,1-7.5-6.2V175.5h1.7v10.3a6.2,6.2,0,0,0,1.6,4.5,5.6,5.6,0,0,0,4.3,1.6,5.9,5.9,0,0,0,4.7-1.9,7.2,7.2,0,0,0,1.8-5v-9.4Z"/><path d="M196.3,192.3a9.2,9.2,0,0,1-3.2-3.3,10.2,10.2,0,0,1,0-9.3,9.8,9.8,0,0,1,3.2-3.2,10.4,10.4,0,0,1,4.6-1.1,10.1,10.1,0,0,1,3.9.8,7.1,7.1,0,0,1,2.9,2.5l-1.3.9a5.2,5.2,0,0,0-2.4-2,6.4,6.4,0,0,0-3.1-.7,7.8,7.8,0,0,0-3.7.9,7.5,7.5,0,0,0-2.6,2.7,8.9,8.9,0,0,0,0,7.8,6.5,6.5,0,0,0,2.6,2.6,6.9,6.9,0,0,0,3.7,1,6.4,6.4,0,0,0,3.1-.7,5.2,5.2,0,0,0,2.4-2l1.3.9a7.1,7.1,0,0,1-2.9,2.5,10.1,10.1,0,0,1-3.9.8A10.4,10.4,0,0,1,196.3,192.3Z"/><path d="M221.8,192.1a3.7,3.7,0,0,1-1.6.9,5.1,5.1,0,0,1-2,.4,4.7,4.7,0,0,1-3.6-1.3,5.3,5.3,0,0,1-1.3-3.6V176.9H210v-1.4h3.3v-3.9H215v3.9h5.6v1.4H215v11.5a3.4,3.4,0,0,0,.8,2.6,3,3,0,0,0,2.5.9,3.7,3.7,0,0,0,2.8-1Z"/><path d="M234.8,169.5h4.4v23.8h-4.4Z"/><path d="M273.6,176.9c1.4,1.3,2,3.3,2,6v10.4h-4.2v-9.9a5.2,5.2,0,0,0-1.1-3.6,4.2,4.2,0,0,0-3-1.2,4.8,4.8,0,0,0-3.4,1.4,6,6,0,0,0-1.3,4v9.2h-4.3v-9.8a5.2,5.2,0,0,0-1-3.6,4.2,4.2,0,0,0-3-1.2,5,5,0,0,0-3.5,1.4,5.8,5.8,0,0,0-1.2,4v9.2h-4.3V175.1h4v2.3a6.8,6.8,0,0,1,2.6-1.8,7.7,7.7,0,0,1,3.4-.7,7.8,7.8,0,0,1,3.6.8,6.7,6.7,0,0,1,2.5,2.2,7.2,7.2,0,0,1,2.9-2.2,10.1,10.1,0,0,1,3.9-.8A7.1,7.1,0,0,1,273.6,176.9Z"/><path d="M294.1,176.8c1.5,1.3,2.2,3.2,2.2,5.8v10.7h-4v-2.2a4.8,4.8,0,0,1-2.2,1.8,8.7,8.7,0,0,1-3.5.7,10.5,10.5,0,0,1-3.6-.7,5.2,5.2,0,0,1-2.4-2,5.4,5.4,0,0,1-.8-2.8,4.9,4.9,0,0,1,1.8-4q1.8-1.5,5.7-1.5H292v-.2a3.8,3.8,0,0,0-1.1-3,5.2,5.2,0,0,0-3.4-1,9.9,9.9,0,0,0-3,.5,7.5,7.5,0,0,0-2.5,1.3l-1.7-3.1a10.6,10.6,0,0,1,3.4-1.6,15.4,15.4,0,0,1,4.3-.6A8.4,8.4,0,0,1,294.1,176.8Zm-3.8,12.9a3.9,3.9,0,0,0,1.7-2.1v-2.1h-4.4q-3.6,0-3.6,2.4a1.9,1.9,0,0,0,.9,1.8,3.7,3.7,0,0,0,2.5.7,5.9,5.9,0,0,0,2.9-.7Z"/><path d="M319.9,175.1v15.4c0,6.4-3.3,9.6-9.8,9.6a16.8,16.8,0,0,1-5-.7,10.1,10.1,0,0,1-3.9-1.9l1.9-3.2a8.7,8.7,0,0,0,3,1.6,11.9,11.9,0,0,0,3.7.6,6.3,6.3,0,0,0,4.4-1.4,5.6,5.6,0,0,0,1.4-4.1v-1a5.6,5.6,0,0,1-2.7,1.8,8,8,0,0,1-3.4.7,11.2,11.2,0,0,1-4.7-1.1,8.9,8.9,0,0,1-3.3-12.3,8.9,8.9,0,0,1,3.3-3.1,11.2,11.2,0,0,1,4.7-1.1,8.9,8.9,0,0,1,3.6.7,6,6,0,0,1,2.7,2v-2.5Zm-5.7,12.3a4.8,4.8,0,0,0,1.5-3.7,4.8,4.8,0,0,0-1.5-3.8,6.3,6.3,0,0,0-8,0,4.9,4.9,0,0,0-1.6,3.8,4.9,4.9,0,0,0,1.6,3.7A6.1,6.1,0,0,0,314.2,187.4Z"/><path d="M342.5,185.6H328.2a5,5,0,0,0,2,3.1,6.2,6.2,0,0,0,3.9,1.2,6.6,6.6,0,0,0,5-2l2.2,2.6a6.5,6.5,0,0,1-3,2.2,12.1,12.1,0,0,1-9.5-.4,8.6,8.6,0,0,1-3.5-3.3,9.4,9.4,0,0,1-1.3-4.8,9.8,9.8,0,0,1,1.2-4.8,8.3,8.3,0,0,1,3.4-3.3,10.1,10.1,0,0,1,4.8-1.2,9.7,9.7,0,0,1,4.7,1.2,8.7,8.7,0,0,1,3.3,3.3,9.3,9.3,0,0,1,1.1,4.9Zm-12.6-6a4.8,4.8,0,0,0-1.7,3.2h10.3a4.4,4.4,0,0,0-1.7-3.2,5.3,5.3,0,0,0-6.9,0Z"/></g></g></g></g></g></svg>