<svg xmlns="http://www.w3.org/2000/svg" xmlns:xlink="http://www.w3.org/1999/xlink" viewBox="0 0 723 482.3"><defs><clipPath id="clip-path"><path d="M722.5,482.2.5,482c.2-.2,0,.2-.5,0L1.5,0h1l720,.3c0-.3,0-.3.5.7V482C722.5,482.2,722.3,482,722.5,482.2Z" style="fill:#fff"/></clipPath></defs><g id="Layer_2" data-name="Layer 2"><g id="Layer_1-2" data-name="Layer 1"><path d="M722.5,482.2.5,482c.2-.2,0,.2-.5,0L1.5,0h1l720,.3c0-.3,0-.3.5.7V482C722.5,482.2,722.3,482,722.5,482.2Z" style="fill:#fff"/><g style="clip-path:url(#clip-path)"><rect x="495" y="0.3" width="228" height="482" style="fill:#ddd9d2"/></g><path d="M74.9,91.1a11.1,11.1,0,0,1-4.4-2.8l1.1-2.4a12,12,0,0,0,4.1,2.6,16.1,16.1,0,0,0,5.3,1A9.2,9.2,0,0,0,86.7,88a4.3,4.3,0,0,0,1.9-3.7,3.9,3.9,0,0,0-1-2.9A7.6,7.6,0,0,0,85,79.8c-1-.3-2.3-.8-4.1-1.2A45.8,45.8,0,0,1,75.8,77a7.8,7.8,0,0,1-3.3-2.4,6.5,6.5,0,0,1-1.3-4.3,7.2,7.2,0,0,1,1.1-4.1,7.8,7.8,0,0,1,3.5-2.9,13.9,13.9,0,0,1,5.8-1.1,15.9,15.9,0,0,1,4.8.7,14.8,14.8,0,0,1,4,1.9l-1,2.5a14.6,14.6,0,0,0-3.8-1.8,14.4,14.4,0,0,0-4-.6A8.9,8.9,0,0,0,76,66.4a4.4,4.4,0,0,0-1.9,3.8,4.1,4.1,0,0,0,1,2.8,7.8,7.8,0,0,0,2.6,1.7l4.2,1.2A39.4,39.4,0,0,1,87,77.5a9,9,0,0,1,3.2,2.3,6.5,6.5,0,0,1,1.4,4.3,7,7,0,0,1-1.2,4A7.3,7.3,0,0,1,86.9,91,13.2,13.2,0,0,1,81,92.1,18.1,18.1,0,0,1,74.9,91.1Z"/><path d="M116.7,69.8V91.9h-2.8V87.8a8.7,8.7,0,0,1-3.1,3.2,9.4,9.4,0,0,1-4.5,1.1,8.9,8.9,0,0,1-6.6-2.4c-1.6-1.7-2.4-4-2.4-7.1V69.8h2.8V82.3a7.7,7.7,0,0,0,1.7,5.3,6.1,6.1,0,0,0,4.7,1.8,6.8,6.8,0,0,0,5.3-2.1,8.6,8.6,0,0,0,2-5.9V69.8Z"/><path d="M141.1,71a10.4,10.4,0,0,1,3.8,4,12.1,12.1,0,0,1,1.4,5.8,12.8,12.8,0,0,1-1.4,5.9,9.5,9.5,0,0,1-3.8,3.9,10,10,0,0,1-5.4,1.5,9.5,9.5,0,0,1-4.8-1.2,8.6,8.6,0,0,1-3.4-3.4v4.4h-2.8V60.7h2.9V74a9,9,0,0,1,3.4-3.3,10.2,10.2,0,0,1,4.7-1.1A10.9,10.9,0,0,1,141.1,71Zm-1.6,17.4a8.6,8.6,0,0,0,2.9-3.1,10.6,10.6,0,0,0,0-9,7.6,7.6,0,0,0-2.9-3,7.7,7.7,0,0,0-4-1.1,8.1,8.1,0,0,0-4.1,1.1,7.4,7.4,0,0,0-2.8,3,9.8,9.8,0,0,0,0,9,8.4,8.4,0,0,0,2.8,3.1,8,8,0,0,0,4.1,1A7.7,7.7,0,0,0,139.5,88.4Z"/><path d="M152.9,91.3a9.9,9.9,0,0,1-3.7-2l1.3-2.3a12.9,12.9,0,0,0,3.3,1.8,15.5,15.5,0,0,0,4.3.7,7.4,7.4,0,0,0,4.3-1,3,3,0,0,0,1.4-2.6,2.6,2.6,0,0,0-.8-2,5.4,5.4,0,0,0-2-1l-3.1-.7a35.3,35.3,0,0,1-4.1-1,6.4,6.4,0,0,1-2.7-1.8,4.8,4.8,0,0,1-1.1-3.5,5.4,5.4,0,0,1,2.2-4.5,9.5,9.5,0,0,1,6.2-1.8,14.5,14.5,0,0,1,4.1.6,12,12,0,0,1,3.4,1.5l-1.2,2.4a10.4,10.4,0,0,0-6.3-1.9,7.1,7.1,0,0,0-4.2,1,3,3,0,0,0-1.4,2.6,2.6,2.6,0,0,0,.8,2,4.3,4.3,0,0,0,2,1.1l3.2.8a35.3,35.3,0,0,1,4.1,1,5.6,5.6,0,0,1,2.6,1.7,4.5,4.5,0,0,1,1.1,3.4,5.4,5.4,0,0,1-2.3,4.6,10.8,10.8,0,0,1-6.4,1.7A16.4,16.4,0,0,1,152.9,91.3Z"/><path d="M175.1,90.6a10,10,0,0,1-3.9-4,12.1,12.1,0,0,1-1.4-5.8,12.4,12.4,0,0,1,1.4-5.8,11.5,11.5,0,0,1,3.9-4,12,12,0,0,1,5.7-1.4,11.4,11.4,0,0,1,4.9,1.1,8.3,8.3,0,0,1,3.4,3.3L187,75.5a8,8,0,0,0-2.7-2.5,8.5,8.5,0,0,0-3.5-.8,8.2,8.2,0,0,0-4.2,1.1,7.6,7.6,0,0,0-2.9,3,10.6,10.6,0,0,0,0,9,8.6,8.6,0,0,0,2.9,3.1,8.2,8.2,0,0,0,4.2,1,7.2,7.2,0,0,0,3.5-.8,6.8,6.8,0,0,0,2.7-2.4l2.1,1.5a9,9,0,0,1-3.4,3.3,11.4,11.4,0,0,1-4.9,1.1A11,11,0,0,1,175.1,90.6Z"/><path d="M200.5,70.7a10.4,10.4,0,0,1,4.9-1.1v2.9h-.6a6.8,6.8,0,0,0-5.3,2.1c-1.3,1.4-1.9,3.4-1.9,6V91.9h-2.9V69.8h2.8v4.3A7.1,7.1,0,0,1,200.5,70.7Z"/><path d="M210.6,64.3a2,2,0,0,1-.6-1.5,2.2,2.2,0,0,1,.6-1.5,2.1,2.1,0,1,1,0,3Zm0,5.5h2.9V91.9h-2.9Z"/><path d="M237.9,71a10.4,10.4,0,0,1,3.8,4,12.1,12.1,0,0,1,1.4,5.8,12.8,12.8,0,0,1-1.4,5.9,9.5,9.5,0,0,1-3.8,3.9,10,10,0,0,1-5.4,1.5,9.5,9.5,0,0,1-4.8-1.2,8.6,8.6,0,0,1-3.4-3.4v4.4h-2.8V60.7h2.9V74a9,9,0,0,1,3.4-3.3,10.5,10.5,0,0,1,4.7-1.1A10.9,10.9,0,0,1,237.9,71Zm-1.6,17.4a8.6,8.6,0,0,0,2.9-3.1,10.6,10.6,0,0,0,0-9,7.6,7.6,0,0,0-2.9-3,7.7,7.7,0,0,0-4-1.1,8.1,8.1,0,0,0-4.1,1.1,7.4,7.4,0,0,0-2.8,3,9.8,9.8,0,0,0,0,9,8.4,8.4,0,0,0,2.8,3.1,8,8,0,0,0,4.1,1A7.7,7.7,0,0,0,236.3,88.4Z"/><path d="M261.7,88.7a7.7,7.7,0,0,0,2.9-2.2l1.6,2a10,10,0,0,1-3.5,2.6,10.4,10.4,0,0,1-4.7,1,11.1,11.1,0,0,1-5.8-1.5,10.3,10.3,0,0,1-4-4,12.1,12.1,0,0,1-1.4-5.8,12.4,12.4,0,0,1,1.4-5.8,10.2,10.2,0,0,1,3.7-4,10.9,10.9,0,0,1,5.4-1.4,9.8,9.8,0,0,1,5.1,1.4,8.8,8.8,0,0,1,3.7,3.7,10.9,10.9,0,0,1,1.4,5.4L250,83.7a8.2,8.2,0,0,0,3,4.2,9.5,9.5,0,0,0,8.7.8Zm-8.4-15.5a8.7,8.7,0,0,0-2.7,3,9.2,9.2,0,0,0-1,4.4v.9l15.1-3a8,8,0,0,0-2.5-4.5,7.1,7.1,0,0,0-4.9-1.8A7.7,7.7,0,0,0,253.3,73.2Z"/><path d="M294.5,90.5a6.7,6.7,0,0,1-2,1.2,10.1,10.1,0,0,1-2.5.4,6.2,6.2,0,0,1-4.6-1.7,6.5,6.5,0,0,1-1.6-4.8V64.9h2.9v4.9h6.4v2.5h-6.4V85.5a4.5,4.5,0,0,0,.9,3,3.3,3.3,0,0,0,2.7,1,4.8,4.8,0,0,0,3.2-1.1Z"/><path d="M302.1,90.6a9.4,9.4,0,0,1-3.9-4,12.1,12.1,0,0,1-1.4-5.8,12.4,12.4,0,0,1,1.4-5.8,10,10,0,0,1,3.9-4,11.2,11.2,0,0,1,5.5-1.4,11.6,11.6,0,0,1,5.6,1.4,10.4,10.4,0,0,1,3.8,4,11.3,11.3,0,0,1,1.4,5.8,11.1,11.1,0,0,1-1.4,5.8,9.8,9.8,0,0,1-3.8,4,10.7,10.7,0,0,1-5.6,1.5A10.3,10.3,0,0,1,302.1,90.6Zm9.6-2.2a8.4,8.4,0,0,0,2.8-3.1,10.6,10.6,0,0,0,0-9,7.4,7.4,0,0,0-2.8-3,8.1,8.1,0,0,0-4.1-1.1,7.7,7.7,0,0,0-4,1.1,7.6,7.6,0,0,0-2.9,3,10.6,10.6,0,0,0,0,9,8.6,8.6,0,0,0,2.9,3.1,7.7,7.7,0,0,0,4,1A8,8,0,0,0,311.7,88.4Z"/><path d="M338.1,90.6a9.4,9.4,0,0,1-3.9-4,11.1,11.1,0,0,1-1.4-5.8,11.3,11.3,0,0,1,1.4-5.8,10,10,0,0,1,3.9-4,11.2,11.2,0,0,1,5.5-1.4,11.6,11.6,0,0,1,5.6,1.4,10.4,10.4,0,0,1,3.8,4,11.3,11.3,0,0,1,1.4,5.8,11.1,11.1,0,0,1-1.4,5.8,9.8,9.8,0,0,1-3.8,4,10.7,10.7,0,0,1-5.6,1.5A10.3,10.3,0,0,1,338.1,90.6Zm9.6-2.2a8.4,8.4,0,0,0,2.8-3.1,10.6,10.6,0,0,0,0-9,7.4,7.4,0,0,0-2.8-3,8.2,8.2,0,0,0-8.2,0,7.4,7.4,0,0,0-2.8,3,10.6,10.6,0,0,0,0,9,8.4,8.4,0,0,0,2.8,3.1,8.9,8.9,0,0,0,8.2,0Z"/><path d="M379.5,69.8V91.9h-2.8V87.8a8,8,0,0,1-3.1,3.2,9.4,9.4,0,0,1-4.5,1.1,8.9,8.9,0,0,1-6.6-2.4c-1.6-1.7-2.4-4-2.4-7.1V69.8H363V82.3a7.6,7.6,0,0,0,1.6,5.3,6.2,6.2,0,0,0,4.8,1.8,6.9,6.9,0,0,0,5.3-2.1,8.5,8.5,0,0,0,1.9-5.9V69.8Z"/><path d="M393.3,70.7a10.6,10.6,0,0,1,5-1.1v2.9h-.7a6.8,6.8,0,0,0-5.3,2.1c-1.3,1.4-1.9,3.4-1.9,6V91.9h-2.9V69.8h2.8v4.3A7.7,7.7,0,0,1,393.3,70.7Z"/><path d="M89.8,122.4c1.6,1.6,2.4,4,2.4,7v12.8H89.3V129.7a7.4,7.4,0,0,0-1.7-5.2,6.1,6.1,0,0,0-4.7-1.8,7,7,0,0,0-5.4,2.1,8,8,0,0,0-2,5.9v11.5H72.6v-22h2.7v4a8.2,8.2,0,0,1,3.3-3.1,10.6,10.6,0,0,1,4.8-1.1A8.6,8.6,0,0,1,89.8,122.4Z"/><path d="M112.8,139.1a7.7,7.7,0,0,0,2.9-2.2l1.6,1.9a8.5,8.5,0,0,1-3.5,2.7,12,12,0,0,1-4.7,1,11.1,11.1,0,0,1-5.8-1.5,11,11,0,0,1-4-4,12.7,12.7,0,0,1,0-11.6,10.2,10.2,0,0,1,3.7-4,10.9,10.9,0,0,1,5.4-1.4,10.3,10.3,0,0,1,5.2,1.3,10.1,10.1,0,0,1,3.6,3.8,10.9,10.9,0,0,1,1.4,5.4l-17.4,3.6a7.8,7.8,0,0,0,2.9,4.2,9.5,9.5,0,0,0,8.7.8Zm-8.3-15.5a7.4,7.4,0,0,0-2.8,3,8.9,8.9,0,0,0-1,4.4v.9l15.1-3a8.3,8.3,0,0,0-2.5-4.6,6.8,6.8,0,0,0-4.9-1.7A7.3,7.3,0,0,0,104.5,123.6Z"/><path d="M157.3,120.2v12.2c0,3.3-.7,5.7-2.2,7.5a8.7,8.7,0,0,1-6.7,2.6,8.6,8.6,0,0,1-4.7-1.2,7.3,7.3,0,0,1-2.9-3.5,6.8,6.8,0,0,1-2.9,3.5,9.7,9.7,0,0,1-11.3-1.4c-1.5-1.8-2.3-4.2-2.3-7.5V120.2h2.9v11.9c0,2.6.5,4.6,1.4,5.8a5.7,5.7,0,0,0,4.6,1.9,5.9,5.9,0,0,0,4.7-1.9c1-1.3,1.5-3.2,1.5-5.9V120.2h2.9V132c0,2.7.5,4.6,1.5,5.9a6.5,6.5,0,0,0,9.2,0c1-1.2,1.5-3.2,1.5-5.8V120.2Z"/><path d="M165.9,141.7a9.9,9.9,0,0,1-3.7-2l1.3-2.3a12.9,12.9,0,0,0,3.3,1.8,15.2,15.2,0,0,0,4.2.6,8.5,8.5,0,0,0,4.4-.9,3.1,3.1,0,0,0,1.4-2.7,2.6,2.6,0,0,0-.8-1.9,5.4,5.4,0,0,0-2-1,14.4,14.4,0,0,0-3.1-.7l-4.1-1a6.4,6.4,0,0,1-2.7-1.8,4.9,4.9,0,0,1-1.1-3.5,5.2,5.2,0,0,1,2.2-4.5,9.5,9.5,0,0,1,6.2-1.8,15.1,15.1,0,0,1,4.1.6,9.7,9.7,0,0,1,3.4,1.4l-1.3,2.4a10.5,10.5,0,0,0-6.2-1.8,7.1,7.1,0,0,0-4.2,1,3,3,0,0,0-1.4,2.6,2.8,2.8,0,0,0,.8,2,4.3,4.3,0,0,0,2,1.1l3.2.8a22.3,22.3,0,0,1,4.1,1,5.6,5.6,0,0,1,2.6,1.7,4.5,4.5,0,0,1,1.1,3.4,5.4,5.4,0,0,1-2.3,4.6,11.2,11.2,0,0,1-6.5,1.7A16.2,16.2,0,0,1,165.9,141.7Z"/><path d="M186.5,140.8a6.4,6.4,0,0,1-1.6-4.7v-25h2.9v24.8a4.5,4.5,0,0,0,.9,3,3.7,3.7,0,0,0,2.7,1,3.8,3.8,0,0,0,1.9-.4l.2,2.5a7.5,7.5,0,0,1-2.6.5A5.7,5.7,0,0,1,186.5,140.8Z"/><path d="M209.8,139.1a7.7,7.7,0,0,0,2.9-2.2l1.6,1.9a8.8,8.8,0,0,1-3.6,2.7,11.5,11.5,0,0,1-4.6,1,11.1,11.1,0,0,1-5.8-1.5,10.3,10.3,0,0,1-4-4,13.1,13.1,0,0,1-.1-11.6,10.4,10.4,0,0,1,3.8-4,10.9,10.9,0,0,1,5.4-1.4,9.7,9.7,0,0,1,5.1,1.3,10.4,10.4,0,0,1,3.7,3.8,10.9,10.9,0,0,1,1.4,5.4l-17.5,3.6a8,8,0,0,0,3,4.2,8.4,8.4,0,0,0,5,1.5A8.7,8.7,0,0,0,209.8,139.1Zm-8.4-15.5a6.6,6.6,0,0,0-2.7,3,8.9,8.9,0,0,0-1,4.4v.9l15-3a7.6,7.6,0,0,0-2.4-4.6,7.2,7.2,0,0,0-4.9-1.7A7.7,7.7,0,0,0,201.4,123.6Z"/><path d="M232,140.9a6.7,6.7,0,0,1-2,1.2,10.1,10.1,0,0,1-2.5.4,6.2,6.2,0,0,1-4.6-1.7,6.5,6.5,0,0,1-1.6-4.8V115.3h2.8v4.9h6.5v2.5h-6.5v13.2a4.5,4.5,0,0,0,1,3,3.7,3.7,0,0,0,2.7,1,4.5,4.5,0,0,0,3.1-1.1Z"/><path d="M247.7,140.9a6.7,6.7,0,0,1-2,1.2,10.1,10.1,0,0,1-2.5.4,6.2,6.2,0,0,1-4.6-1.7A6.5,6.5,0,0,1,237,136V115.3h2.8v4.9h6.5v2.5h-6.5v13.2a4.5,4.5,0,0,0,1,3,3.7,3.7,0,0,0,2.7,1,4.5,4.5,0,0,0,3.1-1.1Z"/><path d="M264.9,139.1a7.4,7.4,0,0,0,2.8-2.2l1.6,1.9a8.5,8.5,0,0,1-3.5,2.7,11.8,11.8,0,0,1-10.5-.5,10,10,0,0,1-3.9-4,11.1,11.1,0,0,1-1.4-5.8,12.1,12.1,0,0,1,1.3-5.8,10.4,10.4,0,0,1,3.8-4,10.9,10.9,0,0,1,5.4-1.4,9.7,9.7,0,0,1,5.1,1.3,10.1,10.1,0,0,1,3.6,3.8,10.9,10.9,0,0,1,1.5,5.4l-17.5,3.6a7.8,7.8,0,0,0,2.9,4.2,8.8,8.8,0,0,0,5.1,1.5A9,9,0,0,0,264.9,139.1Zm-8.4-15.5a7.4,7.4,0,0,0-2.8,3,10.2,10.2,0,0,0-.9,4.4v.9l15-3a7.3,7.3,0,0,0-2.5-4.6,6.7,6.7,0,0,0-4.8-1.7A7.7,7.7,0,0,0,256.5,123.6Z"/><path d="M282.3,121.1a10.9,10.9,0,0,1,5-1.1v2.9h-.7a7,7,0,0,0-5.3,2.2,9,9,0,0,0-1.9,6v11.2h-2.8v-22h2.7v4.3A7.7,7.7,0,0,1,282.3,121.1Z"/><path d="M83.4,212.1a7.3,7.3,0,0,1-2.5,1.3,12.7,12.7,0,0,1-3.4.5,9.7,9.7,0,0,1-3.6-.6,4.9,4.9,0,0,1-2.1-1.6,3.8,3.8,0,0,1-.8-2.3,3.6,3.6,0,0,1,.8-2.3,3.8,3.8,0,0,1,1.9-1.4,4,4,0,0,1-1.5-1.4,4.6,4.6,0,0,1-.5-2.1,3.6,3.6,0,0,1,.7-2.2,4.6,4.6,0,0,1,2-1.5,8.6,8.6,0,0,1,3.4-.6l2.7.3a6.9,6.9,0,0,1,2.3.9l-.6,1.8a8.1,8.1,0,0,0-4.3-1.1,5.1,5.1,0,0,0-3,.7,2.3,2.3,0,0,0-1.1,1.9,2.2,2.2,0,0,0,.8,1.8,3.9,3.9,0,0,0,2.3.6h3.9v1.9h-4a4,4,0,0,0-2.6.7,1.9,1.9,0,0,0-1,1.8,2.3,2.3,0,0,0,1.1,2,5.8,5.8,0,0,0,3.3.7,8.6,8.6,0,0,0,2.8-.4,6.2,6.2,0,0,0,2.3-1.2Z"/><path d="M103.5,203a5.7,5.7,0,0,1,1.2,3.9v6.8h-2v-6.6a4,4,0,0,0-.8-2.6,2.6,2.6,0,0,0-2.2-.8,3.2,3.2,0,0,0-2.5,1,4,4,0,0,0-.9,2.9v6.1H94.2v-6.6a3.5,3.5,0,0,0-.8-2.6,2.5,2.5,0,0,0-2.1-.8,3,3,0,0,0-2.5,1,3.7,3.7,0,0,0-1,2.9v6.1h-2V201.8h2v1.8a3.6,3.6,0,0,1,1.6-1.4,5.6,5.6,0,0,1,2.3-.5,4.8,4.8,0,0,1,2.4.6,4.1,4.1,0,0,1,1.6,1.6,4,4,0,0,1,1.8-1.6,5.3,5.3,0,0,1,2.6-.6A4.9,4.9,0,0,1,103.5,203Z"/><path d="M119.4,201.8v11.9h-2v-1.9a4.3,4.3,0,0,1-1.8,1.5,5.6,5.6,0,0,1-2.3.5,5.1,5.1,0,0,1-5-2.9,6.2,6.2,0,0,1-.8-3.1,6.6,6.6,0,0,1,.8-3.2,5.8,5.8,0,0,1,2-2.1,6.1,6.1,0,0,1,3-.8,5.9,5.9,0,0,1,2.3.5,4.6,4.6,0,0,1,1.7,1.4v-1.8Zm-3.9,9.6a3.2,3.2,0,0,0,1.3-1.5,3.6,3.6,0,0,0,.5-2.1,3.8,3.8,0,0,0-.5-2.2,4.7,4.7,0,0,0-1.3-1.5,4.3,4.3,0,0,0-4,0,5,5,0,0,0-1.4,1.5,4.8,4.8,0,0,0-.5,2.2,4.6,4.6,0,0,0,.5,2.1,3.4,3.4,0,0,0,1.4,1.5,4.3,4.3,0,0,0,4,0Z"/><path d="M123.3,199.2a1.4,1.4,0,0,1,0-2,1.3,1.3,0,0,1,1-.4,1.2,1.2,0,0,1,1,.4,1,1,0,0,1,.4.9,1.2,1.2,0,0,1-.4,1,1.2,1.2,0,0,1-1,.5A1.8,1.8,0,0,1,123.3,199.2Zm0,2.6h2.1v11.9h-2.1Z"/><path d="M130.2,212.9a4,4,0,0,1-.9-2.7V197.1h2.1V210a2.1,2.1,0,0,0,.4,1.5,1.7,1.7,0,0,0,1.3.5l1-.2.2,1.7-1.5.3A3.6,3.6,0,0,1,130.2,212.9Z"/><path d="M153.4,199.7c1.2,1.2,1.7,2.9,1.7,5.2v8.8H153v-4.3h-8.7v4.3h-2.1v-8.8a7.4,7.4,0,0,1,1.7-5.2,6.4,6.4,0,0,1,4.7-1.8A6.3,6.3,0,0,1,153.4,199.7Zm-.4,7.7v-2.7a4.9,4.9,0,0,0-1.2-3.6,4.1,4.1,0,0,0-3.2-1.2,4.4,4.4,0,0,0-3.2,1.2,5.3,5.3,0,0,0-1.1,3.6v2.7Z"/><path d="M170,197.1v16.6h-2v-1.9a3.5,3.5,0,0,1-1.7,1.5,5.9,5.9,0,0,1-2.3.5,5.8,5.8,0,0,1-3-.7,5.6,5.6,0,0,1-2.1-2.2,6.2,6.2,0,0,1-.7-3.1,6.6,6.6,0,0,1,.7-3.2,5.3,5.3,0,0,1,2.1-2.1,5.8,5.8,0,0,1,3-.8,5.4,5.4,0,0,1,2.2.5,3.9,3.9,0,0,1,1.7,1.4v-6.5Zm-3.9,14.3a3.4,3.4,0,0,0,1.4-1.5,4.6,4.6,0,0,0,.5-2.1,4.8,4.8,0,0,0-.5-2.2,5,5,0,0,0-1.4-1.5,4.6,4.6,0,0,0-2-.5,3.8,3.8,0,0,0-1.9.5,4,4,0,0,0-1.4,1.5,3.8,3.8,0,0,0-.5,2.2,3.6,3.6,0,0,0,.5,2.1,2.9,2.9,0,0,0,1.4,1.5,3,3,0,0,0,1.9.5A3.5,3.5,0,0,0,166.1,211.4Z"/><path d="M184.7,197.1v16.6h-2v-1.9a3.5,3.5,0,0,1-1.7,1.5,6,6,0,0,1-2.4.5,5.4,5.4,0,0,1-2.9-.7,5.6,5.6,0,0,1-2.1-2.2,6.2,6.2,0,0,1-.7-3.1,6.6,6.6,0,0,1,.7-3.2,5.3,5.3,0,0,1,2.1-2.1,5.5,5.5,0,0,1,2.9-.8,5.6,5.6,0,0,1,2.3.5,3.9,3.9,0,0,1,1.7,1.4v-6.5Zm-3.9,14.3a3.4,3.4,0,0,0,1.4-1.5,4.6,4.6,0,0,0,.4-2.1,4.8,4.8,0,0,0-.4-2.2,5,5,0,0,0-1.4-1.5,4.3,4.3,0,0,0-4,0,4.7,4.7,0,0,0-1.3,1.5,3.8,3.8,0,0,0-.5,2.2,3.6,3.6,0,0,0,.5,2.1,3.2,3.2,0,0,0,1.3,1.5,4.3,4.3,0,0,0,4,0Z"/><path d="M192.2,202.3a5,5,0,0,1,2.6-.6v2.1h-.5a3.6,3.6,0,0,0-2.7,1,4.5,4.5,0,0,0-.9,3v5.9h-2.1V201.8h2v2A3.3,3.3,0,0,1,192.2,202.3Z"/><path d="M205.6,210.5l1.2,1.4a5.6,5.6,0,0,1-2,1.4,5.1,5.1,0,0,1-2.5.5,5.7,5.7,0,0,1-3.2-.8,5,5,0,0,1-2.2-2.1,6.5,6.5,0,0,1-.8-3.1,6.2,6.2,0,0,1,.8-3.1,5.4,5.4,0,0,1,2-2.2,6.1,6.1,0,0,1,3-.8,5.7,5.7,0,0,1,2.8.8,4.8,4.8,0,0,1,2,2,6.1,6.1,0,0,1,.8,3l-9.1,1.9a4,4,0,0,0,1.5,1.9,4.8,4.8,0,0,0,2.4.6A3.9,3.9,0,0,0,205.6,210.5Zm-5.7-6.4a3.5,3.5,0,0,0-1.3,1.4,4.8,4.8,0,0,0-.5,2.2v.2l7.3-1.5a3.5,3.5,0,0,0-3.5-2.9A3.4,3.4,0,0,0,199.9,204.1Z"/><path d="M211,213.4a5.1,5.1,0,0,1-2.1-1l.9-1.7a5.1,5.1,0,0,0,1.8.9,5.7,5.7,0,0,0,2.2.4c1.8,0,2.7-.6,2.7-1.6a1,1,0,0,0-.4-.9,1.9,1.9,0,0,0-.9-.5l-1.5-.3a10,10,0,0,1-2.3-.5,3.1,3.1,0,0,1-1.5-1,2.7,2.7,0,0,1-.6-1.9,2.9,2.9,0,0,1,1.3-2.6,5.8,5.8,0,0,1,3.5-1,8.3,8.3,0,0,1,2.2.3,6.8,6.8,0,0,1,1.9.8l-.9,1.7a5.8,5.8,0,0,0-3.3-.9,4,4,0,0,0-2,.4,1.5,1.5,0,0,0-.7,1.2,1.3,1.3,0,0,0,.4.9l1,.5,1.6.4a9,9,0,0,1,2.2.5,3.8,3.8,0,0,1,1.5.9,2.9,2.9,0,0,1,.6,1.9,3.3,3.3,0,0,1-1.3,2.6,6.5,6.5,0,0,1-3.7.9A7.5,7.5,0,0,1,211,213.4Z"/><path d="M221.7,213.4a5.4,5.4,0,0,1-2-1l.9-1.7a5.1,5.1,0,0,0,1.8.9,5.7,5.7,0,0,0,2.2.4c1.8,0,2.7-.6,2.7-1.6a1,1,0,0,0-.4-.9,1.9,1.9,0,0,0-.9-.5l-1.5-.3a10,10,0,0,1-2.3-.5,3.1,3.1,0,0,1-1.5-1,2.7,2.7,0,0,1-.6-1.9,2.9,2.9,0,0,1,1.3-2.6,5.7,5.7,0,0,1,3.4-1,8.5,8.5,0,0,1,2.3.3,6.8,6.8,0,0,1,1.9.8l-.9,1.7a5.8,5.8,0,0,0-3.3-.9,3.7,3.7,0,0,0-2,.4,1.5,1.5,0,0,0-.7,1.2,1.3,1.3,0,0,0,.4.9,3.1,3.1,0,0,0,1,.5l1.6.4a10.3,10.3,0,0,1,2.2.5,3.8,3.8,0,0,1,1.5.9,2.9,2.9,0,0,1,.6,1.9,3.1,3.1,0,0,1-1.4,2.6,6,6,0,0,1-3.6.9A8.4,8.4,0,0,1,221.7,213.4Z"/><path d="M428.2,287.5H73.2c-2.1,0-3.8-3.1-3.8-6.9V237c0-3.8,1.7-6.9,3.8-6.9h355c2.1,0,3.8,3.1,3.8,6.9v43.6C432,284.4,430.3,287.5,428.2,287.5Z" style="fill:none;stroke:gray;stroke-miterlimit:10;stroke-width:0.989203740898075px"/><path d="M73.6,375.7a3.6,3.6,0,0,1-3.6-3.6v-45a3.6,3.6,0,0,1,3.6-3.6H293.1a3.6,3.6,0,0,1,3.5,3.6v45a3.6,3.6,0,0,1-3.5,3.6Z" style="fill:#333"/><path d="M293.1,324.1a3,3,0,0,1,3,3v45a3,3,0,0,1-3,3H73.6a2.9,2.9,0,0,1-3-3v-45a2.9,2.9,0,0,1,3-3H293.1m0-1.2H73.6a4.1,4.1,0,0,0-4.1,4.2v45a4.1,4.1,0,0,0,4.1,4.2H293.1a4.1,4.1,0,0,0,4.1-4.2v-45a4.1,4.1,0,0,0-4.1-4.2Z"/><path d="M140,356.3a8.7,8.7,0,0,1-2.7-1.5l.9-1.9a5.7,5.7,0,0,0,2.4,1.4,7.3,7.3,0,0,0,3,.6,5.1,5.1,0,0,0,3-.8,2.1,2.1,0,0,0,1-1.9,2.4,2.4,0,0,0-.5-1.4,4.7,4.7,0,0,0-1.4-.8l-2.3-.7-3-.9a5.2,5.2,0,0,1-1.9-1.4,4.2,4.2,0,0,1-.8-2.6,4.5,4.5,0,0,1,.7-2.5,4.1,4.1,0,0,1,2.1-1.7,8.7,8.7,0,0,1,3.5-.7,13.5,13.5,0,0,1,2.8.4,9,9,0,0,1,2.4,1.1l-.7,2a11.3,11.3,0,0,0-2.2-1.1l-2.3-.3a4.2,4.2,0,0,0-3,.8,2.2,2.2,0,0,0-1,1.9,1.7,1.7,0,0,0,.6,1.4,3,3,0,0,0,1.3.9l2.3.6,3,.9a5.2,5.2,0,0,1,1.9,1.4,3.7,3.7,0,0,1,.8,2.6,4,4,0,0,1-.7,2.4,4.6,4.6,0,0,1-2.1,1.8,9.1,9.1,0,0,1-3.5.6A10.5,10.5,0,0,1,140,356.3Z" style="fill:#f2f2f2"/><path d="M153,340.9a1.8,1.8,0,0,1-.4-1,2.1,2.1,0,0,1,.4-1.1,1.6,1.6,0,0,1,1.1-.5,1.4,1.4,0,0,1,1.1.5,1.4,1.4,0,0,1,.5,1,1.7,1.7,0,0,1-1.6,1.6A1.6,1.6,0,0,1,153,340.9Zm0,3h2.3v12.8H153Z" style="fill:#f2f2f2"/><path d="M171.4,343.9V355c0,2.2-.5,3.9-1.6,5a6.5,6.5,0,0,1-4.8,1.6,12.7,12.7,0,0,1-3.4-.5,6.1,6.1,0,0,1-2.5-1.4l1-1.8a6.6,6.6,0,0,0,2.2,1.2,7.5,7.5,0,0,0,2.6.4,4.2,4.2,0,0,0,3.2-1,4.5,4.5,0,0,0,1.1-3.3v-1a4.8,4.8,0,0,1-2,1.5,7,7,0,0,1-2.5.5,6.6,6.6,0,0,1-3.2-.8,6.1,6.1,0,0,1-2.3-2.2,6.9,6.9,0,0,1-.8-3.2,7,7,0,0,1,.8-3.3,6.1,6.1,0,0,1,2.3-2.2,6.6,6.6,0,0,1,3.2-.8,5.8,5.8,0,0,1,2.6.6,5,5,0,0,1,2,1.5v-1.9Zm-4.3,9.7a3.3,3.3,0,0,0,1.6-1.5,4.6,4.6,0,0,0,.5-2.1,4.1,4.1,0,0,0-1.2-3.1,4.4,4.4,0,0,0-3-1.1,4.5,4.5,0,0,0-3.1,1.1,4.1,4.1,0,0,0-1.2,3.1,4.6,4.6,0,0,0,.5,2.1,3.6,3.6,0,0,0,1.5,1.5,4.4,4.4,0,0,0,2.3.6A3.7,3.7,0,0,0,167.1,353.6Z" style="fill:#f2f2f2"/><path d="M186.1,345.2a5.6,5.6,0,0,1,1.4,4.1v7.4h-2.3v-7.1a4.3,4.3,0,0,0-.8-2.8,3,3,0,0,0-2.5-1,4,4,0,0,0-2.9,1.1,4.6,4.6,0,0,0-1.1,3.2v6.6h-2.2V343.9h2.2v1.9a3.4,3.4,0,0,1,1.8-1.5,5.5,5.5,0,0,1,2.6-.6A4.9,4.9,0,0,1,186.1,345.2Z" style="fill:#f2f2f2"/><path d="M200,355a7.6,7.6,0,0,1-1.9-5.6v-9.7h2.4v9.6c0,3.6,1.5,5.5,4.6,5.5a4.3,4.3,0,0,0,3.4-1.4,6.1,6.1,0,0,0,1.2-4.1v-9.6H212v9.7a8,8,0,0,1-1.8,5.6,7.8,7.8,0,0,1-10.2,0Z" style="fill:#f2f2f2"/><path d="M226.3,344.6a5.4,5.4,0,0,1,2.2,2.3,7,7,0,0,1-2.2,9.2,7,7,0,0,1-3.3.8,5,5,0,0,1-2.4-.6,4.5,4.5,0,0,1-1.9-1.5v6.6h-2.2V343.9h2.1v2a4.8,4.8,0,0,1,1.9-1.6,5.4,5.4,0,0,1,2.5-.6A6,6,0,0,1,226.3,344.6Zm-1.3,9.7a4.6,4.6,0,0,0,1.5-1.6,5.1,5.1,0,0,0,0-4.8,3.8,3.8,0,0,0-3.6-2.1,5.4,5.4,0,0,0-2.2.5,5.7,5.7,0,0,0-1.5,1.6,6,6,0,0,0,0,4.8,4.6,4.6,0,0,0,1.5,1.6,5.4,5.4,0,0,0,2.2.5A4.6,4.6,0,0,0,225,354.3Z" style="fill:#f2f2f2"/><path d="M166.5,451a5.2,5.2,0,0,1-1.8-1.8,5.5,5.5,0,0,1-.7-2.5,5.2,5.2,0,0,1,.7-2.5,3.9,3.9,0,0,1,1.8-1.8,4.5,4.5,0,0,1,2.5-.7,4.1,4.1,0,0,1,2.5.7,4.2,4.2,0,0,1,1.8,1.7,4.5,4.5,0,0,1,.7,2.5,5.6,5.6,0,0,1-.7,2.6,5.2,5.2,0,0,1-6.8,1.8Zm4.7-.5a3.5,3.5,0,0,0,1.6-1.6,4.4,4.4,0,0,0,.6-2.3,5.4,5.4,0,0,0-.5-2.2,4.9,4.9,0,0,0-1.6-1.6,4.4,4.4,0,0,0-2.3-.6,4,4,0,0,0-2.2.6,3.5,3.5,0,0,0-1.6,1.6,4.6,4.6,0,0,0-.6,2.3,4.3,4.3,0,0,0,.6,2.2,3.9,3.9,0,0,0,1.5,1.6,4.6,4.6,0,0,0,2.3.6A4,4,0,0,0,171.2,450.5Zm-3.6-1.3a2.4,2.4,0,0,1-1-1,2.8,2.8,0,0,1-.4-1.5,2.4,2.4,0,0,1,.4-1.5,2.7,2.7,0,0,1,1-1.1,4.2,4.2,0,0,1,1.5-.4,2.8,2.8,0,0,1,1.3.3,3.9,3.9,0,0,1,1,.8l-.6.5a1.6,1.6,0,0,0-.8-.6,1.3,1.3,0,0,0-.9-.2,2,2,0,0,0-1.5.6,2.1,2.1,0,0,0-.6,1.6,2.3,2.3,0,0,0,.6,1.6,2,2,0,0,0,1.5.6l.9-.2.8-.6.6.4a3.9,3.9,0,0,1-1,.8,2.8,2.8,0,0,1-1.3.3A2.8,2.8,0,0,1,167.6,449.2Z"/><path d="M185.8,450.7v.9h-6.9v-.7l4.1-4,1.1-1.3a5,5,0,0,0,.2-1.2,1.6,1.6,0,0,0-.6-1.3,2.6,2.6,0,0,0-1.7-.5,3.7,3.7,0,0,0-2.7,1.1l-.7-.6a4.2,4.2,0,0,1,1.5-1.1,6.4,6.4,0,0,1,2-.3,3.6,3.6,0,0,1,2.4.7,2.2,2.2,0,0,1,.9,1.9,2.8,2.8,0,0,1-.4,1.5,5.1,5.1,0,0,1-1.2,1.6l-3.4,3.3Z"/><path d="M188.9,451.1a4.4,4.4,0,0,1-1.4-1.8,6.7,6.7,0,0,1-.5-2.6,7.2,7.2,0,0,1,.5-2.7,4.7,4.7,0,0,1,1.4-1.7,3.6,3.6,0,0,1,2-.6,3.7,3.7,0,0,1,2.1.6,4.7,4.7,0,0,1,1.4,1.7,7.2,7.2,0,0,1,.5,2.7,6.7,6.7,0,0,1-.5,2.6,4.4,4.4,0,0,1-1.4,1.8,3.7,3.7,0,0,1-2.1.6A3.6,3.6,0,0,1,188.9,451.1Zm3.6-.8a5,5,0,0,0,1-1.4,7.3,7.3,0,0,0,.3-2.2,6.9,6.9,0,0,0-.3-2.2,3.9,3.9,0,0,0-1-1.4,3,3,0,0,0-1.6-.5,3,3,0,0,0-1.5.5,3.9,3.9,0,0,0-1,1.4,6.7,6.7,0,0,0-.4,2.2,7.2,7.2,0,0,0,.4,2.2,5,5,0,0,0,1,1.4,2.8,2.8,0,0,0,1.5.4A2.9,2.9,0,0,0,192.5,450.3Z"/><path d="M203,450.7v.9h-6.9v-.7l4.1-4,1.1-1.3a5,5,0,0,0,.2-1.2,1.6,1.6,0,0,0-.6-1.3,2.6,2.6,0,0,0-1.7-.5,3.7,3.7,0,0,0-2.7,1.1l-.7-.6a4.2,4.2,0,0,1,1.5-1.1,6.4,6.4,0,0,1,2-.3,3.6,3.6,0,0,1,2.4.7,2.2,2.2,0,0,1,.9,1.9,2.8,2.8,0,0,1-.4,1.5,5.1,5.1,0,0,1-1.2,1.6l-3.4,3.3Z"/><path d="M207,441.8v9.8h-1v-8.9h-2.3v-.9Z"/><path d="M209.6,451.4c-.2-.1-.2-.3-.2-.5a.7.7,0,0,1,.2-.6l.5-.2.5.2a.9.9,0,0,1,.3.6.7.7,0,0,1-1.3.5Z"/><path d="M223.8,450.7v.9h-6.9v-9.8h6.7v.9h-5.7v3.4H223v.9h-5.1v3.7Z"/><path d="M237.5,444.9a3.6,3.6,0,0,1,.8,2.4v4.3h-1v-4.2a2.4,2.4,0,0,0-.6-1.8,1.9,1.9,0,0,0-1.5-.6,2.9,2.9,0,0,0-1.9.7,3.2,3.2,0,0,0-.6,2v3.9h-1v-4.2a2.4,2.4,0,0,0-.6-1.8,2,2,0,0,0-1.6-.6,2.9,2.9,0,0,0-1.8.7,3.2,3.2,0,0,0-.6,2v3.9h-1v-7.4h.9v1.3a3.5,3.5,0,0,1,1.1-1,4.2,4.2,0,0,1,1.6-.4,4.3,4.3,0,0,1,1.7.4,4,4,0,0,1,1,1.2,2,2,0,0,1,1.1-1.1,3.7,3.7,0,0,1,1.8-.5A3.3,3.3,0,0,1,237.5,444.9Z"/><path d="M245.8,444.9a2.7,2.7,0,0,1,.8,2.1v4.6h-1v-1.2a1.8,1.8,0,0,1-1,.9,2.4,2.4,0,0,1-1.5.4,3,3,0,0,1-2-.6,1.9,1.9,0,0,1-.7-1.6,2,2,0,0,1,.6-1.5,3.4,3.4,0,0,1,2.2-.6h2.4V447a1.8,1.8,0,0,0-.6-1.5,2.1,2.1,0,0,0-1.5-.5l-1.4.2a4.1,4.1,0,0,0-1.1.7l-.4-.8a4,4,0,0,1,1.3-.7,4.7,4.7,0,0,1,1.7-.3A3.1,3.1,0,0,1,245.8,444.9Zm-1.1,5.6a2.4,2.4,0,0,0,.9-1.1v-1.2h-2.4c-1.2,0-1.8.4-1.8,1.3a1.3,1.3,0,0,0,.4,1,2.9,2.9,0,0,0,1.4.4A3.3,3.3,0,0,0,244.7,450.5Z"/><path d="M249.3,442.4a.6.6,0,0,1-.2-.5c0-.2,0-.4.2-.5s.3-.2.5-.2.4,0,.5.2a.8.8,0,0,1,.2.4,1.1,1.1,0,0,1-.2.6l-.5.2Zm0,1.8h1v7.4h-1Z"/><path d="M253.1,441.2h1v10.4h-1Z"/><path d="M269.5,451.6v-6.5l-3.3,5.4h-.8l-3.2-5.3v6.4h-1.8v-9.8H262l3.9,6.5,3.8-6.5h1.5v9.8Z"/><path d="M279.1,444.8a3,3,0,0,1,.9,2.4v4.4h-1.7v-.9a1.6,1.6,0,0,1-.9.7,3.2,3.2,0,0,1-1.4.3,3.3,3.3,0,0,1-1.5-.3,2.7,2.7,0,0,1-1-.8,2.1,2.1,0,0,1-.3-1.2,2,2,0,0,1,.7-1.6,3.8,3.8,0,0,1,2.4-.6h1.9a1.6,1.6,0,0,0-.4-1.2,2.1,2.1,0,0,0-1.4-.4,2.7,2.7,0,0,0-1.3.2l-1,.5-.7-1.3,1.4-.7,1.8-.2A3.7,3.7,0,0,1,279.1,444.8Zm-1.6,5.3a1.6,1.6,0,0,0,.7-.9v-.8h-1.8c-1,0-1.5.3-1.5,1a.8.8,0,0,0,.4.7,1.5,1.5,0,0,0,1,.3A2.1,2.1,0,0,0,277.5,450.1Z"/><path d="M286.6,444v1.7h-.4a2,2,0,0,0-1.6.6,2.4,2.4,0,0,0-.6,1.7v3.7h-1.8v-7.5h1.7v1.1A2.9,2.9,0,0,1,286.6,444Z"/><path d="M291.1,448.4l-1.3,1.2v2h-1.7V441.2h1.7v6.3l3.7-3.4h2.1l-3.2,3.1,3.5,4.4h-2.2Z"/><path d="M303.7,448.4h-5.9a2,2,0,0,0,.8,1.3,3.1,3.1,0,0,0,1.7.5,2.8,2.8,0,0,0,2-.8l.9,1.1a2.7,2.7,0,0,1-1.2.9,5.2,5.2,0,0,1-1.8.3,5.4,5.4,0,0,1-2.2-.5,3.2,3.2,0,0,1-1.4-1.4,3.3,3.3,0,0,1-.5-2,3,3,0,0,1,.5-1.9,3.2,3.2,0,0,1,1.4-1.4,3.8,3.8,0,0,1,1.9-.5,4.2,4.2,0,0,1,2,.5,4.4,4.4,0,0,1,1.4,1.3,4.6,4.6,0,0,1,.4,2.1Zm-5.2-2.5a2.1,2.1,0,0,0-.7,1.3h4.3a2.1,2.1,0,0,0-.7-1.3,2.5,2.5,0,0,0-1.5-.5A2.4,2.4,0,0,0,298.5,445.9Z"/><path d="M309.9,451.2l-.7.4h-.9a2.6,2.6,0,0,1-2-.7,2.4,2.4,0,0,1-.6-1.8v-3.7h-1.3v-1.4h1.3v-1.7h1.7v1.7h2v1.4h-2v3.6a1.2,1.2,0,0,0,.3.9l.8.2a1.2,1.2,0,0,0,.9-.3Z"/><path d="M311.5,442.5a1,1,0,0,1-.4-.7,1.2,1.2,0,0,1,.4-.8,1.1,1.1,0,0,1,1.9.8.9.9,0,0,1-.3.7,1.2,1.2,0,0,1-1.6,0Zm-.1,1.6h1.7v7.5h-1.7Z"/><path d="M322,444.8a3.3,3.3,0,0,1,.8,2.5v4.3h-1.7v-4.1a2.5,2.5,0,0,0-.5-1.5,1.7,1.7,0,0,0-1.3-.5,1.9,1.9,0,0,0-1.5.6,2.4,2.4,0,0,0-.6,1.7v3.8h-1.8v-7.5h1.7v1a2.1,2.1,0,0,1,1.1-.8,4,4,0,0,1,1.5-.3A3.4,3.4,0,0,1,322,444.8Z"/><path d="M332.6,444.1v6.3c0,2.7-1.4,4-4.1,4a6.4,6.4,0,0,1-2-.3,2.7,2.7,0,0,1-1.6-.8l.8-1.3a3.5,3.5,0,0,0,1.2.7l1.5.2a3.1,3.1,0,0,0,1.9-.5,3,3,0,0,0,.5-1.8v-.3a3,3,0,0,1-1.1.7,3.2,3.2,0,0,1-1.4.2,4.1,4.1,0,0,1-1.9-.4,3.5,3.5,0,0,1-1.4-1.3,3.8,3.8,0,0,1-.5-1.9,4.1,4.1,0,0,1,.5-1.9,4.4,4.4,0,0,1,1.4-1.3,4.1,4.1,0,0,1,1.9-.4,3.3,3.3,0,0,1,1.5.3,2.1,2.1,0,0,1,1.1.8v-1Zm-2.4,5.1a2,2,0,0,0,.7-1.6,1.8,1.8,0,0,0-.7-1.5,2.1,2.1,0,0,0-1.6-.6,2.5,2.5,0,0,0-1.7.6,2,2,0,0,0-.6,1.5,2.3,2.3,0,0,0,.6,1.6,2.5,2.5,0,0,0,1.7.6A2.1,2.1,0,0,0,330.2,449.2Z"/></g></g></svg>