<svg xmlns="http://www.w3.org/2000/svg" viewBox="0 0 109.3 94.4"><g id="Layer_2" data-name="Layer 2"><g id="Layer_1-2" data-name="Layer 1"><g id="Layer_2-2" data-name="Layer 2"><g id="Layer_1-2-2" data-name="Layer 1-2"><g id="Layer_2-2-2" data-name="Layer 2-2"><g id="Layer_1-2-2-2" data-name="Layer 1-2-2"><path d="M62.2,94.4a45.3,45.3,0,0,1-5.2-.3,48.1,48.1,0,0,1-18.1-5.8,3.5,3.5,0,0,1-1.3-4.8h0A3.2,3.2,0,0,1,42,82.1h.3A40.2,40.2,0,1,0,22.2,42.8a3.6,3.6,0,0,1-3.9,3.1A3.5,3.5,0,0,1,15.2,42h0a47.2,47.2,0,1,1,47,52.4Z" style="fill:#333"/><polygon points="38.6 33.3 24.8 69.9 0 39.7 38.6 33.3" style="fill:#333"/><path d="M84.2,63.8a3.3,3.3,0,0,1-1.7-.4L60.4,51.2a3.5,3.5,0,0,1-1.8-3.1V29a3.5,3.5,0,1,1,7,0V46.1L85.9,57.3A3.5,3.5,0,0,1,87.3,62,3.5,3.5,0,0,1,84.2,63.8Z" style="fill:#333"/></g></g></g></g></g></g></svg>