<svg xmlns="http://www.w3.org/2000/svg" viewBox="0 0 92.6 105.4"><g id="Layer_2" data-name="Layer 2"><g id="Layer_1-2" data-name="Layer 1"><g id="Layer_2-2" data-name="Layer 2"><g id="Layer_1-2-2" data-name="Layer 1-2"><path d="M16.8,71.1a3.5,3.5,0,0,1-1.9-.6C6.9,65.4,1.5,57.8.3,49.7c-.9-5.8.3-11.1,3.5-15,4.5-5.4,11.1-6.9,16.4-7.1-.9-4.5-1.1-10.7,2.5-16.4S31.8,2.1,38.7.6s15.4-.1,21,3.9a24.3,24.3,0,0,1,8.9,13,17.3,17.3,0,0,1,15-1.1,17.1,17.1,0,0,1,8.2,7.5,3.5,3.5,0,1,1-6.2,3.2A9.6,9.6,0,0,0,81,22.8c-3.8-1.5-8.8-.2-12.3,3.2a3.4,3.4,0,0,1-3.7.8,3.3,3.3,0,0,1-2.2-3.1c-.1-.9-.7-9.1-7.1-13.7A21.8,21.8,0,0,0,40,7.6,17.1,17.1,0,0,0,28.5,15c-3.7,5.9-1.3,13.1-.4,15.2a3.5,3.5,0,0,1-.4,3.4A3.4,3.4,0,0,1,24.6,35h-.3c-3.2-.3-11-.6-15.1,4.4-1.9,2.3-2.6,5.7-2,9.4,1,6.1,5.2,11.9,11.5,16a3.5,3.5,0,0,1,1.1,4.8A3.8,3.8,0,0,1,16.8,71.1Z" style="fill:#f2f2f2"/><path d="M60,52A12.2,12.2,0,1,1,47.9,73.1a12.2,12.2,0,0,1,4.6-22.7,1.6,1.6,0,0,1,1.7,1.3,1.7,1.7,0,0,1-1.3,1.8,8.7,8.7,0,0,0-7.1,5,9.1,9.1,0,1,0,16.4,8A9,9,0,0,0,58,54.4a1.4,1.4,0,0,1-.9-1.7,1.9,1.9,0,0,1-.2-.7V26.4H51V36.8l-1.3.3a25.5,25.5,0,0,0-16.2,9.7l-.8,1.1-9.6-5.5-3,5.1,9.8,5.7-.4,1.2a26.6,26.6,0,0,0-1.2,7.9,25.7,25.7,0,0,0,2,9.9l.5,1.3L20.1,79.6l3,5.2L34,78.5l.9.9a25.1,25.1,0,0,0,14.8,8.1l1.3.2v13.1h5.9V87.7l1.3-.2A25.4,25.4,0,0,0,73,79.4l.9-.9,10.9,6.3,3-5.2L77.1,73.5l.5-1.3a25.7,25.7,0,0,0,2-9.9,26.6,26.6,0,0,0-1.2-7.9L78,53.2l9.8-5.7-3-5.1-9.6,5.5-.8-1.1a25.9,25.9,0,0,0-9.7-7.7,1.5,1.5,0,0,1-.8-2A.1.1,0,0,1,64,37a1.4,1.4,0,0,1,1.8-.8H66a26.7,26.7,0,0,1,10,7.6l7.9-4.6a2.4,2.4,0,0,1,3.2.9l3.7,6.5a2.2,2.2,0,0,1-.7,3H90l-8.3,4.8a28.6,28.6,0,0,1,1,7.7A29.7,29.7,0,0,1,81,72.1l9,5.2a2.2,2.2,0,0,1,.8,3.1h0L87.1,87a2.2,2.2,0,0,1-3.1.8h-.1l-9.4-5.4A29.2,29.2,0,0,1,60,90.3v11.3a2.3,2.3,0,0,1-2.3,2.3H50.2a2.3,2.3,0,0,1-2.3-2.3h0V90.3a29.2,29.2,0,0,1-14.5-7.9L24,87.8a2.4,2.4,0,0,1-3.2-.7h0L17,80.5a2.4,2.4,0,0,1,.9-3.2l9-5.2a29.7,29.7,0,0,1-1.7-9.8,28.6,28.6,0,0,1,1-7.7l-8.3-4.8a2.3,2.3,0,0,1-.9-3.1l3.8-6.5a2.4,2.4,0,0,1,3.2-.9l7.9,4.6a28.3,28.3,0,0,1,16-9.6V25.6a2.3,2.3,0,0,1,2.3-2.3h7.5A2.3,2.3,0,0,1,60,25.6h0Z" style="fill:#f2f2f2"/><path d="M57.7,105.4H50.2a3.8,3.8,0,0,1-3.8-3.8V91.5a30.5,30.5,0,0,1-13.2-7.2l-8.4,4.8a3.8,3.8,0,0,1-5.2-1.3h-.1l-3.8-6.5A3.8,3.8,0,0,1,17.1,76l8-4.6a31.4,31.4,0,0,1-1.4-9.1,27.9,27.9,0,0,1,.8-7l-7.3-4.2A3.8,3.8,0,0,1,15.7,46l3.8-6.5A3.9,3.9,0,0,1,24.7,38l6.9,4a30.5,30.5,0,0,1,14.8-8.9V25.6a3.8,3.8,0,0,1,3.8-3.8h7.5a3.8,3.8,0,0,1,3.8,3.8V51.2a13.9,13.9,0,1,1-9.2-2.1,3.3,3.3,0,0,1,3.1,1.7V27.9H52.5V38l-2.6.6a23.7,23.7,0,0,0-15.2,9.1l-1.6,2.2-9.5-5.5-1.5,2.5,9.6,5.6-.8,2.4a23.3,23.3,0,0,0-1.1,7.4,22.8,22.8,0,0,0,1.9,9.3l1,2.5-10.5,6,1.5,2.6,10.6-6.1L36,78.3A24.2,24.2,0,0,0,50,86l2.6.4V99.3h2.9V86.4l2.6-.4A24,24,0,0,0,72,78.4l1.8-1.8,10.6,6.1,1.5-2.6-10.5-6,1-2.5a23.2,23.2,0,0,0,1.9-9.4,26.5,26.5,0,0,0-1.1-7.4l-.8-2.3L86,46.9l-1.7-2.5-9.5,5.5-1.6-2.2a23.7,23.7,0,0,0-9.1-7.2,3,3,0,0,1-1.6-1.7,2.7,2.7,0,0,1,.1-2.3.3.3,0,0,1,.1-.2,2.8,2.8,0,0,1,1.5-1.5,2.8,2.8,0,0,1,2.2,0h.3a28,28,0,0,1,9.7,7l6.8-4a3.8,3.8,0,0,1,5.2,1.4l3.7,6.5a3.2,3.2,0,0,1,.4,2.7,3.5,3.5,0,0,1-1.6,2.3h-.2l-7.3,4.2a32.7,32.7,0,0,1,.8,7,30.9,30.9,0,0,1-1.4,9.1l7.9,4.6a3.8,3.8,0,0,1,1.8,2.3,3.7,3.7,0,0,1-.4,2.9H92l-3.7,6.4A3.8,3.8,0,0,1,86,89.3a3.7,3.7,0,0,1-2.9-.4L74.6,84a29.5,29.5,0,0,1-13.2,7.2v10.1A3.7,3.7,0,0,1,57.7,105.4Zm-7.9-3.1h0ZM58.4,89v13c.1-.1.1-.2.1-.4V89.1l1.2-.3a27.6,27.6,0,0,0,13.8-7.5l.8-.8,10.4,6H85L74.1,80.4H74A26.3,26.3,0,0,1,58.4,89ZM33.6,80.5l.8.8a27.2,27.2,0,0,0,13.8,7.5l1.2.3v12.5a.6.6,0,0,0,.1.4V89a26.4,26.4,0,0,1-15.7-8.6h0L23,86.7h.3Zm56-1.1-4.1,7.1.3-.3,3.7-6.5A.4.4,0,0,0,89.6,79.4Zm-71.4-.1a.9.9,0,0,0,.1.5l3.8,6.5.3.3Zm.1-31.1.3.3,9.3,5.4L27.6,55a25.6,25.6,0,0,0-.9,7.3,26.8,26.8,0,0,0,1.6,9.3l.4,1.2L18.6,78.6l-.3.3,10.6-6h0a27.5,27.5,0,0,1-.8-18.9h0ZM79,72.8l10.6,6-.3-.3L79.2,72.7l.4-1.2a26.8,26.8,0,0,0,1.6-9.3,29.8,29.8,0,0,0-.9-7.3L80,53.8l9.3-5.4.3-.3-9.8,5.8h0a26.3,26.3,0,0,1,1.3,8.4A27.3,27.3,0,0,1,79,72.8ZM52.6,52h0a10.5,10.5,0,0,0-8.3,5.9,10.7,10.7,0,1,0,14.9-4.6l-.7-.4h.1a10.7,10.7,0,0,1,4.9,14.1,10.5,10.5,0,0,1-6.1,5.4,10.4,10.4,0,0,1-8.1-.5,10.5,10.5,0,0,1-5.4-6.1,10.4,10.4,0,0,1,.5-8.1A10.1,10.1,0,0,1,52.6,52Zm3,.9A2.9,2.9,0,0,1,53.2,55h-.1a7.3,7.3,0,0,0-5.9,4.1,7.8,7.8,0,0,0-.4,5.8,6.9,6.9,0,0,0,3.9,4.3,7.8,7.8,0,0,0,10.2-3.5,7.5,7.5,0,0,0-3.5-10.1A2.5,2.5,0,0,1,55.6,52.9Zm2.8-1h.1V25.6a.6.6,0,0,0-.1-.4Zm-36-11.2-.3.3-3.8,6.5c0,.1-.1.2-.1.3Zm63.1,0,3.7,6.4-3.4-6.2Zm-20.1-3h0a28.1,28.1,0,0,1,10.2,8.2h0l9.5-5.4h-.5l-9,5.2-.8-1a25.5,25.5,0,0,0-9.4-7.1ZM22.8,40.5l9.5,5.4h0A26.9,26.9,0,0,1,49.4,35.6h.1V25.2c-.1.1-.1.2-.1.4v9.9l-1.2.2A27.3,27.3,0,0,0,33,44.8l-.8,1-9-5.2Zm27-15.6h0Z" style="fill:#f2f2f2"/></g></g><path d="M58.4,54.9a2.9,2.9,0,0,1-3-3V28.3l-3.2.2v2a3,3,0,1,1-6-.4l.3-4.7a3,3,0,0,1,2.8-2.8l9-.4a3.3,3.3,0,0,1,2.2.8,3.2,3.2,0,0,1,1,2.2V51.9A3,3,0,0,1,58.4,54.9Z" style="fill:#fd0"/></g></g></svg>