<svg xmlns="http://www.w3.org/2000/svg" viewBox="0 0 86.4 86.6"><g id="Layer_2" data-name="Layer 2"><g id="Layer_1-2" data-name="Layer 1"><g id="Layer_2-2" data-name="Layer 2"><g id="Layer_1-2-2" data-name="Layer 1-2"><path d="M38.4,57.1a3.2,3.2,0,0,1-2.3-.8L21.7,43.8a3.5,3.5,0,1,1,4.6-5.3L38.4,49,60.1,30.5a3.4,3.4,0,0,1,4.9.4,3.5,3.5,0,0,1-.3,4.9l-24,20.5A3.4,3.4,0,0,1,38.4,57.1Z" style="fill:aqua"/><path d="M43.2,86.6H42.1A42.6,42.6,0,0,1,11.9,73.1a43,43,0,0,1,1.6-61,43,43,0,0,1,61,1.6,43,43,0,0,1-1.6,61A42.8,42.8,0,0,1,43.2,86.6Zm0-79.4A36.2,36.2,0,0,0,7,42.4H7A36.2,36.2,0,0,0,42.3,79.6,36.2,36.2,0,0,0,69.5,18.5,36.5,36.5,0,0,0,44.1,7.2ZM3.5,42.3Z" style="fill:#f2f2f2"/><path d="M8.7,27.2a3.2,3.2,0,0,1-1.9-.5A14.5,14.5,0,0,1,11.6.3,14.4,14.4,0,0,1,26.3,5.9a3.6,3.6,0,0,1-.7,4.9,3.5,3.5,0,0,1-4.9-.8,8.6,8.6,0,0,0-2-1.8A7.5,7.5,0,0,0,8.4,10.4a7.5,7.5,0,0,0,2.2,10.4,3.4,3.4,0,0,1,1,4.8A3.3,3.3,0,0,1,8.7,27.2Z" style="fill:#f2f2f2"/><path d="M77.7,27.2a3.3,3.3,0,0,1-2.9-1.5,3.5,3.5,0,0,1,1-4.9,7.4,7.4,0,0,0,3.3-6.3,7.8,7.8,0,0,0-2.3-5.2,7.4,7.4,0,0,0-5.3-2.1,8.2,8.2,0,0,0-6,2.9,3.5,3.5,0,1,1-5.4-4.4A15.1,15.1,0,0,1,71.5.2,14.5,14.5,0,0,1,86.1,14.4a14.4,14.4,0,0,1-6.5,12.3A3.4,3.4,0,0,1,77.7,27.2Z" style="fill:#f2f2f2"/></g></g></g></g></svg>