<svg xmlns="http://www.w3.org/2000/svg" viewBox="0 0 88.2 71.4"><g id="Layer_2" data-name="Layer 2"><g id="Layer_1-2" data-name="Layer 1"><g id="Layer_2-2" data-name="Layer 2"><g id="Layer_1-2-2" data-name="Layer 1-2"><rect x="18.4" y="47.9" width="52.5" height="10.1" style="fill:#f2f2f2"/><rect x="18.4" y="30.7" width="52.5" height="10.1" style="fill:#ffbfbf"/><path d="M71.3,71.4h0l-53.6-.5a2.8,2.8,0,0,1-1.7-.7,2.2,2.2,0,0,1-.7-1.7l.9-38-4.4,2.7a2.2,2.2,0,0,1-1.9.3,2.6,2.6,0,0,1-1.5-1.2C5.7,26.8,3,21.3.2,15.8a2.4,2.4,0,0,1,.3-2.6A39.6,39.6,0,0,1,16.8,1.8C21.5.2,24.5.3,30.4.5L42.6.7C48.8.6,53,.4,56.1.2c5.3-.3,8-.5,12.5.8a42.7,42.7,0,0,1,19,11.9,2.5,2.5,0,0,1,.4,2.6L80.6,31.9A2.3,2.3,0,0,1,77.3,33l-4.7-2.7L73.7,69a2.2,2.2,0,0,1-.7,1.7A2.4,2.4,0,0,1,71.3,71.4ZM20.1,66.1l48.7.5L67.6,26.1A2.2,2.2,0,0,1,68.8,24a2.3,2.3,0,0,1,2.4,0l6.1,3.5L83,14.9A37.8,37.8,0,0,0,67.3,5.5c-3.7-1-5.8-.9-10.9-.6-3.1.2-7.4.4-13.7.5L30.3,5.2c-5.8-.2-8-.3-11.8,1.1A34.8,34.8,0,0,0,5.2,15.1l6.3,12.7,5.9-3.7a2.1,2.1,0,0,1,2.4,0A2.4,2.4,0,0,1,21,26.2Z" style="fill:#f2f2f2"/><path d="M44.4,17.9c-3.5,0-6.9-1.6-10-4.8a16.7,16.7,0,0,1-4.5-10,2.4,2.4,0,1,1,4.7-.5,12.5,12.5,0,0,0,3.2,7.1c.9.9,3.5,3.6,7,3.3s6.4-3.9,7.5-6.1A16.6,16.6,0,0,0,53.9,2a2.4,2.4,0,0,1,4.7.7A18,18,0,0,1,56.5,9c-2.7,5.3-6.8,8.4-11.4,8.7A.8.8,0,0,1,44.4,17.9Z" style="fill:#f2f2f2"/></g></g></g></g></svg>