<svg xmlns="http://www.w3.org/2000/svg" viewBox="0 0 94.4 85.6"><defs><style>.cls-1{fill:#93c2a0;}.cls-2{fill:#f2f2f2;}</style></defs><g id="Layer_2" data-name="Layer 2"><g id="Layer_1-2" data-name="Layer 1"><g id="Layer_2-2" data-name="Layer 2"><g id="Layer_1-2-2" data-name="Layer 1-2"><path class="cls-1" d="M37,58.5H55.1a4.23,4.23,0,0,1,4.2,4.2V78a4.23,4.23,0,0,1-4.2,4.2H37A4.23,4.23,0,0,1,32.8,78V62.7A4.23,4.23,0,0,1,37,58.5Z"/><path class="cls-2" d="M94.4,32.8a17.74,17.74,0,0,0-.9-5.6h0c0-.3,0-.3-.3-.6l-8-19.8A10.37,10.37,0,0,0,75.2,0h-56c-4.7,0-8.3,2.4-9.7,6.5L.9,26.8v.6A19.64,19.64,0,0,0,0,33.3,18,18,0,0,0,5.9,46.9V76.7a9,9,0,0,0,8.9,8.9h64a9,9,0,0,0,8.9-8.9V48.1c4-4.4,6.7-9.7,6.7-15.3ZM78.8,77.9h-64A1.83,1.83,0,0,1,13,76.3V50.5a21.63,21.63,0,0,0,6.2.9,17.57,17.57,0,0,0,14.2-6.8,18.35,18.35,0,0,0,14.2,6.5,17.57,17.57,0,0,0,14.2-6.8,19.6,19.6,0,0,0,14.5,6.8,18.35,18.35,0,0,0,4.7-.6V75.9a2.82,2.82,0,0,1-2.2,2Zm2.6-34.8a10.91,10.91,0,0,1-5.6,1.2,11.62,11.62,0,0,1-10-5.6c-.3-.3-.3-.9-.9-1.5a4.41,4.41,0,0,0-3.2-1.5,3.56,3.56,0,0,0-3.2,1.5,3.77,3.77,0,0,0-.9,1.5,11.84,11.84,0,0,1-16.2,3.9,12.11,12.11,0,0,1-3.9-3.9c-.3-.3-.3-.9-.9-1.2-1.5-1.8-5.3-1.8-6.5,0a2.9,2.9,0,0,0-.9,1.5,11.4,11.4,0,0,1-10,5.6,10.91,10.91,0,0,1-5.6-1.2h0A12,12,0,0,1,7.4,32.8,12.09,12.09,0,0,1,8,29v-.3L16.5,8.6c.3-.6.6-2.1,3.2-2.1H75.8a3.3,3.3,0,0,1,3.5,2.1l8,19.8v.3a25,25,0,0,1,.6,3.8,12.56,12.56,0,0,1-6.5,10.6Z"/><path class="cls-2" d="M67.1,27.3H26.7a4,4,0,0,1,0-8H67.1a4,4,0,0,1,0,8Z"/></g></g></g></g></svg>